<svg xmlns="http://www.w3.org/2000/svg" width="800" height="800"><g class="container" transform="translate(150,60)"><line class="zero-line" x1="0" x2="610" y1="597.6666666666666" y2="597.6666666666666" stroke="black" stroke-width="1"/><g><rect class="train-bar" x="19.67741935483872" y="320.47993736052314" width="23.022580645161288" height="277.1867293061435" fill="none" stroke="#AAAAAA" stroke-width="5"/><rect class="train-bar" x="79.89032258064516" y="260.7187855482501" width="23.022580645161288" height="336.94788111841655" fill="none" stroke="#4cb6da" stroke-width="5"/><rect class="train-bar" x="140.1032258064516" y="237.83611300094202" width="23.022580645161288" height="359.8305536657246" fill="none" stroke="#FF7F00" stroke-width="5"/><rect class="test-r2" x="47.127419354838715" y="402.0531098045891" width="23.022580645161288" height="195.61355686207753" fill="#606060" stroke="#606060" stroke-width="5"/><rect class="test-r2" x="107.34032258064515" y="392.5020584708523" width="23.022580645161288" height="205.1646081958143" fill="#4098b5" stroke="#4098b5" stroke-width="5"/><rect class="test-r2" x="167.55322580645162" y="419.688443696636" width="23.022580645161288" height="177.97822297003063" fill="#FF6F00" stroke="#FF6F00" stroke-width="5"/><rect class="train-se" x="31.18870967741936" y="316.2793225874496" width="5" height="8.802459092294157" fill="black"/><rect class="train-se" x="91.40161290322581" y="256.48340487068083" width="5" height="8.941522710277013" fill="black"/><rect class="train-se" x="151.61451612903224" y="233.26879805080267" width="5" height="10.269259800557393" fill="black"/><line class="error-cap" x1="26.18870967741936" y1="316.2793225874496" x2="40.18870967741936" y2="316.2793225874496" stroke="black"/><line class="error-cap" x1="26.18870967741936" y1="325.08178167974376" x2="40.18870967741936" y2="325.08178167974376" stroke="black"/><line class="error-cap" x1="86.40161290322581" y1="256.48340487068083" x2="100.40161290322581" y2="256.48340487068083" stroke="black"/><line class="error-cap" x1="86.40161290322581" y1="265.42492758095784" x2="100.40161290322581" y2="265.42492758095784" stroke="black"/><line class="error-cap" x1="146.61451612903224" y1="233.26879805080267" x2="160.61451612903224" y2="233.26879805080267" stroke="black"/><line class="error-cap" x1="146.61451612903224" y1="243.53805785136007" x2="160.61451612903224" y2="243.53805785136007" stroke="black"/><rect class="test-se" x="58.63870967741936" y="395.4465076861722" width="5" height="18.426408473667607" fill="black"/><rect class="test-se" x="118.8516129032258" y="384.5972818396031" width="5" height="23.619106524996823" fill="black"/><rect class="test-se" x="179.06451612903226" y="410.4744848055101" width="5" height="28.85583556450365" fill="black"/><line class="error-cap" x1="53.63870967741936" y1="395.4465076861722" x2="67.63870967741936" y2="395.4465076861722" stroke="black"/><line class="error-cap" x1="53.63870967741936" y1="413.8729161598398" x2="67.63870967741936" y2="413.8729161598398" stroke="black"/><line class="error-cap" x1="113.8516129032258" y1="384.5972818396031" x2="127.8516129032258" y2="384.5972818396031" stroke="black"/><line class="error-cap" x1="113.8516129032258" y1="408.21638836459994" x2="127.8516129032258" y2="408.21638836459994" stroke="black"/><line class="error-cap" x1="174.06451612903226" y1="410.4744848055101" x2="188.06451612903226" y2="410.4744848055101" stroke="black"/><line class="error-cap" x1="174.06451612903226" y1="439.33032037001374" x2="188.06451612903226" y2="439.33032037001374" stroke="black"/></g><g><rect class="train-bar" x="216.45161290322582" y="319.3422729865413" width="23.022580645161288" height="278.32439368012535" fill="none" stroke="#AAAAAA" stroke-width="5"/><rect class="train-bar" x="276.6645161290323" y="261.1505345120826" width="23.022580645161288" height="336.51613215458406" fill="none" stroke="#4cb6da" stroke-width="5"/><rect class="train-bar" x="336.8774193548387" y="266.0479292836897" width="23.022580645161288" height="331.6187373829769" fill="none" stroke="#FF7F00" stroke-width="5"/><rect class="test-r2" x="243.90161290322584" y="384.2822199923256" width="23.022580645161288" height="213.384446674341" fill="#606060" stroke="#606060" stroke-width="5"/><rect class="test-r2" x="304.11451612903227" y="368.6171768788304" width="23.022580645161288" height="229.04948978783625" fill="#4098b5" stroke="#4098b5" stroke-width="5"/><rect class="test-r2" x="364.3274193548387" y="355.4747530965848" width="23.022580645161288" height="242.19191357008185" fill="#FF6F00" stroke="#FF6F00" stroke-width="5"/><rect class="train-se" x="227.96290322580646" y="314.4166291760273" width="5" height="11.7025752420559" fill="black"/><rect class="train-se" x="288.1758064516129" y="257.0630424924344" width="5" height="8.34996807859261" fill="black"/><rect class="train-se" x="348.38870967741934" y="261.4007317702836" width="5" height="10.588790053624507" fill="black"/><line class="error-cap" x1="222.96290322580646" y1="314.4166291760273" x2="236.96290322580646" y2="314.4166291760273" stroke="black"/><line class="error-cap" x1="222.96290322580646" y1="326.1192044180832" x2="236.96290322580646" y2="326.1192044180832" stroke="black"/><line class="error-cap" x1="283.1758064516129" y1="257.0630424924344" x2="297.1758064516129" y2="257.0630424924344" stroke="black"/><line class="error-cap" x1="283.1758064516129" y1="265.41301057102703" x2="297.1758064516129" y2="265.41301057102703" stroke="black"/><line class="error-cap" x1="343.38870967741934" y1="261.4007317702836" x2="357.38870967741934" y2="261.4007317702836" stroke="black"/><line class="error-cap" x1="343.38870967741934" y1="271.9895218239081" x2="357.38870967741934" y2="271.9895218239081" stroke="black"/><rect class="test-se" x="255.41290322580647" y="377.14747425080526" width="5" height="20.53898296608145" fill="black"/><rect class="test-se" x="315.6258064516129" y="361.5428215900793" width="5" height="20.29742115500426" fill="black"/><rect class="test-se" x="375.83870967741933" y="348.13119914909225" width="5" height="21.374215789970094" fill="black"/><line class="error-cap" x1="250.41290322580647" y1="377.14747425080526" x2="264.4129032258065" y2="377.14747425080526" stroke="black"/><line class="error-cap" x1="250.41290322580647" y1="397.6864572168867" x2="264.4129032258065" y2="397.6864572168867" stroke="black"/><line class="error-cap" x1="310.6258064516129" y1="361.5428215900793" x2="324.6258064516129" y2="361.5428215900793" stroke="black"/><line class="error-cap" x1="310.6258064516129" y1="381.8402427450836" x2="324.6258064516129" y2="381.8402427450836" stroke="black"/><line class="error-cap" x1="370.83870967741933" y1="348.13119914909225" x2="384.83870967741933" y2="348.13119914909225" stroke="black"/><line class="error-cap" x1="370.83870967741933" y1="369.50541493906235" x2="384.83870967741933" y2="369.50541493906235" stroke="black"/></g><g><rect class="train-bar" x="413.2258064516129" y="537.4218255241393" width="23.022580645161288" height="60.24484114252732" fill="none" stroke="#AAAAAA" stroke-width="5"/><rect class="train-bar" x="473.43870967741935" y="512.6685198566829" width="23.022580645161288" height="84.99814680998372" fill="none" stroke="#4cb6da" stroke-width="5"/><rect class="train-bar" x="533.6516129032258" y="534.9890240483132" width="23.022580645161288" height="62.67764261835339" fill="none" stroke="#FF7F00" stroke-width="5"/><rect class="test-r2" x="440.6758064516129" y="563.0271934161048" width="23.022580645161288" height="34.63947325056188" fill="#606060" stroke="#606060" stroke-width="5"/><rect class="test-r2" x="500.88870967741934" y="588.6559016039553" width="23.022580645161288" height="9.010765062711357" fill="#4098b5" stroke="#4098b5" stroke-width="5"/><rect class="test-r2" x="561.1016129032257" y="573.3339399589253" width="23.022580645161288" height="24.332726707741358" fill="#FF6F00" stroke="#FF6F00" stroke-width="5"/><rect class="train-se" x="424.73709677419356" y="534.2724291972736" width="5" height="4.59758530746285" fill="black"/><rect class="train-se" x="484.95" y="506.552304742706" width="5" height="16.464860455907683" fill="black"/><rect class="train-se" x="545.1629032258064" y="530.8471353042127" width="5" height="8.567554976402334" fill="black"/><line class="error-cap" x1="419.73709677419356" y1="534.2724291972736" x2="433.73709677419356" y2="534.2724291972736" stroke="black"/><line class="error-cap" x1="419.73709677419356" y1="538.8700145047364" x2="433.73709677419356" y2="538.8700145047364" stroke="black"/><line class="error-cap" x1="479.95" y1="506.552304742706" x2="493.95" y2="506.552304742706" stroke="black"/><line class="error-cap" x1="479.95" y1="523.0171651986136" x2="493.95" y2="523.0171651986136" stroke="black"/><line class="error-cap" x1="540.1629032258064" y1="530.8471353042127" x2="554.1629032258064" y2="530.8471353042127" stroke="black"/><line class="error-cap" x1="540.1629032258064" y1="539.414690280615" x2="554.1629032258064" y2="539.414690280615" stroke="black"/><rect class="test-se" x="452.18709677419355" y="558.2511108856672" width="5" height="11.104330121750309" fill="black"/><rect class="test-se" x="512.4" y="580.6492509893676" width="5" height="24.026602458350908" fill="black"/><rect class="test-se" x="572.6129032258063" y="568.5499019343636" width="5" height="11.13615209824684" fill="black"/><line class="error-cap" x1="447.18709677419355" y1="558.2511108856672" x2="461.18709677419355" y2="558.2511108856672" stroke="black"/><line class="error-cap" x1="447.18709677419355" y1="569.3554410074175" x2="461.18709677419355" y2="569.3554410074175" stroke="black"/><line class="error-cap" x1="507.4" y1="580.6492509893676" x2="521.4" y2="580.6492509893676" stroke="black"/><line class="error-cap" x1="507.4" y1="604.6758534477185" x2="521.4" y2="604.6758534477185" stroke="black"/><line class="error-cap" x1="567.6129032258063" y1="568.5499019343636" x2="581.6129032258063" y2="568.5499019343636" stroke="black"/><line class="error-cap" x1="567.6129032258063" y1="579.6860540326104" x2="581.6129032258063" y2="579.6860540326104" stroke="black"/></g><g class="y-axis" fill="none" font-size="50px" font-family="sans-serif" text-anchor="end"><path class="domain" stroke="currentColor" d="M0,652.5H0.5V0.5H0"/><g class="tick" opacity="1" transform="translate(0,652.5)"><text fill="currentColor" x="-10" dy="0.32em">-0.1</text></g><g class="tick" opacity="1" transform="translate(0,598.1666666666666)"><text fill="currentColor" x="-10" dy="0.32em">0.0</text></g><g class="tick" opacity="1" transform="translate(0,326.50000000000006)"><text fill="currentColor" x="-10" dy="0.32em">0.5</text></g><g class="tick" opacity="1" transform="translate(0,54.83333333333337)"><text fill="currentColor" x="-10" dy="0.32em">1.0</text></g></g></g><rect x="0" y="0" width="610" height="652" transform="translate(150,60)" style="fill: none; stroke: black; stroke-width: 1px;"/></svg>