<svg xmlns="http://www.w3.org/2000/svg" width="800" height="800"><g class="container" transform="translate(150,60)"><line class="zero-line" x1="0" x2="610" y1="597.6666666666666" y2="597.6666666666666" stroke="black" stroke-width="1"/><g><rect class="train-bar" x="19.67741935483872" y="387.50337023181305" width="23.022580645161288" height="210.16329643485358" fill="none" stroke="#AAAAAA" stroke-width="5"/><rect class="train-bar" x="79.89032258064516" y="326.98376326676714" width="23.022580645161288" height="270.6829033998995" fill="none" stroke="#4cb6da" stroke-width="5"/><rect class="train-bar" x="140.1032258064516" y="319.848579971768" width="23.022580645161288" height="277.8180866948986" fill="none" stroke="#FF7F00" stroke-width="5"/><rect class="test-r2" x="47.127419354838715" y="409.88961538466754" width="23.022580645161288" height="187.7770512819991" fill="#606060" stroke="#606060" stroke-width="5"/><rect class="test-r2" x="107.34032258064515" y="414.1112290044389" width="23.022580645161288" height="183.55543766222775" fill="#4098b5" stroke="#4098b5" stroke-width="5"/><rect class="test-r2" x="167.55322580645162" y="387.86262016001353" width="23.022580645161288" height="209.8040465066531" fill="#FF6F00" stroke="#FF6F00" stroke-width="5"/><rect class="train-se" x="31.18870967741936" y="384.00000662434627" width="5" height="6.013454429867124" fill="black"/><rect class="train-se" x="91.40161290322581" y="323.51399507386435" width="5" height="5.879072771611163" fill="black"/><rect class="train-se" x="151.61451612903224" y="315.81228399998605" width="5" height="8.145183887127814" fill="black"/><line class="error-cap" x1="26.18870967741936" y1="384.00000662434627" x2="40.18870967741936" y2="384.00000662434627" stroke="black"/><line class="error-cap" x1="26.18870967741936" y1="390.0134610542134" x2="40.18870967741936" y2="390.0134610542134" stroke="black"/><line class="error-cap" x1="86.40161290322581" y1="323.51399507386435" x2="100.40161290322581" y2="323.51399507386435" stroke="black"/><line class="error-cap" x1="86.40161290322581" y1="329.3930678454755" x2="100.40161290322581" y2="329.3930678454755" stroke="black"/><line class="error-cap" x1="146.61451612903224" y1="315.81228399998605" x2="160.61451612903224" y2="315.81228399998605" stroke="black"/><line class="error-cap" x1="146.61451612903224" y1="323.95746788711386" x2="160.61451612903224" y2="323.95746788711386" stroke="black"/><rect class="test-se" x="58.63870967741936" y="403.7005722282181" width="5" height="16.756172625797717" fill="black"/><rect class="test-se" x="118.8516129032258" y="402.5993466813452" width="5" height="38.04752929237475" fill="black"/><rect class="test-se" x="179.06451612903226" y="381.2675041637441" width="5" height="18.380463985077768" fill="black"/><line class="error-cap" x1="53.63870967741936" y1="403.7005722282181" x2="67.63870967741936" y2="403.7005722282181" stroke="black"/><line class="error-cap" x1="53.63870967741936" y1="420.4567448540158" x2="67.63870967741936" y2="420.4567448540158" stroke="black"/><line class="error-cap" x1="113.8516129032258" y1="402.5993466813452" x2="127.8516129032258" y2="402.5993466813452" stroke="black"/><line class="error-cap" x1="113.8516129032258" y1="440.64687597371994" x2="127.8516129032258" y2="440.64687597371994" stroke="black"/><line class="error-cap" x1="174.06451612903226" y1="381.2675041637441" x2="188.06451612903226" y2="381.2675041637441" stroke="black"/><line class="error-cap" x1="174.06451612903226" y1="399.64796814882186" x2="188.06451612903226" y2="399.64796814882186" stroke="black"/></g><g><rect class="train-bar" x="216.45161290322582" y="372.3110116627369" width="23.022580645161288" height="225.3556550039297" fill="none" stroke="#AAAAAA" stroke-width="5"/><rect class="train-bar" x="276.6645161290323" y="301.2382647577786" width="23.022580645161288" height="296.428401908888" fill="none" stroke="#4cb6da" stroke-width="5"/><rect class="train-bar" x="336.8774193548387" y="289.2352823543269" width="23.022580645161288" height="308.43138431233973" fill="none" stroke="#FF7F00" stroke-width="5"/><rect class="test-r2" x="243.90161290322584" y="397.02310485671546" width="23.022580645161288" height="200.64356180995117" fill="#606060" stroke="#606060" stroke-width="5"/><rect class="test-r2" x="304.11451612903227" y="374.7056045504664" width="23.022580645161288" height="222.96106211620025" fill="#4098b5" stroke="#4098b5" stroke-width="5"/><rect class="test-r2" x="364.3274193548387" y="346.2804534370404" width="23.022580645161288" height="251.3862132296262" fill="#FF6F00" stroke="#FF6F00" stroke-width="5"/><rect class="train-se" x="227.96290322580646" y="368.7794081356469" width="5" height="6.126414108359995" fill="black"/><rect class="train-se" x="288.1758064516129" y="297.32789700246053" width="5" height="7.641471021272309" fill="black"/><rect class="train-se" x="348.38870967741934" y="285.5130470549871" width="5" height="6.888941197359145" fill="black"/><line class="error-cap" x1="222.96290322580646" y1="368.7794081356469" x2="236.96290322580646" y2="368.7794081356469" stroke="black"/><line class="error-cap" x1="222.96290322580646" y1="374.9058222440069" x2="236.96290322580646" y2="374.9058222440069" stroke="black"/><line class="error-cap" x1="283.1758064516129" y1="297.32789700246053" x2="297.1758064516129" y2="297.32789700246053" stroke="black"/><line class="error-cap" x1="283.1758064516129" y1="304.96936802373284" x2="297.1758064516129" y2="304.96936802373284" stroke="black"/><line class="error-cap" x1="343.38870967741934" y1="285.5130470549871" x2="357.38870967741934" y2="285.5130470549871" stroke="black"/><line class="error-cap" x1="343.38870967741934" y1="292.40198825234626" x2="357.38870967741934" y2="292.40198825234626" stroke="black"/><rect class="test-se" x="255.41290322580647" y="391.2714910465863" width="5" height="15.006455240516743" fill="black"/><rect class="test-se" x="315.6258064516129" y="365.58176560447515" width="5" height="28.495355783964897" fill="black"/><rect class="test-se" x="375.83870967741933" y="338.13262051153146" width="5" height="24.59133170203586" fill="black"/><line class="error-cap" x1="250.41290322580647" y1="391.2714910465863" x2="264.4129032258065" y2="391.2714910465863" stroke="black"/><line class="error-cap" x1="250.41290322580647" y1="406.277946287103" x2="264.4129032258065" y2="406.277946287103" stroke="black"/><line class="error-cap" x1="310.6258064516129" y1="365.58176560447515" x2="324.6258064516129" y2="365.58176560447515" stroke="black"/><line class="error-cap" x1="310.6258064516129" y1="394.07712138844005" x2="324.6258064516129" y2="394.07712138844005" stroke="black"/><line class="error-cap" x1="370.83870967741933" y1="338.13262051153146" x2="384.83870967741933" y2="338.13262051153146" stroke="black"/><line class="error-cap" x1="370.83870967741933" y1="362.7239522135673" x2="384.83870967741933" y2="362.7239522135673" stroke="black"/></g><g><rect class="train-bar" x="413.2258064516129" y="560.7284402463625" width="23.022580645161288" height="36.93822642030409" fill="none" stroke="#AAAAAA" stroke-width="5"/><rect class="train-bar" x="473.43870967741935" y="512.5934983937733" width="23.022580645161288" height="85.07316827289333" fill="none" stroke="#4cb6da" stroke-width="5"/><rect class="train-bar" x="533.6516129032258" y="580.8889787164097" width="23.022580645161288" height="16.777687950256905" fill="none" stroke="#FF7F00" stroke-width="5"/><rect class="test-r2" x="440.6758064516129" y="578.3869783227377" width="23.022580645161288" height="19.27968834392891" fill="#606060" stroke="#606060" stroke-width="5"/><rect class="test-r2" x="500.88870967741934" y="576.1949966631312" width="23.022580645161288" height="21.47167000353545" fill="#4098b5" stroke="#4098b5" stroke-width="5"/><rect class="test-r2" x="561.1016129032257" y="586.5272554664746" width="23.022580645161288" height="11.139411200192058" fill="#FF6F00" stroke="#FF6F00" stroke-width="5"/><rect class="train-se" x="424.73709677419356" y="557.3982792158754" width="5" height="5.320644121948817" fill="black"/><rect class="train-se" x="484.95" y="508.92110138109655" width="5" height="6.689588050707016" fill="black"/><rect class="train-se" x="545.1629032258064" y="577.9894519273421" width="5" height="3.5981071562703164" fill="black"/><line class="error-cap" x1="419.73709677419356" y1="557.3982792158754" x2="433.73709677419356" y2="557.3982792158754" stroke="black"/><line class="error-cap" x1="419.73709677419356" y1="562.7189233378242" x2="433.73709677419356" y2="562.7189233378242" stroke="black"/><line class="error-cap" x1="479.95" y1="508.92110138109655" x2="493.95" y2="508.92110138109655" stroke="black"/><line class="error-cap" x1="479.95" y1="515.6106894318036" x2="493.95" y2="515.6106894318036" stroke="black"/><line class="error-cap" x1="540.1629032258064" y1="577.9894519273421" x2="554.1629032258064" y2="577.9894519273421" stroke="black"/><line class="error-cap" x1="540.1629032258064" y1="581.5875590836124" x2="554.1629032258064" y2="581.5875590836124" stroke="black"/><rect class="test-se" x="452.18709677419355" y="574.1082006845115" width="5" height="9.115110552904525" fill="black"/><rect class="test-se" x="512.4" y="570.2300044235412" width="5" height="15.859968958360014" fill="black"/><rect class="test-se" x="572.6129032258063" y="583.4360936248171" width="5" height="4.364647366629924" fill="black"/><line class="error-cap" x1="447.18709677419355" y1="574.1082006845115" x2="461.18709677419355" y2="574.1082006845115" stroke="black"/><line class="error-cap" x1="447.18709677419355" y1="583.223311237416" x2="461.18709677419355" y2="583.223311237416" stroke="black"/><line class="error-cap" x1="507.4" y1="570.2300044235412" x2="521.4" y2="570.2300044235412" stroke="black"/><line class="error-cap" x1="507.4" y1="586.0899733819012" x2="521.4" y2="586.0899733819012" stroke="black"/><line class="error-cap" x1="567.6129032258063" y1="583.4360936248171" x2="581.6129032258063" y2="583.4360936248171" stroke="black"/><line class="error-cap" x1="567.6129032258063" y1="587.800740991447" x2="581.6129032258063" y2="587.800740991447" stroke="black"/></g><g class="y-axis" fill="none" font-size="50px" font-family="sans-serif" text-anchor="end"><path class="domain" stroke="currentColor" d="M0,652.5H0.5V0.5H0"/><g class="tick" opacity="1" transform="translate(0,652.5)"><text fill="currentColor" x="-10" dy="0.32em">-0.1</text></g><g class="tick" opacity="1" transform="translate(0,598.1666666666666)"><text fill="currentColor" x="-10" dy="0.32em">0.0</text></g><g class="tick" opacity="1" transform="translate(0,326.50000000000006)"><text fill="currentColor" x="-10" dy="0.32em">0.5</text></g><g class="tick" opacity="1" transform="translate(0,54.83333333333337)"><text fill="currentColor" x="-10" dy="0.32em">1.0</text></g></g></g><rect x="0" y="0" width="610" height="652" transform="translate(150,60)" style="fill: none; stroke: black; stroke-width: 1px;"/></svg>