<svg xmlns="http://www.w3.org/2000/svg" width="800" height="800"><g class="container" transform="translate(150,60)"><line class="zero-line" x1="0" x2="610" y1="597.6666666666666" y2="597.6666666666666" stroke="black" stroke-width="1"/><g><rect class="train-bar" x="19.67741935483872" y="500.58920585984174" width="23.022580645161288" height="97.07746080682489" fill="none" stroke="#AAAAAA" stroke-width="5"/><rect class="train-bar" x="79.89032258064516" y="408.71685417070097" width="23.022580645161288" height="188.94981249596566" fill="none" stroke="#4cb6da" stroke-width="5"/><rect class="train-bar" x="140.1032258064516" y="388.52557528735997" width="23.022580645161288" height="209.14109137930666" fill="none" stroke="#FF7F00" stroke-width="5"/><rect class="test-r2" x="47.127419354838715" y="550.7632798364212" width="23.022580645161288" height="46.90338683024538" fill="#606060" stroke="#606060" stroke-width="5"/><rect class="test-r2" x="107.34032258064515" y="594.162144808712" width="23.022580645161288" height="3.5045218579546145" fill="#4098b5" stroke="#4098b5" stroke-width="5"/><rect class="test-r2" x="167.55322580645162" y="553.5072336795272" width="23.022580645161288" height="44.15943298713944" fill="#FF6F00" stroke="#FF6F00" stroke-width="5"/><rect class="train-se" x="31.18870967741936" y="495.0861753655997" width="5" height="14.012121976968274" fill="black"/><rect class="train-se" x="91.40161290322581" y="398.8582130334869" width="5" height="31.434564548856315" fill="black"/><rect class="train-se" x="151.61451612903224" y="377.73931385381724" width="5" height="35.145045734170935" fill="black"/><line class="error-cap" x1="26.18870967741936" y1="495.0861753655997" x2="40.18870967741936" y2="495.0861753655997" stroke="black"/><line class="error-cap" x1="26.18870967741936" y1="509.09829734256795" x2="40.18870967741936" y2="509.09829734256795" stroke="black"/><line class="error-cap" x1="86.40161290322581" y1="398.8582130334869" x2="100.40161290322581" y2="398.8582130334869" stroke="black"/><line class="error-cap" x1="86.40161290322581" y1="430.2927775823432" x2="100.40161290322581" y2="430.2927775823432" stroke="black"/><line class="error-cap" x1="146.61451612903224" y1="377.73931385381724" x2="160.61451612903224" y2="377.73931385381724" stroke="black"/><line class="error-cap" x1="146.61451612903224" y1="412.8843595879882" x2="160.61451612903224" y2="412.8843595879882" stroke="black"/><rect class="test-se" x="58.63870967741936" y="544.2398699199739" width="5" height="18.09363966578917" fill="black"/><rect class="test-se" x="118.8516129032258" y="573.5048614298721" width="5" height="74.6291335153594" fill="black"/><rect class="test-se" x="179.06451612903226" y="543.6649542387097" width="5" height="31.36911776326997" fill="black"/><line class="error-cap" x1="53.63870967741936" y1="544.2398699199739" x2="67.63870967741936" y2="544.2398699199739" stroke="black"/><line class="error-cap" x1="53.63870967741936" y1="562.3335095857631" x2="67.63870967741936" y2="562.3335095857631" stroke="black"/><line class="error-cap" x1="113.8516129032258" y1="573.5048614298721" x2="127.8516129032258" y2="573.5048614298721" stroke="black"/><line class="error-cap" x1="113.8516129032258" y1="648.1339949452315" x2="127.8516129032258" y2="648.1339949452315" stroke="black"/><line class="error-cap" x1="174.06451612903226" y1="543.6649542387097" x2="188.06451612903226" y2="543.6649542387097" stroke="black"/><line class="error-cap" x1="174.06451612903226" y1="575.0340720019797" x2="188.06451612903226" y2="575.0340720019797" stroke="black"/></g><g><rect class="train-bar" x="216.45161290322582" y="360.24629848039046" width="23.022580645161288" height="237.42036818627616" fill="none" stroke="#AAAAAA" stroke-width="5"/><rect class="train-bar" x="276.6645161290323" y="304.2403565890873" width="23.022580645161288" height="293.42631007757933" fill="none" stroke="#4cb6da" stroke-width="5"/><rect class="train-bar" x="336.8774193548387" y="254.43950181337533" width="23.022580645161288" height="343.2271648532913" fill="none" stroke="#FF7F00" stroke-width="5"/><rect class="test-r2" x="243.90161290322584" y="440.06843668169756" width="23.022580645161288" height="157.59822998496907" fill="#606060" stroke="#606060" stroke-width="5"/><rect class="test-r2" x="304.11451612903227" y="402.5414349390249" width="23.022580645161288" height="195.12523172764173" fill="#4098b5" stroke="#4098b5" stroke-width="5"/><rect class="test-r2" x="364.3274193548387" y="375.5343473825592" width="23.022580645161288" height="222.13231928410744" fill="#FF6F00" stroke="#FF6F00" stroke-width="5"/><rect class="train-se" x="227.96290322580646" y="353.9810179169327" width="5" height="17.061122253831172" fill="black"/><rect class="train-se" x="288.1758064516129" y="300.2408972961955" width="5" height="7.997837171567198" fill="black"/><rect class="train-se" x="348.38870967741934" y="251.1269332626564" width="5" height="5.250274202875744" fill="black"/><line class="error-cap" x1="222.96290322580646" y1="353.9810179169327" x2="236.96290322580646" y2="353.9810179169327" stroke="black"/><line class="error-cap" x1="222.96290322580646" y1="371.04214017076384" x2="236.96290322580646" y2="371.04214017076384" stroke="black"/><line class="error-cap" x1="283.1758064516129" y1="300.2408972961955" x2="297.1758064516129" y2="300.2408972961955" stroke="black"/><line class="error-cap" x1="283.1758064516129" y1="308.2387344677627" x2="297.1758064516129" y2="308.2387344677627" stroke="black"/><line class="error-cap" x1="343.38870967741934" y1="251.1269332626564" x2="357.38870967741934" y2="251.1269332626564" stroke="black"/><line class="error-cap" x1="343.38870967741934" y1="256.37720746553214" x2="357.38870967741934" y2="256.37720746553214" stroke="black"/><rect class="test-se" x="255.41290322580647" y="431.15799393100343" width="5" height="27.641771002776522" fill="black"/><rect class="test-se" x="315.6258064516129" y="393.809019750872" width="5" height="26.929660752611653" fill="black"/><rect class="test-se" x="375.83870967741933" y="365.04604673932266" width="5" height="33.95320257294611" fill="black"/><line class="error-cap" x1="250.41290322580647" y1="431.15799393100343" x2="264.4129032258065" y2="431.15799393100343" stroke="black"/><line class="error-cap" x1="250.41290322580647" y1="458.79976493377995" x2="264.4129032258065" y2="458.79976493377995" stroke="black"/><line class="error-cap" x1="310.6258064516129" y1="393.809019750872" x2="324.6258064516129" y2="393.809019750872" stroke="black"/><line class="error-cap" x1="310.6258064516129" y1="420.73868050348364" x2="324.6258064516129" y2="420.73868050348364" stroke="black"/><line class="error-cap" x1="370.83870967741933" y1="365.04604673932266" x2="384.83870967741933" y2="365.04604673932266" stroke="black"/><line class="error-cap" x1="370.83870967741933" y1="398.9992493122688" x2="384.83870967741933" y2="398.9992493122688" stroke="black"/></g><g><rect class="train-bar" x="413.2258064516129" y="387.49393157809584" width="23.022580645161288" height="210.1727350885708" fill="none" stroke="#AAAAAA" stroke-width="5"/><rect class="train-bar" x="473.43870967741935" y="367.42288054851133" width="23.022580645161288" height="230.2437861181553" fill="none" stroke="#4cb6da" stroke-width="5"/><rect class="train-bar" x="533.6516129032258" y="327.24606240234397" width="23.022580645161288" height="270.42060426432266" fill="none" stroke="#FF7F00" stroke-width="5"/><rect class="test-r2" x="440.6758064516129" y="498.72713058512466" width="23.022580645161288" height="98.93953608154197" fill="#606060" stroke="#606060" stroke-width="5"/><rect class="test-r2" x="500.88870967741934" y="505.92941639225273" width="23.022580645161288" height="91.7372502744139" fill="#4098b5" stroke="#4098b5" stroke-width="5"/><rect class="test-r2" x="561.1016129032257" y="414.0149628452514" width="23.022580645161288" height="183.65170382141525" fill="#FF6F00" stroke="#FF6F00" stroke-width="5"/><rect class="train-se" x="424.73709677419356" y="382.8571607216572" width="5" height="10.547083425754636" fill="black"/><rect class="train-se" x="484.95" y="363.87056124566976" width="5" height="6.20927721136627" fill="black"/><rect class="train-se" x="545.1629032258064" y="323.2057899844081" width="5" height="8.161089671743412" fill="black"/><line class="error-cap" x1="419.73709677419356" y1="382.8571607216572" x2="433.73709677419356" y2="382.8571607216572" stroke="black"/><line class="error-cap" x1="419.73709677419356" y1="393.4042441474118" x2="433.73709677419356" y2="393.4042441474118" stroke="black"/><line class="error-cap" x1="479.95" y1="363.87056124566976" x2="493.95" y2="363.87056124566976" stroke="black"/><line class="error-cap" x1="479.95" y1="370.07983845703603" x2="493.95" y2="370.07983845703603" stroke="black"/><line class="error-cap" x1="540.1629032258064" y1="323.2057899844081" x2="554.1629032258064" y2="323.2057899844081" stroke="black"/><line class="error-cap" x1="540.1629032258064" y1="331.3668796561515" x2="554.1629032258064" y2="331.3668796561515" stroke="black"/><rect class="test-se" x="452.18709677419355" y="492.650129311935" width="5" height="16.30800509275855" fill="black"/><rect class="test-se" x="512.4" y="485.0363987180121" width="5" height="75.57207069696256" fill="black"/><rect class="test-se" x="572.6129032258063" y="406.0544758463803" width="5" height="23.84194799548436" fill="black"/><line class="error-cap" x1="447.18709677419355" y1="492.650129311935" x2="461.18709677419355" y2="492.650129311935" stroke="black"/><line class="error-cap" x1="447.18709677419355" y1="508.95813440469357" x2="461.18709677419355" y2="508.95813440469357" stroke="black"/><line class="error-cap" x1="507.4" y1="485.0363987180121" x2="521.4" y2="485.0363987180121" stroke="black"/><line class="error-cap" x1="507.4" y1="560.6084694149747" x2="521.4" y2="560.6084694149747" stroke="black"/><line class="error-cap" x1="567.6129032258063" y1="406.0544758463803" x2="581.6129032258063" y2="406.0544758463803" stroke="black"/><line class="error-cap" x1="567.6129032258063" y1="429.89642384186465" x2="581.6129032258063" y2="429.89642384186465" stroke="black"/></g><g class="y-axis" fill="none" font-size="50px" font-family="sans-serif" text-anchor="end"><path class="domain" stroke="currentColor" d="M0,652.5H0.5V0.5H0"/></g></g><rect x="0" y="0" width="610" height="652" transform="translate(150,60)" style="fill: none; stroke: black; stroke-width: 1px;"/></svg>