<svg xmlns="http://www.w3.org/2000/svg" width="800" height="800"><g class="container" transform="translate(150,60)"><line class="zero-line" x1="0" x2="610" y1="597.6666666666666" y2="597.6666666666666" stroke="black" stroke-width="1"/><g><rect class="train-bar" x="19.67741935483872" y="547.389478049248" width="23.022580645161288" height="50.277188617418574" fill="none" stroke="#AAAAAA" stroke-width="5"/><rect class="train-bar" x="79.89032258064516" y="497.15986021428046" width="23.022580645161288" height="100.50680645238617" fill="none" stroke="#4cb6da" stroke-width="5"/><rect class="train-bar" x="140.1032258064516" y="464.7506628075399" width="23.022580645161288" height="132.9160038591267" fill="none" stroke="#FF7F00" stroke-width="5"/><rect class="test-r2" x="47.127419354838715" y="558.8669207791809" width="23.022580645161288" height="38.799745887485756" fill="#606060" stroke="#606060" stroke-width="5"/><rect class="test-r2" x="107.34032258064515" y="552.6199622879149" width="23.022580645161288" height="45.04670437875177" fill="#4098b5" stroke="#4098b5" stroke-width="5"/><rect class="test-r2" x="167.55322580645162" y="549.7525102149824" width="23.022580645161288" height="47.91415645168422" fill="#FF6F00" stroke="#FF6F00" stroke-width="5"/><rect class="train-se" x="31.18870967741936" y="543.6204844406573" width="5" height="7.075974434363388" fill="black"/><rect class="train-se" x="91.40161290322581" y="492.0117535332238" width="5" height="12.592426724226698" fill="black"/><rect class="train-se" x="151.61451612903224" y="460.4272209750276" width="5" height="9.293767330049377" fill="black"/><line class="error-cap" x1="26.18870967741936" y1="543.6204844406573" x2="40.18870967741936" y2="543.6204844406573" stroke="black"/><line class="error-cap" x1="26.18870967741936" y1="550.6964588750207" x2="40.18870967741936" y2="550.6964588750207" stroke="black"/><line class="error-cap" x1="86.40161290322581" y1="492.0117535332238" x2="100.40161290322581" y2="492.0117535332238" stroke="black"/><line class="error-cap" x1="86.40161290322581" y1="504.6041802574505" x2="100.40161290322581" y2="504.6041802574505" stroke="black"/><line class="error-cap" x1="146.61451612903224" y1="460.4272209750276" x2="160.61451612903224" y2="460.4272209750276" stroke="black"/><line class="error-cap" x1="146.61451612903224" y1="469.72098830507696" x2="160.61451612903224" y2="469.72098830507696" stroke="black"/><rect class="test-se" x="58.63870967741936" y="555.4313757167547" width="5" height="5.742180249704916" fill="black"/><rect class="test-se" x="118.8516129032258" y="544.9931673998773" width="5" height="22.50717955215032" fill="black"/><rect class="test-se" x="179.06451612903226" y="543.2892917967033" width="5" height="17.852873673116164" fill="black"/><line class="error-cap" x1="53.63870967741936" y1="555.4313757167547" x2="67.63870967741936" y2="555.4313757167547" stroke="black"/><line class="error-cap" x1="53.63870967741936" y1="561.1735559664596" x2="67.63870967741936" y2="561.1735559664596" stroke="black"/><line class="error-cap" x1="113.8516129032258" y1="544.9931673998773" x2="127.8516129032258" y2="544.9931673998773" stroke="black"/><line class="error-cap" x1="113.8516129032258" y1="567.5003469520276" x2="127.8516129032258" y2="567.5003469520276" stroke="black"/><line class="error-cap" x1="174.06451612903226" y1="543.2892917967033" x2="188.06451612903226" y2="543.2892917967033" stroke="black"/><line class="error-cap" x1="174.06451612903226" y1="561.1421654698195" x2="188.06451612903226" y2="561.1421654698195" stroke="black"/></g><g><rect class="train-bar" x="216.45161290322582" y="334.2737261360938" width="23.022580645161288" height="263.39294053057284" fill="none" stroke="#AAAAAA" stroke-width="5"/><rect class="train-bar" x="276.6645161290323" y="346.2237944873323" width="23.022580645161288" height="251.4428721793343" fill="none" stroke="#4cb6da" stroke-width="5"/><rect class="train-bar" x="336.8774193548387" y="282.79079099490883" width="23.022580645161288" height="314.8758756717578" fill="none" stroke="#FF7F00" stroke-width="5"/><rect class="test-r2" x="243.90161290322584" y="499.8410375230659" width="23.022580645161288" height="97.82562914360074" fill="#606060" stroke="#606060" stroke-width="5"/><rect class="test-r2" x="304.11451612903227" y="439.2902046347773" width="23.022580645161288" height="158.37646203188933" fill="#4098b5" stroke="#4098b5" stroke-width="5"/><rect class="test-r2" x="364.3274193548387" y="384.09339241053266" width="23.022580645161288" height="213.57327425613397" fill="#FF6F00" stroke="#FF6F00" stroke-width="5"/><rect class="train-se" x="227.96290322580646" y="329.6407492124739" width="5" height="10.531907694479514" fill="black"/><rect class="train-se" x="288.1758064516129" y="341.3474833914578" width="5" height="11.505244383498166" fill="black"/><rect class="train-se" x="348.38870967741934" y="278.65884241860874" width="5" height="8.52779430520036" fill="black"/><line class="error-cap" x1="222.96290322580646" y1="329.6407492124739" x2="236.96290322580646" y2="329.6407492124739" stroke="black"/><line class="error-cap" x1="222.96290322580646" y1="340.1726569069534" x2="236.96290322580646" y2="340.1726569069534" stroke="black"/><line class="error-cap" x1="283.1758064516129" y1="341.3474833914578" x2="297.1758064516129" y2="341.3474833914578" stroke="black"/><line class="error-cap" x1="283.1758064516129" y1="352.85272777495595" x2="297.1758064516129" y2="352.85272777495595" stroke="black"/><line class="error-cap" x1="343.38870967741934" y1="278.65884241860874" x2="357.38870967741934" y2="278.65884241860874" stroke="black"/><line class="error-cap" x1="343.38870967741934" y1="287.1866367238091" x2="357.38870967741934" y2="287.1866367238091" stroke="black"/><rect class="test-se" x="255.41290322580647" y="493.4823053868869" width="5" height="17.43492854471606" fill="black"/><rect class="test-se" x="315.6258064516129" y="425.7210045342908" width="5" height="46.27680040194605" fill="black"/><rect class="test-se" x="375.83870967741933" y="376.8665429281804" width="5" height="20.907397929408944" fill="black"/><line class="error-cap" x1="250.41290322580647" y1="493.4823053868869" x2="264.4129032258065" y2="493.4823053868869" stroke="black"/><line class="error-cap" x1="250.41290322580647" y1="510.91723393160294" x2="264.4129032258065" y2="510.91723393160294" stroke="black"/><line class="error-cap" x1="310.6258064516129" y1="425.7210045342908" x2="324.6258064516129" y2="425.7210045342908" stroke="black"/><line class="error-cap" x1="310.6258064516129" y1="471.99780493623683" x2="324.6258064516129" y2="471.99780493623683" stroke="black"/><line class="error-cap" x1="370.83870967741933" y1="376.8665429281804" x2="384.83870967741933" y2="376.8665429281804" stroke="black"/><line class="error-cap" x1="370.83870967741933" y1="397.77394085758937" x2="384.83870967741933" y2="397.77394085758937" stroke="black"/></g><g><rect class="train-bar" x="413.2258064516129" y="479.3740740257625" width="23.022580645161288" height="118.2925926409041" fill="none" stroke="#AAAAAA" stroke-width="5"/><rect class="train-bar" x="473.43870967741935" y="371.5805229860979" width="23.022580645161288" height="226.08614368056874" fill="none" stroke="#4cb6da" stroke-width="5"/><rect class="train-bar" x="533.6516129032258" y="351.6313708431453" width="23.022580645161288" height="246.03529582352132" fill="none" stroke="#FF7F00" stroke-width="5"/><rect class="test-r2" x="440.6758064516129" y="516.3827864147402" width="23.022580645161288" height="81.28388025192646" fill="#606060" stroke="#606060" stroke-width="5"/><rect class="test-r2" x="500.88870967741934" y="477.15698381338945" width="23.022580645161288" height="120.50968285327718" fill="#4098b5" stroke="#4098b5" stroke-width="5"/><rect class="test-r2" x="561.1016129032257" y="536.0243640049591" width="23.022580645161288" height="61.642302661707504" fill="#FF6F00" stroke="#FF6F00" stroke-width="5"/><rect class="train-se" x="424.73709677419356" y="475.9668036403719" width="5" height="5.6290815415625275" fill="black"/><rect class="train-se" x="484.95" y="367.56223485638196" width="5" height="8.073152518863708" fill="black"/><rect class="train-se" x="545.1629032258064" y="347.5671964165746" width="5" height="8.256697706282921" fill="black"/><line class="error-cap" x1="419.73709677419356" y1="475.9668036403719" x2="433.73709677419356" y2="475.9668036403719" stroke="black"/><line class="error-cap" x1="419.73709677419356" y1="481.5958851819344" x2="433.73709677419356" y2="481.5958851819344" stroke="black"/><line class="error-cap" x1="479.95" y1="367.56223485638196" x2="493.95" y2="367.56223485638196" stroke="black"/><line class="error-cap" x1="479.95" y1="375.63538737524567" x2="493.95" y2="375.63538737524567" stroke="black"/><line class="error-cap" x1="540.1629032258064" y1="347.5671964165746" x2="554.1629032258064" y2="347.5671964165746" stroke="black"/><line class="error-cap" x1="540.1629032258064" y1="355.8238941228575" x2="554.1629032258064" y2="355.8238941228575" stroke="black"/><rect class="test-se" x="452.18709677419355" y="510.8980215081813" width="5" height="13.939059626235348" fill="black"/><rect class="test-se" x="512.4" y="468.4212350708807" width="5" height="26.942994970034988" fill="black"/><rect class="test-se" x="572.6129032258063" y="477.20657544170535" width="5" height="227.27115425301508" fill="black"/><line class="error-cap" x1="447.18709677419355" y1="510.8980215081813" x2="461.18709677419355" y2="510.8980215081813" stroke="black"/><line class="error-cap" x1="447.18709677419355" y1="524.8370811344166" x2="461.18709677419355" y2="524.8370811344166" stroke="black"/><line class="error-cap" x1="507.4" y1="468.4212350708807" x2="521.4" y2="468.4212350708807" stroke="black"/><line class="error-cap" x1="507.4" y1="495.3642300409157" x2="521.4" y2="495.3642300409157" stroke="black"/><line class="error-cap" x1="567.6129032258063" y1="477.20657544170535" x2="581.6129032258063" y2="477.20657544170535" stroke="black"/><line class="error-cap" x1="567.6129032258063" y1="704.4777296947204" x2="581.6129032258063" y2="704.4777296947204" stroke="black"/></g><g class="y-axis" fill="none" font-size="50px" font-family="sans-serif" text-anchor="end"><path class="domain" stroke="currentColor" d="M0,652.5H0.5V0.5H0"/></g></g><rect x="0" y="0" width="610" height="652" transform="translate(150,60)" style="fill: none; stroke: black; stroke-width: 1px;"/></svg>