<svg xmlns="http://www.w3.org/2000/svg" width="800" height="800"><g class="container" transform="translate(150,60)"><line class="zero-line" x1="0" x2="610" y1="597.6666666666666" y2="597.6666666666666" stroke="black" stroke-width="1"/><g><rect class="train-bar" x="19.67741935483872" y="298.18419096796566" width="23.022580645161288" height="299.48247569870097" fill="none" stroke="#AAAAAA" stroke-width="5"/><rect class="train-bar" x="79.89032258064516" y="269.213926853686" width="23.022580645161288" height="328.4527398129806" fill="none" stroke="#4cb6da" stroke-width="5"/><rect class="train-bar" x="140.1032258064516" y="258.52558449700206" width="23.022580645161288" height="339.14108216966457" fill="none" stroke="#FF7F00" stroke-width="5"/><rect class="test-r2" x="47.127419354838715" y="404.10894677609394" width="23.022580645161288" height="193.55771989057268" fill="#606060" stroke="#606060" stroke-width="5"/><rect class="test-r2" x="107.34032258064515" y="399.45150722309904" width="23.022580645161288" height="198.2151594435676" fill="#4098b5" stroke="#4098b5" stroke-width="5"/><rect class="test-r2" x="167.55322580645162" y="399.5113466191168" width="23.022580645161288" height="198.15532004754982" fill="#FF6F00" stroke="#FF6F00" stroke-width="5"/><rect class="train-se" x="31.18870967741936" y="294.47498826753923" width="5" height="6.836810801705724" fill="black"/><rect class="train-se" x="91.40161290322581" y="265.53818751365804" width="5" height="6.7029573601118955" fill="black"/><rect class="train-se" x="151.61451612903224" y="254.86505502346466" width="5" height="6.642117894149578" fill="black"/><line class="error-cap" x1="26.18870967741936" y1="294.47498826753923" x2="40.18870967741936" y2="294.47498826753923" stroke="black"/><line class="error-cap" x1="26.18870967741936" y1="301.31179906924496" x2="40.18870967741936" y2="301.31179906924496" stroke="black"/><line class="error-cap" x1="86.40161290322581" y1="265.53818751365804" x2="100.40161290322581" y2="265.53818751365804" stroke="black"/><line class="error-cap" x1="86.40161290322581" y1="272.24114487376994" x2="100.40161290322581" y2="272.24114487376994" stroke="black"/><line class="error-cap" x1="146.61451612903224" y1="254.86505502346466" x2="160.61451612903224" y2="254.86505502346466" stroke="black"/><line class="error-cap" x1="146.61451612903224" y1="261.50717291761424" x2="160.61451612903224" y2="261.50717291761424" stroke="black"/><rect class="test-se" x="58.63870967741936" y="398.007711845097" width="5" height="16.40493972398781" fill="black"/><rect class="test-se" x="118.8516129032258" y="392.07107153668636" width="5" height="21.521742745650727" fill="black"/><rect class="test-se" x="179.06451612903226" y="392.94482183381064" width="5" height="18.266099141224686" fill="black"/><line class="error-cap" x1="53.63870967741936" y1="398.007711845097" x2="67.63870967741936" y2="398.007711845097" stroke="black"/><line class="error-cap" x1="53.63870967741936" y1="414.4126515690848" x2="67.63870967741936" y2="414.4126515690848" stroke="black"/><line class="error-cap" x1="113.8516129032258" y1="392.07107153668636" x2="127.8516129032258" y2="392.07107153668636" stroke="black"/><line class="error-cap" x1="113.8516129032258" y1="413.5928142823371" x2="127.8516129032258" y2="413.5928142823371" stroke="black"/><line class="error-cap" x1="174.06451612903226" y1="392.94482183381064" x2="188.06451612903226" y2="392.94482183381064" stroke="black"/><line class="error-cap" x1="174.06451612903226" y1="411.2109209750353" x2="188.06451612903226" y2="411.2109209750353" stroke="black"/></g><g><rect class="train-bar" x="216.45161290322582" y="320.0487459555229" width="23.022580645161288" height="277.6179207111437" fill="none" stroke="#AAAAAA" stroke-width="5"/><rect class="train-bar" x="276.6645161290323" y="251.91829095639622" width="23.022580645161288" height="345.7483757102704" fill="none" stroke="#4cb6da" stroke-width="5"/><rect class="train-bar" x="336.8774193548387" y="277.75253128898106" width="23.022580645161288" height="319.91413537768557" fill="none" stroke="#FF7F00" stroke-width="5"/><rect class="test-r2" x="243.90161290322584" y="395.511713786772" width="23.022580645161288" height="202.1549528798946" fill="#606060" stroke="#606060" stroke-width="5"/><rect class="test-r2" x="304.11451612903227" y="379.0202317835616" width="23.022580645161288" height="218.64643488310503" fill="#4098b5" stroke="#4098b5" stroke-width="5"/><rect class="test-r2" x="364.3274193548387" y="341.9736502365212" width="23.022580645161288" height="255.6930164301454" fill="#FF6F00" stroke="#FF6F00" stroke-width="5"/><rect class="train-se" x="227.96290322580646" y="316.19076522333785" width="5" height="7.431922928740278" fill="black"/><rect class="train-se" x="288.1758064516129" y="248.51118882049258" width="5" height="5.628408543614569" fill="black"/><rect class="train-se" x="348.38870967741934" y="274.05500259285736" width="5" height="6.79011478449479" fill="black"/><line class="error-cap" x1="222.96290322580646" y1="316.19076522333785" x2="236.96290322580646" y2="316.19076522333785" stroke="black"/><line class="error-cap" x1="222.96290322580646" y1="323.6226881520781" x2="236.96290322580646" y2="323.6226881520781" stroke="black"/><line class="error-cap" x1="283.1758064516129" y1="248.51118882049258" x2="297.1758064516129" y2="248.51118882049258" stroke="black"/><line class="error-cap" x1="283.1758064516129" y1="254.13959736410715" x2="297.1758064516129" y2="254.13959736410715" stroke="black"/><line class="error-cap" x1="343.38870967741934" y1="274.05500259285736" x2="357.38870967741934" y2="274.05500259285736" stroke="black"/><line class="error-cap" x1="343.38870967741934" y1="280.84511737735215" x2="357.38870967741934" y2="280.84511737735215" stroke="black"/><rect class="test-se" x="255.41290322580647" y="389.1985838567883" width="5" height="17.25251971993498" fill="black"/><rect class="test-se" x="315.6258064516129" y="373.2370894067602" width="5" height="15.132569507205517" fill="black"/><rect class="test-se" x="375.83870967741933" y="335.24562826091983" width="5" height="18.912087902405574" fill="black"/><line class="error-cap" x1="250.41290322580647" y1="389.1985838567883" x2="264.4129032258065" y2="389.1985838567883" stroke="black"/><line class="error-cap" x1="250.41290322580647" y1="406.45110357672326" x2="264.4129032258065" y2="406.45110357672326" stroke="black"/><line class="error-cap" x1="310.6258064516129" y1="373.2370894067602" x2="324.6258064516129" y2="373.2370894067602" stroke="black"/><line class="error-cap" x1="310.6258064516129" y1="388.36965891396574" x2="324.6258064516129" y2="388.36965891396574" stroke="black"/><line class="error-cap" x1="370.83870967741933" y1="335.24562826091983" x2="384.83870967741933" y2="335.24562826091983" stroke="black"/><line class="error-cap" x1="370.83870967741933" y1="354.1577161633254" x2="384.83870967741933" y2="354.1577161633254" stroke="black"/></g><g><rect class="train-bar" x="413.2258064516129" y="410.706566111602" width="23.022580645161288" height="186.96010055506463" fill="none" stroke="#AAAAAA" stroke-width="5"/><rect class="train-bar" x="473.43870967741935" y="390.722700569172" width="23.022580645161288" height="206.94396609749464" fill="none" stroke="#4cb6da" stroke-width="5"/><rect class="train-bar" x="533.6516129032258" y="388.42952207390556" width="23.022580645161288" height="209.23714459276107" fill="none" stroke="#FF7F00" stroke-width="5"/><rect class="test-r2" x="440.6758064516129" y="597.6666666666666" width="23.022580645161288" height="3.0295337045630504" fill="#606060" stroke="#606060" stroke-width="5"/><rect class="test-r2" x="500.88870967741934" y="597.6666666666666" width="23.022580645161288" height="4.280986986836979" fill="#4098b5" stroke="#4098b5" stroke-width="5"/><rect class="test-r2" x="561.1016129032257" y="594.278774106213" width="23.022580645161288" height="3.387892560453679" fill="#FF6F00" stroke="#FF6F00" stroke-width="5"/><rect class="train-se" x="424.73709677419356" y="406.4557513441459" width="5" height="9.00325906982448" fill="black"/><rect class="train-se" x="484.95" y="387.1475879459651" width="5" height="6.300450492827622" fill="black"/><rect class="train-se" x="545.1629032258064" y="384.8098921943429" width="5" height="6.47851951825055" fill="black"/><line class="error-cap" x1="419.73709677419356" y1="406.4557513441459" x2="433.73709677419356" y2="406.4557513441459" stroke="black"/><line class="error-cap" x1="419.73709677419356" y1="415.45901041397036" x2="433.73709677419356" y2="415.45901041397036" stroke="black"/><line class="error-cap" x1="479.95" y1="387.1475879459651" x2="493.95" y2="387.1475879459651" stroke="black"/><line class="error-cap" x1="479.95" y1="393.4480384387927" x2="493.95" y2="393.4480384387927" stroke="black"/><line class="error-cap" x1="540.1629032258064" y1="384.8098921943429" x2="554.1629032258064" y2="384.8098921943429" stroke="black"/><line class="error-cap" x1="540.1629032258064" y1="391.2884117125935" x2="554.1629032258064" y2="391.2884117125935" stroke="black"/><rect class="test-se" x="452.18709677419355" y="593.425069400996" width="5" height="21.08452388093474" fill="black"/><rect class="test-se" x="512.4" y="596.4047047778308" width="5" height="14.171795502691111" fill="black"/><rect class="test-se" x="572.6129032258063" y="588.3994865472637" width="5" height="15.517150235796862" fill="black"/><line class="error-cap" x1="447.18709677419355" y1="593.425069400996" x2="461.18709677419355" y2="593.425069400996" stroke="black"/><line class="error-cap" x1="447.18709677419355" y1="614.5095932819307" x2="461.18709677419355" y2="614.5095932819307" stroke="black"/><line class="error-cap" x1="507.4" y1="596.4047047778308" x2="521.4" y2="596.4047047778308" stroke="black"/><line class="error-cap" x1="507.4" y1="610.5765002805219" x2="521.4" y2="610.5765002805219" stroke="black"/><line class="error-cap" x1="567.6129032258063" y1="588.3994865472637" x2="581.6129032258063" y2="588.3994865472637" stroke="black"/><line class="error-cap" x1="567.6129032258063" y1="603.9166367830605" x2="581.6129032258063" y2="603.9166367830605" stroke="black"/></g><g class="y-axis" fill="none" font-size="50px" font-family="sans-serif" text-anchor="end"><path class="domain" stroke="currentColor" d="M0,652.5H0.5V0.5H0"/><g class="tick" opacity="1" transform="translate(0,652.5)"><text fill="currentColor" x="-10" dy="0.32em">-0.1</text></g><g class="tick" opacity="1" transform="translate(0,598.1666666666666)"><text fill="currentColor" x="-10" dy="0.32em">0.0</text></g><g class="tick" opacity="1" transform="translate(0,326.50000000000006)"><text fill="currentColor" x="-10" dy="0.32em">0.5</text></g><g class="tick" opacity="1" transform="translate(0,54.83333333333337)"><text fill="currentColor" x="-10" dy="0.32em">1.0</text></g></g></g><rect x="0" y="0" width="610" height="652" transform="translate(150,60)" style="fill: none; stroke: black; stroke-width: 1px;"/></svg>