<svg xmlns="http://www.w3.org/2000/svg" width="800" height="800"><g class="container" transform="translate(150,60)"><line class="zero-line" x1="0" x2="610" y1="597.6666666666666" y2="597.6666666666666" stroke="black" stroke-width="1"/><g><rect class="train-bar" x="19.67741935483872" y="522.5613340932382" width="23.022580645161288" height="75.10533257342843" fill="none" stroke="#AAAAAA" stroke-width="5"/><rect class="train-bar" x="79.89032258064516" y="498.7474138522049" width="23.022580645161288" height="98.91925281446174" fill="none" stroke="#4cb6da" stroke-width="5"/><rect class="train-bar" x="140.1032258064516" y="503.24467997164874" width="23.022580645161288" height="94.42198669501789" fill="none" stroke="#FF7F00" stroke-width="5"/><rect class="test-r2" x="47.127419354838715" y="556.9545493075663" width="23.022580645161288" height="40.712117359100375" fill="#606060" stroke="#606060" stroke-width="5"/><rect class="test-r2" x="107.34032258064515" y="556.5059384800371" width="23.022580645161288" height="41.16072818662951" fill="#4098b5" stroke="#4098b5" stroke-width="5"/><rect class="test-r2" x="167.55322580645162" y="552.3541572467623" width="23.022580645161288" height="45.31250941990436" fill="#FF6F00" stroke="#FF6F00" stroke-width="5"/><rect class="train-se" x="31.18870967741936" y="519.050280149702" width="5" height="6.044215774144959" fill="black"/><rect class="train-se" x="91.40161290322581" y="494.89592180124674" width="5" height="7.405968203832572" fill="black"/><rect class="train-se" x="151.61451612903224" y="499.8453261637649" width="5" height="5.597415231535251" fill="black"/><line class="error-cap" x1="26.18870967741936" y1="519.050280149702" x2="40.18870967741936" y2="519.050280149702" stroke="black"/><line class="error-cap" x1="26.18870967741936" y1="525.0944959238469" x2="40.18870967741936" y2="525.0944959238469" stroke="black"/><line class="error-cap" x1="86.40161290322581" y1="494.89592180124674" x2="100.40161290322581" y2="494.89592180124674" stroke="black"/><line class="error-cap" x1="86.40161290322581" y1="502.3018900050793" x2="100.40161290322581" y2="502.3018900050793" stroke="black"/><line class="error-cap" x1="146.61451612903224" y1="499.8453261637649" x2="160.61451612903224" y2="499.8453261637649" stroke="black"/><line class="error-cap" x1="146.61451612903224" y1="505.4427413953002" x2="160.61451612903224" y2="505.4427413953002" stroke="black"/><rect class="test-se" x="58.63870967741936" y="553.0228446630662" width="5" height="7.726818578000348" fill="black"/><rect class="test-se" x="118.8516129032258" y="551.3561993030412" width="5" height="12.598956707983689" fill="black"/><rect class="test-se" x="179.06451612903226" y="547.1321629745291" width="5" height="12.88797708893253" fill="black"/><line class="error-cap" x1="53.63870967741936" y1="553.0228446630662" x2="67.63870967741936" y2="553.0228446630662" stroke="black"/><line class="error-cap" x1="53.63870967741936" y1="560.7496632410665" x2="67.63870967741936" y2="560.7496632410665" stroke="black"/><line class="error-cap" x1="113.8516129032258" y1="551.3561993030412" x2="127.8516129032258" y2="551.3561993030412" stroke="black"/><line class="error-cap" x1="113.8516129032258" y1="563.9551560110249" x2="127.8516129032258" y2="563.9551560110249" stroke="black"/><line class="error-cap" x1="174.06451612903226" y1="547.1321629745291" x2="188.06451612903226" y2="547.1321629745291" stroke="black"/><line class="error-cap" x1="174.06451612903226" y1="560.0201400634617" x2="188.06451612903226" y2="560.0201400634617" stroke="black"/></g><g><rect class="train-bar" x="216.45161290322582" y="341.2442495354626" width="23.022580645161288" height="256.42241713120404" fill="none" stroke="#AAAAAA" stroke-width="5"/><rect class="train-bar" x="276.6645161290323" y="440.3405381995434" width="23.022580645161288" height="157.32612846712323" fill="none" stroke="#4cb6da" stroke-width="5"/><rect class="train-bar" x="336.8774193548387" y="362.959603786341" width="23.022580645161288" height="234.70706288032562" fill="none" stroke="#FF7F00" stroke-width="5"/><rect class="test-r2" x="243.90161290322584" y="506.54733504558055" width="23.022580645161288" height="91.11933162108608" fill="#606060" stroke="#606060" stroke-width="5"/><rect class="test-r2" x="304.11451612903227" y="485.76577638363693" width="23.022580645161288" height="111.9008902830297" fill="#4098b5" stroke="#4098b5" stroke-width="5"/><rect class="test-r2" x="364.3274193548387" y="447.21588265564367" width="23.022580645161288" height="150.45078401102296" fill="#FF6F00" stroke="#FF6F00" stroke-width="5"/><rect class="train-se" x="227.96290322580646" y="337.3825867071796" width="5" height="7.446651313131952" fill="black"/><rect class="train-se" x="288.1758064516129" y="436.18670553367724" width="5" height="8.615330663464647" fill="black"/><rect class="train-se" x="348.38870967741934" y="359.1513621829216" width="5" height="7.232966413677559" fill="black"/><line class="error-cap" x1="222.96290322580646" y1="337.3825867071796" x2="236.96290322580646" y2="337.3825867071796" stroke="black"/><line class="error-cap" x1="222.96290322580646" y1="344.82923802031155" x2="236.96290322580646" y2="344.82923802031155" stroke="black"/><line class="error-cap" x1="283.1758064516129" y1="436.18670553367724" x2="297.1758064516129" y2="436.18670553367724" stroke="black"/><line class="error-cap" x1="283.1758064516129" y1="444.8020361971419" x2="297.1758064516129" y2="444.8020361971419" stroke="black"/><line class="error-cap" x1="343.38870967741934" y1="359.1513621829216" x2="357.38870967741934" y2="359.1513621829216" stroke="black"/><line class="error-cap" x1="343.38870967741934" y1="366.3843285965992" x2="357.38870967741934" y2="366.3843285965992" stroke="black"/><rect class="test-se" x="255.41290322580647" y="500.1892923288667" width="5" height="17.43217086685536" fill="black"/><rect class="test-se" x="315.6258064516129" y="480.86845226794946" width="5" height="11.589296462749871" fill="black"/><rect class="test-se" x="375.83870967741933" y="440.46164525215625" width="5" height="19.01694961394969" fill="black"/><line class="error-cap" x1="250.41290322580647" y1="500.1892923288667" x2="264.4129032258065" y2="500.1892923288667" stroke="black"/><line class="error-cap" x1="250.41290322580647" y1="517.6214631957221" x2="264.4129032258065" y2="517.6214631957221" stroke="black"/><line class="error-cap" x1="310.6258064516129" y1="480.86845226794946" x2="324.6258064516129" y2="480.86845226794946" stroke="black"/><line class="error-cap" x1="310.6258064516129" y1="492.45774873069934" x2="324.6258064516129" y2="492.45774873069934" stroke="black"/><line class="error-cap" x1="370.83870967741933" y1="440.46164525215625" x2="384.83870967741933" y2="440.46164525215625" stroke="black"/><line class="error-cap" x1="370.83870967741933" y1="459.47859486610594" x2="384.83870967741933" y2="459.47859486610594" stroke="black"/></g><g><rect class="train-bar" x="413.2258064516129" y="407.89035883964016" width="23.022580645161288" height="189.77630782702647" fill="none" stroke="#AAAAAA" stroke-width="5"/><rect class="train-bar" x="473.43870967741935" y="402.04320080973923" width="23.022580645161288" height="195.6234658569274" fill="none" stroke="#4cb6da" stroke-width="5"/><rect class="train-bar" x="533.6516129032258" y="370.48903868057823" width="23.022580645161288" height="227.1776279860884" fill="none" stroke="#FF7F00" stroke-width="5"/><rect class="test-r2" x="440.6758064516129" y="529.762615046008" width="23.022580645161288" height="67.9040516206586" fill="#606060" stroke="#606060" stroke-width="5"/><rect class="test-r2" x="500.88870967741934" y="519.4302048019899" width="23.022580645161288" height="78.2364618646767" fill="#4098b5" stroke="#4098b5" stroke-width="5"/><rect class="test-r2" x="561.1016129032257" y="502.43407112616774" width="23.022580645161288" height="95.23259554049889" fill="#FF6F00" stroke="#FF6F00" stroke-width="5"/><rect class="train-se" x="424.73709677419356" y="404.5276830257516" width="5" height="5.450703255554117" fill="black"/><rect class="train-se" x="484.95" y="399.3087210695733" width="5" height="2.9379189606636373" fill="black"/><rect class="train-se" x="545.1629032258064" y="366.69084385533694" width="5" height="7.192779300965185" fill="black"/><line class="error-cap" x1="419.73709677419356" y1="404.5276830257516" x2="433.73709677419356" y2="404.5276830257516" stroke="black"/><line class="error-cap" x1="419.73709677419356" y1="409.97838628130575" x2="433.73709677419356" y2="409.97838628130575" stroke="black"/><line class="error-cap" x1="479.95" y1="399.3087210695733" x2="493.95" y2="399.3087210695733" stroke="black"/><line class="error-cap" x1="479.95" y1="402.24664003023696" x2="493.95" y2="402.24664003023696" stroke="black"/><line class="error-cap" x1="540.1629032258064" y1="366.69084385533694" x2="554.1629032258064" y2="366.69084385533694" stroke="black"/><line class="error-cap" x1="540.1629032258064" y1="373.8836231563021" x2="554.1629032258064" y2="373.8836231563021" stroke="black"/><rect class="test-se" x="452.18709677419355" y="524.304600565839" width="5" height="13.832057920676107" fill="black"/><rect class="test-se" x="512.4" y="515.216066596841" width="5" height="8.85655282059588" fill="black"/><rect class="test-se" x="572.6129032258063" y="495.3011866423073" width="5" height="20.531537935441747" fill="black"/><line class="error-cap" x1="447.18709677419355" y1="524.304600565839" x2="461.18709677419355" y2="524.304600565839" stroke="black"/><line class="error-cap" x1="447.18709677419355" y1="538.1366584865151" x2="461.18709677419355" y2="538.1366584865151" stroke="black"/><line class="error-cap" x1="507.4" y1="515.216066596841" x2="521.4" y2="515.216066596841" stroke="black"/><line class="error-cap" x1="507.4" y1="524.0726194174368" x2="521.4" y2="524.0726194174368" stroke="black"/><line class="error-cap" x1="567.6129032258063" y1="495.3011866423073" x2="581.6129032258063" y2="495.3011866423073" stroke="black"/><line class="error-cap" x1="567.6129032258063" y1="515.8327245777491" x2="581.6129032258063" y2="515.8327245777491" stroke="black"/></g><g class="y-axis" fill="none" font-size="50px" font-family="sans-serif" text-anchor="end"><path class="domain" stroke="currentColor" d="M0,652.5H0.5V0.5H0"/></g></g><rect x="0" y="0" width="610" height="652" transform="translate(150,60)" style="fill: none; stroke: black; stroke-width: 1px;"/></svg>