<svg xmlns="http://www.w3.org/2000/svg" width="800" height="800"><g class="container" transform="translate(150,60)"><line class="zero-line" x1="0" x2="610" y1="597.6666666666666" y2="597.6666666666666" stroke="black" stroke-width="1"/><g><rect class="train-bar" x="19.67741935483872" y="279.04983974955877" width="23.022580645161288" height="318.61682691710786" fill="none" stroke="#AAAAAA" stroke-width="5"/><rect class="train-bar" x="79.89032258064516" y="302.9675829246165" width="23.022580645161288" height="294.6990837420501" fill="none" stroke="#4cb6da" stroke-width="5"/><rect class="train-bar" x="140.1032258064516" y="296.5038202399798" width="23.022580645161288" height="301.1628464266868" fill="none" stroke="#FF7F00" stroke-width="5"/><rect class="test-r2" x="47.127419354838715" y="426.7936960407093" width="23.022580645161288" height="170.87297062595735" fill="#606060" stroke="#606060" stroke-width="5"/><rect class="test-r2" x="107.34032258064515" y="401.60486482467684" width="23.022580645161288" height="196.0618018419898" fill="#4098b5" stroke="#4098b5" stroke-width="5"/><rect class="test-r2" x="167.55322580645162" y="404.02815626278533" width="23.022580645161288" height="193.6385104038813" fill="#FF6F00" stroke="#FF6F00" stroke-width="5"/><rect class="train-se" x="31.18870967741936" y="275.89939242554686" width="5" height="4.601789296047627" fill="black"/><rect class="train-se" x="91.40161290322581" y="299.6836793573646" width="5" height="5.135614269007647" fill="black"/><rect class="train-se" x="151.61451612903224" y="292.6328241282936" width="5" height="7.483984446744898" fill="black"/><line class="error-cap" x1="26.18870967741936" y1="275.89939242554686" x2="40.18870967741936" y2="275.89939242554686" stroke="black"/><line class="error-cap" x1="26.18870967741936" y1="280.5011817215945" x2="40.18870967741936" y2="280.5011817215945" stroke="black"/><line class="error-cap" x1="86.40161290322581" y1="299.6836793573646" x2="100.40161290322581" y2="299.6836793573646" stroke="black"/><line class="error-cap" x1="86.40161290322581" y1="304.81929362637226" x2="100.40161290322581" y2="304.81929362637226" stroke="black"/><line class="error-cap" x1="146.61451612903224" y1="292.6328241282936" x2="160.61451612903224" y2="292.6328241282936" stroke="black"/><line class="error-cap" x1="146.61451612903224" y1="300.1168085750385" x2="160.61451612903224" y2="300.1168085750385" stroke="black"/><rect class="test-se" x="58.63870967741936" y="420.8281215062815" width="5" height="15.86229813771115" fill="black"/><rect class="test-se" x="118.8516129032258" y="396.0177818373746" width="5" height="14.348331949208841" fill="black"/><rect class="test-se" x="179.06451612903226" y="397.2983426919453" width="5" height="18.919254283360033" fill="black"/><line class="error-cap" x1="53.63870967741936" y1="420.8281215062815" x2="67.63870967741936" y2="420.8281215062815" stroke="black"/><line class="error-cap" x1="53.63870967741936" y1="436.69041964399264" x2="67.63870967741936" y2="436.69041964399264" stroke="black"/><line class="error-cap" x1="113.8516129032258" y1="396.0177818373746" x2="127.8516129032258" y2="396.0177818373746" stroke="black"/><line class="error-cap" x1="113.8516129032258" y1="410.36611378658347" x2="127.8516129032258" y2="410.36611378658347" stroke="black"/><line class="error-cap" x1="174.06451612903226" y1="397.2983426919453" x2="188.06451612903226" y2="397.2983426919453" stroke="black"/><line class="error-cap" x1="174.06451612903226" y1="416.21759697530536" x2="188.06451612903226" y2="416.21759697530536" stroke="black"/></g><g><rect class="train-bar" x="216.45161290322582" y="350.7198901210794" width="23.022580645161288" height="246.94677654558723" fill="none" stroke="#AAAAAA" stroke-width="5"/><rect class="train-bar" x="276.6645161290323" y="288.441072716216" width="23.022580645161288" height="309.2255939504506" fill="none" stroke="#4cb6da" stroke-width="5"/><rect class="train-bar" x="336.8774193548387" y="283.69656544171175" width="23.022580645161288" height="313.9701012249549" fill="none" stroke="#FF7F00" stroke-width="5"/><rect class="test-r2" x="243.90161290322584" y="403.991937622872" width="23.022580645161288" height="193.67472904379463" fill="#606060" stroke="#606060" stroke-width="5"/><rect class="test-r2" x="304.11451612903227" y="375.117349779466" width="23.022580645161288" height="222.54931688720063" fill="#4098b5" stroke="#4098b5" stroke-width="5"/><rect class="test-r2" x="364.3274193548387" y="375.7202713499396" width="23.022580645161288" height="221.94639531672703" fill="#FF6F00" stroke="#FF6F00" stroke-width="5"/><rect class="train-se" x="227.96290322580646" y="346.9032033327518" width="5" height="7.266747153310462" fill="black"/><rect class="train-se" x="288.1758064516129" y="285.27181573772344" width="5" height="4.677027913970278" fill="black"/><rect class="train-se" x="348.38870967741934" y="280.38114126835546" width="5" height="5.261696693425165" fill="black"/><line class="error-cap" x1="222.96290322580646" y1="346.9032033327518" x2="236.96290322580646" y2="346.9032033327518" stroke="black"/><line class="error-cap" x1="222.96290322580646" y1="354.16995048606225" x2="236.96290322580646" y2="354.16995048606225" stroke="black"/><line class="error-cap" x1="283.1758064516129" y1="285.27181573772344" x2="297.1758064516129" y2="285.27181573772344" stroke="black"/><line class="error-cap" x1="283.1758064516129" y1="289.9488436516937" x2="297.1758064516129" y2="289.9488436516937" stroke="black"/><line class="error-cap" x1="343.38870967741934" y1="280.38114126835546" x2="357.38870967741934" y2="280.38114126835546" stroke="black"/><line class="error-cap" x1="343.38870967741934" y1="285.64283796178063" x2="357.38870967741934" y2="285.64283796178063" stroke="black"/><rect class="test-se" x="255.41290322580647" y="397.8010281939352" width="5" height="16.76363771574711" fill="black"/><rect class="test-se" x="315.6258064516129" y="370.06610413027647" width="5" height="12.2049825967581" fill="black"/><rect class="test-se" x="375.83870967741933" y="369.8622359312709" width="5" height="15.432141674674767" fill="black"/><line class="error-cap" x1="250.41290322580647" y1="397.8010281939352" x2="264.4129032258065" y2="397.8010281939352" stroke="black"/><line class="error-cap" x1="250.41290322580647" y1="414.56466590968233" x2="264.4129032258065" y2="414.56466590968233" stroke="black"/><line class="error-cap" x1="310.6258064516129" y1="370.06610413027647" x2="324.6258064516129" y2="370.06610413027647" stroke="black"/><line class="error-cap" x1="310.6258064516129" y1="382.2710867270346" x2="324.6258064516129" y2="382.2710867270346" stroke="black"/><line class="error-cap" x1="370.83870967741933" y1="369.8622359312709" x2="384.83870967741933" y2="369.8622359312709" stroke="black"/><line class="error-cap" x1="370.83870967741933" y1="385.29437760594567" x2="384.83870967741933" y2="385.29437760594567" stroke="black"/></g><g><rect class="train-bar" x="413.2258064516129" y="524.9133073205817" width="23.022580645161288" height="72.75335934608495" fill="none" stroke="#AAAAAA" stroke-width="5"/><rect class="train-bar" x="473.43870967741935" y="510.20660948566706" width="23.022580645161288" height="87.46005718099957" fill="none" stroke="#4cb6da" stroke-width="5"/><rect class="train-bar" x="533.6516129032258" y="483.66455928280664" width="23.022580645161288" height="114.00210738386" fill="none" stroke="#FF7F00" stroke-width="5"/><rect class="test-r2" x="440.6758064516129" y="580.6159616832381" width="23.022580645161288" height="17.050704983428545" fill="#606060" stroke="#606060" stroke-width="5"/><rect class="test-r2" x="500.88870967741934" y="573.6537271450984" width="23.022580645161288" height="24.012939521568228" fill="#4098b5" stroke="#4098b5" stroke-width="5"/><rect class="test-r2" x="561.1016129032257" y="568.2063006311423" width="23.022580645161288" height="29.460366035524316" fill="#FF6F00" stroke="#FF6F00" stroke-width="5"/><rect class="train-se" x="424.73709677419356" y="521.6165458094075" width="5" height="5.187046044696672" fill="black"/><rect class="train-se" x="484.95" y="507.2787481290581" width="5" height="3.71144542643583" fill="black"/><rect class="train-se" x="545.1629032258064" y="480.59245115917946" width="5" height="4.288432494508697" fill="black"/><line class="error-cap" x1="419.73709677419356" y1="521.6165458094075" x2="433.73709677419356" y2="521.6165458094075" stroke="black"/><line class="error-cap" x1="419.73709677419356" y1="526.8035918541042" x2="433.73709677419356" y2="526.8035918541042" stroke="black"/><line class="error-cap" x1="479.95" y1="507.2787481290581" x2="493.95" y2="507.2787481290581" stroke="black"/><line class="error-cap" x1="479.95" y1="510.99019355549393" x2="493.95" y2="510.99019355549393" stroke="black"/><line class="error-cap" x1="540.1629032258064" y1="480.59245115917946" x2="554.1629032258064" y2="480.59245115917946" stroke="black"/><line class="error-cap" x1="540.1629032258064" y1="484.88088365368816" x2="554.1629032258064" y2="484.88088365368816" stroke="black"/><rect class="test-se" x="452.18709677419355" y="576.595907612422" width="5" height="8.080216283264463" fill="black"/><rect class="test-se" x="512.4" y="569.0616887683482" width="5" height="10.368153507001125" fill="black"/><rect class="test-se" x="572.6129032258063" y="564.3729117273081" width="5" height="7.333555615337218" fill="black"/><line class="error-cap" x1="447.18709677419355" y1="576.595907612422" x2="461.18709677419355" y2="576.595907612422" stroke="black"/><line class="error-cap" x1="447.18709677419355" y1="584.6761238956865" x2="461.18709677419355" y2="584.6761238956865" stroke="black"/><line class="error-cap" x1="507.4" y1="569.0616887683482" x2="521.4" y2="569.0616887683482" stroke="black"/><line class="error-cap" x1="507.4" y1="579.4298422753493" x2="521.4" y2="579.4298422753493" stroke="black"/><line class="error-cap" x1="567.6129032258063" y1="564.3729117273081" x2="581.6129032258063" y2="564.3729117273081" stroke="black"/><line class="error-cap" x1="567.6129032258063" y1="571.7064673426453" x2="581.6129032258063" y2="571.7064673426453" stroke="black"/></g><g class="y-axis" fill="none" font-size="50px" font-family="sans-serif" text-anchor="end"><path class="domain" stroke="currentColor" d="M0,652.5H0.5V0.5H0"/><g class="tick" opacity="1" transform="translate(0,652.5)"><text fill="currentColor" x="-10" dy="0.32em">-0.1</text></g><g class="tick" opacity="1" transform="translate(0,598.1666666666666)"><text fill="currentColor" x="-10" dy="0.32em">0.0</text></g><g class="tick" opacity="1" transform="translate(0,326.50000000000006)"><text fill="currentColor" x="-10" dy="0.32em">0.5</text></g><g class="tick" opacity="1" transform="translate(0,54.83333333333337)"><text fill="currentColor" x="-10" dy="0.32em">1.0</text></g></g></g><rect x="0" y="0" width="610" height="652" transform="translate(150,60)" style="fill: none; stroke: black; stroke-width: 1px;"/></svg>