<svg xmlns="http://www.w3.org/2000/svg" width="800" height="800"><g class="container" transform="translate(150,60)"><line class="zero-line" x1="0" x2="610" y1="597.6666666666666" y2="597.6666666666666" stroke="black" stroke-width="1"/><g><rect class="train-bar" x="19.67741935483872" y="516.8783299307293" width="23.022580645161288" height="80.78833673593738" fill="none" stroke="#AAAAAA" stroke-width="5"/><rect class="train-bar" x="79.89032258064516" y="477.9496659455203" width="23.022580645161288" height="119.71700072114635" fill="none" stroke="#4cb6da" stroke-width="5"/><rect class="train-bar" x="140.1032258064516" y="509.76743340259713" width="23.022580645161288" height="87.8992332640695" fill="none" stroke="#FF7F00" stroke-width="5"/><rect class="test-r2" x="47.127419354838715" y="566.109414673075" width="23.022580645161288" height="31.55725199359165" fill="#606060" stroke="#606060" stroke-width="5"/><rect class="test-r2" x="107.34032258064515" y="539.4969563993449" width="23.022580645161288" height="58.16971026732176" fill="#4098b5" stroke="#4098b5" stroke-width="5"/><rect class="test-r2" x="167.55322580645162" y="549.7354506546656" width="23.022580645161288" height="47.93121601200107" fill="#FF6F00" stroke="#FF6F00" stroke-width="5"/><rect class="train-se" x="31.18870967741936" y="512.144325835056" width="5" height="10.936016382693424" fill="black"/><rect class="train-se" x="91.40161290322581" y="473.19382867907933" width="5" height="11.023349065763796" fill="black"/><rect class="train-se" x="151.61451612903224" y="506.3937343482753" width="5" height="5.49479621728733" fill="black"/><line class="error-cap" x1="26.18870967741936" y1="512.144325835056" x2="40.18870967741936" y2="512.144325835056" stroke="black"/><line class="error-cap" x1="26.18870967741936" y1="523.0803422177494" x2="40.18870967741936" y2="523.0803422177494" stroke="black"/><line class="error-cap" x1="86.40161290322581" y1="473.19382867907933" x2="100.40161290322581" y2="473.19382867907933" stroke="black"/><line class="error-cap" x1="86.40161290322581" y1="484.2171777448431" x2="100.40161290322581" y2="484.2171777448431" stroke="black"/><line class="error-cap" x1="146.61451612903224" y1="506.3937343482753" x2="160.61451612903224" y2="506.3937343482753" stroke="black"/><line class="error-cap" x1="146.61451612903224" y1="511.88853056556263" x2="160.61451612903224" y2="511.88853056556263" stroke="black"/><rect class="test-se" x="58.63870967741936" y="558.1494384505037" width="5" height="23.839904890285197" fill="black"/><rect class="test-se" x="118.8516129032258" y="531.4796717610542" width="5" height="24.069138553162702" fill="black"/><rect class="test-se" x="179.06451612903226" y="544.7396683045872" width="5" height="11.983129400313373" fill="black"/><line class="error-cap" x1="53.63870967741936" y1="558.1494384505037" x2="67.63870967741936" y2="558.1494384505037" stroke="black"/><line class="error-cap" x1="53.63870967741936" y1="581.9893433407889" x2="67.63870967741936" y2="581.9893433407889" stroke="black"/><line class="error-cap" x1="113.8516129032258" y1="531.4796717610542" x2="127.8516129032258" y2="531.4796717610542" stroke="black"/><line class="error-cap" x1="113.8516129032258" y1="555.5488103142169" x2="127.8516129032258" y2="555.5488103142169" stroke="black"/><line class="error-cap" x1="174.06451612903226" y1="544.7396683045872" x2="188.06451612903226" y2="544.7396683045872" stroke="black"/><line class="error-cap" x1="174.06451612903226" y1="556.7227977049006" x2="188.06451612903226" y2="556.7227977049006" stroke="black"/></g><g><rect class="train-bar" x="216.45161290322582" y="455.40889529628583" width="23.022580645161288" height="142.2577713703808" fill="none" stroke="#AAAAAA" stroke-width="5"/><rect class="train-bar" x="276.6645161290323" y="360.2599891452476" width="23.022580645161288" height="237.40667752141906" fill="none" stroke="#4cb6da" stroke-width="5"/><rect class="train-bar" x="336.8774193548387" y="279.6428806537235" width="23.022580645161288" height="318.0237860129431" fill="none" stroke="#FF7F00" stroke-width="5"/><rect class="test-r2" x="243.90161290322584" y="486.0865254246976" width="23.022580645161288" height="111.58014124196905" fill="#606060" stroke="#606060" stroke-width="5"/><rect class="test-r2" x="304.11451612903227" y="438.16463466243226" width="23.022580645161288" height="159.50203200423437" fill="#4098b5" stroke="#4098b5" stroke-width="5"/><rect class="test-r2" x="364.3274193548387" y="362.55806995677654" width="23.022580645161288" height="235.1085967098901" fill="#FF6F00" stroke="#FF6F00" stroke-width="5"/><rect class="train-se" x="227.96290322580646" y="451.3889377483099" width="5" height="8.079830191903739" fill="black"/><rect class="train-se" x="288.1758064516129" y="356.0663183131094" width="5" height="8.774683328552783" fill="black"/><rect class="train-se" x="348.38870967741934" y="275.9945331866458" width="5" height="6.593389868310851" fill="black"/><line class="error-cap" x1="222.96290322580646" y1="451.3889377483099" x2="236.96290322580646" y2="451.3889377483099" stroke="black"/><line class="error-cap" x1="222.96290322580646" y1="459.46876794021364" x2="236.96290322580646" y2="459.46876794021364" stroke="black"/><line class="error-cap" x1="283.1758064516129" y1="356.0663183131094" x2="297.1758064516129" y2="356.0663183131094" stroke="black"/><line class="error-cap" x1="283.1758064516129" y1="364.84100164166216" x2="297.1758064516129" y2="364.84100164166216" stroke="black"/><line class="error-cap" x1="343.38870967741934" y1="275.9945331866458" x2="357.38870967741934" y2="275.9945331866458" stroke="black"/><line class="error-cap" x1="343.38870967741934" y1="282.58792305495666" x2="357.38870967741934" y2="282.58792305495666" stroke="black"/><rect class="test-se" x="255.41290322580647" y="479.4751263412171" width="5" height="18.445596333921912" fill="black"/><rect class="test-se" x="315.6258064516129" y="420.72441307204883" width="5" height="61.76088636153372" fill="black"/><rect class="test-se" x="375.83870967741933" y="350.7755584960542" width="5" height="39.13004584288933" fill="black"/><line class="error-cap" x1="250.41290322580647" y1="479.4751263412171" x2="264.4129032258065" y2="479.4751263412171" stroke="black"/><line class="error-cap" x1="250.41290322580647" y1="497.920722675139" x2="264.4129032258065" y2="497.920722675139" stroke="black"/><line class="error-cap" x1="310.6258064516129" y1="420.72441307204883" x2="324.6258064516129" y2="420.72441307204883" stroke="black"/><line class="error-cap" x1="310.6258064516129" y1="482.48529943358255" x2="324.6258064516129" y2="482.48529943358255" stroke="black"/><line class="error-cap" x1="370.83870967741933" y1="350.7755584960542" x2="384.83870967741933" y2="350.7755584960542" stroke="black"/><line class="error-cap" x1="370.83870967741933" y1="389.90560433894353" x2="384.83870967741933" y2="389.90560433894353" stroke="black"/></g><g><rect class="train-bar" x="413.2258064516129" y="478.8060487527544" width="23.022580645161288" height="118.86061791391222" fill="none" stroke="#AAAAAA" stroke-width="5"/><rect class="train-bar" x="473.43870967741935" y="399.00449651678275" width="23.022580645161288" height="198.66217014988388" fill="none" stroke="#4cb6da" stroke-width="5"/><rect class="train-bar" x="533.6516129032258" y="359.48419548352905" width="23.022580645161288" height="238.18247118313758" fill="none" stroke="#FF7F00" stroke-width="5"/><rect class="test-r2" x="440.6758064516129" y="516.4168053624679" width="23.022580645161288" height="81.2498613041987" fill="#606060" stroke="#606060" stroke-width="5"/><rect class="test-r2" x="500.88870967741934" y="463.54392377228436" width="23.022580645161288" height="134.12274289438227" fill="#4098b5" stroke="#4098b5" stroke-width="5"/><rect class="test-r2" x="561.1016129032257" y="420.1259753773502" width="23.022580645161288" height="177.54069128931644" fill="#FF6F00" stroke="#FF6F00" stroke-width="5"/><rect class="train-se" x="424.73709677419356" y="475.0381858227301" width="5" height="7.0714517200972296" fill="black"/><rect class="train-se" x="484.95" y="395.14844871522945" width="5" height="7.424191206213209" fill="black"/><rect class="train-se" x="545.1629032258064" y="355.6465492448625" width="5" height="7.350584954666147" fill="black"/><line class="error-cap" x1="419.73709677419356" y1="475.0381858227301" x2="433.73709677419356" y2="475.0381858227301" stroke="black"/><line class="error-cap" x1="419.73709677419356" y1="482.10963754282733" x2="433.73709677419356" y2="482.10963754282733" stroke="black"/><line class="error-cap" x1="479.95" y1="395.14844871522945" x2="493.95" y2="395.14844871522945" stroke="black"/><line class="error-cap" x1="479.95" y1="402.57263992144266" x2="493.95" y2="402.57263992144266" stroke="black"/><line class="error-cap" x1="540.1629032258064" y1="355.6465492448625" x2="554.1629032258064" y2="355.6465492448625" stroke="black"/><line class="error-cap" x1="540.1629032258064" y1="362.99713419952866" x2="554.1629032258064" y2="362.99713419952866" stroke="black"/><rect class="test-se" x="452.18709677419355" y="510.5864709292439" width="5" height="15.321337732896154" fill="black"/><rect class="test-se" x="512.4" y="457.2920813199911" width="5" height="17.007369809173042" fill="black"/><rect class="test-se" x="572.6129032258063" y="414.0269678114765" width="5" height="16.396030263494822" fill="black"/><line class="error-cap" x1="447.18709677419355" y1="510.5864709292439" x2="461.18709677419355" y2="510.5864709292439" stroke="black"/><line class="error-cap" x1="447.18709677419355" y1="525.90780866214" x2="461.18709677419355" y2="525.90780866214" stroke="black"/><line class="error-cap" x1="507.4" y1="457.2920813199911" x2="521.4" y2="457.2920813199911" stroke="black"/><line class="error-cap" x1="507.4" y1="474.29945112916414" x2="521.4" y2="474.29945112916414" stroke="black"/><line class="error-cap" x1="567.6129032258063" y1="414.0269678114765" x2="581.6129032258063" y2="414.0269678114765" stroke="black"/><line class="error-cap" x1="567.6129032258063" y1="430.4229980749713" x2="581.6129032258063" y2="430.4229980749713" stroke="black"/></g><g class="y-axis" fill="none" font-size="50px" font-family="sans-serif" text-anchor="end"><path class="domain" stroke="currentColor" d="M0,652.5H0.5V0.5H0"/></g></g><rect x="0" y="0" width="610" height="652" transform="translate(150,60)" style="fill: none; stroke: black; stroke-width: 1px;"/></svg>