<?xml version="1.0" encoding="utf-8" ?>
<svg baseProfile="tiny" height="100%" version="1.2" viewBox="0,0,1000,800" width="100%" xmlns="http://www.w3.org/2000/svg" xmlns:ev="http://www.w3.org/2001/xml-events" xmlns:xlink="http://www.w3.org/1999/xlink"><defs /><image height="200" width="200" x="0" xlink:href="plots/temporal_parity/parity_plot_ACTIVITY_(topo_0)_MLR.svg" y="0" /><image height="200" width="200" x="200" xlink:href="plots/temporal_parity/parity_plot_ACTIVITY_(topo_0)_RF.svg" y="0" /><image height="200" width="200" x="400" xlink:href="plots/temporal_parity/parity_plot_ACTIVITY_(topo_0)_SVR.svg" y="0" /><image height="200" width="200" x="600" xlink:href="plots/temporal_parity/parity_plot_ACTIVITY_(topo_0)_MLP.svg" y="0" /><image height="200" width="200" x="800" xlink:href="plots/temporal_parity/parity_plot_ACTIVITY_(topo_8)_MLR.svg" y="0" /><image height="200" width="200" x="0" xlink:href="plots/temporal_parity/parity_plot_ACTIVITY_(topo_8)_RF.svg" y="200" /><image height="200" width="200" x="200" xlink:href="plots/temporal_parity/parity_plot_ACTIVITY_(topo_8)_SVR.svg" y="200" /><image height="200" width="200" x="400" xlink:href="plots/temporal_parity/parity_plot_ACTIVITY_(topo_8)_MLP.svg" y="200" /><image height="200" width="200" x="600" xlink:href="plots/temporal_parity/parity_plot_ACTIVITY_(topo_15)_MLR.svg" y="200" /><image height="200" width="200" x="800" xlink:href="plots/temporal_parity/parity_plot_ACTIVITY_(topo_15)_RF.svg" y="200" /><image height="200" width="200" x="0" xlink:href="plots/temporal_parity/parity_plot_ACTIVITY_(topo_15)_SVR.svg" y="400" /><image height="200" width="200" x="200" xlink:href="plots/temporal_parity/parity_plot_ACTIVITY_(topo_15)_MLP.svg" y="400" /><image height="200" width="200" x="400" xlink:href="plots/temporal_parity/parity_plot_GROWTH_(topo_0)_MLR.svg" y="400" /><image height="200" width="200" x="600" xlink:href="plots/temporal_parity/parity_plot_GROWTH_(topo_0)_RF.svg" y="400" /><image height="200" width="200" x="800" xlink:href="plots/temporal_parity/parity_plot_GROWTH_(topo_0)_SVR.svg" y="400" /><image height="200" width="200" x="0" xlink:href="plots/temporal_parity/parity_plot_GROWTH_(topo_0)_MLP.svg" y="600" /><image height="200" width="200" x="200" xlink:href="plots/temporal_parity/parity_plot_SYMMETRY_(topo_0)_MLR.svg" y="600" /><image height="200" width="200" x="400" xlink:href="plots/temporal_parity/parity_plot_SYMMETRY_(topo_0)_RF.svg" y="600" /><image height="200" width="200" x="600" xlink:href="plots/temporal_parity/parity_plot_SYMMETRY_(topo_0)_SVR.svg" y="600" /><image height="200" width="200" x="800" xlink:href="plots/temporal_parity/parity_plot_SYMMETRY_(topo_0)_MLP.svg" y="600" /></svg>