<svg xmlns="http://www.w3.org/2000/svg" width="800" height="800"><g class="container" transform="translate(150,60)"><defs><clipPath id="clip-path"><rect x="0" y="0" width="610" height="652"/></clipPath></defs><path class="point" d="M2.8209479177387813,0A2.8209479177387813,2.8209479177387813,0,1,1,-2.8209479177387813,0A2.8209479177387813,2.8209479177387813,0,1,1,2.8209479177387813,0" transform="translate(0,285.40827622665466)" fill="none" stroke="#4098b5" stroke-width="1"/><path class="point" d="M2.8209479177387813,0A2.8209479177387813,2.8209479177387813,0,1,1,-2.8209479177387813,0A2.8209479177387813,2.8209479177387813,0,1,1,2.8209479177387813,0" transform="translate(0,249.86016993718783)" fill="none" stroke="#4098b5" stroke-width="1"/><path class="point" d="M2.8209479177387813,0A2.8209479177387813,2.8209479177387813,0,1,1,-2.8209479177387813,0A2.8209479177387813,2.8209479177387813,0,1,1,2.8209479177387813,0" transform="translate(0,243.65644291949656)" fill="none" stroke="#4098b5" stroke-width="1"/><path class="point" d="M2.8209479177387813,0A2.8209479177387813,2.8209479177387813,0,1,1,-2.8209479177387813,0A2.8209479177387813,2.8209479177387813,0,1,1,2.8209479177387813,0" transform="translate(0,244.23268821114635)" fill="none" stroke="#4098b5" stroke-width="1"/><path class="point" d="M2.8209479177387813,0A2.8209479177387813,2.8209479177387813,0,1,1,-2.8209479177387813,0A2.8209479177387813,2.8209479177387813,0,1,1,2.8209479177387813,0" transform="translate(0,290.7347184544999)" fill="none" stroke="#4098b5" stroke-width="1"/><path class="point" d="M2.8209479177387813,0A2.8209479177387813,2.8209479177387813,0,1,1,-2.8209479177387813,0A2.8209479177387813,2.8209479177387813,0,1,1,2.8209479177387813,0" transform="translate(0,393.8736055474592)" fill="none" stroke="#4098b5" stroke-width="1"/><path class="point" d="M2.8209479177387813,0A2.8209479177387813,2.8209479177387813,0,1,1,-2.8209479177387813,0A2.8209479177387813,2.8209479177387813,0,1,1,2.8209479177387813,0" transform="translate(0,214.25452603715104)" fill="none" stroke="#4098b5" stroke-width="1"/><path class="point" d="M2.8209479177387813,0A2.8209479177387813,2.8209479177387813,0,1,1,-2.8209479177387813,0A2.8209479177387813,2.8209479177387813,0,1,1,2.8209479177387813,0" transform="translate(0,248.85204493125377)" fill="none" stroke="#4098b5" stroke-width="1"/><path class="point" d="M2.8209479177387813,0A2.8209479177387813,2.8209479177387813,0,1,1,-2.8209479177387813,0A2.8209479177387813,2.8209479177387813,0,1,1,2.8209479177387813,0" transform="translate(0,157.37024749895272)" fill="none" stroke="#4098b5" stroke-width="1"/><path class="point" d="M2.8209479177387813,0A2.8209479177387813,2.8209479177387813,0,1,1,-2.8209479177387813,0A2.8209479177387813,2.8209479177387813,0,1,1,2.8209479177387813,0" transform="translate(0,185.27012941165447)" fill="none" stroke="#4098b5" stroke-width="1"/><path class="point" d="M2.8209479177387813,0A2.8209479177387813,2.8209479177387813,0,1,1,-2.8209479177387813,0A2.8209479177387813,2.8209479177387813,0,1,1,2.8209479177387813,0" transform="translate(0,285.40827622665466)" fill="none" stroke="#4098b5" stroke-width="1"/><path class="point" d="M2.8209479177387813,0A2.8209479177387813,2.8209479177387813,0,1,1,-2.8209479177387813,0A2.8209479177387813,2.8209479177387813,0,1,1,2.8209479177387813,0" transform="translate(0,249.86016993718783)" fill="none" stroke="#4098b5" stroke-width="1"/><path class="point" d="M2.8209479177387813,0A2.8209479177387813,2.8209479177387813,0,1,1,-2.8209479177387813,0A2.8209479177387813,2.8209479177387813,0,1,1,2.8209479177387813,0" transform="translate(0,243.65644291949656)" fill="none" stroke="#4098b5" stroke-width="1"/><path class="point" d="M2.8209479177387813,0A2.8209479177387813,2.8209479177387813,0,1,1,-2.8209479177387813,0A2.8209479177387813,2.8209479177387813,0,1,1,2.8209479177387813,0" transform="translate(0,244.23268821114635)" fill="none" stroke="#4098b5" stroke-width="1"/><path class="point" d="M2.8209479177387813,0A2.8209479177387813,2.8209479177387813,0,1,1,-2.8209479177387813,0A2.8209479177387813,2.8209479177387813,0,1,1,2.8209479177387813,0" transform="translate(0,290.7347184544999)" fill="none" stroke="#4098b5" stroke-width="1"/><path class="point" d="M2.8209479177387813,0A2.8209479177387813,2.8209479177387813,0,1,1,-2.8209479177387813,0A2.8209479177387813,2.8209479177387813,0,1,1,2.8209479177387813,0" transform="translate(0,393.8736055474592)" fill="none" stroke="#4098b5" stroke-width="1"/><path class="point" d="M2.8209479177387813,0A2.8209479177387813,2.8209479177387813,0,1,1,-2.8209479177387813,0A2.8209479177387813,2.8209479177387813,0,1,1,2.8209479177387813,0" transform="translate(0,214.25452603715104)" fill="none" stroke="#4098b5" stroke-width="1"/><path class="point" d="M2.8209479177387813,0A2.8209479177387813,2.8209479177387813,0,1,1,-2.8209479177387813,0A2.8209479177387813,2.8209479177387813,0,1,1,2.8209479177387813,0" transform="translate(0,248.85204493125377)" fill="none" stroke="#4098b5" stroke-width="1"/><path class="point" d="M2.8209479177387813,0A2.8209479177387813,2.8209479177387813,0,1,1,-2.8209479177387813,0A2.8209479177387813,2.8209479177387813,0,1,1,2.8209479177387813,0" transform="translate(0,157.37024749895272)" fill="none" stroke="#4098b5" stroke-width="1"/><path class="point" d="M2.8209479177387813,0A2.8209479177387813,2.8209479177387813,0,1,1,-2.8209479177387813,0A2.8209479177387813,2.8209479177387813,0,1,1,2.8209479177387813,0" transform="translate(0,185.27012941165447)" fill="none" stroke="#4098b5" stroke-width="1"/><path class="point" d="M2.8209479177387813,0A2.8209479177387813,2.8209479177387813,0,1,1,-2.8209479177387813,0A2.8209479177387813,2.8209479177387813,0,1,1,2.8209479177387813,0" transform="translate(66.42222222222222,249.40626355384506)" fill="none" stroke="#4098b5" stroke-width="1"/><path class="point" d="M2.8209479177387813,0A2.8209479177387813,2.8209479177387813,0,1,1,-2.8209479177387813,0A2.8209479177387813,2.8209479177387813,0,1,1,2.8209479177387813,0" transform="translate(66.42222222222222,386.0185015450647)" fill="none" stroke="#4098b5" stroke-width="1"/><path class="point" d="M2.8209479177387813,0A2.8209479177387813,2.8209479177387813,0,1,1,-2.8209479177387813,0A2.8209479177387813,2.8209479177387813,0,1,1,2.8209479177387813,0" transform="translate(66.42222222222222,300.47721571082224)" fill="none" stroke="#4098b5" stroke-width="1"/><path class="point" d="M2.8209479177387813,0A2.8209479177387813,2.8209479177387813,0,1,1,-2.8209479177387813,0A2.8209479177387813,2.8209479177387813,0,1,1,2.8209479177387813,0" transform="translate(66.42222222222222,343.60878560957997)" fill="none" stroke="#4098b5" stroke-width="1"/><path class="point" d="M2.8209479177387813,0A2.8209479177387813,2.8209479177387813,0,1,1,-2.8209479177387813,0A2.8209479177387813,2.8209479177387813,0,1,1,2.8209479177387813,0" transform="translate(66.42222222222222,384.0088477442534)" fill="none" stroke="#4098b5" stroke-width="1"/><path class="point" d="M2.8209479177387813,0A2.8209479177387813,2.8209479177387813,0,1,1,-2.8209479177387813,0A2.8209479177387813,2.8209479177387813,0,1,1,2.8209479177387813,0" transform="translate(66.42222222222222,320.2921657659335)" fill="none" stroke="#4098b5" stroke-width="1"/><path class="point" d="M2.8209479177387813,0A2.8209479177387813,2.8209479177387813,0,1,1,-2.8209479177387813,0A2.8209479177387813,2.8209479177387813,0,1,1,2.8209479177387813,0" transform="translate(66.42222222222222,324.55270757334694)" fill="none" stroke="#4098b5" stroke-width="1"/><path class="point" d="M2.8209479177387813,0A2.8209479177387813,2.8209479177387813,0,1,1,-2.8209479177387813,0A2.8209479177387813,2.8209479177387813,0,1,1,2.8209479177387813,0" transform="translate(66.42222222222222,248.01157781729626)" fill="none" stroke="#4098b5" stroke-width="1"/><path class="point" d="M2.8209479177387813,0A2.8209479177387813,2.8209479177387813,0,1,1,-2.8209479177387813,0A2.8209479177387813,2.8209479177387813,0,1,1,2.8209479177387813,0" transform="translate(66.42222222222222,285.36647054892006)" fill="none" stroke="#4098b5" stroke-width="1"/><path class="point" d="M2.8209479177387813,0A2.8209479177387813,2.8209479177387813,0,1,1,-2.8209479177387813,0A2.8209479177387813,2.8209479177387813,0,1,1,2.8209479177387813,0" transform="translate(66.42222222222222,242.9018680082727)" fill="none" stroke="#4098b5" stroke-width="1"/><path class="point" d="M2.8209479177387813,0A2.8209479177387813,2.8209479177387813,0,1,1,-2.8209479177387813,0A2.8209479177387813,2.8209479177387813,0,1,1,2.8209479177387813,0" transform="translate(66.42222222222222,249.40626355384506)" fill="none" stroke="#4098b5" stroke-width="1"/><path class="point" d="M2.8209479177387813,0A2.8209479177387813,2.8209479177387813,0,1,1,-2.8209479177387813,0A2.8209479177387813,2.8209479177387813,0,1,1,2.8209479177387813,0" transform="translate(66.42222222222222,386.0185015450647)" fill="none" stroke="#4098b5" stroke-width="1"/><path class="point" d="M2.8209479177387813,0A2.8209479177387813,2.8209479177387813,0,1,1,-2.8209479177387813,0A2.8209479177387813,2.8209479177387813,0,1,1,2.8209479177387813,0" transform="translate(66.42222222222222,300.47721571082224)" fill="none" stroke="#4098b5" stroke-width="1"/><path class="point" d="M2.8209479177387813,0A2.8209479177387813,2.8209479177387813,0,1,1,-2.8209479177387813,0A2.8209479177387813,2.8209479177387813,0,1,1,2.8209479177387813,0" transform="translate(66.42222222222222,343.60878560957997)" fill="none" stroke="#4098b5" stroke-width="1"/><path class="point" d="M2.8209479177387813,0A2.8209479177387813,2.8209479177387813,0,1,1,-2.8209479177387813,0A2.8209479177387813,2.8209479177387813,0,1,1,2.8209479177387813,0" transform="translate(66.42222222222222,384.0088477442534)" fill="none" stroke="#4098b5" stroke-width="1"/><path class="point" d="M2.8209479177387813,0A2.8209479177387813,2.8209479177387813,0,1,1,-2.8209479177387813,0A2.8209479177387813,2.8209479177387813,0,1,1,2.8209479177387813,0" transform="translate(66.42222222222222,320.2921657659335)" fill="none" stroke="#4098b5" stroke-width="1"/><path class="point" d="M2.8209479177387813,0A2.8209479177387813,2.8209479177387813,0,1,1,-2.8209479177387813,0A2.8209479177387813,2.8209479177387813,0,1,1,2.8209479177387813,0" transform="translate(66.42222222222222,324.55270757334694)" fill="none" stroke="#4098b5" stroke-width="1"/><path class="point" d="M2.8209479177387813,0A2.8209479177387813,2.8209479177387813,0,1,1,-2.8209479177387813,0A2.8209479177387813,2.8209479177387813,0,1,1,2.8209479177387813,0" transform="translate(66.42222222222222,248.01157781729626)" fill="none" stroke="#4098b5" stroke-width="1"/><path class="point" d="M2.8209479177387813,0A2.8209479177387813,2.8209479177387813,0,1,1,-2.8209479177387813,0A2.8209479177387813,2.8209479177387813,0,1,1,2.8209479177387813,0" transform="translate(66.42222222222222,285.36647054892006)" fill="none" stroke="#4098b5" stroke-width="1"/><path class="point" d="M2.8209479177387813,0A2.8209479177387813,2.8209479177387813,0,1,1,-2.8209479177387813,0A2.8209479177387813,2.8209479177387813,0,1,1,2.8209479177387813,0" transform="translate(66.42222222222222,242.9018680082727)" fill="none" stroke="#4098b5" stroke-width="1"/><path class="point" d="M2.8209479177387813,0A2.8209479177387813,2.8209479177387813,0,1,1,-2.8209479177387813,0A2.8209479177387813,2.8209479177387813,0,1,1,2.8209479177387813,0" transform="translate(134.2,385.5228625551215)" fill="none" stroke="#4098b5" stroke-width="1"/><path class="point" d="M2.8209479177387813,0A2.8209479177387813,2.8209479177387813,0,1,1,-2.8209479177387813,0A2.8209479177387813,2.8209479177387813,0,1,1,2.8209479177387813,0" transform="translate(134.2,318.2299890183565)" fill="none" stroke="#4098b5" stroke-width="1"/><path class="point" d="M2.8209479177387813,0A2.8209479177387813,2.8209479177387813,0,1,1,-2.8209479177387813,0A2.8209479177387813,2.8209479177387813,0,1,1,2.8209479177387813,0" transform="translate(134.2,335.73297503718715)" fill="none" stroke="#4098b5" stroke-width="1"/><path class="point" d="M2.8209479177387813,0A2.8209479177387813,2.8209479177387813,0,1,1,-2.8209479177387813,0A2.8209479177387813,2.8209479177387813,0,1,1,2.8209479177387813,0" transform="translate(134.2,311.10933083745255)" fill="none" stroke="#4098b5" stroke-width="1"/><path class="point" d="M2.8209479177387813,0A2.8209479177387813,2.8209479177387813,0,1,1,-2.8209479177387813,0A2.8209479177387813,2.8209479177387813,0,1,1,2.8209479177387813,0" transform="translate(134.2,359.5610586273493)" fill="none" stroke="#4098b5" stroke-width="1"/><path class="point" d="M2.8209479177387813,0A2.8209479177387813,2.8209479177387813,0,1,1,-2.8209479177387813,0A2.8209479177387813,2.8209479177387813,0,1,1,2.8209479177387813,0" transform="translate(134.2,348.0184829957333)" fill="none" stroke="#4098b5" stroke-width="1"/><path class="point" d="M2.8209479177387813,0A2.8209479177387813,2.8209479177387813,0,1,1,-2.8209479177387813,0A2.8209479177387813,2.8209479177387813,0,1,1,2.8209479177387813,0" transform="translate(134.2,304.0030564924581)" fill="none" stroke="#4098b5" stroke-width="1"/><path class="point" d="M2.8209479177387813,0A2.8209479177387813,2.8209479177387813,0,1,1,-2.8209479177387813,0A2.8209479177387813,2.8209479177387813,0,1,1,2.8209479177387813,0" transform="translate(134.2,350.13166853010006)" fill="none" stroke="#4098b5" stroke-width="1"/><path class="point" d="M2.8209479177387813,0A2.8209479177387813,2.8209479177387813,0,1,1,-2.8209479177387813,0A2.8209479177387813,2.8209479177387813,0,1,1,2.8209479177387813,0" transform="translate(134.2,284.6889071444133)" fill="none" stroke="#4098b5" stroke-width="1"/><path class="point" d="M2.8209479177387813,0A2.8209479177387813,2.8209479177387813,0,1,1,-2.8209479177387813,0A2.8209479177387813,2.8209479177387813,0,1,1,2.8209479177387813,0" transform="translate(134.2,299.05504737123215)" fill="none" stroke="#4098b5" stroke-width="1"/><path class="point" d="M2.8209479177387813,0A2.8209479177387813,2.8209479177387813,0,1,1,-2.8209479177387813,0A2.8209479177387813,2.8209479177387813,0,1,1,2.8209479177387813,0" transform="translate(134.2,385.5228625551215)" fill="none" stroke="#4098b5" stroke-width="1"/><path class="point" d="M2.8209479177387813,0A2.8209479177387813,2.8209479177387813,0,1,1,-2.8209479177387813,0A2.8209479177387813,2.8209479177387813,0,1,1,2.8209479177387813,0" transform="translate(134.2,318.2299890183565)" fill="none" stroke="#4098b5" stroke-width="1"/><path class="point" d="M2.8209479177387813,0A2.8209479177387813,2.8209479177387813,0,1,1,-2.8209479177387813,0A2.8209479177387813,2.8209479177387813,0,1,1,2.8209479177387813,0" transform="translate(134.2,335.73297503718715)" fill="none" stroke="#4098b5" stroke-width="1"/><path class="point" d="M2.8209479177387813,0A2.8209479177387813,2.8209479177387813,0,1,1,-2.8209479177387813,0A2.8209479177387813,2.8209479177387813,0,1,1,2.8209479177387813,0" transform="translate(134.2,311.10933083745255)" fill="none" stroke="#4098b5" stroke-width="1"/><path class="point" d="M2.8209479177387813,0A2.8209479177387813,2.8209479177387813,0,1,1,-2.8209479177387813,0A2.8209479177387813,2.8209479177387813,0,1,1,2.8209479177387813,0" transform="translate(134.2,359.5610586273493)" fill="none" stroke="#4098b5" stroke-width="1"/><path class="point" d="M2.8209479177387813,0A2.8209479177387813,2.8209479177387813,0,1,1,-2.8209479177387813,0A2.8209479177387813,2.8209479177387813,0,1,1,2.8209479177387813,0" transform="translate(134.2,348.0184829957333)" fill="none" stroke="#4098b5" stroke-width="1"/><path class="point" d="M2.8209479177387813,0A2.8209479177387813,2.8209479177387813,0,1,1,-2.8209479177387813,0A2.8209479177387813,2.8209479177387813,0,1,1,2.8209479177387813,0" transform="translate(134.2,304.0030564924581)" fill="none" stroke="#4098b5" stroke-width="1"/><path class="point" d="M2.8209479177387813,0A2.8209479177387813,2.8209479177387813,0,1,1,-2.8209479177387813,0A2.8209479177387813,2.8209479177387813,0,1,1,2.8209479177387813,0" transform="translate(134.2,350.13166853010006)" fill="none" stroke="#4098b5" stroke-width="1"/><path class="point" d="M2.8209479177387813,0A2.8209479177387813,2.8209479177387813,0,1,1,-2.8209479177387813,0A2.8209479177387813,2.8209479177387813,0,1,1,2.8209479177387813,0" transform="translate(134.2,284.6889071444133)" fill="none" stroke="#4098b5" stroke-width="1"/><path class="point" d="M2.8209479177387813,0A2.8209479177387813,2.8209479177387813,0,1,1,-2.8209479177387813,0A2.8209479177387813,2.8209479177387813,0,1,1,2.8209479177387813,0" transform="translate(134.2,299.05504737123215)" fill="none" stroke="#4098b5" stroke-width="1"/><path class="point" d="M2.8209479177387813,0A2.8209479177387813,2.8209479177387813,0,1,1,-2.8209479177387813,0A2.8209479177387813,2.8209479177387813,0,1,1,2.8209479177387813,0" transform="translate(201.9777777777778,378.980928997181)" fill="none" stroke="#4098b5" stroke-width="1"/><path class="point" d="M2.8209479177387813,0A2.8209479177387813,2.8209479177387813,0,1,1,-2.8209479177387813,0A2.8209479177387813,2.8209479177387813,0,1,1,2.8209479177387813,0" transform="translate(201.9777777777778,322.8812101996509)" fill="none" stroke="#4098b5" stroke-width="1"/><path class="point" d="M2.8209479177387813,0A2.8209479177387813,2.8209479177387813,0,1,1,-2.8209479177387813,0A2.8209479177387813,2.8209479177387813,0,1,1,2.8209479177387813,0" transform="translate(201.9777777777778,345.0593870275324)" fill="none" stroke="#4098b5" stroke-width="1"/><path class="point" d="M2.8209479177387813,0A2.8209479177387813,2.8209479177387813,0,1,1,-2.8209479177387813,0A2.8209479177387813,2.8209479177387813,0,1,1,2.8209479177387813,0" transform="translate(201.9777777777778,329.05974128186773)" fill="none" stroke="#4098b5" stroke-width="1"/><path class="point" d="M2.8209479177387813,0A2.8209479177387813,2.8209479177387813,0,1,1,-2.8209479177387813,0A2.8209479177387813,2.8209479177387813,0,1,1,2.8209479177387813,0" transform="translate(201.9777777777778,376.23727954047797)" fill="none" stroke="#4098b5" stroke-width="1"/><path class="point" d="M2.8209479177387813,0A2.8209479177387813,2.8209479177387813,0,1,1,-2.8209479177387813,0A2.8209479177387813,2.8209479177387813,0,1,1,2.8209479177387813,0" transform="translate(201.9777777777778,321.74526250399157)" fill="none" stroke="#4098b5" stroke-width="1"/><path class="point" d="M2.8209479177387813,0A2.8209479177387813,2.8209479177387813,0,1,1,-2.8209479177387813,0A2.8209479177387813,2.8209479177387813,0,1,1,2.8209479177387813,0" transform="translate(201.9777777777778,323.0837741684375)" fill="none" stroke="#4098b5" stroke-width="1"/><path class="point" d="M2.8209479177387813,0A2.8209479177387813,2.8209479177387813,0,1,1,-2.8209479177387813,0A2.8209479177387813,2.8209479177387813,0,1,1,2.8209479177387813,0" transform="translate(201.9777777777778,318.6639159413278)" fill="none" stroke="#4098b5" stroke-width="1"/><path class="point" d="M2.8209479177387813,0A2.8209479177387813,2.8209479177387813,0,1,1,-2.8209479177387813,0A2.8209479177387813,2.8209479177387813,0,1,1,2.8209479177387813,0" transform="translate(201.9777777777778,309.4336147362623)" fill="none" stroke="#4098b5" stroke-width="1"/><path class="point" d="M2.8209479177387813,0A2.8209479177387813,2.8209479177387813,0,1,1,-2.8209479177387813,0A2.8209479177387813,2.8209479177387813,0,1,1,2.8209479177387813,0" transform="translate(201.9777777777778,368.7100136724744)" fill="none" stroke="#4098b5" stroke-width="1"/><path class="point" d="M2.8209479177387813,0A2.8209479177387813,2.8209479177387813,0,1,1,-2.8209479177387813,0A2.8209479177387813,2.8209479177387813,0,1,1,2.8209479177387813,0" transform="translate(201.9777777777778,378.980928997181)" fill="none" stroke="#4098b5" stroke-width="1"/><path class="point" d="M2.8209479177387813,0A2.8209479177387813,2.8209479177387813,0,1,1,-2.8209479177387813,0A2.8209479177387813,2.8209479177387813,0,1,1,2.8209479177387813,0" transform="translate(201.9777777777778,322.8812101996509)" fill="none" stroke="#4098b5" stroke-width="1"/><path class="point" d="M2.8209479177387813,0A2.8209479177387813,2.8209479177387813,0,1,1,-2.8209479177387813,0A2.8209479177387813,2.8209479177387813,0,1,1,2.8209479177387813,0" transform="translate(201.9777777777778,345.0593870275324)" fill="none" stroke="#4098b5" stroke-width="1"/><path class="point" d="M2.8209479177387813,0A2.8209479177387813,2.8209479177387813,0,1,1,-2.8209479177387813,0A2.8209479177387813,2.8209479177387813,0,1,1,2.8209479177387813,0" transform="translate(201.9777777777778,329.05974128186773)" fill="none" stroke="#4098b5" stroke-width="1"/><path class="point" d="M2.8209479177387813,0A2.8209479177387813,2.8209479177387813,0,1,1,-2.8209479177387813,0A2.8209479177387813,2.8209479177387813,0,1,1,2.8209479177387813,0" transform="translate(201.9777777777778,376.23727954047797)" fill="none" stroke="#4098b5" stroke-width="1"/><path class="point" d="M2.8209479177387813,0A2.8209479177387813,2.8209479177387813,0,1,1,-2.8209479177387813,0A2.8209479177387813,2.8209479177387813,0,1,1,2.8209479177387813,0" transform="translate(201.9777777777778,321.74526250399157)" fill="none" stroke="#4098b5" stroke-width="1"/><path class="point" d="M2.8209479177387813,0A2.8209479177387813,2.8209479177387813,0,1,1,-2.8209479177387813,0A2.8209479177387813,2.8209479177387813,0,1,1,2.8209479177387813,0" transform="translate(201.9777777777778,323.0837741684375)" fill="none" stroke="#4098b5" stroke-width="1"/><path class="point" d="M2.8209479177387813,0A2.8209479177387813,2.8209479177387813,0,1,1,-2.8209479177387813,0A2.8209479177387813,2.8209479177387813,0,1,1,2.8209479177387813,0" transform="translate(201.9777777777778,318.6639159413278)" fill="none" stroke="#4098b5" stroke-width="1"/><path class="point" d="M2.8209479177387813,0A2.8209479177387813,2.8209479177387813,0,1,1,-2.8209479177387813,0A2.8209479177387813,2.8209479177387813,0,1,1,2.8209479177387813,0" transform="translate(201.9777777777778,309.4336147362623)" fill="none" stroke="#4098b5" stroke-width="1"/><path class="point" d="M2.8209479177387813,0A2.8209479177387813,2.8209479177387813,0,1,1,-2.8209479177387813,0A2.8209479177387813,2.8209479177387813,0,1,1,2.8209479177387813,0" transform="translate(201.9777777777778,368.7100136724744)" fill="none" stroke="#4098b5" stroke-width="1"/><path class="point" d="M2.8209479177387813,0A2.8209479177387813,2.8209479177387813,0,1,1,-2.8209479177387813,0A2.8209479177387813,2.8209479177387813,0,1,1,2.8209479177387813,0" transform="translate(269.7555555555556,359.1988008596985)" fill="none" stroke="#4098b5" stroke-width="1"/><path class="point" d="M2.8209479177387813,0A2.8209479177387813,2.8209479177387813,0,1,1,-2.8209479177387813,0A2.8209479177387813,2.8209479177387813,0,1,1,2.8209479177387813,0" transform="translate(269.7555555555556,367.7771414656672)" fill="none" stroke="#4098b5" stroke-width="1"/><path class="point" d="M2.8209479177387813,0A2.8209479177387813,2.8209479177387813,0,1,1,-2.8209479177387813,0A2.8209479177387813,2.8209479177387813,0,1,1,2.8209479177387813,0" transform="translate(269.7555555555556,380.3906453081285)" fill="none" stroke="#4098b5" stroke-width="1"/><path class="point" d="M2.8209479177387813,0A2.8209479177387813,2.8209479177387813,0,1,1,-2.8209479177387813,0A2.8209479177387813,2.8209479177387813,0,1,1,2.8209479177387813,0" transform="translate(269.7555555555556,295.9350088059816)" fill="none" stroke="#4098b5" stroke-width="1"/><path class="point" d="M2.8209479177387813,0A2.8209479177387813,2.8209479177387813,0,1,1,-2.8209479177387813,0A2.8209479177387813,2.8209479177387813,0,1,1,2.8209479177387813,0" transform="translate(269.7555555555556,330.30571042687563)" fill="none" stroke="#4098b5" stroke-width="1"/><path class="point" d="M2.8209479177387813,0A2.8209479177387813,2.8209479177387813,0,1,1,-2.8209479177387813,0A2.8209479177387813,2.8209479177387813,0,1,1,2.8209479177387813,0" transform="translate(269.7555555555556,352.93821744079867)" fill="none" stroke="#4098b5" stroke-width="1"/><path class="point" d="M2.8209479177387813,0A2.8209479177387813,2.8209479177387813,0,1,1,-2.8209479177387813,0A2.8209479177387813,2.8209479177387813,0,1,1,2.8209479177387813,0" transform="translate(269.7555555555556,336.19684229436393)" fill="none" stroke="#4098b5" stroke-width="1"/><path class="point" d="M2.8209479177387813,0A2.8209479177387813,2.8209479177387813,0,1,1,-2.8209479177387813,0A2.8209479177387813,2.8209479177387813,0,1,1,2.8209479177387813,0" transform="translate(269.7555555555556,337.6375592709266)" fill="none" stroke="#4098b5" stroke-width="1"/><path class="point" d="M2.8209479177387813,0A2.8209479177387813,2.8209479177387813,0,1,1,-2.8209479177387813,0A2.8209479177387813,2.8209479177387813,0,1,1,2.8209479177387813,0" transform="translate(269.7555555555556,356.6392764469302)" fill="none" stroke="#4098b5" stroke-width="1"/><path class="point" d="M2.8209479177387813,0A2.8209479177387813,2.8209479177387813,0,1,1,-2.8209479177387813,0A2.8209479177387813,2.8209479177387813,0,1,1,2.8209479177387813,0" transform="translate(269.7555555555556,373.88151202632173)" fill="none" stroke="#4098b5" stroke-width="1"/><path class="point" d="M2.8209479177387813,0A2.8209479177387813,2.8209479177387813,0,1,1,-2.8209479177387813,0A2.8209479177387813,2.8209479177387813,0,1,1,2.8209479177387813,0" transform="translate(269.7555555555556,359.1988008596985)" fill="none" stroke="#4098b5" stroke-width="1"/><path class="point" d="M2.8209479177387813,0A2.8209479177387813,2.8209479177387813,0,1,1,-2.8209479177387813,0A2.8209479177387813,2.8209479177387813,0,1,1,2.8209479177387813,0" transform="translate(269.7555555555556,367.7771414656672)" fill="none" stroke="#4098b5" stroke-width="1"/><path class="point" d="M2.8209479177387813,0A2.8209479177387813,2.8209479177387813,0,1,1,-2.8209479177387813,0A2.8209479177387813,2.8209479177387813,0,1,1,2.8209479177387813,0" transform="translate(269.7555555555556,380.3906453081285)" fill="none" stroke="#4098b5" stroke-width="1"/><path class="point" d="M2.8209479177387813,0A2.8209479177387813,2.8209479177387813,0,1,1,-2.8209479177387813,0A2.8209479177387813,2.8209479177387813,0,1,1,2.8209479177387813,0" transform="translate(269.7555555555556,295.9350088059816)" fill="none" stroke="#4098b5" stroke-width="1"/><path class="point" d="M2.8209479177387813,0A2.8209479177387813,2.8209479177387813,0,1,1,-2.8209479177387813,0A2.8209479177387813,2.8209479177387813,0,1,1,2.8209479177387813,0" transform="translate(269.7555555555556,330.30571042687563)" fill="none" stroke="#4098b5" stroke-width="1"/><path class="point" d="M2.8209479177387813,0A2.8209479177387813,2.8209479177387813,0,1,1,-2.8209479177387813,0A2.8209479177387813,2.8209479177387813,0,1,1,2.8209479177387813,0" transform="translate(269.7555555555556,352.93821744079867)" fill="none" stroke="#4098b5" stroke-width="1"/><path class="point" d="M2.8209479177387813,0A2.8209479177387813,2.8209479177387813,0,1,1,-2.8209479177387813,0A2.8209479177387813,2.8209479177387813,0,1,1,2.8209479177387813,0" transform="translate(269.7555555555556,336.19684229436393)" fill="none" stroke="#4098b5" stroke-width="1"/><path class="point" d="M2.8209479177387813,0A2.8209479177387813,2.8209479177387813,0,1,1,-2.8209479177387813,0A2.8209479177387813,2.8209479177387813,0,1,1,2.8209479177387813,0" transform="translate(269.7555555555556,337.6375592709266)" fill="none" stroke="#4098b5" stroke-width="1"/><path class="point" d="M2.8209479177387813,0A2.8209479177387813,2.8209479177387813,0,1,1,-2.8209479177387813,0A2.8209479177387813,2.8209479177387813,0,1,1,2.8209479177387813,0" transform="translate(269.7555555555556,356.6392764469302)" fill="none" stroke="#4098b5" stroke-width="1"/><path class="point" d="M2.8209479177387813,0A2.8209479177387813,2.8209479177387813,0,1,1,-2.8209479177387813,0A2.8209479177387813,2.8209479177387813,0,1,1,2.8209479177387813,0" transform="translate(269.7555555555556,373.88151202632173)" fill="none" stroke="#4098b5" stroke-width="1"/><path class="point" d="M2.8209479177387813,0A2.8209479177387813,2.8209479177387813,0,1,1,-2.8209479177387813,0A2.8209479177387813,2.8209479177387813,0,1,1,2.8209479177387813,0" transform="translate(336.17777777777775,341.28685194483575)" fill="none" stroke="#4098b5" stroke-width="1"/><path class="point" d="M2.8209479177387813,0A2.8209479177387813,2.8209479177387813,0,1,1,-2.8209479177387813,0A2.8209479177387813,2.8209479177387813,0,1,1,2.8209479177387813,0" transform="translate(336.17777777777775,325.6919120284125)" fill="none" stroke="#4098b5" stroke-width="1"/><path class="point" d="M2.8209479177387813,0A2.8209479177387813,2.8209479177387813,0,1,1,-2.8209479177387813,0A2.8209479177387813,2.8209479177387813,0,1,1,2.8209479177387813,0" transform="translate(336.17777777777775,318.7532292897059)" fill="none" stroke="#4098b5" stroke-width="1"/><path class="point" d="M2.8209479177387813,0A2.8209479177387813,2.8209479177387813,0,1,1,-2.8209479177387813,0A2.8209479177387813,2.8209479177387813,0,1,1,2.8209479177387813,0" transform="translate(336.17777777777775,316.11828936024904)" fill="none" stroke="#4098b5" stroke-width="1"/><path class="point" d="M2.8209479177387813,0A2.8209479177387813,2.8209479177387813,0,1,1,-2.8209479177387813,0A2.8209479177387813,2.8209479177387813,0,1,1,2.8209479177387813,0" transform="translate(336.17777777777775,344.78972617659645)" fill="none" stroke="#4098b5" stroke-width="1"/><path class="point" d="M2.8209479177387813,0A2.8209479177387813,2.8209479177387813,0,1,1,-2.8209479177387813,0A2.8209479177387813,2.8209479177387813,0,1,1,2.8209479177387813,0" transform="translate(336.17777777777775,349.6879536881582)" fill="none" stroke="#4098b5" stroke-width="1"/><path class="point" d="M2.8209479177387813,0A2.8209479177387813,2.8209479177387813,0,1,1,-2.8209479177387813,0A2.8209479177387813,2.8209479177387813,0,1,1,2.8209479177387813,0" transform="translate(336.17777777777775,353.6169819581806)" fill="none" stroke="#4098b5" stroke-width="1"/><path class="point" d="M2.8209479177387813,0A2.8209479177387813,2.8209479177387813,0,1,1,-2.8209479177387813,0A2.8209479177387813,2.8209479177387813,0,1,1,2.8209479177387813,0" transform="translate(336.17777777777775,349.18225747107465)" fill="none" stroke="#4098b5" stroke-width="1"/><path class="point" d="M2.8209479177387813,0A2.8209479177387813,2.8209479177387813,0,1,1,-2.8209479177387813,0A2.8209479177387813,2.8209479177387813,0,1,1,2.8209479177387813,0" transform="translate(336.17777777777775,306.2654817628339)" fill="none" stroke="#4098b5" stroke-width="1"/><path class="point" d="M2.8209479177387813,0A2.8209479177387813,2.8209479177387813,0,1,1,-2.8209479177387813,0A2.8209479177387813,2.8209479177387813,0,1,1,2.8209479177387813,0" transform="translate(336.17777777777775,369.35668234089155)" fill="none" stroke="#4098b5" stroke-width="1"/><path class="point" d="M2.8209479177387813,0A2.8209479177387813,2.8209479177387813,0,1,1,-2.8209479177387813,0A2.8209479177387813,2.8209479177387813,0,1,1,2.8209479177387813,0" transform="translate(336.17777777777775,341.28685194483575)" fill="none" stroke="#4098b5" stroke-width="1"/><path class="point" d="M2.8209479177387813,0A2.8209479177387813,2.8209479177387813,0,1,1,-2.8209479177387813,0A2.8209479177387813,2.8209479177387813,0,1,1,2.8209479177387813,0" transform="translate(336.17777777777775,325.6919120284125)" fill="none" stroke="#4098b5" stroke-width="1"/><path class="point" d="M2.8209479177387813,0A2.8209479177387813,2.8209479177387813,0,1,1,-2.8209479177387813,0A2.8209479177387813,2.8209479177387813,0,1,1,2.8209479177387813,0" transform="translate(336.17777777777775,318.7532292897059)" fill="none" stroke="#4098b5" stroke-width="1"/><path class="point" d="M2.8209479177387813,0A2.8209479177387813,2.8209479177387813,0,1,1,-2.8209479177387813,0A2.8209479177387813,2.8209479177387813,0,1,1,2.8209479177387813,0" transform="translate(336.17777777777775,316.11828936024904)" fill="none" stroke="#4098b5" stroke-width="1"/><path class="point" d="M2.8209479177387813,0A2.8209479177387813,2.8209479177387813,0,1,1,-2.8209479177387813,0A2.8209479177387813,2.8209479177387813,0,1,1,2.8209479177387813,0" transform="translate(336.17777777777775,344.78972617659645)" fill="none" stroke="#4098b5" stroke-width="1"/><path class="point" d="M2.8209479177387813,0A2.8209479177387813,2.8209479177387813,0,1,1,-2.8209479177387813,0A2.8209479177387813,2.8209479177387813,0,1,1,2.8209479177387813,0" transform="translate(336.17777777777775,349.6879536881582)" fill="none" stroke="#4098b5" stroke-width="1"/><path class="point" d="M2.8209479177387813,0A2.8209479177387813,2.8209479177387813,0,1,1,-2.8209479177387813,0A2.8209479177387813,2.8209479177387813,0,1,1,2.8209479177387813,0" transform="translate(336.17777777777775,353.6169819581806)" fill="none" stroke="#4098b5" stroke-width="1"/><path class="point" d="M2.8209479177387813,0A2.8209479177387813,2.8209479177387813,0,1,1,-2.8209479177387813,0A2.8209479177387813,2.8209479177387813,0,1,1,2.8209479177387813,0" transform="translate(336.17777777777775,349.18225747107465)" fill="none" stroke="#4098b5" stroke-width="1"/><path class="point" d="M2.8209479177387813,0A2.8209479177387813,2.8209479177387813,0,1,1,-2.8209479177387813,0A2.8209479177387813,2.8209479177387813,0,1,1,2.8209479177387813,0" transform="translate(336.17777777777775,306.2654817628339)" fill="none" stroke="#4098b5" stroke-width="1"/><path class="point" d="M2.8209479177387813,0A2.8209479177387813,2.8209479177387813,0,1,1,-2.8209479177387813,0A2.8209479177387813,2.8209479177387813,0,1,1,2.8209479177387813,0" transform="translate(336.17777777777775,369.35668234089155)" fill="none" stroke="#4098b5" stroke-width="1"/><path class="point" d="M2.8209479177387813,0A2.8209479177387813,2.8209479177387813,0,1,1,-2.8209479177387813,0A2.8209479177387813,2.8209479177387813,0,1,1,2.8209479177387813,0" transform="translate(403.9555555555556,323.80372302478736)" fill="none" stroke="#4098b5" stroke-width="1"/><path class="point" d="M2.8209479177387813,0A2.8209479177387813,2.8209479177387813,0,1,1,-2.8209479177387813,0A2.8209479177387813,2.8209479177387813,0,1,1,2.8209479177387813,0" transform="translate(403.9555555555556,364.8255072268039)" fill="none" stroke="#4098b5" stroke-width="1"/><path class="point" d="M2.8209479177387813,0A2.8209479177387813,2.8209479177387813,0,1,1,-2.8209479177387813,0A2.8209479177387813,2.8209479177387813,0,1,1,2.8209479177387813,0" transform="translate(403.9555555555556,378.0308241405397)" fill="none" stroke="#4098b5" stroke-width="1"/><path class="point" d="M2.8209479177387813,0A2.8209479177387813,2.8209479177387813,0,1,1,-2.8209479177387813,0A2.8209479177387813,2.8209479177387813,0,1,1,2.8209479177387813,0" transform="translate(403.9555555555556,350.4746724161265)" fill="none" stroke="#4098b5" stroke-width="1"/><path class="point" d="M2.8209479177387813,0A2.8209479177387813,2.8209479177387813,0,1,1,-2.8209479177387813,0A2.8209479177387813,2.8209479177387813,0,1,1,2.8209479177387813,0" transform="translate(403.9555555555556,375.0342031337177)" fill="none" stroke="#4098b5" stroke-width="1"/><path class="point" d="M2.8209479177387813,0A2.8209479177387813,2.8209479177387813,0,1,1,-2.8209479177387813,0A2.8209479177387813,2.8209479177387813,0,1,1,2.8209479177387813,0" transform="translate(403.9555555555556,356.9125432369931)" fill="none" stroke="#4098b5" stroke-width="1"/><path class="point" d="M2.8209479177387813,0A2.8209479177387813,2.8209479177387813,0,1,1,-2.8209479177387813,0A2.8209479177387813,2.8209479177387813,0,1,1,2.8209479177387813,0" transform="translate(403.9555555555556,368.8306274824217)" fill="none" stroke="#4098b5" stroke-width="1"/><path class="point" d="M2.8209479177387813,0A2.8209479177387813,2.8209479177387813,0,1,1,-2.8209479177387813,0A2.8209479177387813,2.8209479177387813,0,1,1,2.8209479177387813,0" transform="translate(403.9555555555556,312.3420323043369)" fill="none" stroke="#4098b5" stroke-width="1"/><path class="point" d="M2.8209479177387813,0A2.8209479177387813,2.8209479177387813,0,1,1,-2.8209479177387813,0A2.8209479177387813,2.8209479177387813,0,1,1,2.8209479177387813,0" transform="translate(403.9555555555556,340.8245473253307)" fill="none" stroke="#4098b5" stroke-width="1"/><path class="point" d="M2.8209479177387813,0A2.8209479177387813,2.8209479177387813,0,1,1,-2.8209479177387813,0A2.8209479177387813,2.8209479177387813,0,1,1,2.8209479177387813,0" transform="translate(403.9555555555556,339.0864851028717)" fill="none" stroke="#4098b5" stroke-width="1"/><path class="point" d="M2.8209479177387813,0A2.8209479177387813,2.8209479177387813,0,1,1,-2.8209479177387813,0A2.8209479177387813,2.8209479177387813,0,1,1,2.8209479177387813,0" transform="translate(403.9555555555556,323.80372302478736)" fill="none" stroke="#4098b5" stroke-width="1"/><path class="point" d="M2.8209479177387813,0A2.8209479177387813,2.8209479177387813,0,1,1,-2.8209479177387813,0A2.8209479177387813,2.8209479177387813,0,1,1,2.8209479177387813,0" transform="translate(403.9555555555556,364.8255072268039)" fill="none" stroke="#4098b5" stroke-width="1"/><path class="point" d="M2.8209479177387813,0A2.8209479177387813,2.8209479177387813,0,1,1,-2.8209479177387813,0A2.8209479177387813,2.8209479177387813,0,1,1,2.8209479177387813,0" transform="translate(403.9555555555556,378.0308241405397)" fill="none" stroke="#4098b5" stroke-width="1"/><path class="point" d="M2.8209479177387813,0A2.8209479177387813,2.8209479177387813,0,1,1,-2.8209479177387813,0A2.8209479177387813,2.8209479177387813,0,1,1,2.8209479177387813,0" transform="translate(403.9555555555556,350.4746724161265)" fill="none" stroke="#4098b5" stroke-width="1"/><path class="point" d="M2.8209479177387813,0A2.8209479177387813,2.8209479177387813,0,1,1,-2.8209479177387813,0A2.8209479177387813,2.8209479177387813,0,1,1,2.8209479177387813,0" transform="translate(403.9555555555556,375.0342031337177)" fill="none" stroke="#4098b5" stroke-width="1"/><path class="point" d="M2.8209479177387813,0A2.8209479177387813,2.8209479177387813,0,1,1,-2.8209479177387813,0A2.8209479177387813,2.8209479177387813,0,1,1,2.8209479177387813,0" transform="translate(403.9555555555556,356.9125432369931)" fill="none" stroke="#4098b5" stroke-width="1"/><path class="point" d="M2.8209479177387813,0A2.8209479177387813,2.8209479177387813,0,1,1,-2.8209479177387813,0A2.8209479177387813,2.8209479177387813,0,1,1,2.8209479177387813,0" transform="translate(403.9555555555556,368.8306274824217)" fill="none" stroke="#4098b5" stroke-width="1"/><path class="point" d="M2.8209479177387813,0A2.8209479177387813,2.8209479177387813,0,1,1,-2.8209479177387813,0A2.8209479177387813,2.8209479177387813,0,1,1,2.8209479177387813,0" transform="translate(403.9555555555556,312.3420323043369)" fill="none" stroke="#4098b5" stroke-width="1"/><path class="point" d="M2.8209479177387813,0A2.8209479177387813,2.8209479177387813,0,1,1,-2.8209479177387813,0A2.8209479177387813,2.8209479177387813,0,1,1,2.8209479177387813,0" transform="translate(403.9555555555556,340.8245473253307)" fill="none" stroke="#4098b5" stroke-width="1"/><path class="point" d="M2.8209479177387813,0A2.8209479177387813,2.8209479177387813,0,1,1,-2.8209479177387813,0A2.8209479177387813,2.8209479177387813,0,1,1,2.8209479177387813,0" transform="translate(403.9555555555556,339.0864851028717)" fill="none" stroke="#4098b5" stroke-width="1"/><path class="point" d="M2.8209479177387813,0A2.8209479177387813,2.8209479177387813,0,1,1,-2.8209479177387813,0A2.8209479177387813,2.8209479177387813,0,1,1,2.8209479177387813,0" transform="translate(471.73333333333335,364.67709228322207)" fill="none" stroke="#4098b5" stroke-width="1"/><path class="point" d="M2.8209479177387813,0A2.8209479177387813,2.8209479177387813,0,1,1,-2.8209479177387813,0A2.8209479177387813,2.8209479177387813,0,1,1,2.8209479177387813,0" transform="translate(471.73333333333335,340.96140050295094)" fill="none" stroke="#4098b5" stroke-width="1"/><path class="point" d="M2.8209479177387813,0A2.8209479177387813,2.8209479177387813,0,1,1,-2.8209479177387813,0A2.8209479177387813,2.8209479177387813,0,1,1,2.8209479177387813,0" transform="translate(471.73333333333335,351.1002934392638)" fill="none" stroke="#4098b5" stroke-width="1"/><path class="point" d="M2.8209479177387813,0A2.8209479177387813,2.8209479177387813,0,1,1,-2.8209479177387813,0A2.8209479177387813,2.8209479177387813,0,1,1,2.8209479177387813,0" transform="translate(471.73333333333335,383.66242876843586)" fill="none" stroke="#4098b5" stroke-width="1"/><path class="point" d="M2.8209479177387813,0A2.8209479177387813,2.8209479177387813,0,1,1,-2.8209479177387813,0A2.8209479177387813,2.8209479177387813,0,1,1,2.8209479177387813,0" transform="translate(471.73333333333335,353.1536148941152)" fill="none" stroke="#4098b5" stroke-width="1"/><path class="point" d="M2.8209479177387813,0A2.8209479177387813,2.8209479177387813,0,1,1,-2.8209479177387813,0A2.8209479177387813,2.8209479177387813,0,1,1,2.8209479177387813,0" transform="translate(471.73333333333335,369.4131625945105)" fill="none" stroke="#4098b5" stroke-width="1"/><path class="point" d="M2.8209479177387813,0A2.8209479177387813,2.8209479177387813,0,1,1,-2.8209479177387813,0A2.8209479177387813,2.8209479177387813,0,1,1,2.8209479177387813,0" transform="translate(471.73333333333335,375.4736366388264)" fill="none" stroke="#4098b5" stroke-width="1"/><path class="point" d="M2.8209479177387813,0A2.8209479177387813,2.8209479177387813,0,1,1,-2.8209479177387813,0A2.8209479177387813,2.8209479177387813,0,1,1,2.8209479177387813,0" transform="translate(471.73333333333335,380.10262994315576)" fill="none" stroke="#4098b5" stroke-width="1"/><path class="point" d="M2.8209479177387813,0A2.8209479177387813,2.8209479177387813,0,1,1,-2.8209479177387813,0A2.8209479177387813,2.8209479177387813,0,1,1,2.8209479177387813,0" transform="translate(471.73333333333335,379.4793499449053)" fill="none" stroke="#4098b5" stroke-width="1"/><path class="point" d="M2.8209479177387813,0A2.8209479177387813,2.8209479177387813,0,1,1,-2.8209479177387813,0A2.8209479177387813,2.8209479177387813,0,1,1,2.8209479177387813,0" transform="translate(471.73333333333335,329.9580711485924)" fill="none" stroke="#4098b5" stroke-width="1"/><path class="point" d="M2.8209479177387813,0A2.8209479177387813,2.8209479177387813,0,1,1,-2.8209479177387813,0A2.8209479177387813,2.8209479177387813,0,1,1,2.8209479177387813,0" transform="translate(471.73333333333335,364.67709228322207)" fill="none" stroke="#4098b5" stroke-width="1"/><path class="point" d="M2.8209479177387813,0A2.8209479177387813,2.8209479177387813,0,1,1,-2.8209479177387813,0A2.8209479177387813,2.8209479177387813,0,1,1,2.8209479177387813,0" transform="translate(471.73333333333335,340.96140050295094)" fill="none" stroke="#4098b5" stroke-width="1"/><path class="point" d="M2.8209479177387813,0A2.8209479177387813,2.8209479177387813,0,1,1,-2.8209479177387813,0A2.8209479177387813,2.8209479177387813,0,1,1,2.8209479177387813,0" transform="translate(471.73333333333335,351.1002934392638)" fill="none" stroke="#4098b5" stroke-width="1"/><path class="point" d="M2.8209479177387813,0A2.8209479177387813,2.8209479177387813,0,1,1,-2.8209479177387813,0A2.8209479177387813,2.8209479177387813,0,1,1,2.8209479177387813,0" transform="translate(471.73333333333335,383.66242876843586)" fill="none" stroke="#4098b5" stroke-width="1"/><path class="point" d="M2.8209479177387813,0A2.8209479177387813,2.8209479177387813,0,1,1,-2.8209479177387813,0A2.8209479177387813,2.8209479177387813,0,1,1,2.8209479177387813,0" transform="translate(471.73333333333335,353.1536148941152)" fill="none" stroke="#4098b5" stroke-width="1"/><path class="point" d="M2.8209479177387813,0A2.8209479177387813,2.8209479177387813,0,1,1,-2.8209479177387813,0A2.8209479177387813,2.8209479177387813,0,1,1,2.8209479177387813,0" transform="translate(471.73333333333335,369.4131625945105)" fill="none" stroke="#4098b5" stroke-width="1"/><path class="point" d="M2.8209479177387813,0A2.8209479177387813,2.8209479177387813,0,1,1,-2.8209479177387813,0A2.8209479177387813,2.8209479177387813,0,1,1,2.8209479177387813,0" transform="translate(471.73333333333335,375.4736366388264)" fill="none" stroke="#4098b5" stroke-width="1"/><path class="point" d="M2.8209479177387813,0A2.8209479177387813,2.8209479177387813,0,1,1,-2.8209479177387813,0A2.8209479177387813,2.8209479177387813,0,1,1,2.8209479177387813,0" transform="translate(471.73333333333335,380.10262994315576)" fill="none" stroke="#4098b5" stroke-width="1"/><path class="point" d="M2.8209479177387813,0A2.8209479177387813,2.8209479177387813,0,1,1,-2.8209479177387813,0A2.8209479177387813,2.8209479177387813,0,1,1,2.8209479177387813,0" transform="translate(471.73333333333335,379.4793499449053)" fill="none" stroke="#4098b5" stroke-width="1"/><path class="point" d="M2.8209479177387813,0A2.8209479177387813,2.8209479177387813,0,1,1,-2.8209479177387813,0A2.8209479177387813,2.8209479177387813,0,1,1,2.8209479177387813,0" transform="translate(471.73333333333335,329.9580711485924)" fill="none" stroke="#4098b5" stroke-width="1"/><path class="point" d="M2.8209479177387813,0A2.8209479177387813,2.8209479177387813,0,1,1,-2.8209479177387813,0A2.8209479177387813,2.8209479177387813,0,1,1,2.8209479177387813,0" transform="translate(539.5111111111112,374.46841406139345)" fill="none" stroke="#4098b5" stroke-width="1"/><path class="point" d="M2.8209479177387813,0A2.8209479177387813,2.8209479177387813,0,1,1,-2.8209479177387813,0A2.8209479177387813,2.8209479177387813,0,1,1,2.8209479177387813,0" transform="translate(539.5111111111112,368.98748401979395)" fill="none" stroke="#4098b5" stroke-width="1"/><path class="point" d="M2.8209479177387813,0A2.8209479177387813,2.8209479177387813,0,1,1,-2.8209479177387813,0A2.8209479177387813,2.8209479177387813,0,1,1,2.8209479177387813,0" transform="translate(539.5111111111112,361.1555804339194)" fill="none" stroke="#4098b5" stroke-width="1"/><path class="point" d="M2.8209479177387813,0A2.8209479177387813,2.8209479177387813,0,1,1,-2.8209479177387813,0A2.8209479177387813,2.8209479177387813,0,1,1,2.8209479177387813,0" transform="translate(539.5111111111112,356.5560095199914)" fill="none" stroke="#4098b5" stroke-width="1"/><path class="point" d="M2.8209479177387813,0A2.8209479177387813,2.8209479177387813,0,1,1,-2.8209479177387813,0A2.8209479177387813,2.8209479177387813,0,1,1,2.8209479177387813,0" transform="translate(539.5111111111112,357.2937507981509)" fill="none" stroke="#4098b5" stroke-width="1"/><path class="point" d="M2.8209479177387813,0A2.8209479177387813,2.8209479177387813,0,1,1,-2.8209479177387813,0A2.8209479177387813,2.8209479177387813,0,1,1,2.8209479177387813,0" transform="translate(539.5111111111112,346.5290966025366)" fill="none" stroke="#4098b5" stroke-width="1"/><path class="point" d="M2.8209479177387813,0A2.8209479177387813,2.8209479177387813,0,1,1,-2.8209479177387813,0A2.8209479177387813,2.8209479177387813,0,1,1,2.8209479177387813,0" transform="translate(539.5111111111112,361.4843958711309)" fill="none" stroke="#4098b5" stroke-width="1"/><path class="point" d="M2.8209479177387813,0A2.8209479177387813,2.8209479177387813,0,1,1,-2.8209479177387813,0A2.8209479177387813,2.8209479177387813,0,1,1,2.8209479177387813,0" transform="translate(539.5111111111112,346.6308876980399)" fill="none" stroke="#4098b5" stroke-width="1"/><path class="point" d="M2.8209479177387813,0A2.8209479177387813,2.8209479177387813,0,1,1,-2.8209479177387813,0A2.8209479177387813,2.8209479177387813,0,1,1,2.8209479177387813,0" transform="translate(539.5111111111112,362.89641159769354)" fill="none" stroke="#4098b5" stroke-width="1"/><path class="point" d="M2.8209479177387813,0A2.8209479177387813,2.8209479177387813,0,1,1,-2.8209479177387813,0A2.8209479177387813,2.8209479177387813,0,1,1,2.8209479177387813,0" transform="translate(539.5111111111112,362.7155870452552)" fill="none" stroke="#4098b5" stroke-width="1"/><path class="point" d="M2.8209479177387813,0A2.8209479177387813,2.8209479177387813,0,1,1,-2.8209479177387813,0A2.8209479177387813,2.8209479177387813,0,1,1,2.8209479177387813,0" transform="translate(539.5111111111112,374.46841406139345)" fill="none" stroke="#4098b5" stroke-width="1"/><path class="point" d="M2.8209479177387813,0A2.8209479177387813,2.8209479177387813,0,1,1,-2.8209479177387813,0A2.8209479177387813,2.8209479177387813,0,1,1,2.8209479177387813,0" transform="translate(539.5111111111112,368.98748401979395)" fill="none" stroke="#4098b5" stroke-width="1"/><path class="point" d="M2.8209479177387813,0A2.8209479177387813,2.8209479177387813,0,1,1,-2.8209479177387813,0A2.8209479177387813,2.8209479177387813,0,1,1,2.8209479177387813,0" transform="translate(539.5111111111112,361.1555804339194)" fill="none" stroke="#4098b5" stroke-width="1"/><path class="point" d="M2.8209479177387813,0A2.8209479177387813,2.8209479177387813,0,1,1,-2.8209479177387813,0A2.8209479177387813,2.8209479177387813,0,1,1,2.8209479177387813,0" transform="translate(539.5111111111112,356.5560095199914)" fill="none" stroke="#4098b5" stroke-width="1"/><path class="point" d="M2.8209479177387813,0A2.8209479177387813,2.8209479177387813,0,1,1,-2.8209479177387813,0A2.8209479177387813,2.8209479177387813,0,1,1,2.8209479177387813,0" transform="translate(539.5111111111112,357.2937507981509)" fill="none" stroke="#4098b5" stroke-width="1"/><path class="point" d="M2.8209479177387813,0A2.8209479177387813,2.8209479177387813,0,1,1,-2.8209479177387813,0A2.8209479177387813,2.8209479177387813,0,1,1,2.8209479177387813,0" transform="translate(539.5111111111112,346.5290966025366)" fill="none" stroke="#4098b5" stroke-width="1"/><path class="point" d="M2.8209479177387813,0A2.8209479177387813,2.8209479177387813,0,1,1,-2.8209479177387813,0A2.8209479177387813,2.8209479177387813,0,1,1,2.8209479177387813,0" transform="translate(539.5111111111112,361.4843958711309)" fill="none" stroke="#4098b5" stroke-width="1"/><path class="point" d="M2.8209479177387813,0A2.8209479177387813,2.8209479177387813,0,1,1,-2.8209479177387813,0A2.8209479177387813,2.8209479177387813,0,1,1,2.8209479177387813,0" transform="translate(539.5111111111112,346.6308876980399)" fill="none" stroke="#4098b5" stroke-width="1"/><path class="point" d="M2.8209479177387813,0A2.8209479177387813,2.8209479177387813,0,1,1,-2.8209479177387813,0A2.8209479177387813,2.8209479177387813,0,1,1,2.8209479177387813,0" transform="translate(539.5111111111112,362.89641159769354)" fill="none" stroke="#4098b5" stroke-width="1"/><path class="point" d="M2.8209479177387813,0A2.8209479177387813,2.8209479177387813,0,1,1,-2.8209479177387813,0A2.8209479177387813,2.8209479177387813,0,1,1,2.8209479177387813,0" transform="translate(539.5111111111112,362.7155870452552)" fill="none" stroke="#4098b5" stroke-width="1"/><path class="point" d="M2.8209479177387813,0A2.8209479177387813,2.8209479177387813,0,1,1,-2.8209479177387813,0A2.8209479177387813,2.8209479177387813,0,1,1,2.8209479177387813,0" transform="translate(607.2888888888889,344.12872413367626)" fill="none" stroke="#4098b5" stroke-width="1"/><path class="point" d="M2.8209479177387813,0A2.8209479177387813,2.8209479177387813,0,1,1,-2.8209479177387813,0A2.8209479177387813,2.8209479177387813,0,1,1,2.8209479177387813,0" transform="translate(607.2888888888889,330.28426129429675)" fill="none" stroke="#4098b5" stroke-width="1"/><path class="point" d="M2.8209479177387813,0A2.8209479177387813,2.8209479177387813,0,1,1,-2.8209479177387813,0A2.8209479177387813,2.8209479177387813,0,1,1,2.8209479177387813,0" transform="translate(607.2888888888889,361.104328138338)" fill="none" stroke="#4098b5" stroke-width="1"/><path class="point" d="M2.8209479177387813,0A2.8209479177387813,2.8209479177387813,0,1,1,-2.8209479177387813,0A2.8209479177387813,2.8209479177387813,0,1,1,2.8209479177387813,0" transform="translate(607.2888888888889,360.1555583210829)" fill="none" stroke="#4098b5" stroke-width="1"/><path class="point" d="M2.8209479177387813,0A2.8209479177387813,2.8209479177387813,0,1,1,-2.8209479177387813,0A2.8209479177387813,2.8209479177387813,0,1,1,2.8209479177387813,0" transform="translate(607.2888888888889,320.4421100507259)" fill="none" stroke="#4098b5" stroke-width="1"/><path class="point" d="M2.8209479177387813,0A2.8209479177387813,2.8209479177387813,0,1,1,-2.8209479177387813,0A2.8209479177387813,2.8209479177387813,0,1,1,2.8209479177387813,0" transform="translate(607.2888888888889,387.1011341745568)" fill="none" stroke="#4098b5" stroke-width="1"/><path class="point" d="M2.8209479177387813,0A2.8209479177387813,2.8209479177387813,0,1,1,-2.8209479177387813,0A2.8209479177387813,2.8209479177387813,0,1,1,2.8209479177387813,0" transform="translate(607.2888888888889,350.74043742551373)" fill="none" stroke="#4098b5" stroke-width="1"/><path class="point" d="M2.8209479177387813,0A2.8209479177387813,2.8209479177387813,0,1,1,-2.8209479177387813,0A2.8209479177387813,2.8209479177387813,0,1,1,2.8209479177387813,0" transform="translate(607.2888888888889,357.0443420808396)" fill="none" stroke="#4098b5" stroke-width="1"/><path class="point" d="M2.8209479177387813,0A2.8209479177387813,2.8209479177387813,0,1,1,-2.8209479177387813,0A2.8209479177387813,2.8209479177387813,0,1,1,2.8209479177387813,0" transform="translate(607.2888888888889,353.6785766567749)" fill="none" stroke="#4098b5" stroke-width="1"/><path class="point" d="M2.8209479177387813,0A2.8209479177387813,2.8209479177387813,0,1,1,-2.8209479177387813,0A2.8209479177387813,2.8209479177387813,0,1,1,2.8209479177387813,0" transform="translate(607.2888888888889,365.62307627201716)" fill="none" stroke="#4098b5" stroke-width="1"/><path class="point" d="M2.8209479177387813,0A2.8209479177387813,2.8209479177387813,0,1,1,-2.8209479177387813,0A2.8209479177387813,2.8209479177387813,0,1,1,2.8209479177387813,0" transform="translate(607.2888888888889,344.12872413367626)" fill="none" stroke="#4098b5" stroke-width="1"/><path class="point" d="M2.8209479177387813,0A2.8209479177387813,2.8209479177387813,0,1,1,-2.8209479177387813,0A2.8209479177387813,2.8209479177387813,0,1,1,2.8209479177387813,0" transform="translate(607.2888888888889,330.28426129429675)" fill="none" stroke="#4098b5" stroke-width="1"/><path class="point" d="M2.8209479177387813,0A2.8209479177387813,2.8209479177387813,0,1,1,-2.8209479177387813,0A2.8209479177387813,2.8209479177387813,0,1,1,2.8209479177387813,0" transform="translate(607.2888888888889,361.104328138338)" fill="none" stroke="#4098b5" stroke-width="1"/><path class="point" d="M2.8209479177387813,0A2.8209479177387813,2.8209479177387813,0,1,1,-2.8209479177387813,0A2.8209479177387813,2.8209479177387813,0,1,1,2.8209479177387813,0" transform="translate(607.2888888888889,360.1555583210829)" fill="none" stroke="#4098b5" stroke-width="1"/><path class="point" d="M2.8209479177387813,0A2.8209479177387813,2.8209479177387813,0,1,1,-2.8209479177387813,0A2.8209479177387813,2.8209479177387813,0,1,1,2.8209479177387813,0" transform="translate(607.2888888888889,320.4421100507259)" fill="none" stroke="#4098b5" stroke-width="1"/><path class="point" d="M2.8209479177387813,0A2.8209479177387813,2.8209479177387813,0,1,1,-2.8209479177387813,0A2.8209479177387813,2.8209479177387813,0,1,1,2.8209479177387813,0" transform="translate(607.2888888888889,387.1011341745568)" fill="none" stroke="#4098b5" stroke-width="1"/><path class="point" d="M2.8209479177387813,0A2.8209479177387813,2.8209479177387813,0,1,1,-2.8209479177387813,0A2.8209479177387813,2.8209479177387813,0,1,1,2.8209479177387813,0" transform="translate(607.2888888888889,350.74043742551373)" fill="none" stroke="#4098b5" stroke-width="1"/><path class="point" d="M2.8209479177387813,0A2.8209479177387813,2.8209479177387813,0,1,1,-2.8209479177387813,0A2.8209479177387813,2.8209479177387813,0,1,1,2.8209479177387813,0" transform="translate(607.2888888888889,357.0443420808396)" fill="none" stroke="#4098b5" stroke-width="1"/><path class="point" d="M2.8209479177387813,0A2.8209479177387813,2.8209479177387813,0,1,1,-2.8209479177387813,0A2.8209479177387813,2.8209479177387813,0,1,1,2.8209479177387813,0" transform="translate(607.2888888888889,353.6785766567749)" fill="none" stroke="#4098b5" stroke-width="1"/><path class="point" d="M2.8209479177387813,0A2.8209479177387813,2.8209479177387813,0,1,1,-2.8209479177387813,0A2.8209479177387813,2.8209479177387813,0,1,1,2.8209479177387813,0" transform="translate(607.2888888888889,365.62307627201716)" fill="none" stroke="#4098b5" stroke-width="1"/><path class="line" d="M0,255.3741443680671L66.42222222222222,373.29590596726547L134.2,390.57937702965415L201.9777777777778,396.56767599693933L269.7555555555556,386.4738406723615L336.17777777777775,405.4672119028816L403.9555555555556,396.29280801651754L471.73333333333335,400.0021546389722L539.5111111111112,408.2392576207641L607.2888888888889,414.98382994079213" fill="none" stroke="#4cb6da" stroke-width="5" stroke-dasharray="20 5" clip-path="url(#clip-path)"/><path class="line" d="M0,251.35128491754574L66.42222222222222,308.4644403877334L134.2,329.60533786094044L201.9777777777778,339.38551280692036L269.7555555555556,349.0900714345693L336.17777777777775,337.4749366020939L403.9555555555556,351.0165165393929L471.73333333333335,362.79816801579784L539.5111111111112,359.8717617647905L607.2888888888889,353.0302548547822" fill="none" stroke="#4098b5" stroke-width="10" stroke-dasharray="none" clip-path="url(#clip-path)"/><g class="y-axis" fill="none" font-size="50px" font-family="sans-serif" text-anchor="end"><path class="domain" stroke="currentColor" d="M-3,652.5H0.5V0.5H-3"/><g class="tick" opacity="1" transform="translate(0,652.5)"><text fill="currentColor" x="-13" dy="0.32em">0.0</text></g><g class="tick" opacity="1" transform="translate(0,466.21428571428567)"><text fill="currentColor" x="-13" dy="0.32em">0.1</text></g><g class="tick" opacity="1" transform="translate(0,279.9285714285714)"><text fill="currentColor" x="-13" dy="0.32em">0.2</text></g><g class="tick" opacity="1" transform="translate(0,93.64285714285711)"><text fill="currentColor" x="-13" dy="0.32em">0.3</text></g></g><g class="x-axis" transform="translate(0,652)" fill="none" font-size="50px" font-family="sans-serif" text-anchor="middle"><path class="domain" stroke="currentColor" d="M0.5,0.5H610.5"/><g class="tick" opacity="1" transform="translate(68.27777777777777,0)"><line stroke="currentColor" y2="0"/><text fill="currentColor" y="10" dy="0.71em">100</text></g><g class="tick" opacity="1" transform="translate(339.3888888888889,0)"><line stroke="currentColor" y2="0"/><text fill="currentColor" y="10" dy="0.71em">300</text></g><g class="tick" opacity="1" transform="translate(610.5,0)"><line stroke="currentColor" y2="0"/><text fill="currentColor" y="10" dy="0.71em">500</text></g></g></g><rect x="0" y="0" width="610" height="652" transform="translate(150,60)" style="fill: none; stroke: black; stroke-width: 1px;"/></svg>