<svg xmlns="http://www.w3.org/2000/svg" width="800" height="800"><g class="container" transform="translate(150,60)"><line class="zero-line" x1="0" x2="610" y1="652" y2="652" stroke="black" stroke-width="1"/><defs><clipPath id="clip-path"><rect x="0" y="0" width="610" height="652"/></clipPath></defs><path class="point" d="M2.8209479177387813,0A2.8209479177387813,2.8209479177387813,0,1,1,-2.8209479177387813,0A2.8209479177387813,2.8209479177387813,0,1,1,2.8209479177387813,0" transform="translate(0,544.0914956702421)" fill="none" stroke="#4098b5" stroke-width="1"/><path class="point" d="M2.8209479177387813,0A2.8209479177387813,2.8209479177387813,0,1,1,-2.8209479177387813,0A2.8209479177387813,2.8209479177387813,0,1,1,2.8209479177387813,0" transform="translate(0,559.3630580579545)" fill="none" stroke="#4098b5" stroke-width="1"/><path class="point" d="M2.8209479177387813,0A2.8209479177387813,2.8209479177387813,0,1,1,-2.8209479177387813,0A2.8209479177387813,2.8209479177387813,0,1,1,2.8209479177387813,0" transform="translate(0,522.1723165811729)" fill="none" stroke="#4098b5" stroke-width="1"/><path class="point" d="M2.8209479177387813,0A2.8209479177387813,2.8209479177387813,0,1,1,-2.8209479177387813,0A2.8209479177387813,2.8209479177387813,0,1,1,2.8209479177387813,0" transform="translate(0,551.5039547681173)" fill="none" stroke="#4098b5" stroke-width="1"/><path class="point" d="M2.8209479177387813,0A2.8209479177387813,2.8209479177387813,0,1,1,-2.8209479177387813,0A2.8209479177387813,2.8209479177387813,0,1,1,2.8209479177387813,0" transform="translate(0,524.6379813163799)" fill="none" stroke="#4098b5" stroke-width="1"/><path class="point" d="M2.8209479177387813,0A2.8209479177387813,2.8209479177387813,0,1,1,-2.8209479177387813,0A2.8209479177387813,2.8209479177387813,0,1,1,2.8209479177387813,0" transform="translate(0,557.8997942170066)" fill="none" stroke="#4098b5" stroke-width="1"/><path class="point" d="M2.8209479177387813,0A2.8209479177387813,2.8209479177387813,0,1,1,-2.8209479177387813,0A2.8209479177387813,2.8209479177387813,0,1,1,2.8209479177387813,0" transform="translate(0,547.0641556402486)" fill="none" stroke="#4098b5" stroke-width="1"/><path class="point" d="M2.8209479177387813,0A2.8209479177387813,2.8209479177387813,0,1,1,-2.8209479177387813,0A2.8209479177387813,2.8209479177387813,0,1,1,2.8209479177387813,0" transform="translate(0,565.9473301426954)" fill="none" stroke="#4098b5" stroke-width="1"/><path class="point" d="M2.8209479177387813,0A2.8209479177387813,2.8209479177387813,0,1,1,-2.8209479177387813,0A2.8209479177387813,2.8209479177387813,0,1,1,2.8209479177387813,0" transform="translate(0,568.301164509052)" fill="none" stroke="#4098b5" stroke-width="1"/><path class="point" d="M2.8209479177387813,0A2.8209479177387813,2.8209479177387813,0,1,1,-2.8209479177387813,0A2.8209479177387813,2.8209479177387813,0,1,1,2.8209479177387813,0" transform="translate(0,561.447904628)" fill="none" stroke="#4098b5" stroke-width="1"/><path class="point" d="M2.8209479177387813,0A2.8209479177387813,2.8209479177387813,0,1,1,-2.8209479177387813,0A2.8209479177387813,2.8209479177387813,0,1,1,2.8209479177387813,0" transform="translate(0,544.0914956702421)" fill="none" stroke="#4098b5" stroke-width="1"/><path class="point" d="M2.8209479177387813,0A2.8209479177387813,2.8209479177387813,0,1,1,-2.8209479177387813,0A2.8209479177387813,2.8209479177387813,0,1,1,2.8209479177387813,0" transform="translate(0,559.3630580579545)" fill="none" stroke="#4098b5" stroke-width="1"/><path class="point" d="M2.8209479177387813,0A2.8209479177387813,2.8209479177387813,0,1,1,-2.8209479177387813,0A2.8209479177387813,2.8209479177387813,0,1,1,2.8209479177387813,0" transform="translate(0,522.1723165811729)" fill="none" stroke="#4098b5" stroke-width="1"/><path class="point" d="M2.8209479177387813,0A2.8209479177387813,2.8209479177387813,0,1,1,-2.8209479177387813,0A2.8209479177387813,2.8209479177387813,0,1,1,2.8209479177387813,0" transform="translate(0,551.5039547681173)" fill="none" stroke="#4098b5" stroke-width="1"/><path class="point" d="M2.8209479177387813,0A2.8209479177387813,2.8209479177387813,0,1,1,-2.8209479177387813,0A2.8209479177387813,2.8209479177387813,0,1,1,2.8209479177387813,0" transform="translate(0,524.6379813163799)" fill="none" stroke="#4098b5" stroke-width="1"/><path class="point" d="M2.8209479177387813,0A2.8209479177387813,2.8209479177387813,0,1,1,-2.8209479177387813,0A2.8209479177387813,2.8209479177387813,0,1,1,2.8209479177387813,0" transform="translate(0,557.8997942170066)" fill="none" stroke="#4098b5" stroke-width="1"/><path class="point" d="M2.8209479177387813,0A2.8209479177387813,2.8209479177387813,0,1,1,-2.8209479177387813,0A2.8209479177387813,2.8209479177387813,0,1,1,2.8209479177387813,0" transform="translate(0,547.0641556402486)" fill="none" stroke="#4098b5" stroke-width="1"/><path class="point" d="M2.8209479177387813,0A2.8209479177387813,2.8209479177387813,0,1,1,-2.8209479177387813,0A2.8209479177387813,2.8209479177387813,0,1,1,2.8209479177387813,0" transform="translate(0,565.9473301426954)" fill="none" stroke="#4098b5" stroke-width="1"/><path class="point" d="M2.8209479177387813,0A2.8209479177387813,2.8209479177387813,0,1,1,-2.8209479177387813,0A2.8209479177387813,2.8209479177387813,0,1,1,2.8209479177387813,0" transform="translate(0,568.301164509052)" fill="none" stroke="#4098b5" stroke-width="1"/><path class="point" d="M2.8209479177387813,0A2.8209479177387813,2.8209479177387813,0,1,1,-2.8209479177387813,0A2.8209479177387813,2.8209479177387813,0,1,1,2.8209479177387813,0" transform="translate(0,561.447904628)" fill="none" stroke="#4098b5" stroke-width="1"/><path class="point" d="M2.8209479177387813,0A2.8209479177387813,2.8209479177387813,0,1,1,-2.8209479177387813,0A2.8209479177387813,2.8209479177387813,0,1,1,2.8209479177387813,0" transform="translate(66.42222222222222,537.9827322867094)" fill="none" stroke="#4098b5" stroke-width="1"/><path class="point" d="M2.8209479177387813,0A2.8209479177387813,2.8209479177387813,0,1,1,-2.8209479177387813,0A2.8209479177387813,2.8209479177387813,0,1,1,2.8209479177387813,0" transform="translate(66.42222222222222,537.7247598785839)" fill="none" stroke="#4098b5" stroke-width="1"/><path class="point" d="M2.8209479177387813,0A2.8209479177387813,2.8209479177387813,0,1,1,-2.8209479177387813,0A2.8209479177387813,2.8209479177387813,0,1,1,2.8209479177387813,0" transform="translate(66.42222222222222,567.9910303543342)" fill="none" stroke="#4098b5" stroke-width="1"/><path class="point" d="M2.8209479177387813,0A2.8209479177387813,2.8209479177387813,0,1,1,-2.8209479177387813,0A2.8209479177387813,2.8209479177387813,0,1,1,2.8209479177387813,0" transform="translate(66.42222222222222,569.4313837895643)" fill="none" stroke="#4098b5" stroke-width="1"/><path class="point" d="M2.8209479177387813,0A2.8209479177387813,2.8209479177387813,0,1,1,-2.8209479177387813,0A2.8209479177387813,2.8209479177387813,0,1,1,2.8209479177387813,0" transform="translate(66.42222222222222,552.134940611199)" fill="none" stroke="#4098b5" stroke-width="1"/><path class="point" d="M2.8209479177387813,0A2.8209479177387813,2.8209479177387813,0,1,1,-2.8209479177387813,0A2.8209479177387813,2.8209479177387813,0,1,1,2.8209479177387813,0" transform="translate(66.42222222222222,540.1806130809554)" fill="none" stroke="#4098b5" stroke-width="1"/><path class="point" d="M2.8209479177387813,0A2.8209479177387813,2.8209479177387813,0,1,1,-2.8209479177387813,0A2.8209479177387813,2.8209479177387813,0,1,1,2.8209479177387813,0" transform="translate(66.42222222222222,578.7891104165003)" fill="none" stroke="#4098b5" stroke-width="1"/><path class="point" d="M2.8209479177387813,0A2.8209479177387813,2.8209479177387813,0,1,1,-2.8209479177387813,0A2.8209479177387813,2.8209479177387813,0,1,1,2.8209479177387813,0" transform="translate(66.42222222222222,570.5227068803006)" fill="none" stroke="#4098b5" stroke-width="1"/><path class="point" d="M2.8209479177387813,0A2.8209479177387813,2.8209479177387813,0,1,1,-2.8209479177387813,0A2.8209479177387813,2.8209479177387813,0,1,1,2.8209479177387813,0" transform="translate(66.42222222222222,555.3907102990734)" fill="none" stroke="#4098b5" stroke-width="1"/><path class="point" d="M2.8209479177387813,0A2.8209479177387813,2.8209479177387813,0,1,1,-2.8209479177387813,0A2.8209479177387813,2.8209479177387813,0,1,1,2.8209479177387813,0" transform="translate(66.42222222222222,550.5971550749176)" fill="none" stroke="#4098b5" stroke-width="1"/><path class="point" d="M2.8209479177387813,0A2.8209479177387813,2.8209479177387813,0,1,1,-2.8209479177387813,0A2.8209479177387813,2.8209479177387813,0,1,1,2.8209479177387813,0" transform="translate(66.42222222222222,537.9827322867094)" fill="none" stroke="#4098b5" stroke-width="1"/><path class="point" d="M2.8209479177387813,0A2.8209479177387813,2.8209479177387813,0,1,1,-2.8209479177387813,0A2.8209479177387813,2.8209479177387813,0,1,1,2.8209479177387813,0" transform="translate(66.42222222222222,537.7247598785839)" fill="none" stroke="#4098b5" stroke-width="1"/><path class="point" d="M2.8209479177387813,0A2.8209479177387813,2.8209479177387813,0,1,1,-2.8209479177387813,0A2.8209479177387813,2.8209479177387813,0,1,1,2.8209479177387813,0" transform="translate(66.42222222222222,567.9910303543342)" fill="none" stroke="#4098b5" stroke-width="1"/><path class="point" d="M2.8209479177387813,0A2.8209479177387813,2.8209479177387813,0,1,1,-2.8209479177387813,0A2.8209479177387813,2.8209479177387813,0,1,1,2.8209479177387813,0" transform="translate(66.42222222222222,569.4313837895643)" fill="none" stroke="#4098b5" stroke-width="1"/><path class="point" d="M2.8209479177387813,0A2.8209479177387813,2.8209479177387813,0,1,1,-2.8209479177387813,0A2.8209479177387813,2.8209479177387813,0,1,1,2.8209479177387813,0" transform="translate(66.42222222222222,552.134940611199)" fill="none" stroke="#4098b5" stroke-width="1"/><path class="point" d="M2.8209479177387813,0A2.8209479177387813,2.8209479177387813,0,1,1,-2.8209479177387813,0A2.8209479177387813,2.8209479177387813,0,1,1,2.8209479177387813,0" transform="translate(66.42222222222222,540.1806130809554)" fill="none" stroke="#4098b5" stroke-width="1"/><path class="point" d="M2.8209479177387813,0A2.8209479177387813,2.8209479177387813,0,1,1,-2.8209479177387813,0A2.8209479177387813,2.8209479177387813,0,1,1,2.8209479177387813,0" transform="translate(66.42222222222222,578.7891104165003)" fill="none" stroke="#4098b5" stroke-width="1"/><path class="point" d="M2.8209479177387813,0A2.8209479177387813,2.8209479177387813,0,1,1,-2.8209479177387813,0A2.8209479177387813,2.8209479177387813,0,1,1,2.8209479177387813,0" transform="translate(66.42222222222222,570.5227068803006)" fill="none" stroke="#4098b5" stroke-width="1"/><path class="point" d="M2.8209479177387813,0A2.8209479177387813,2.8209479177387813,0,1,1,-2.8209479177387813,0A2.8209479177387813,2.8209479177387813,0,1,1,2.8209479177387813,0" transform="translate(66.42222222222222,555.3907102990734)" fill="none" stroke="#4098b5" stroke-width="1"/><path class="point" d="M2.8209479177387813,0A2.8209479177387813,2.8209479177387813,0,1,1,-2.8209479177387813,0A2.8209479177387813,2.8209479177387813,0,1,1,2.8209479177387813,0" transform="translate(66.42222222222222,550.5971550749176)" fill="none" stroke="#4098b5" stroke-width="1"/><path class="point" d="M2.8209479177387813,0A2.8209479177387813,2.8209479177387813,0,1,1,-2.8209479177387813,0A2.8209479177387813,2.8209479177387813,0,1,1,2.8209479177387813,0" transform="translate(134.2,543.4120529012332)" fill="none" stroke="#4098b5" stroke-width="1"/><path class="point" d="M2.8209479177387813,0A2.8209479177387813,2.8209479177387813,0,1,1,-2.8209479177387813,0A2.8209479177387813,2.8209479177387813,0,1,1,2.8209479177387813,0" transform="translate(134.2,551.4823316713299)" fill="none" stroke="#4098b5" stroke-width="1"/><path class="point" d="M2.8209479177387813,0A2.8209479177387813,2.8209479177387813,0,1,1,-2.8209479177387813,0A2.8209479177387813,2.8209479177387813,0,1,1,2.8209479177387813,0" transform="translate(134.2,560.7029519628645)" fill="none" stroke="#4098b5" stroke-width="1"/><path class="point" d="M2.8209479177387813,0A2.8209479177387813,2.8209479177387813,0,1,1,-2.8209479177387813,0A2.8209479177387813,2.8209479177387813,0,1,1,2.8209479177387813,0" transform="translate(134.2,551.448442486284)" fill="none" stroke="#4098b5" stroke-width="1"/><path class="point" d="M2.8209479177387813,0A2.8209479177387813,2.8209479177387813,0,1,1,-2.8209479177387813,0A2.8209479177387813,2.8209479177387813,0,1,1,2.8209479177387813,0" transform="translate(134.2,537.6342416614024)" fill="none" stroke="#4098b5" stroke-width="1"/><path class="point" d="M2.8209479177387813,0A2.8209479177387813,2.8209479177387813,0,1,1,-2.8209479177387813,0A2.8209479177387813,2.8209479177387813,0,1,1,2.8209479177387813,0" transform="translate(134.2,538.9750159819262)" fill="none" stroke="#4098b5" stroke-width="1"/><path class="point" d="M2.8209479177387813,0A2.8209479177387813,2.8209479177387813,0,1,1,-2.8209479177387813,0A2.8209479177387813,2.8209479177387813,0,1,1,2.8209479177387813,0" transform="translate(134.2,535.9141841603654)" fill="none" stroke="#4098b5" stroke-width="1"/><path class="point" d="M2.8209479177387813,0A2.8209479177387813,2.8209479177387813,0,1,1,-2.8209479177387813,0A2.8209479177387813,2.8209479177387813,0,1,1,2.8209479177387813,0" transform="translate(134.2,556.6024280849531)" fill="none" stroke="#4098b5" stroke-width="1"/><path class="point" d="M2.8209479177387813,0A2.8209479177387813,2.8209479177387813,0,1,1,-2.8209479177387813,0A2.8209479177387813,2.8209479177387813,0,1,1,2.8209479177387813,0" transform="translate(134.2,542.3090214568044)" fill="none" stroke="#4098b5" stroke-width="1"/><path class="point" d="M2.8209479177387813,0A2.8209479177387813,2.8209479177387813,0,1,1,-2.8209479177387813,0A2.8209479177387813,2.8209479177387813,0,1,1,2.8209479177387813,0" transform="translate(134.2,579.673294732089)" fill="none" stroke="#4098b5" stroke-width="1"/><path class="point" d="M2.8209479177387813,0A2.8209479177387813,2.8209479177387813,0,1,1,-2.8209479177387813,0A2.8209479177387813,2.8209479177387813,0,1,1,2.8209479177387813,0" transform="translate(134.2,543.4120529012332)" fill="none" stroke="#4098b5" stroke-width="1"/><path class="point" d="M2.8209479177387813,0A2.8209479177387813,2.8209479177387813,0,1,1,-2.8209479177387813,0A2.8209479177387813,2.8209479177387813,0,1,1,2.8209479177387813,0" transform="translate(134.2,551.4823316713299)" fill="none" stroke="#4098b5" stroke-width="1"/><path class="point" d="M2.8209479177387813,0A2.8209479177387813,2.8209479177387813,0,1,1,-2.8209479177387813,0A2.8209479177387813,2.8209479177387813,0,1,1,2.8209479177387813,0" transform="translate(134.2,560.7029519628645)" fill="none" stroke="#4098b5" stroke-width="1"/><path class="point" d="M2.8209479177387813,0A2.8209479177387813,2.8209479177387813,0,1,1,-2.8209479177387813,0A2.8209479177387813,2.8209479177387813,0,1,1,2.8209479177387813,0" transform="translate(134.2,551.448442486284)" fill="none" stroke="#4098b5" stroke-width="1"/><path class="point" d="M2.8209479177387813,0A2.8209479177387813,2.8209479177387813,0,1,1,-2.8209479177387813,0A2.8209479177387813,2.8209479177387813,0,1,1,2.8209479177387813,0" transform="translate(134.2,537.6342416614024)" fill="none" stroke="#4098b5" stroke-width="1"/><path class="point" d="M2.8209479177387813,0A2.8209479177387813,2.8209479177387813,0,1,1,-2.8209479177387813,0A2.8209479177387813,2.8209479177387813,0,1,1,2.8209479177387813,0" transform="translate(134.2,538.9750159819262)" fill="none" stroke="#4098b5" stroke-width="1"/><path class="point" d="M2.8209479177387813,0A2.8209479177387813,2.8209479177387813,0,1,1,-2.8209479177387813,0A2.8209479177387813,2.8209479177387813,0,1,1,2.8209479177387813,0" transform="translate(134.2,535.9141841603654)" fill="none" stroke="#4098b5" stroke-width="1"/><path class="point" d="M2.8209479177387813,0A2.8209479177387813,2.8209479177387813,0,1,1,-2.8209479177387813,0A2.8209479177387813,2.8209479177387813,0,1,1,2.8209479177387813,0" transform="translate(134.2,556.6024280849531)" fill="none" stroke="#4098b5" stroke-width="1"/><path class="point" d="M2.8209479177387813,0A2.8209479177387813,2.8209479177387813,0,1,1,-2.8209479177387813,0A2.8209479177387813,2.8209479177387813,0,1,1,2.8209479177387813,0" transform="translate(134.2,542.3090214568044)" fill="none" stroke="#4098b5" stroke-width="1"/><path class="point" d="M2.8209479177387813,0A2.8209479177387813,2.8209479177387813,0,1,1,-2.8209479177387813,0A2.8209479177387813,2.8209479177387813,0,1,1,2.8209479177387813,0" transform="translate(134.2,579.673294732089)" fill="none" stroke="#4098b5" stroke-width="1"/><path class="point" d="M2.8209479177387813,0A2.8209479177387813,2.8209479177387813,0,1,1,-2.8209479177387813,0A2.8209479177387813,2.8209479177387813,0,1,1,2.8209479177387813,0" transform="translate(201.9777777777778,565.9949334288644)" fill="none" stroke="#4098b5" stroke-width="1"/><path class="point" d="M2.8209479177387813,0A2.8209479177387813,2.8209479177387813,0,1,1,-2.8209479177387813,0A2.8209479177387813,2.8209479177387813,0,1,1,2.8209479177387813,0" transform="translate(201.9777777777778,555.8963189323338)" fill="none" stroke="#4098b5" stroke-width="1"/><path class="point" d="M2.8209479177387813,0A2.8209479177387813,2.8209479177387813,0,1,1,-2.8209479177387813,0A2.8209479177387813,2.8209479177387813,0,1,1,2.8209479177387813,0" transform="translate(201.9777777777778,550.9761210310863)" fill="none" stroke="#4098b5" stroke-width="1"/><path class="point" d="M2.8209479177387813,0A2.8209479177387813,2.8209479177387813,0,1,1,-2.8209479177387813,0A2.8209479177387813,2.8209479177387813,0,1,1,2.8209479177387813,0" transform="translate(201.9777777777778,562.7273186779295)" fill="none" stroke="#4098b5" stroke-width="1"/><path class="point" d="M2.8209479177387813,0A2.8209479177387813,2.8209479177387813,0,1,1,-2.8209479177387813,0A2.8209479177387813,2.8209479177387813,0,1,1,2.8209479177387813,0" transform="translate(201.9777777777778,518.5201586368396)" fill="none" stroke="#4098b5" stroke-width="1"/><path class="point" d="M2.8209479177387813,0A2.8209479177387813,2.8209479177387813,0,1,1,-2.8209479177387813,0A2.8209479177387813,2.8209479177387813,0,1,1,2.8209479177387813,0" transform="translate(201.9777777777778,565.1342496868624)" fill="none" stroke="#4098b5" stroke-width="1"/><path class="point" d="M2.8209479177387813,0A2.8209479177387813,2.8209479177387813,0,1,1,-2.8209479177387813,0A2.8209479177387813,2.8209479177387813,0,1,1,2.8209479177387813,0" transform="translate(201.9777777777778,571.2113115149567)" fill="none" stroke="#4098b5" stroke-width="1"/><path class="point" d="M2.8209479177387813,0A2.8209479177387813,2.8209479177387813,0,1,1,-2.8209479177387813,0A2.8209479177387813,2.8209479177387813,0,1,1,2.8209479177387813,0" transform="translate(201.9777777777778,545.8626199660416)" fill="none" stroke="#4098b5" stroke-width="1"/><path class="point" d="M2.8209479177387813,0A2.8209479177387813,2.8209479177387813,0,1,1,-2.8209479177387813,0A2.8209479177387813,2.8209479177387813,0,1,1,2.8209479177387813,0" transform="translate(201.9777777777778,533.1252364324067)" fill="none" stroke="#4098b5" stroke-width="1"/><path class="point" d="M2.8209479177387813,0A2.8209479177387813,2.8209479177387813,0,1,1,-2.8209479177387813,0A2.8209479177387813,2.8209479177387813,0,1,1,2.8209479177387813,0" transform="translate(201.9777777777778,556.5651846537997)" fill="none" stroke="#4098b5" stroke-width="1"/><path class="point" d="M2.8209479177387813,0A2.8209479177387813,2.8209479177387813,0,1,1,-2.8209479177387813,0A2.8209479177387813,2.8209479177387813,0,1,1,2.8209479177387813,0" transform="translate(201.9777777777778,565.9949334288644)" fill="none" stroke="#4098b5" stroke-width="1"/><path class="point" d="M2.8209479177387813,0A2.8209479177387813,2.8209479177387813,0,1,1,-2.8209479177387813,0A2.8209479177387813,2.8209479177387813,0,1,1,2.8209479177387813,0" transform="translate(201.9777777777778,555.8963189323338)" fill="none" stroke="#4098b5" stroke-width="1"/><path class="point" d="M2.8209479177387813,0A2.8209479177387813,2.8209479177387813,0,1,1,-2.8209479177387813,0A2.8209479177387813,2.8209479177387813,0,1,1,2.8209479177387813,0" transform="translate(201.9777777777778,550.9761210310863)" fill="none" stroke="#4098b5" stroke-width="1"/><path class="point" d="M2.8209479177387813,0A2.8209479177387813,2.8209479177387813,0,1,1,-2.8209479177387813,0A2.8209479177387813,2.8209479177387813,0,1,1,2.8209479177387813,0" transform="translate(201.9777777777778,562.7273186779295)" fill="none" stroke="#4098b5" stroke-width="1"/><path class="point" d="M2.8209479177387813,0A2.8209479177387813,2.8209479177387813,0,1,1,-2.8209479177387813,0A2.8209479177387813,2.8209479177387813,0,1,1,2.8209479177387813,0" transform="translate(201.9777777777778,518.5201586368396)" fill="none" stroke="#4098b5" stroke-width="1"/><path class="point" d="M2.8209479177387813,0A2.8209479177387813,2.8209479177387813,0,1,1,-2.8209479177387813,0A2.8209479177387813,2.8209479177387813,0,1,1,2.8209479177387813,0" transform="translate(201.9777777777778,565.1342496868624)" fill="none" stroke="#4098b5" stroke-width="1"/><path class="point" d="M2.8209479177387813,0A2.8209479177387813,2.8209479177387813,0,1,1,-2.8209479177387813,0A2.8209479177387813,2.8209479177387813,0,1,1,2.8209479177387813,0" transform="translate(201.9777777777778,571.2113115149567)" fill="none" stroke="#4098b5" stroke-width="1"/><path class="point" d="M2.8209479177387813,0A2.8209479177387813,2.8209479177387813,0,1,1,-2.8209479177387813,0A2.8209479177387813,2.8209479177387813,0,1,1,2.8209479177387813,0" transform="translate(201.9777777777778,545.8626199660416)" fill="none" stroke="#4098b5" stroke-width="1"/><path class="point" d="M2.8209479177387813,0A2.8209479177387813,2.8209479177387813,0,1,1,-2.8209479177387813,0A2.8209479177387813,2.8209479177387813,0,1,1,2.8209479177387813,0" transform="translate(201.9777777777778,533.1252364324067)" fill="none" stroke="#4098b5" stroke-width="1"/><path class="point" d="M2.8209479177387813,0A2.8209479177387813,2.8209479177387813,0,1,1,-2.8209479177387813,0A2.8209479177387813,2.8209479177387813,0,1,1,2.8209479177387813,0" transform="translate(201.9777777777778,556.5651846537997)" fill="none" stroke="#4098b5" stroke-width="1"/><path class="point" d="M2.8209479177387813,0A2.8209479177387813,2.8209479177387813,0,1,1,-2.8209479177387813,0A2.8209479177387813,2.8209479177387813,0,1,1,2.8209479177387813,0" transform="translate(269.7555555555556,555.913062596434)" fill="none" stroke="#4098b5" stroke-width="1"/><path class="point" d="M2.8209479177387813,0A2.8209479177387813,2.8209479177387813,0,1,1,-2.8209479177387813,0A2.8209479177387813,2.8209479177387813,0,1,1,2.8209479177387813,0" transform="translate(269.7555555555556,560.7652961341255)" fill="none" stroke="#4098b5" stroke-width="1"/><path class="point" d="M2.8209479177387813,0A2.8209479177387813,2.8209479177387813,0,1,1,-2.8209479177387813,0A2.8209479177387813,2.8209479177387813,0,1,1,2.8209479177387813,0" transform="translate(269.7555555555556,556.032705284693)" fill="none" stroke="#4098b5" stroke-width="1"/><path class="point" d="M2.8209479177387813,0A2.8209479177387813,2.8209479177387813,0,1,1,-2.8209479177387813,0A2.8209479177387813,2.8209479177387813,0,1,1,2.8209479177387813,0" transform="translate(269.7555555555556,555.548435892273)" fill="none" stroke="#4098b5" stroke-width="1"/><path class="point" d="M2.8209479177387813,0A2.8209479177387813,2.8209479177387813,0,1,1,-2.8209479177387813,0A2.8209479177387813,2.8209479177387813,0,1,1,2.8209479177387813,0" transform="translate(269.7555555555556,554.9889226720745)" fill="none" stroke="#4098b5" stroke-width="1"/><path class="point" d="M2.8209479177387813,0A2.8209479177387813,2.8209479177387813,0,1,1,-2.8209479177387813,0A2.8209479177387813,2.8209479177387813,0,1,1,2.8209479177387813,0" transform="translate(269.7555555555556,548.0756233486801)" fill="none" stroke="#4098b5" stroke-width="1"/><path class="point" d="M2.8209479177387813,0A2.8209479177387813,2.8209479177387813,0,1,1,-2.8209479177387813,0A2.8209479177387813,2.8209479177387813,0,1,1,2.8209479177387813,0" transform="translate(269.7555555555556,546.5303040619987)" fill="none" stroke="#4098b5" stroke-width="1"/><path class="point" d="M2.8209479177387813,0A2.8209479177387813,2.8209479177387813,0,1,1,-2.8209479177387813,0A2.8209479177387813,2.8209479177387813,0,1,1,2.8209479177387813,0" transform="translate(269.7555555555556,540.1501740517233)" fill="none" stroke="#4098b5" stroke-width="1"/><path class="point" d="M2.8209479177387813,0A2.8209479177387813,2.8209479177387813,0,1,1,-2.8209479177387813,0A2.8209479177387813,2.8209479177387813,0,1,1,2.8209479177387813,0" transform="translate(269.7555555555556,555.7055516624736)" fill="none" stroke="#4098b5" stroke-width="1"/><path class="point" d="M2.8209479177387813,0A2.8209479177387813,2.8209479177387813,0,1,1,-2.8209479177387813,0A2.8209479177387813,2.8209479177387813,0,1,1,2.8209479177387813,0" transform="translate(269.7555555555556,556.6867609120259)" fill="none" stroke="#4098b5" stroke-width="1"/><path class="point" d="M2.8209479177387813,0A2.8209479177387813,2.8209479177387813,0,1,1,-2.8209479177387813,0A2.8209479177387813,2.8209479177387813,0,1,1,2.8209479177387813,0" transform="translate(269.7555555555556,555.913062596434)" fill="none" stroke="#4098b5" stroke-width="1"/><path class="point" d="M2.8209479177387813,0A2.8209479177387813,2.8209479177387813,0,1,1,-2.8209479177387813,0A2.8209479177387813,2.8209479177387813,0,1,1,2.8209479177387813,0" transform="translate(269.7555555555556,560.7652961341255)" fill="none" stroke="#4098b5" stroke-width="1"/><path class="point" d="M2.8209479177387813,0A2.8209479177387813,2.8209479177387813,0,1,1,-2.8209479177387813,0A2.8209479177387813,2.8209479177387813,0,1,1,2.8209479177387813,0" transform="translate(269.7555555555556,556.032705284693)" fill="none" stroke="#4098b5" stroke-width="1"/><path class="point" d="M2.8209479177387813,0A2.8209479177387813,2.8209479177387813,0,1,1,-2.8209479177387813,0A2.8209479177387813,2.8209479177387813,0,1,1,2.8209479177387813,0" transform="translate(269.7555555555556,555.548435892273)" fill="none" stroke="#4098b5" stroke-width="1"/><path class="point" d="M2.8209479177387813,0A2.8209479177387813,2.8209479177387813,0,1,1,-2.8209479177387813,0A2.8209479177387813,2.8209479177387813,0,1,1,2.8209479177387813,0" transform="translate(269.7555555555556,554.9889226720745)" fill="none" stroke="#4098b5" stroke-width="1"/><path class="point" d="M2.8209479177387813,0A2.8209479177387813,2.8209479177387813,0,1,1,-2.8209479177387813,0A2.8209479177387813,2.8209479177387813,0,1,1,2.8209479177387813,0" transform="translate(269.7555555555556,548.0756233486801)" fill="none" stroke="#4098b5" stroke-width="1"/><path class="point" d="M2.8209479177387813,0A2.8209479177387813,2.8209479177387813,0,1,1,-2.8209479177387813,0A2.8209479177387813,2.8209479177387813,0,1,1,2.8209479177387813,0" transform="translate(269.7555555555556,546.5303040619987)" fill="none" stroke="#4098b5" stroke-width="1"/><path class="point" d="M2.8209479177387813,0A2.8209479177387813,2.8209479177387813,0,1,1,-2.8209479177387813,0A2.8209479177387813,2.8209479177387813,0,1,1,2.8209479177387813,0" transform="translate(269.7555555555556,540.1501740517233)" fill="none" stroke="#4098b5" stroke-width="1"/><path class="point" d="M2.8209479177387813,0A2.8209479177387813,2.8209479177387813,0,1,1,-2.8209479177387813,0A2.8209479177387813,2.8209479177387813,0,1,1,2.8209479177387813,0" transform="translate(269.7555555555556,555.7055516624736)" fill="none" stroke="#4098b5" stroke-width="1"/><path class="point" d="M2.8209479177387813,0A2.8209479177387813,2.8209479177387813,0,1,1,-2.8209479177387813,0A2.8209479177387813,2.8209479177387813,0,1,1,2.8209479177387813,0" transform="translate(269.7555555555556,556.6867609120259)" fill="none" stroke="#4098b5" stroke-width="1"/><path class="point" d="M2.8209479177387813,0A2.8209479177387813,2.8209479177387813,0,1,1,-2.8209479177387813,0A2.8209479177387813,2.8209479177387813,0,1,1,2.8209479177387813,0" transform="translate(336.17777777777775,555.8990635854959)" fill="none" stroke="#4098b5" stroke-width="1"/><path class="point" d="M2.8209479177387813,0A2.8209479177387813,2.8209479177387813,0,1,1,-2.8209479177387813,0A2.8209479177387813,2.8209479177387813,0,1,1,2.8209479177387813,0" transform="translate(336.17777777777775,561.2736285340718)" fill="none" stroke="#4098b5" stroke-width="1"/><path class="point" d="M2.8209479177387813,0A2.8209479177387813,2.8209479177387813,0,1,1,-2.8209479177387813,0A2.8209479177387813,2.8209479177387813,0,1,1,2.8209479177387813,0" transform="translate(336.17777777777775,543.6342418787773)" fill="none" stroke="#4098b5" stroke-width="1"/><path class="point" d="M2.8209479177387813,0A2.8209479177387813,2.8209479177387813,0,1,1,-2.8209479177387813,0A2.8209479177387813,2.8209479177387813,0,1,1,2.8209479177387813,0" transform="translate(336.17777777777775,552.056592115085)" fill="none" stroke="#4098b5" stroke-width="1"/><path class="point" d="M2.8209479177387813,0A2.8209479177387813,2.8209479177387813,0,1,1,-2.8209479177387813,0A2.8209479177387813,2.8209479177387813,0,1,1,2.8209479177387813,0" transform="translate(336.17777777777775,560.0392775785757)" fill="none" stroke="#4098b5" stroke-width="1"/><path class="point" d="M2.8209479177387813,0A2.8209479177387813,2.8209479177387813,0,1,1,-2.8209479177387813,0A2.8209479177387813,2.8209479177387813,0,1,1,2.8209479177387813,0" transform="translate(336.17777777777775,542.0605313621214)" fill="none" stroke="#4098b5" stroke-width="1"/><path class="point" d="M2.8209479177387813,0A2.8209479177387813,2.8209479177387813,0,1,1,-2.8209479177387813,0A2.8209479177387813,2.8209479177387813,0,1,1,2.8209479177387813,0" transform="translate(336.17777777777775,541.1380906061828)" fill="none" stroke="#4098b5" stroke-width="1"/><path class="point" d="M2.8209479177387813,0A2.8209479177387813,2.8209479177387813,0,1,1,-2.8209479177387813,0A2.8209479177387813,2.8209479177387813,0,1,1,2.8209479177387813,0" transform="translate(336.17777777777775,550.2492178035087)" fill="none" stroke="#4098b5" stroke-width="1"/><path class="point" d="M2.8209479177387813,0A2.8209479177387813,2.8209479177387813,0,1,1,-2.8209479177387813,0A2.8209479177387813,2.8209479177387813,0,1,1,2.8209479177387813,0" transform="translate(336.17777777777775,535.8710381058855)" fill="none" stroke="#4098b5" stroke-width="1"/><path class="point" d="M2.8209479177387813,0A2.8209479177387813,2.8209479177387813,0,1,1,-2.8209479177387813,0A2.8209479177387813,2.8209479177387813,0,1,1,2.8209479177387813,0" transform="translate(336.17777777777775,568.4942673567815)" fill="none" stroke="#4098b5" stroke-width="1"/><path class="point" d="M2.8209479177387813,0A2.8209479177387813,2.8209479177387813,0,1,1,-2.8209479177387813,0A2.8209479177387813,2.8209479177387813,0,1,1,2.8209479177387813,0" transform="translate(336.17777777777775,555.8990635854959)" fill="none" stroke="#4098b5" stroke-width="1"/><path class="point" d="M2.8209479177387813,0A2.8209479177387813,2.8209479177387813,0,1,1,-2.8209479177387813,0A2.8209479177387813,2.8209479177387813,0,1,1,2.8209479177387813,0" transform="translate(336.17777777777775,561.2736285340718)" fill="none" stroke="#4098b5" stroke-width="1"/><path class="point" d="M2.8209479177387813,0A2.8209479177387813,2.8209479177387813,0,1,1,-2.8209479177387813,0A2.8209479177387813,2.8209479177387813,0,1,1,2.8209479177387813,0" transform="translate(336.17777777777775,543.6342418787773)" fill="none" stroke="#4098b5" stroke-width="1"/><path class="point" d="M2.8209479177387813,0A2.8209479177387813,2.8209479177387813,0,1,1,-2.8209479177387813,0A2.8209479177387813,2.8209479177387813,0,1,1,2.8209479177387813,0" transform="translate(336.17777777777775,552.056592115085)" fill="none" stroke="#4098b5" stroke-width="1"/><path class="point" d="M2.8209479177387813,0A2.8209479177387813,2.8209479177387813,0,1,1,-2.8209479177387813,0A2.8209479177387813,2.8209479177387813,0,1,1,2.8209479177387813,0" transform="translate(336.17777777777775,560.0392775785757)" fill="none" stroke="#4098b5" stroke-width="1"/><path class="point" d="M2.8209479177387813,0A2.8209479177387813,2.8209479177387813,0,1,1,-2.8209479177387813,0A2.8209479177387813,2.8209479177387813,0,1,1,2.8209479177387813,0" transform="translate(336.17777777777775,542.0605313621214)" fill="none" stroke="#4098b5" stroke-width="1"/><path class="point" d="M2.8209479177387813,0A2.8209479177387813,2.8209479177387813,0,1,1,-2.8209479177387813,0A2.8209479177387813,2.8209479177387813,0,1,1,2.8209479177387813,0" transform="translate(336.17777777777775,541.1380906061828)" fill="none" stroke="#4098b5" stroke-width="1"/><path class="point" d="M2.8209479177387813,0A2.8209479177387813,2.8209479177387813,0,1,1,-2.8209479177387813,0A2.8209479177387813,2.8209479177387813,0,1,1,2.8209479177387813,0" transform="translate(336.17777777777775,550.2492178035087)" fill="none" stroke="#4098b5" stroke-width="1"/><path class="point" d="M2.8209479177387813,0A2.8209479177387813,2.8209479177387813,0,1,1,-2.8209479177387813,0A2.8209479177387813,2.8209479177387813,0,1,1,2.8209479177387813,0" transform="translate(336.17777777777775,535.8710381058855)" fill="none" stroke="#4098b5" stroke-width="1"/><path class="point" d="M2.8209479177387813,0A2.8209479177387813,2.8209479177387813,0,1,1,-2.8209479177387813,0A2.8209479177387813,2.8209479177387813,0,1,1,2.8209479177387813,0" transform="translate(336.17777777777775,568.4942673567815)" fill="none" stroke="#4098b5" stroke-width="1"/><path class="point" d="M2.8209479177387813,0A2.8209479177387813,2.8209479177387813,0,1,1,-2.8209479177387813,0A2.8209479177387813,2.8209479177387813,0,1,1,2.8209479177387813,0" transform="translate(403.9555555555556,552.531664117506)" fill="none" stroke="#4098b5" stroke-width="1"/><path class="point" d="M2.8209479177387813,0A2.8209479177387813,2.8209479177387813,0,1,1,-2.8209479177387813,0A2.8209479177387813,2.8209479177387813,0,1,1,2.8209479177387813,0" transform="translate(403.9555555555556,545.7658331574116)" fill="none" stroke="#4098b5" stroke-width="1"/><path class="point" d="M2.8209479177387813,0A2.8209479177387813,2.8209479177387813,0,1,1,-2.8209479177387813,0A2.8209479177387813,2.8209479177387813,0,1,1,2.8209479177387813,0" transform="translate(403.9555555555556,547.7395961483198)" fill="none" stroke="#4098b5" stroke-width="1"/><path class="point" d="M2.8209479177387813,0A2.8209479177387813,2.8209479177387813,0,1,1,-2.8209479177387813,0A2.8209479177387813,2.8209479177387813,0,1,1,2.8209479177387813,0" transform="translate(403.9555555555556,552.111484151749)" fill="none" stroke="#4098b5" stroke-width="1"/><path class="point" d="M2.8209479177387813,0A2.8209479177387813,2.8209479177387813,0,1,1,-2.8209479177387813,0A2.8209479177387813,2.8209479177387813,0,1,1,2.8209479177387813,0" transform="translate(403.9555555555556,545.6774664049443)" fill="none" stroke="#4098b5" stroke-width="1"/><path class="point" d="M2.8209479177387813,0A2.8209479177387813,2.8209479177387813,0,1,1,-2.8209479177387813,0A2.8209479177387813,2.8209479177387813,0,1,1,2.8209479177387813,0" transform="translate(403.9555555555556,554.365479171742)" fill="none" stroke="#4098b5" stroke-width="1"/><path class="point" d="M2.8209479177387813,0A2.8209479177387813,2.8209479177387813,0,1,1,-2.8209479177387813,0A2.8209479177387813,2.8209479177387813,0,1,1,2.8209479177387813,0" transform="translate(403.9555555555556,546.7314530638932)" fill="none" stroke="#4098b5" stroke-width="1"/><path class="point" d="M2.8209479177387813,0A2.8209479177387813,2.8209479177387813,0,1,1,-2.8209479177387813,0A2.8209479177387813,2.8209479177387813,0,1,1,2.8209479177387813,0" transform="translate(403.9555555555556,550.3023164590717)" fill="none" stroke="#4098b5" stroke-width="1"/><path class="point" d="M2.8209479177387813,0A2.8209479177387813,2.8209479177387813,0,1,1,-2.8209479177387813,0A2.8209479177387813,2.8209479177387813,0,1,1,2.8209479177387813,0" transform="translate(403.9555555555556,555.2085824086552)" fill="none" stroke="#4098b5" stroke-width="1"/><path class="point" d="M2.8209479177387813,0A2.8209479177387813,2.8209479177387813,0,1,1,-2.8209479177387813,0A2.8209479177387813,2.8209479177387813,0,1,1,2.8209479177387813,0" transform="translate(403.9555555555556,556.8185241945331)" fill="none" stroke="#4098b5" stroke-width="1"/><path class="point" d="M2.8209479177387813,0A2.8209479177387813,2.8209479177387813,0,1,1,-2.8209479177387813,0A2.8209479177387813,2.8209479177387813,0,1,1,2.8209479177387813,0" transform="translate(403.9555555555556,552.531664117506)" fill="none" stroke="#4098b5" stroke-width="1"/><path class="point" d="M2.8209479177387813,0A2.8209479177387813,2.8209479177387813,0,1,1,-2.8209479177387813,0A2.8209479177387813,2.8209479177387813,0,1,1,2.8209479177387813,0" transform="translate(403.9555555555556,545.7658331574116)" fill="none" stroke="#4098b5" stroke-width="1"/><path class="point" d="M2.8209479177387813,0A2.8209479177387813,2.8209479177387813,0,1,1,-2.8209479177387813,0A2.8209479177387813,2.8209479177387813,0,1,1,2.8209479177387813,0" transform="translate(403.9555555555556,547.7395961483198)" fill="none" stroke="#4098b5" stroke-width="1"/><path class="point" d="M2.8209479177387813,0A2.8209479177387813,2.8209479177387813,0,1,1,-2.8209479177387813,0A2.8209479177387813,2.8209479177387813,0,1,1,2.8209479177387813,0" transform="translate(403.9555555555556,552.111484151749)" fill="none" stroke="#4098b5" stroke-width="1"/><path class="point" d="M2.8209479177387813,0A2.8209479177387813,2.8209479177387813,0,1,1,-2.8209479177387813,0A2.8209479177387813,2.8209479177387813,0,1,1,2.8209479177387813,0" transform="translate(403.9555555555556,545.6774664049443)" fill="none" stroke="#4098b5" stroke-width="1"/><path class="point" d="M2.8209479177387813,0A2.8209479177387813,2.8209479177387813,0,1,1,-2.8209479177387813,0A2.8209479177387813,2.8209479177387813,0,1,1,2.8209479177387813,0" transform="translate(403.9555555555556,554.365479171742)" fill="none" stroke="#4098b5" stroke-width="1"/><path class="point" d="M2.8209479177387813,0A2.8209479177387813,2.8209479177387813,0,1,1,-2.8209479177387813,0A2.8209479177387813,2.8209479177387813,0,1,1,2.8209479177387813,0" transform="translate(403.9555555555556,546.7314530638932)" fill="none" stroke="#4098b5" stroke-width="1"/><path class="point" d="M2.8209479177387813,0A2.8209479177387813,2.8209479177387813,0,1,1,-2.8209479177387813,0A2.8209479177387813,2.8209479177387813,0,1,1,2.8209479177387813,0" transform="translate(403.9555555555556,550.3023164590717)" fill="none" stroke="#4098b5" stroke-width="1"/><path class="point" d="M2.8209479177387813,0A2.8209479177387813,2.8209479177387813,0,1,1,-2.8209479177387813,0A2.8209479177387813,2.8209479177387813,0,1,1,2.8209479177387813,0" transform="translate(403.9555555555556,555.2085824086552)" fill="none" stroke="#4098b5" stroke-width="1"/><path class="point" d="M2.8209479177387813,0A2.8209479177387813,2.8209479177387813,0,1,1,-2.8209479177387813,0A2.8209479177387813,2.8209479177387813,0,1,1,2.8209479177387813,0" transform="translate(403.9555555555556,556.8185241945331)" fill="none" stroke="#4098b5" stroke-width="1"/><path class="point" d="M2.8209479177387813,0A2.8209479177387813,2.8209479177387813,0,1,1,-2.8209479177387813,0A2.8209479177387813,2.8209479177387813,0,1,1,2.8209479177387813,0" transform="translate(471.73333333333335,558.4059141270955)" fill="none" stroke="#4098b5" stroke-width="1"/><path class="point" d="M2.8209479177387813,0A2.8209479177387813,2.8209479177387813,0,1,1,-2.8209479177387813,0A2.8209479177387813,2.8209479177387813,0,1,1,2.8209479177387813,0" transform="translate(471.73333333333335,558.4380597919833)" fill="none" stroke="#4098b5" stroke-width="1"/><path class="point" d="M2.8209479177387813,0A2.8209479177387813,2.8209479177387813,0,1,1,-2.8209479177387813,0A2.8209479177387813,2.8209479177387813,0,1,1,2.8209479177387813,0" transform="translate(471.73333333333335,557.1093609739412)" fill="none" stroke="#4098b5" stroke-width="1"/><path class="point" d="M2.8209479177387813,0A2.8209479177387813,2.8209479177387813,0,1,1,-2.8209479177387813,0A2.8209479177387813,2.8209479177387813,0,1,1,2.8209479177387813,0" transform="translate(471.73333333333335,548.4432741284802)" fill="none" stroke="#4098b5" stroke-width="1"/><path class="point" d="M2.8209479177387813,0A2.8209479177387813,2.8209479177387813,0,1,1,-2.8209479177387813,0A2.8209479177387813,2.8209479177387813,0,1,1,2.8209479177387813,0" transform="translate(471.73333333333335,554.4065432472061)" fill="none" stroke="#4098b5" stroke-width="1"/><path class="point" d="M2.8209479177387813,0A2.8209479177387813,2.8209479177387813,0,1,1,-2.8209479177387813,0A2.8209479177387813,2.8209479177387813,0,1,1,2.8209479177387813,0" transform="translate(471.73333333333335,542.2294801298497)" fill="none" stroke="#4098b5" stroke-width="1"/><path class="point" d="M2.8209479177387813,0A2.8209479177387813,2.8209479177387813,0,1,1,-2.8209479177387813,0A2.8209479177387813,2.8209479177387813,0,1,1,2.8209479177387813,0" transform="translate(471.73333333333335,561.0139203158171)" fill="none" stroke="#4098b5" stroke-width="1"/><path class="point" d="M2.8209479177387813,0A2.8209479177387813,2.8209479177387813,0,1,1,-2.8209479177387813,0A2.8209479177387813,2.8209479177387813,0,1,1,2.8209479177387813,0" transform="translate(471.73333333333335,560.1321620007743)" fill="none" stroke="#4098b5" stroke-width="1"/><path class="point" d="M2.8209479177387813,0A2.8209479177387813,2.8209479177387813,0,1,1,-2.8209479177387813,0A2.8209479177387813,2.8209479177387813,0,1,1,2.8209479177387813,0" transform="translate(471.73333333333335,542.0266265405749)" fill="none" stroke="#4098b5" stroke-width="1"/><path class="point" d="M2.8209479177387813,0A2.8209479177387813,2.8209479177387813,0,1,1,-2.8209479177387813,0A2.8209479177387813,2.8209479177387813,0,1,1,2.8209479177387813,0" transform="translate(471.73333333333335,539.3858876010466)" fill="none" stroke="#4098b5" stroke-width="1"/><path class="point" d="M2.8209479177387813,0A2.8209479177387813,2.8209479177387813,0,1,1,-2.8209479177387813,0A2.8209479177387813,2.8209479177387813,0,1,1,2.8209479177387813,0" transform="translate(471.73333333333335,558.4059141270955)" fill="none" stroke="#4098b5" stroke-width="1"/><path class="point" d="M2.8209479177387813,0A2.8209479177387813,2.8209479177387813,0,1,1,-2.8209479177387813,0A2.8209479177387813,2.8209479177387813,0,1,1,2.8209479177387813,0" transform="translate(471.73333333333335,558.4380597919833)" fill="none" stroke="#4098b5" stroke-width="1"/><path class="point" d="M2.8209479177387813,0A2.8209479177387813,2.8209479177387813,0,1,1,-2.8209479177387813,0A2.8209479177387813,2.8209479177387813,0,1,1,2.8209479177387813,0" transform="translate(471.73333333333335,557.1093609739412)" fill="none" stroke="#4098b5" stroke-width="1"/><path class="point" d="M2.8209479177387813,0A2.8209479177387813,2.8209479177387813,0,1,1,-2.8209479177387813,0A2.8209479177387813,2.8209479177387813,0,1,1,2.8209479177387813,0" transform="translate(471.73333333333335,548.4432741284802)" fill="none" stroke="#4098b5" stroke-width="1"/><path class="point" d="M2.8209479177387813,0A2.8209479177387813,2.8209479177387813,0,1,1,-2.8209479177387813,0A2.8209479177387813,2.8209479177387813,0,1,1,2.8209479177387813,0" transform="translate(471.73333333333335,554.4065432472061)" fill="none" stroke="#4098b5" stroke-width="1"/><path class="point" d="M2.8209479177387813,0A2.8209479177387813,2.8209479177387813,0,1,1,-2.8209479177387813,0A2.8209479177387813,2.8209479177387813,0,1,1,2.8209479177387813,0" transform="translate(471.73333333333335,542.2294801298497)" fill="none" stroke="#4098b5" stroke-width="1"/><path class="point" d="M2.8209479177387813,0A2.8209479177387813,2.8209479177387813,0,1,1,-2.8209479177387813,0A2.8209479177387813,2.8209479177387813,0,1,1,2.8209479177387813,0" transform="translate(471.73333333333335,561.0139203158171)" fill="none" stroke="#4098b5" stroke-width="1"/><path class="point" d="M2.8209479177387813,0A2.8209479177387813,2.8209479177387813,0,1,1,-2.8209479177387813,0A2.8209479177387813,2.8209479177387813,0,1,1,2.8209479177387813,0" transform="translate(471.73333333333335,560.1321620007743)" fill="none" stroke="#4098b5" stroke-width="1"/><path class="point" d="M2.8209479177387813,0A2.8209479177387813,2.8209479177387813,0,1,1,-2.8209479177387813,0A2.8209479177387813,2.8209479177387813,0,1,1,2.8209479177387813,0" transform="translate(471.73333333333335,542.0266265405749)" fill="none" stroke="#4098b5" stroke-width="1"/><path class="point" d="M2.8209479177387813,0A2.8209479177387813,2.8209479177387813,0,1,1,-2.8209479177387813,0A2.8209479177387813,2.8209479177387813,0,1,1,2.8209479177387813,0" transform="translate(471.73333333333335,539.3858876010466)" fill="none" stroke="#4098b5" stroke-width="1"/><path class="point" d="M2.8209479177387813,0A2.8209479177387813,2.8209479177387813,0,1,1,-2.8209479177387813,0A2.8209479177387813,2.8209479177387813,0,1,1,2.8209479177387813,0" transform="translate(539.5111111111112,553.3316774044649)" fill="none" stroke="#4098b5" stroke-width="1"/><path class="point" d="M2.8209479177387813,0A2.8209479177387813,2.8209479177387813,0,1,1,-2.8209479177387813,0A2.8209479177387813,2.8209479177387813,0,1,1,2.8209479177387813,0" transform="translate(539.5111111111112,550.8884394114239)" fill="none" stroke="#4098b5" stroke-width="1"/><path class="point" d="M2.8209479177387813,0A2.8209479177387813,2.8209479177387813,0,1,1,-2.8209479177387813,0A2.8209479177387813,2.8209479177387813,0,1,1,2.8209479177387813,0" transform="translate(539.5111111111112,539.2592334924913)" fill="none" stroke="#4098b5" stroke-width="1"/><path class="point" d="M2.8209479177387813,0A2.8209479177387813,2.8209479177387813,0,1,1,-2.8209479177387813,0A2.8209479177387813,2.8209479177387813,0,1,1,2.8209479177387813,0" transform="translate(539.5111111111112,555.84607825424)" fill="none" stroke="#4098b5" stroke-width="1"/><path class="point" d="M2.8209479177387813,0A2.8209479177387813,2.8209479177387813,0,1,1,-2.8209479177387813,0A2.8209479177387813,2.8209479177387813,0,1,1,2.8209479177387813,0" transform="translate(539.5111111111112,545.1399348827694)" fill="none" stroke="#4098b5" stroke-width="1"/><path class="point" d="M2.8209479177387813,0A2.8209479177387813,2.8209479177387813,0,1,1,-2.8209479177387813,0A2.8209479177387813,2.8209479177387813,0,1,1,2.8209479177387813,0" transform="translate(539.5111111111112,548.7609838266717)" fill="none" stroke="#4098b5" stroke-width="1"/><path class="point" d="M2.8209479177387813,0A2.8209479177387813,2.8209479177387813,0,1,1,-2.8209479177387813,0A2.8209479177387813,2.8209479177387813,0,1,1,2.8209479177387813,0" transform="translate(539.5111111111112,544.5498298858369)" fill="none" stroke="#4098b5" stroke-width="1"/><path class="point" d="M2.8209479177387813,0A2.8209479177387813,2.8209479177387813,0,1,1,-2.8209479177387813,0A2.8209479177387813,2.8209479177387813,0,1,1,2.8209479177387813,0" transform="translate(539.5111111111112,560.8100570107359)" fill="none" stroke="#4098b5" stroke-width="1"/><path class="point" d="M2.8209479177387813,0A2.8209479177387813,2.8209479177387813,0,1,1,-2.8209479177387813,0A2.8209479177387813,2.8209479177387813,0,1,1,2.8209479177387813,0" transform="translate(539.5111111111112,560.3605913791472)" fill="none" stroke="#4098b5" stroke-width="1"/><path class="point" d="M2.8209479177387813,0A2.8209479177387813,2.8209479177387813,0,1,1,-2.8209479177387813,0A2.8209479177387813,2.8209479177387813,0,1,1,2.8209479177387813,0" transform="translate(539.5111111111112,553.6715479808438)" fill="none" stroke="#4098b5" stroke-width="1"/><path class="point" d="M2.8209479177387813,0A2.8209479177387813,2.8209479177387813,0,1,1,-2.8209479177387813,0A2.8209479177387813,2.8209479177387813,0,1,1,2.8209479177387813,0" transform="translate(539.5111111111112,553.3316774044649)" fill="none" stroke="#4098b5" stroke-width="1"/><path class="point" d="M2.8209479177387813,0A2.8209479177387813,2.8209479177387813,0,1,1,-2.8209479177387813,0A2.8209479177387813,2.8209479177387813,0,1,1,2.8209479177387813,0" transform="translate(539.5111111111112,550.8884394114239)" fill="none" stroke="#4098b5" stroke-width="1"/><path class="point" d="M2.8209479177387813,0A2.8209479177387813,2.8209479177387813,0,1,1,-2.8209479177387813,0A2.8209479177387813,2.8209479177387813,0,1,1,2.8209479177387813,0" transform="translate(539.5111111111112,539.2592334924913)" fill="none" stroke="#4098b5" stroke-width="1"/><path class="point" d="M2.8209479177387813,0A2.8209479177387813,2.8209479177387813,0,1,1,-2.8209479177387813,0A2.8209479177387813,2.8209479177387813,0,1,1,2.8209479177387813,0" transform="translate(539.5111111111112,555.84607825424)" fill="none" stroke="#4098b5" stroke-width="1"/><path class="point" d="M2.8209479177387813,0A2.8209479177387813,2.8209479177387813,0,1,1,-2.8209479177387813,0A2.8209479177387813,2.8209479177387813,0,1,1,2.8209479177387813,0" transform="translate(539.5111111111112,545.1399348827694)" fill="none" stroke="#4098b5" stroke-width="1"/><path class="point" d="M2.8209479177387813,0A2.8209479177387813,2.8209479177387813,0,1,1,-2.8209479177387813,0A2.8209479177387813,2.8209479177387813,0,1,1,2.8209479177387813,0" transform="translate(539.5111111111112,548.7609838266717)" fill="none" stroke="#4098b5" stroke-width="1"/><path class="point" d="M2.8209479177387813,0A2.8209479177387813,2.8209479177387813,0,1,1,-2.8209479177387813,0A2.8209479177387813,2.8209479177387813,0,1,1,2.8209479177387813,0" transform="translate(539.5111111111112,544.5498298858369)" fill="none" stroke="#4098b5" stroke-width="1"/><path class="point" d="M2.8209479177387813,0A2.8209479177387813,2.8209479177387813,0,1,1,-2.8209479177387813,0A2.8209479177387813,2.8209479177387813,0,1,1,2.8209479177387813,0" transform="translate(539.5111111111112,560.8100570107359)" fill="none" stroke="#4098b5" stroke-width="1"/><path class="point" d="M2.8209479177387813,0A2.8209479177387813,2.8209479177387813,0,1,1,-2.8209479177387813,0A2.8209479177387813,2.8209479177387813,0,1,1,2.8209479177387813,0" transform="translate(539.5111111111112,560.3605913791472)" fill="none" stroke="#4098b5" stroke-width="1"/><path class="point" d="M2.8209479177387813,0A2.8209479177387813,2.8209479177387813,0,1,1,-2.8209479177387813,0A2.8209479177387813,2.8209479177387813,0,1,1,2.8209479177387813,0" transform="translate(539.5111111111112,553.6715479808438)" fill="none" stroke="#4098b5" stroke-width="1"/><path class="point" d="M2.8209479177387813,0A2.8209479177387813,2.8209479177387813,0,1,1,-2.8209479177387813,0A2.8209479177387813,2.8209479177387813,0,1,1,2.8209479177387813,0" transform="translate(607.2888888888889,556.4498104354359)" fill="none" stroke="#4098b5" stroke-width="1"/><path class="point" d="M2.8209479177387813,0A2.8209479177387813,2.8209479177387813,0,1,1,-2.8209479177387813,0A2.8209479177387813,2.8209479177387813,0,1,1,2.8209479177387813,0" transform="translate(607.2888888888889,552.2291842251759)" fill="none" stroke="#4098b5" stroke-width="1"/><path class="point" d="M2.8209479177387813,0A2.8209479177387813,2.8209479177387813,0,1,1,-2.8209479177387813,0A2.8209479177387813,2.8209479177387813,0,1,1,2.8209479177387813,0" transform="translate(607.2888888888889,562.5145694946458)" fill="none" stroke="#4098b5" stroke-width="1"/><path class="point" d="M2.8209479177387813,0A2.8209479177387813,2.8209479177387813,0,1,1,-2.8209479177387813,0A2.8209479177387813,2.8209479177387813,0,1,1,2.8209479177387813,0" transform="translate(607.2888888888889,547.48242370294)" fill="none" stroke="#4098b5" stroke-width="1"/><path class="point" d="M2.8209479177387813,0A2.8209479177387813,2.8209479177387813,0,1,1,-2.8209479177387813,0A2.8209479177387813,2.8209479177387813,0,1,1,2.8209479177387813,0" transform="translate(607.2888888888889,551.601272450863)" fill="none" stroke="#4098b5" stroke-width="1"/><path class="point" d="M2.8209479177387813,0A2.8209479177387813,2.8209479177387813,0,1,1,-2.8209479177387813,0A2.8209479177387813,2.8209479177387813,0,1,1,2.8209479177387813,0" transform="translate(607.2888888888889,548.0057190548167)" fill="none" stroke="#4098b5" stroke-width="1"/><path class="point" d="M2.8209479177387813,0A2.8209479177387813,2.8209479177387813,0,1,1,-2.8209479177387813,0A2.8209479177387813,2.8209479177387813,0,1,1,2.8209479177387813,0" transform="translate(607.2888888888889,552.7847641208788)" fill="none" stroke="#4098b5" stroke-width="1"/><path class="point" d="M2.8209479177387813,0A2.8209479177387813,2.8209479177387813,0,1,1,-2.8209479177387813,0A2.8209479177387813,2.8209479177387813,0,1,1,2.8209479177387813,0" transform="translate(607.2888888888889,554.7509766850451)" fill="none" stroke="#4098b5" stroke-width="1"/><path class="point" d="M2.8209479177387813,0A2.8209479177387813,2.8209479177387813,0,1,1,-2.8209479177387813,0A2.8209479177387813,2.8209479177387813,0,1,1,2.8209479177387813,0" transform="translate(607.2888888888889,555.8960297560174)" fill="none" stroke="#4098b5" stroke-width="1"/><path class="point" d="M2.8209479177387813,0A2.8209479177387813,2.8209479177387813,0,1,1,-2.8209479177387813,0A2.8209479177387813,2.8209479177387813,0,1,1,2.8209479177387813,0" transform="translate(607.2888888888889,561.3068971131355)" fill="none" stroke="#4098b5" stroke-width="1"/><path class="point" d="M2.8209479177387813,0A2.8209479177387813,2.8209479177387813,0,1,1,-2.8209479177387813,0A2.8209479177387813,2.8209479177387813,0,1,1,2.8209479177387813,0" transform="translate(607.2888888888889,556.4498104354359)" fill="none" stroke="#4098b5" stroke-width="1"/><path class="point" d="M2.8209479177387813,0A2.8209479177387813,2.8209479177387813,0,1,1,-2.8209479177387813,0A2.8209479177387813,2.8209479177387813,0,1,1,2.8209479177387813,0" transform="translate(607.2888888888889,552.2291842251759)" fill="none" stroke="#4098b5" stroke-width="1"/><path class="point" d="M2.8209479177387813,0A2.8209479177387813,2.8209479177387813,0,1,1,-2.8209479177387813,0A2.8209479177387813,2.8209479177387813,0,1,1,2.8209479177387813,0" transform="translate(607.2888888888889,562.5145694946458)" fill="none" stroke="#4098b5" stroke-width="1"/><path class="point" d="M2.8209479177387813,0A2.8209479177387813,2.8209479177387813,0,1,1,-2.8209479177387813,0A2.8209479177387813,2.8209479177387813,0,1,1,2.8209479177387813,0" transform="translate(607.2888888888889,547.48242370294)" fill="none" stroke="#4098b5" stroke-width="1"/><path class="point" d="M2.8209479177387813,0A2.8209479177387813,2.8209479177387813,0,1,1,-2.8209479177387813,0A2.8209479177387813,2.8209479177387813,0,1,1,2.8209479177387813,0" transform="translate(607.2888888888889,551.601272450863)" fill="none" stroke="#4098b5" stroke-width="1"/><path class="point" d="M2.8209479177387813,0A2.8209479177387813,2.8209479177387813,0,1,1,-2.8209479177387813,0A2.8209479177387813,2.8209479177387813,0,1,1,2.8209479177387813,0" transform="translate(607.2888888888889,548.0057190548167)" fill="none" stroke="#4098b5" stroke-width="1"/><path class="point" d="M2.8209479177387813,0A2.8209479177387813,2.8209479177387813,0,1,1,-2.8209479177387813,0A2.8209479177387813,2.8209479177387813,0,1,1,2.8209479177387813,0" transform="translate(607.2888888888889,552.7847641208788)" fill="none" stroke="#4098b5" stroke-width="1"/><path class="point" d="M2.8209479177387813,0A2.8209479177387813,2.8209479177387813,0,1,1,-2.8209479177387813,0A2.8209479177387813,2.8209479177387813,0,1,1,2.8209479177387813,0" transform="translate(607.2888888888889,554.7509766850451)" fill="none" stroke="#4098b5" stroke-width="1"/><path class="point" d="M2.8209479177387813,0A2.8209479177387813,2.8209479177387813,0,1,1,-2.8209479177387813,0A2.8209479177387813,2.8209479177387813,0,1,1,2.8209479177387813,0" transform="translate(607.2888888888889,555.8960297560174)" fill="none" stroke="#4098b5" stroke-width="1"/><path class="point" d="M2.8209479177387813,0A2.8209479177387813,2.8209479177387813,0,1,1,-2.8209479177387813,0A2.8209479177387813,2.8209479177387813,0,1,1,2.8209479177387813,0" transform="translate(607.2888888888889,561.3068971131355)" fill="none" stroke="#4098b5" stroke-width="1"/><path class="line" d="M0,550.5314964110476L66.42222222222222,556.8930237485797L134.2,564.1928651454846L201.9777777777778,562.099610144784L269.7555555555556,561.4390207931351L336.17777777777775,561.4973409965575L403.9555555555556,559.7905275279618L471.73333333333335,558.4952633384179L539.5111111111112,559.6338501332334L607.2888888888889,558.3220615645861" fill="none" stroke="#4cb6da" stroke-width="5" stroke-dasharray="20 5" clip-path="url(#clip-path)"/><path class="line" d="M0,550.242915553087L66.42222222222222,556.0745142672138L134.2,549.8153965099252L201.9777777777778,552.6013452961121L269.7555555555556,553.0396836616501L336.17777777777775,551.0715948926486L403.9555555555556,550.7252399277826L471.73333333333335,552.1591228856769L539.5111111111112,551.2618373528625L607.2888888888889,554.3021647038954" fill="none" stroke="#4098b5" stroke-width="10" stroke-dasharray="none" clip-path="url(#clip-path)"/><g class="y-axis" fill="none" font-size="50px" font-family="sans-serif" text-anchor="end"><path class="domain" stroke="currentColor" d="M-3,652.5H0.5V0.5H-3"/></g><g class="x-axis" transform="translate(0,652)" fill="none" font-size="50px" font-family="sans-serif" text-anchor="middle"><path class="domain" stroke="currentColor" d="M0.5,0.5H610.5"/><g class="tick" opacity="1" transform="translate(68.27777777777777,0)"><line stroke="currentColor" y2="0"/><text fill="currentColor" y="10" dy="0.71em">100</text></g><g class="tick" opacity="1" transform="translate(339.3888888888889,0)"><line stroke="currentColor" y2="0"/><text fill="currentColor" y="10" dy="0.71em">300</text></g><g class="tick" opacity="1" transform="translate(610.5,0)"><line stroke="currentColor" y2="0"/><text fill="currentColor" y="10" dy="0.71em">500</text></g></g></g><rect x="0" y="0" width="610" height="652" transform="translate(150,60)" style="fill: none; stroke: black; stroke-width: 1px;"/></svg>