<svg xmlns="http://www.w3.org/2000/svg" width="800" height="800"><g class="container" transform="translate(150,60)"><defs><clipPath id="clip-path"><rect x="0" y="0" width="610" height="652"/></clipPath></defs><path class="point" d="M2.8209479177387813,0A2.8209479177387813,2.8209479177387813,0,1,1,-2.8209479177387813,0A2.8209479177387813,2.8209479177387813,0,1,1,2.8209479177387813,0" transform="translate(0,139.7201305694682)" fill="none" stroke="#4098b5" stroke-width="1"/><path class="point" d="M2.8209479177387813,0A2.8209479177387813,2.8209479177387813,0,1,1,-2.8209479177387813,0A2.8209479177387813,2.8209479177387813,0,1,1,2.8209479177387813,0" transform="translate(0,103.39714982684222)" fill="none" stroke="#4098b5" stroke-width="1"/><path class="point" d="M2.8209479177387813,0A2.8209479177387813,2.8209479177387813,0,1,1,-2.8209479177387813,0A2.8209479177387813,2.8209479177387813,0,1,1,2.8209479177387813,0" transform="translate(0,148.5347964258662)" fill="none" stroke="#4098b5" stroke-width="1"/><path class="point" d="M2.8209479177387813,0A2.8209479177387813,2.8209479177387813,0,1,1,-2.8209479177387813,0A2.8209479177387813,2.8209479177387813,0,1,1,2.8209479177387813,0" transform="translate(0,168.5893948813188)" fill="none" stroke="#4098b5" stroke-width="1"/><path class="point" d="M2.8209479177387813,0A2.8209479177387813,2.8209479177387813,0,1,1,-2.8209479177387813,0A2.8209479177387813,2.8209479177387813,0,1,1,2.8209479177387813,0" transform="translate(0,239.90378056106437)" fill="none" stroke="#4098b5" stroke-width="1"/><path class="point" d="M2.8209479177387813,0A2.8209479177387813,2.8209479177387813,0,1,1,-2.8209479177387813,0A2.8209479177387813,2.8209479177387813,0,1,1,2.8209479177387813,0" transform="translate(0,192.29390845485926)" fill="none" stroke="#4098b5" stroke-width="1"/><path class="point" d="M2.8209479177387813,0A2.8209479177387813,2.8209479177387813,0,1,1,-2.8209479177387813,0A2.8209479177387813,2.8209479177387813,0,1,1,2.8209479177387813,0" transform="translate(0,137.2123849002278)" fill="none" stroke="#4098b5" stroke-width="1"/><path class="point" d="M2.8209479177387813,0A2.8209479177387813,2.8209479177387813,0,1,1,-2.8209479177387813,0A2.8209479177387813,2.8209479177387813,0,1,1,2.8209479177387813,0" transform="translate(0,103.06427785063875)" fill="none" stroke="#4098b5" stroke-width="1"/><path class="point" d="M2.8209479177387813,0A2.8209479177387813,2.8209479177387813,0,1,1,-2.8209479177387813,0A2.8209479177387813,2.8209479177387813,0,1,1,2.8209479177387813,0" transform="translate(0,139.7201305694682)" fill="none" stroke="#4098b5" stroke-width="1"/><path class="point" d="M2.8209479177387813,0A2.8209479177387813,2.8209479177387813,0,1,1,-2.8209479177387813,0A2.8209479177387813,2.8209479177387813,0,1,1,2.8209479177387813,0" transform="translate(0,103.39714982684222)" fill="none" stroke="#4098b5" stroke-width="1"/><path class="point" d="M2.8209479177387813,0A2.8209479177387813,2.8209479177387813,0,1,1,-2.8209479177387813,0A2.8209479177387813,2.8209479177387813,0,1,1,2.8209479177387813,0" transform="translate(0,148.5347964258662)" fill="none" stroke="#4098b5" stroke-width="1"/><path class="point" d="M2.8209479177387813,0A2.8209479177387813,2.8209479177387813,0,1,1,-2.8209479177387813,0A2.8209479177387813,2.8209479177387813,0,1,1,2.8209479177387813,0" transform="translate(0,168.5893948813188)" fill="none" stroke="#4098b5" stroke-width="1"/><path class="point" d="M2.8209479177387813,0A2.8209479177387813,2.8209479177387813,0,1,1,-2.8209479177387813,0A2.8209479177387813,2.8209479177387813,0,1,1,2.8209479177387813,0" transform="translate(0,239.90378056106437)" fill="none" stroke="#4098b5" stroke-width="1"/><path class="point" d="M2.8209479177387813,0A2.8209479177387813,2.8209479177387813,0,1,1,-2.8209479177387813,0A2.8209479177387813,2.8209479177387813,0,1,1,2.8209479177387813,0" transform="translate(0,192.29390845485926)" fill="none" stroke="#4098b5" stroke-width="1"/><path class="point" d="M2.8209479177387813,0A2.8209479177387813,2.8209479177387813,0,1,1,-2.8209479177387813,0A2.8209479177387813,2.8209479177387813,0,1,1,2.8209479177387813,0" transform="translate(0,137.2123849002278)" fill="none" stroke="#4098b5" stroke-width="1"/><path class="point" d="M2.8209479177387813,0A2.8209479177387813,2.8209479177387813,0,1,1,-2.8209479177387813,0A2.8209479177387813,2.8209479177387813,0,1,1,2.8209479177387813,0" transform="translate(0,103.06427785063875)" fill="none" stroke="#4098b5" stroke-width="1"/><path class="point" d="M2.8209479177387813,0A2.8209479177387813,2.8209479177387813,0,1,1,-2.8209479177387813,0A2.8209479177387813,2.8209479177387813,0,1,1,2.8209479177387813,0" transform="translate(67.77777777777777,160.07776293749106)" fill="none" stroke="#4098b5" stroke-width="1"/><path class="point" d="M2.8209479177387813,0A2.8209479177387813,2.8209479177387813,0,1,1,-2.8209479177387813,0A2.8209479177387813,2.8209479177387813,0,1,1,2.8209479177387813,0" transform="translate(67.77777777777777,236.6394258968349)" fill="none" stroke="#4098b5" stroke-width="1"/><path class="point" d="M2.8209479177387813,0A2.8209479177387813,2.8209479177387813,0,1,1,-2.8209479177387813,0A2.8209479177387813,2.8209479177387813,0,1,1,2.8209479177387813,0" transform="translate(67.77777777777777,197.20657730497203)" fill="none" stroke="#4098b5" stroke-width="1"/><path class="point" d="M2.8209479177387813,0A2.8209479177387813,2.8209479177387813,0,1,1,-2.8209479177387813,0A2.8209479177387813,2.8209479177387813,0,1,1,2.8209479177387813,0" transform="translate(67.77777777777777,213.99060236873117)" fill="none" stroke="#4098b5" stroke-width="1"/><path class="point" d="M2.8209479177387813,0A2.8209479177387813,2.8209479177387813,0,1,1,-2.8209479177387813,0A2.8209479177387813,2.8209479177387813,0,1,1,2.8209479177387813,0" transform="translate(67.77777777777777,230.4594345029949)" fill="none" stroke="#4098b5" stroke-width="1"/><path class="point" d="M2.8209479177387813,0A2.8209479177387813,2.8209479177387813,0,1,1,-2.8209479177387813,0A2.8209479177387813,2.8209479177387813,0,1,1,2.8209479177387813,0" transform="translate(67.77777777777777,119.34638190708813)" fill="none" stroke="#4098b5" stroke-width="1"/><path class="point" d="M2.8209479177387813,0A2.8209479177387813,2.8209479177387813,0,1,1,-2.8209479177387813,0A2.8209479177387813,2.8209479177387813,0,1,1,2.8209479177387813,0" transform="translate(67.77777777777777,214.1216926016897)" fill="none" stroke="#4098b5" stroke-width="1"/><path class="point" d="M2.8209479177387813,0A2.8209479177387813,2.8209479177387813,0,1,1,-2.8209479177387813,0A2.8209479177387813,2.8209479177387813,0,1,1,2.8209479177387813,0" transform="translate(67.77777777777777,174.43570616770842)" fill="none" stroke="#4098b5" stroke-width="1"/><path class="point" d="M2.8209479177387813,0A2.8209479177387813,2.8209479177387813,0,1,1,-2.8209479177387813,0A2.8209479177387813,2.8209479177387813,0,1,1,2.8209479177387813,0" transform="translate(67.77777777777777,160.07776293749106)" fill="none" stroke="#4098b5" stroke-width="1"/><path class="point" d="M2.8209479177387813,0A2.8209479177387813,2.8209479177387813,0,1,1,-2.8209479177387813,0A2.8209479177387813,2.8209479177387813,0,1,1,2.8209479177387813,0" transform="translate(67.77777777777777,236.6394258968349)" fill="none" stroke="#4098b5" stroke-width="1"/><path class="point" d="M2.8209479177387813,0A2.8209479177387813,2.8209479177387813,0,1,1,-2.8209479177387813,0A2.8209479177387813,2.8209479177387813,0,1,1,2.8209479177387813,0" transform="translate(67.77777777777777,197.20657730497203)" fill="none" stroke="#4098b5" stroke-width="1"/><path class="point" d="M2.8209479177387813,0A2.8209479177387813,2.8209479177387813,0,1,1,-2.8209479177387813,0A2.8209479177387813,2.8209479177387813,0,1,1,2.8209479177387813,0" transform="translate(67.77777777777777,213.99060236873117)" fill="none" stroke="#4098b5" stroke-width="1"/><path class="point" d="M2.8209479177387813,0A2.8209479177387813,2.8209479177387813,0,1,1,-2.8209479177387813,0A2.8209479177387813,2.8209479177387813,0,1,1,2.8209479177387813,0" transform="translate(67.77777777777777,230.4594345029949)" fill="none" stroke="#4098b5" stroke-width="1"/><path class="point" d="M2.8209479177387813,0A2.8209479177387813,2.8209479177387813,0,1,1,-2.8209479177387813,0A2.8209479177387813,2.8209479177387813,0,1,1,2.8209479177387813,0" transform="translate(67.77777777777777,119.34638190708813)" fill="none" stroke="#4098b5" stroke-width="1"/><path class="point" d="M2.8209479177387813,0A2.8209479177387813,2.8209479177387813,0,1,1,-2.8209479177387813,0A2.8209479177387813,2.8209479177387813,0,1,1,2.8209479177387813,0" transform="translate(67.77777777777777,214.1216926016897)" fill="none" stroke="#4098b5" stroke-width="1"/><path class="point" d="M2.8209479177387813,0A2.8209479177387813,2.8209479177387813,0,1,1,-2.8209479177387813,0A2.8209479177387813,2.8209479177387813,0,1,1,2.8209479177387813,0" transform="translate(67.77777777777777,174.43570616770842)" fill="none" stroke="#4098b5" stroke-width="1"/><path class="point" d="M2.8209479177387813,0A2.8209479177387813,2.8209479177387813,0,1,1,-2.8209479177387813,0A2.8209479177387813,2.8209479177387813,0,1,1,2.8209479177387813,0" transform="translate(135.55555555555554,182.05714670824375)" fill="none" stroke="#4098b5" stroke-width="1"/><path class="point" d="M2.8209479177387813,0A2.8209479177387813,2.8209479177387813,0,1,1,-2.8209479177387813,0A2.8209479177387813,2.8209479177387813,0,1,1,2.8209479177387813,0" transform="translate(135.55555555555554,265.85987376265905)" fill="none" stroke="#4098b5" stroke-width="1"/><path class="point" d="M2.8209479177387813,0A2.8209479177387813,2.8209479177387813,0,1,1,-2.8209479177387813,0A2.8209479177387813,2.8209479177387813,0,1,1,2.8209479177387813,0" transform="translate(135.55555555555554,190.37545284231567)" fill="none" stroke="#4098b5" stroke-width="1"/><path class="point" d="M2.8209479177387813,0A2.8209479177387813,2.8209479177387813,0,1,1,-2.8209479177387813,0A2.8209479177387813,2.8209479177387813,0,1,1,2.8209479177387813,0" transform="translate(135.55555555555554,247.93846060593302)" fill="none" stroke="#4098b5" stroke-width="1"/><path class="point" d="M2.8209479177387813,0A2.8209479177387813,2.8209479177387813,0,1,1,-2.8209479177387813,0A2.8209479177387813,2.8209479177387813,0,1,1,2.8209479177387813,0" transform="translate(135.55555555555554,120.78504218583282)" fill="none" stroke="#4098b5" stroke-width="1"/><path class="point" d="M2.8209479177387813,0A2.8209479177387813,2.8209479177387813,0,1,1,-2.8209479177387813,0A2.8209479177387813,2.8209479177387813,0,1,1,2.8209479177387813,0" transform="translate(135.55555555555554,243.16271890947684)" fill="none" stroke="#4098b5" stroke-width="1"/><path class="point" d="M2.8209479177387813,0A2.8209479177387813,2.8209479177387813,0,1,1,-2.8209479177387813,0A2.8209479177387813,2.8209479177387813,0,1,1,2.8209479177387813,0" transform="translate(135.55555555555554,162.74843891704012)" fill="none" stroke="#4098b5" stroke-width="1"/><path class="point" d="M2.8209479177387813,0A2.8209479177387813,2.8209479177387813,0,1,1,-2.8209479177387813,0A2.8209479177387813,2.8209479177387813,0,1,1,2.8209479177387813,0" transform="translate(135.55555555555554,175.76283432768793)" fill="none" stroke="#4098b5" stroke-width="1"/><path class="point" d="M2.8209479177387813,0A2.8209479177387813,2.8209479177387813,0,1,1,-2.8209479177387813,0A2.8209479177387813,2.8209479177387813,0,1,1,2.8209479177387813,0" transform="translate(135.55555555555554,179.95901513308047)" fill="none" stroke="#4098b5" stroke-width="1"/><path class="point" d="M2.8209479177387813,0A2.8209479177387813,2.8209479177387813,0,1,1,-2.8209479177387813,0A2.8209479177387813,2.8209479177387813,0,1,1,2.8209479177387813,0" transform="translate(135.55555555555554,301.83640416969035)" fill="none" stroke="#4098b5" stroke-width="1"/><path class="point" d="M2.8209479177387813,0A2.8209479177387813,2.8209479177387813,0,1,1,-2.8209479177387813,0A2.8209479177387813,2.8209479177387813,0,1,1,2.8209479177387813,0" transform="translate(135.55555555555554,182.05714670824375)" fill="none" stroke="#4098b5" stroke-width="1"/><path class="point" d="M2.8209479177387813,0A2.8209479177387813,2.8209479177387813,0,1,1,-2.8209479177387813,0A2.8209479177387813,2.8209479177387813,0,1,1,2.8209479177387813,0" transform="translate(135.55555555555554,265.85987376265905)" fill="none" stroke="#4098b5" stroke-width="1"/><path class="point" d="M2.8209479177387813,0A2.8209479177387813,2.8209479177387813,0,1,1,-2.8209479177387813,0A2.8209479177387813,2.8209479177387813,0,1,1,2.8209479177387813,0" transform="translate(135.55555555555554,190.37545284231567)" fill="none" stroke="#4098b5" stroke-width="1"/><path class="point" d="M2.8209479177387813,0A2.8209479177387813,2.8209479177387813,0,1,1,-2.8209479177387813,0A2.8209479177387813,2.8209479177387813,0,1,1,2.8209479177387813,0" transform="translate(135.55555555555554,247.93846060593302)" fill="none" stroke="#4098b5" stroke-width="1"/><path class="point" d="M2.8209479177387813,0A2.8209479177387813,2.8209479177387813,0,1,1,-2.8209479177387813,0A2.8209479177387813,2.8209479177387813,0,1,1,2.8209479177387813,0" transform="translate(135.55555555555554,120.78504218583282)" fill="none" stroke="#4098b5" stroke-width="1"/><path class="point" d="M2.8209479177387813,0A2.8209479177387813,2.8209479177387813,0,1,1,-2.8209479177387813,0A2.8209479177387813,2.8209479177387813,0,1,1,2.8209479177387813,0" transform="translate(135.55555555555554,243.16271890947684)" fill="none" stroke="#4098b5" stroke-width="1"/><path class="point" d="M2.8209479177387813,0A2.8209479177387813,2.8209479177387813,0,1,1,-2.8209479177387813,0A2.8209479177387813,2.8209479177387813,0,1,1,2.8209479177387813,0" transform="translate(135.55555555555554,162.74843891704012)" fill="none" stroke="#4098b5" stroke-width="1"/><path class="point" d="M2.8209479177387813,0A2.8209479177387813,2.8209479177387813,0,1,1,-2.8209479177387813,0A2.8209479177387813,2.8209479177387813,0,1,1,2.8209479177387813,0" transform="translate(135.55555555555554,175.76283432768793)" fill="none" stroke="#4098b5" stroke-width="1"/><path class="point" d="M2.8209479177387813,0A2.8209479177387813,2.8209479177387813,0,1,1,-2.8209479177387813,0A2.8209479177387813,2.8209479177387813,0,1,1,2.8209479177387813,0" transform="translate(135.55555555555554,179.95901513308047)" fill="none" stroke="#4098b5" stroke-width="1"/><path class="point" d="M2.8209479177387813,0A2.8209479177387813,2.8209479177387813,0,1,1,-2.8209479177387813,0A2.8209479177387813,2.8209479177387813,0,1,1,2.8209479177387813,0" transform="translate(135.55555555555554,301.83640416969035)" fill="none" stroke="#4098b5" stroke-width="1"/><path class="point" d="M2.8209479177387813,0A2.8209479177387813,2.8209479177387813,0,1,1,-2.8209479177387813,0A2.8209479177387813,2.8209479177387813,0,1,1,2.8209479177387813,0" transform="translate(203.33333333333331,204.46443646583901)" fill="none" stroke="#4098b5" stroke-width="1"/><path class="point" d="M2.8209479177387813,0A2.8209479177387813,2.8209479177387813,0,1,1,-2.8209479177387813,0A2.8209479177387813,2.8209479177387813,0,1,1,2.8209479177387813,0" transform="translate(203.33333333333331,190.34348383952317)" fill="none" stroke="#4098b5" stroke-width="1"/><path class="point" d="M2.8209479177387813,0A2.8209479177387813,2.8209479177387813,0,1,1,-2.8209479177387813,0A2.8209479177387813,2.8209479177387813,0,1,1,2.8209479177387813,0" transform="translate(203.33333333333331,150.36206657395553)" fill="none" stroke="#4098b5" stroke-width="1"/><path class="point" d="M2.8209479177387813,0A2.8209479177387813,2.8209479177387813,0,1,1,-2.8209479177387813,0A2.8209479177387813,2.8209479177387813,0,1,1,2.8209479177387813,0" transform="translate(203.33333333333331,225.84602514660742)" fill="none" stroke="#4098b5" stroke-width="1"/><path class="point" d="M2.8209479177387813,0A2.8209479177387813,2.8209479177387813,0,1,1,-2.8209479177387813,0A2.8209479177387813,2.8209479177387813,0,1,1,2.8209479177387813,0" transform="translate(203.33333333333331,185.01537107230462)" fill="none" stroke="#4098b5" stroke-width="1"/><path class="point" d="M2.8209479177387813,0A2.8209479177387813,2.8209479177387813,0,1,1,-2.8209479177387813,0A2.8209479177387813,2.8209479177387813,0,1,1,2.8209479177387813,0" transform="translate(203.33333333333331,238.40798033509168)" fill="none" stroke="#4098b5" stroke-width="1"/><path class="point" d="M2.8209479177387813,0A2.8209479177387813,2.8209479177387813,0,1,1,-2.8209479177387813,0A2.8209479177387813,2.8209479177387813,0,1,1,2.8209479177387813,0" transform="translate(203.33333333333331,228.42454876876178)" fill="none" stroke="#4098b5" stroke-width="1"/><path class="point" d="M2.8209479177387813,0A2.8209479177387813,2.8209479177387813,0,1,1,-2.8209479177387813,0A2.8209479177387813,2.8209479177387813,0,1,1,2.8209479177387813,0" transform="translate(203.33333333333331,197.34259132795393)" fill="none" stroke="#4098b5" stroke-width="1"/><path class="point" d="M2.8209479177387813,0A2.8209479177387813,2.8209479177387813,0,1,1,-2.8209479177387813,0A2.8209479177387813,2.8209479177387813,0,1,1,2.8209479177387813,0" transform="translate(203.33333333333331,230.08038627567316)" fill="none" stroke="#4098b5" stroke-width="1"/><path class="point" d="M2.8209479177387813,0A2.8209479177387813,2.8209479177387813,0,1,1,-2.8209479177387813,0A2.8209479177387813,2.8209479177387813,0,1,1,2.8209479177387813,0" transform="translate(203.33333333333331,149.4877812042206)" fill="none" stroke="#4098b5" stroke-width="1"/><path class="point" d="M2.8209479177387813,0A2.8209479177387813,2.8209479177387813,0,1,1,-2.8209479177387813,0A2.8209479177387813,2.8209479177387813,0,1,1,2.8209479177387813,0" transform="translate(203.33333333333331,204.46443646583901)" fill="none" stroke="#4098b5" stroke-width="1"/><path class="point" d="M2.8209479177387813,0A2.8209479177387813,2.8209479177387813,0,1,1,-2.8209479177387813,0A2.8209479177387813,2.8209479177387813,0,1,1,2.8209479177387813,0" transform="translate(203.33333333333331,190.34348383952317)" fill="none" stroke="#4098b5" stroke-width="1"/><path class="point" d="M2.8209479177387813,0A2.8209479177387813,2.8209479177387813,0,1,1,-2.8209479177387813,0A2.8209479177387813,2.8209479177387813,0,1,1,2.8209479177387813,0" transform="translate(203.33333333333331,150.36206657395553)" fill="none" stroke="#4098b5" stroke-width="1"/><path class="point" d="M2.8209479177387813,0A2.8209479177387813,2.8209479177387813,0,1,1,-2.8209479177387813,0A2.8209479177387813,2.8209479177387813,0,1,1,2.8209479177387813,0" transform="translate(203.33333333333331,225.84602514660742)" fill="none" stroke="#4098b5" stroke-width="1"/><path class="point" d="M2.8209479177387813,0A2.8209479177387813,2.8209479177387813,0,1,1,-2.8209479177387813,0A2.8209479177387813,2.8209479177387813,0,1,1,2.8209479177387813,0" transform="translate(203.33333333333331,185.01537107230462)" fill="none" stroke="#4098b5" stroke-width="1"/><path class="point" d="M2.8209479177387813,0A2.8209479177387813,2.8209479177387813,0,1,1,-2.8209479177387813,0A2.8209479177387813,2.8209479177387813,0,1,1,2.8209479177387813,0" transform="translate(203.33333333333331,238.40798033509168)" fill="none" stroke="#4098b5" stroke-width="1"/><path class="point" d="M2.8209479177387813,0A2.8209479177387813,2.8209479177387813,0,1,1,-2.8209479177387813,0A2.8209479177387813,2.8209479177387813,0,1,1,2.8209479177387813,0" transform="translate(203.33333333333331,228.42454876876178)" fill="none" stroke="#4098b5" stroke-width="1"/><path class="point" d="M2.8209479177387813,0A2.8209479177387813,2.8209479177387813,0,1,1,-2.8209479177387813,0A2.8209479177387813,2.8209479177387813,0,1,1,2.8209479177387813,0" transform="translate(203.33333333333331,197.34259132795393)" fill="none" stroke="#4098b5" stroke-width="1"/><path class="point" d="M2.8209479177387813,0A2.8209479177387813,2.8209479177387813,0,1,1,-2.8209479177387813,0A2.8209479177387813,2.8209479177387813,0,1,1,2.8209479177387813,0" transform="translate(203.33333333333331,230.08038627567316)" fill="none" stroke="#4098b5" stroke-width="1"/><path class="point" d="M2.8209479177387813,0A2.8209479177387813,2.8209479177387813,0,1,1,-2.8209479177387813,0A2.8209479177387813,2.8209479177387813,0,1,1,2.8209479177387813,0" transform="translate(203.33333333333331,149.4877812042206)" fill="none" stroke="#4098b5" stroke-width="1"/><path class="point" d="M2.8209479177387813,0A2.8209479177387813,2.8209479177387813,0,1,1,-2.8209479177387813,0A2.8209479177387813,2.8209479177387813,0,1,1,2.8209479177387813,0" transform="translate(271.1111111111111,256.72529963316214)" fill="none" stroke="#4098b5" stroke-width="1"/><path class="point" d="M2.8209479177387813,0A2.8209479177387813,2.8209479177387813,0,1,1,-2.8209479177387813,0A2.8209479177387813,2.8209479177387813,0,1,1,2.8209479177387813,0" transform="translate(271.1111111111111,121.68035064019955)" fill="none" stroke="#4098b5" stroke-width="1"/><path class="point" d="M2.8209479177387813,0A2.8209479177387813,2.8209479177387813,0,1,1,-2.8209479177387813,0A2.8209479177387813,2.8209479177387813,0,1,1,2.8209479177387813,0" transform="translate(271.1111111111111,129.89468944570035)" fill="none" stroke="#4098b5" stroke-width="1"/><path class="point" d="M2.8209479177387813,0A2.8209479177387813,2.8209479177387813,0,1,1,-2.8209479177387813,0A2.8209479177387813,2.8209479177387813,0,1,1,2.8209479177387813,0" transform="translate(271.1111111111111,156.81981065218872)" fill="none" stroke="#4098b5" stroke-width="1"/><path class="point" d="M2.8209479177387813,0A2.8209479177387813,2.8209479177387813,0,1,1,-2.8209479177387813,0A2.8209479177387813,2.8209479177387813,0,1,1,2.8209479177387813,0" transform="translate(271.1111111111111,214.368341754933)" fill="none" stroke="#4098b5" stroke-width="1"/><path class="point" d="M2.8209479177387813,0A2.8209479177387813,2.8209479177387813,0,1,1,-2.8209479177387813,0A2.8209479177387813,2.8209479177387813,0,1,1,2.8209479177387813,0" transform="translate(271.1111111111111,208.37838745415223)" fill="none" stroke="#4098b5" stroke-width="1"/><path class="point" d="M2.8209479177387813,0A2.8209479177387813,2.8209479177387813,0,1,1,-2.8209479177387813,0A2.8209479177387813,2.8209479177387813,0,1,1,2.8209479177387813,0" transform="translate(271.1111111111111,174.62304157357494)" fill="none" stroke="#4098b5" stroke-width="1"/><path class="point" d="M2.8209479177387813,0A2.8209479177387813,2.8209479177387813,0,1,1,-2.8209479177387813,0A2.8209479177387813,2.8209479177387813,0,1,1,2.8209479177387813,0" transform="translate(271.1111111111111,218.0147812573273)" fill="none" stroke="#4098b5" stroke-width="1"/><path class="point" d="M2.8209479177387813,0A2.8209479177387813,2.8209479177387813,0,1,1,-2.8209479177387813,0A2.8209479177387813,2.8209479177387813,0,1,1,2.8209479177387813,0" transform="translate(271.1111111111111,230.91148702153436)" fill="none" stroke="#4098b5" stroke-width="1"/><path class="point" d="M2.8209479177387813,0A2.8209479177387813,2.8209479177387813,0,1,1,-2.8209479177387813,0A2.8209479177387813,2.8209479177387813,0,1,1,2.8209479177387813,0" transform="translate(271.1111111111111,194.4959637431482)" fill="none" stroke="#4098b5" stroke-width="1"/><path class="point" d="M2.8209479177387813,0A2.8209479177387813,2.8209479177387813,0,1,1,-2.8209479177387813,0A2.8209479177387813,2.8209479177387813,0,1,1,2.8209479177387813,0" transform="translate(271.1111111111111,256.72529963316214)" fill="none" stroke="#4098b5" stroke-width="1"/><path class="point" d="M2.8209479177387813,0A2.8209479177387813,2.8209479177387813,0,1,1,-2.8209479177387813,0A2.8209479177387813,2.8209479177387813,0,1,1,2.8209479177387813,0" transform="translate(271.1111111111111,121.68035064019955)" fill="none" stroke="#4098b5" stroke-width="1"/><path class="point" d="M2.8209479177387813,0A2.8209479177387813,2.8209479177387813,0,1,1,-2.8209479177387813,0A2.8209479177387813,2.8209479177387813,0,1,1,2.8209479177387813,0" transform="translate(271.1111111111111,129.89468944570035)" fill="none" stroke="#4098b5" stroke-width="1"/><path class="point" d="M2.8209479177387813,0A2.8209479177387813,2.8209479177387813,0,1,1,-2.8209479177387813,0A2.8209479177387813,2.8209479177387813,0,1,1,2.8209479177387813,0" transform="translate(271.1111111111111,156.81981065218872)" fill="none" stroke="#4098b5" stroke-width="1"/><path class="point" d="M2.8209479177387813,0A2.8209479177387813,2.8209479177387813,0,1,1,-2.8209479177387813,0A2.8209479177387813,2.8209479177387813,0,1,1,2.8209479177387813,0" transform="translate(271.1111111111111,214.368341754933)" fill="none" stroke="#4098b5" stroke-width="1"/><path class="point" d="M2.8209479177387813,0A2.8209479177387813,2.8209479177387813,0,1,1,-2.8209479177387813,0A2.8209479177387813,2.8209479177387813,0,1,1,2.8209479177387813,0" transform="translate(271.1111111111111,208.37838745415223)" fill="none" stroke="#4098b5" stroke-width="1"/><path class="point" d="M2.8209479177387813,0A2.8209479177387813,2.8209479177387813,0,1,1,-2.8209479177387813,0A2.8209479177387813,2.8209479177387813,0,1,1,2.8209479177387813,0" transform="translate(271.1111111111111,174.62304157357494)" fill="none" stroke="#4098b5" stroke-width="1"/><path class="point" d="M2.8209479177387813,0A2.8209479177387813,2.8209479177387813,0,1,1,-2.8209479177387813,0A2.8209479177387813,2.8209479177387813,0,1,1,2.8209479177387813,0" transform="translate(271.1111111111111,218.0147812573273)" fill="none" stroke="#4098b5" stroke-width="1"/><path class="point" d="M2.8209479177387813,0A2.8209479177387813,2.8209479177387813,0,1,1,-2.8209479177387813,0A2.8209479177387813,2.8209479177387813,0,1,1,2.8209479177387813,0" transform="translate(271.1111111111111,230.91148702153436)" fill="none" stroke="#4098b5" stroke-width="1"/><path class="point" d="M2.8209479177387813,0A2.8209479177387813,2.8209479177387813,0,1,1,-2.8209479177387813,0A2.8209479177387813,2.8209479177387813,0,1,1,2.8209479177387813,0" transform="translate(271.1111111111111,194.4959637431482)" fill="none" stroke="#4098b5" stroke-width="1"/><path class="point" d="M2.8209479177387813,0A2.8209479177387813,2.8209479177387813,0,1,1,-2.8209479177387813,0A2.8209479177387813,2.8209479177387813,0,1,1,2.8209479177387813,0" transform="translate(338.8888888888889,151.04674161410742)" fill="none" stroke="#4098b5" stroke-width="1"/><path class="point" d="M2.8209479177387813,0A2.8209479177387813,2.8209479177387813,0,1,1,-2.8209479177387813,0A2.8209479177387813,2.8209479177387813,0,1,1,2.8209479177387813,0" transform="translate(338.8888888888889,164.21109337735294)" fill="none" stroke="#4098b5" stroke-width="1"/><path class="point" d="M2.8209479177387813,0A2.8209479177387813,2.8209479177387813,0,1,1,-2.8209479177387813,0A2.8209479177387813,2.8209479177387813,0,1,1,2.8209479177387813,0" transform="translate(338.8888888888889,191.90407064300314)" fill="none" stroke="#4098b5" stroke-width="1"/><path class="point" d="M2.8209479177387813,0A2.8209479177387813,2.8209479177387813,0,1,1,-2.8209479177387813,0A2.8209479177387813,2.8209479177387813,0,1,1,2.8209479177387813,0" transform="translate(338.8888888888889,183.00190778498313)" fill="none" stroke="#4098b5" stroke-width="1"/><path class="point" d="M2.8209479177387813,0A2.8209479177387813,2.8209479177387813,0,1,1,-2.8209479177387813,0A2.8209479177387813,2.8209479177387813,0,1,1,2.8209479177387813,0" transform="translate(338.8888888888889,250.47561869922885)" fill="none" stroke="#4098b5" stroke-width="1"/><path class="point" d="M2.8209479177387813,0A2.8209479177387813,2.8209479177387813,0,1,1,-2.8209479177387813,0A2.8209479177387813,2.8209479177387813,0,1,1,2.8209479177387813,0" transform="translate(338.8888888888889,221.07651514083676)" fill="none" stroke="#4098b5" stroke-width="1"/><path class="point" d="M2.8209479177387813,0A2.8209479177387813,2.8209479177387813,0,1,1,-2.8209479177387813,0A2.8209479177387813,2.8209479177387813,0,1,1,2.8209479177387813,0" transform="translate(338.8888888888889,190.70267747190553)" fill="none" stroke="#4098b5" stroke-width="1"/><path class="point" d="M2.8209479177387813,0A2.8209479177387813,2.8209479177387813,0,1,1,-2.8209479177387813,0A2.8209479177387813,2.8209479177387813,0,1,1,2.8209479177387813,0" transform="translate(338.8888888888889,221.20307600197594)" fill="none" stroke="#4098b5" stroke-width="1"/><path class="point" d="M2.8209479177387813,0A2.8209479177387813,2.8209479177387813,0,1,1,-2.8209479177387813,0A2.8209479177387813,2.8209479177387813,0,1,1,2.8209479177387813,0" transform="translate(338.8888888888889,155.83216539883728)" fill="none" stroke="#4098b5" stroke-width="1"/><path class="point" d="M2.8209479177387813,0A2.8209479177387813,2.8209479177387813,0,1,1,-2.8209479177387813,0A2.8209479177387813,2.8209479177387813,0,1,1,2.8209479177387813,0" transform="translate(338.8888888888889,217.02426305735213)" fill="none" stroke="#4098b5" stroke-width="1"/><path class="point" d="M2.8209479177387813,0A2.8209479177387813,2.8209479177387813,0,1,1,-2.8209479177387813,0A2.8209479177387813,2.8209479177387813,0,1,1,2.8209479177387813,0" transform="translate(338.8888888888889,151.04674161410742)" fill="none" stroke="#4098b5" stroke-width="1"/><path class="point" d="M2.8209479177387813,0A2.8209479177387813,2.8209479177387813,0,1,1,-2.8209479177387813,0A2.8209479177387813,2.8209479177387813,0,1,1,2.8209479177387813,0" transform="translate(338.8888888888889,164.21109337735294)" fill="none" stroke="#4098b5" stroke-width="1"/><path class="point" d="M2.8209479177387813,0A2.8209479177387813,2.8209479177387813,0,1,1,-2.8209479177387813,0A2.8209479177387813,2.8209479177387813,0,1,1,2.8209479177387813,0" transform="translate(338.8888888888889,191.90407064300314)" fill="none" stroke="#4098b5" stroke-width="1"/><path class="point" d="M2.8209479177387813,0A2.8209479177387813,2.8209479177387813,0,1,1,-2.8209479177387813,0A2.8209479177387813,2.8209479177387813,0,1,1,2.8209479177387813,0" transform="translate(338.8888888888889,183.00190778498313)" fill="none" stroke="#4098b5" stroke-width="1"/><path class="point" d="M2.8209479177387813,0A2.8209479177387813,2.8209479177387813,0,1,1,-2.8209479177387813,0A2.8209479177387813,2.8209479177387813,0,1,1,2.8209479177387813,0" transform="translate(338.8888888888889,250.47561869922885)" fill="none" stroke="#4098b5" stroke-width="1"/><path class="point" d="M2.8209479177387813,0A2.8209479177387813,2.8209479177387813,0,1,1,-2.8209479177387813,0A2.8209479177387813,2.8209479177387813,0,1,1,2.8209479177387813,0" transform="translate(338.8888888888889,221.07651514083676)" fill="none" stroke="#4098b5" stroke-width="1"/><path class="point" d="M2.8209479177387813,0A2.8209479177387813,2.8209479177387813,0,1,1,-2.8209479177387813,0A2.8209479177387813,2.8209479177387813,0,1,1,2.8209479177387813,0" transform="translate(338.8888888888889,190.70267747190553)" fill="none" stroke="#4098b5" stroke-width="1"/><path class="point" d="M2.8209479177387813,0A2.8209479177387813,2.8209479177387813,0,1,1,-2.8209479177387813,0A2.8209479177387813,2.8209479177387813,0,1,1,2.8209479177387813,0" transform="translate(338.8888888888889,221.20307600197594)" fill="none" stroke="#4098b5" stroke-width="1"/><path class="point" d="M2.8209479177387813,0A2.8209479177387813,2.8209479177387813,0,1,1,-2.8209479177387813,0A2.8209479177387813,2.8209479177387813,0,1,1,2.8209479177387813,0" transform="translate(338.8888888888889,155.83216539883728)" fill="none" stroke="#4098b5" stroke-width="1"/><path class="point" d="M2.8209479177387813,0A2.8209479177387813,2.8209479177387813,0,1,1,-2.8209479177387813,0A2.8209479177387813,2.8209479177387813,0,1,1,2.8209479177387813,0" transform="translate(338.8888888888889,217.02426305735213)" fill="none" stroke="#4098b5" stroke-width="1"/><path class="point" d="M2.8209479177387813,0A2.8209479177387813,2.8209479177387813,0,1,1,-2.8209479177387813,0A2.8209479177387813,2.8209479177387813,0,1,1,2.8209479177387813,0" transform="translate(406.66666666666663,217.70384157931198)" fill="none" stroke="#4098b5" stroke-width="1"/><path class="point" d="M2.8209479177387813,0A2.8209479177387813,2.8209479177387813,0,1,1,-2.8209479177387813,0A2.8209479177387813,2.8209479177387813,0,1,1,2.8209479177387813,0" transform="translate(406.66666666666663,192.4627442386976)" fill="none" stroke="#4098b5" stroke-width="1"/><path class="point" d="M2.8209479177387813,0A2.8209479177387813,2.8209479177387813,0,1,1,-2.8209479177387813,0A2.8209479177387813,2.8209479177387813,0,1,1,2.8209479177387813,0" transform="translate(406.66666666666663,125.14219228752631)" fill="none" stroke="#4098b5" stroke-width="1"/><path class="point" d="M2.8209479177387813,0A2.8209479177387813,2.8209479177387813,0,1,1,-2.8209479177387813,0A2.8209479177387813,2.8209479177387813,0,1,1,2.8209479177387813,0" transform="translate(406.66666666666663,207.66869107486525)" fill="none" stroke="#4098b5" stroke-width="1"/><path class="point" d="M2.8209479177387813,0A2.8209479177387813,2.8209479177387813,0,1,1,-2.8209479177387813,0A2.8209479177387813,2.8209479177387813,0,1,1,2.8209479177387813,0" transform="translate(406.66666666666663,207.89270356620864)" fill="none" stroke="#4098b5" stroke-width="1"/><path class="point" d="M2.8209479177387813,0A2.8209479177387813,2.8209479177387813,0,1,1,-2.8209479177387813,0A2.8209479177387813,2.8209479177387813,0,1,1,2.8209479177387813,0" transform="translate(406.66666666666663,170.5356684867769)" fill="none" stroke="#4098b5" stroke-width="1"/><path class="point" d="M2.8209479177387813,0A2.8209479177387813,2.8209479177387813,0,1,1,-2.8209479177387813,0A2.8209479177387813,2.8209479177387813,0,1,1,2.8209479177387813,0" transform="translate(406.66666666666663,190.31223161262113)" fill="none" stroke="#4098b5" stroke-width="1"/><path class="point" d="M2.8209479177387813,0A2.8209479177387813,2.8209479177387813,0,1,1,-2.8209479177387813,0A2.8209479177387813,2.8209479177387813,0,1,1,2.8209479177387813,0" transform="translate(406.66666666666663,269.8098726321545)" fill="none" stroke="#4098b5" stroke-width="1"/><path class="point" d="M2.8209479177387813,0A2.8209479177387813,2.8209479177387813,0,1,1,-2.8209479177387813,0A2.8209479177387813,2.8209479177387813,0,1,1,2.8209479177387813,0" transform="translate(406.66666666666663,203.76704672128938)" fill="none" stroke="#4098b5" stroke-width="1"/><path class="point" d="M2.8209479177387813,0A2.8209479177387813,2.8209479177387813,0,1,1,-2.8209479177387813,0A2.8209479177387813,2.8209479177387813,0,1,1,2.8209479177387813,0" transform="translate(406.66666666666663,242.02940551438724)" fill="none" stroke="#4098b5" stroke-width="1"/><path class="point" d="M2.8209479177387813,0A2.8209479177387813,2.8209479177387813,0,1,1,-2.8209479177387813,0A2.8209479177387813,2.8209479177387813,0,1,1,2.8209479177387813,0" transform="translate(406.66666666666663,217.70384157931198)" fill="none" stroke="#4098b5" stroke-width="1"/><path class="point" d="M2.8209479177387813,0A2.8209479177387813,2.8209479177387813,0,1,1,-2.8209479177387813,0A2.8209479177387813,2.8209479177387813,0,1,1,2.8209479177387813,0" transform="translate(406.66666666666663,192.4627442386976)" fill="none" stroke="#4098b5" stroke-width="1"/><path class="point" d="M2.8209479177387813,0A2.8209479177387813,2.8209479177387813,0,1,1,-2.8209479177387813,0A2.8209479177387813,2.8209479177387813,0,1,1,2.8209479177387813,0" transform="translate(406.66666666666663,125.14219228752631)" fill="none" stroke="#4098b5" stroke-width="1"/><path class="point" d="M2.8209479177387813,0A2.8209479177387813,2.8209479177387813,0,1,1,-2.8209479177387813,0A2.8209479177387813,2.8209479177387813,0,1,1,2.8209479177387813,0" transform="translate(406.66666666666663,207.66869107486525)" fill="none" stroke="#4098b5" stroke-width="1"/><path class="point" d="M2.8209479177387813,0A2.8209479177387813,2.8209479177387813,0,1,1,-2.8209479177387813,0A2.8209479177387813,2.8209479177387813,0,1,1,2.8209479177387813,0" transform="translate(406.66666666666663,207.89270356620864)" fill="none" stroke="#4098b5" stroke-width="1"/><path class="point" d="M2.8209479177387813,0A2.8209479177387813,2.8209479177387813,0,1,1,-2.8209479177387813,0A2.8209479177387813,2.8209479177387813,0,1,1,2.8209479177387813,0" transform="translate(406.66666666666663,170.5356684867769)" fill="none" stroke="#4098b5" stroke-width="1"/><path class="point" d="M2.8209479177387813,0A2.8209479177387813,2.8209479177387813,0,1,1,-2.8209479177387813,0A2.8209479177387813,2.8209479177387813,0,1,1,2.8209479177387813,0" transform="translate(406.66666666666663,190.31223161262113)" fill="none" stroke="#4098b5" stroke-width="1"/><path class="point" d="M2.8209479177387813,0A2.8209479177387813,2.8209479177387813,0,1,1,-2.8209479177387813,0A2.8209479177387813,2.8209479177387813,0,1,1,2.8209479177387813,0" transform="translate(406.66666666666663,269.8098726321545)" fill="none" stroke="#4098b5" stroke-width="1"/><path class="point" d="M2.8209479177387813,0A2.8209479177387813,2.8209479177387813,0,1,1,-2.8209479177387813,0A2.8209479177387813,2.8209479177387813,0,1,1,2.8209479177387813,0" transform="translate(406.66666666666663,203.76704672128938)" fill="none" stroke="#4098b5" stroke-width="1"/><path class="point" d="M2.8209479177387813,0A2.8209479177387813,2.8209479177387813,0,1,1,-2.8209479177387813,0A2.8209479177387813,2.8209479177387813,0,1,1,2.8209479177387813,0" transform="translate(406.66666666666663,242.02940551438724)" fill="none" stroke="#4098b5" stroke-width="1"/><path class="point" d="M2.8209479177387813,0A2.8209479177387813,2.8209479177387813,0,1,1,-2.8209479177387813,0A2.8209479177387813,2.8209479177387813,0,1,1,2.8209479177387813,0" transform="translate(474.44444444444446,239.87941309646737)" fill="none" stroke="#4098b5" stroke-width="1"/><path class="point" d="M2.8209479177387813,0A2.8209479177387813,2.8209479177387813,0,1,1,-2.8209479177387813,0A2.8209479177387813,2.8209479177387813,0,1,1,2.8209479177387813,0" transform="translate(474.44444444444446,183.91824882922697)" fill="none" stroke="#4098b5" stroke-width="1"/><path class="point" d="M2.8209479177387813,0A2.8209479177387813,2.8209479177387813,0,1,1,-2.8209479177387813,0A2.8209479177387813,2.8209479177387813,0,1,1,2.8209479177387813,0" transform="translate(474.44444444444446,161.43354739901292)" fill="none" stroke="#4098b5" stroke-width="1"/><path class="point" d="M2.8209479177387813,0A2.8209479177387813,2.8209479177387813,0,1,1,-2.8209479177387813,0A2.8209479177387813,2.8209479177387813,0,1,1,2.8209479177387813,0" transform="translate(474.44444444444446,255.5627273279602)" fill="none" stroke="#4098b5" stroke-width="1"/><path class="point" d="M2.8209479177387813,0A2.8209479177387813,2.8209479177387813,0,1,1,-2.8209479177387813,0A2.8209479177387813,2.8209479177387813,0,1,1,2.8209479177387813,0" transform="translate(474.44444444444446,208.61732431617042)" fill="none" stroke="#4098b5" stroke-width="1"/><path class="point" d="M2.8209479177387813,0A2.8209479177387813,2.8209479177387813,0,1,1,-2.8209479177387813,0A2.8209479177387813,2.8209479177387813,0,1,1,2.8209479177387813,0" transform="translate(474.44444444444446,247.56356611778085)" fill="none" stroke="#4098b5" stroke-width="1"/><path class="point" d="M2.8209479177387813,0A2.8209479177387813,2.8209479177387813,0,1,1,-2.8209479177387813,0A2.8209479177387813,2.8209479177387813,0,1,1,2.8209479177387813,0" transform="translate(474.44444444444446,233.02040938840628)" fill="none" stroke="#4098b5" stroke-width="1"/><path class="point" d="M2.8209479177387813,0A2.8209479177387813,2.8209479177387813,0,1,1,-2.8209479177387813,0A2.8209479177387813,2.8209479177387813,0,1,1,2.8209479177387813,0" transform="translate(474.44444444444446,149.47241520165784)" fill="none" stroke="#4098b5" stroke-width="1"/><path class="point" d="M2.8209479177387813,0A2.8209479177387813,2.8209479177387813,0,1,1,-2.8209479177387813,0A2.8209479177387813,2.8209479177387813,0,1,1,2.8209479177387813,0" transform="translate(474.44444444444446,174.0608551420462)" fill="none" stroke="#4098b5" stroke-width="1"/><path class="point" d="M2.8209479177387813,0A2.8209479177387813,2.8209479177387813,0,1,1,-2.8209479177387813,0A2.8209479177387813,2.8209479177387813,0,1,1,2.8209479177387813,0" transform="translate(474.44444444444446,252.0153584400715)" fill="none" stroke="#4098b5" stroke-width="1"/><path class="point" d="M2.8209479177387813,0A2.8209479177387813,2.8209479177387813,0,1,1,-2.8209479177387813,0A2.8209479177387813,2.8209479177387813,0,1,1,2.8209479177387813,0" transform="translate(474.44444444444446,239.87941309646737)" fill="none" stroke="#4098b5" stroke-width="1"/><path class="point" d="M2.8209479177387813,0A2.8209479177387813,2.8209479177387813,0,1,1,-2.8209479177387813,0A2.8209479177387813,2.8209479177387813,0,1,1,2.8209479177387813,0" transform="translate(474.44444444444446,183.91824882922697)" fill="none" stroke="#4098b5" stroke-width="1"/><path class="point" d="M2.8209479177387813,0A2.8209479177387813,2.8209479177387813,0,1,1,-2.8209479177387813,0A2.8209479177387813,2.8209479177387813,0,1,1,2.8209479177387813,0" transform="translate(474.44444444444446,161.43354739901292)" fill="none" stroke="#4098b5" stroke-width="1"/><path class="point" d="M2.8209479177387813,0A2.8209479177387813,2.8209479177387813,0,1,1,-2.8209479177387813,0A2.8209479177387813,2.8209479177387813,0,1,1,2.8209479177387813,0" transform="translate(474.44444444444446,255.5627273279602)" fill="none" stroke="#4098b5" stroke-width="1"/><path class="point" d="M2.8209479177387813,0A2.8209479177387813,2.8209479177387813,0,1,1,-2.8209479177387813,0A2.8209479177387813,2.8209479177387813,0,1,1,2.8209479177387813,0" transform="translate(474.44444444444446,208.61732431617042)" fill="none" stroke="#4098b5" stroke-width="1"/><path class="point" d="M2.8209479177387813,0A2.8209479177387813,2.8209479177387813,0,1,1,-2.8209479177387813,0A2.8209479177387813,2.8209479177387813,0,1,1,2.8209479177387813,0" transform="translate(474.44444444444446,247.56356611778085)" fill="none" stroke="#4098b5" stroke-width="1"/><path class="point" d="M2.8209479177387813,0A2.8209479177387813,2.8209479177387813,0,1,1,-2.8209479177387813,0A2.8209479177387813,2.8209479177387813,0,1,1,2.8209479177387813,0" transform="translate(474.44444444444446,233.02040938840628)" fill="none" stroke="#4098b5" stroke-width="1"/><path class="point" d="M2.8209479177387813,0A2.8209479177387813,2.8209479177387813,0,1,1,-2.8209479177387813,0A2.8209479177387813,2.8209479177387813,0,1,1,2.8209479177387813,0" transform="translate(474.44444444444446,149.47241520165784)" fill="none" stroke="#4098b5" stroke-width="1"/><path class="point" d="M2.8209479177387813,0A2.8209479177387813,2.8209479177387813,0,1,1,-2.8209479177387813,0A2.8209479177387813,2.8209479177387813,0,1,1,2.8209479177387813,0" transform="translate(474.44444444444446,174.0608551420462)" fill="none" stroke="#4098b5" stroke-width="1"/><path class="point" d="M2.8209479177387813,0A2.8209479177387813,2.8209479177387813,0,1,1,-2.8209479177387813,0A2.8209479177387813,2.8209479177387813,0,1,1,2.8209479177387813,0" transform="translate(474.44444444444446,252.0153584400715)" fill="none" stroke="#4098b5" stroke-width="1"/><path class="point" d="M2.8209479177387813,0A2.8209479177387813,2.8209479177387813,0,1,1,-2.8209479177387813,0A2.8209479177387813,2.8209479177387813,0,1,1,2.8209479177387813,0" transform="translate(542.2222222222222,202.75427900570077)" fill="none" stroke="#4098b5" stroke-width="1"/><path class="point" d="M2.8209479177387813,0A2.8209479177387813,2.8209479177387813,0,1,1,-2.8209479177387813,0A2.8209479177387813,2.8209479177387813,0,1,1,2.8209479177387813,0" transform="translate(542.2222222222222,166.62717753941013)" fill="none" stroke="#4098b5" stroke-width="1"/><path class="point" d="M2.8209479177387813,0A2.8209479177387813,2.8209479177387813,0,1,1,-2.8209479177387813,0A2.8209479177387813,2.8209479177387813,0,1,1,2.8209479177387813,0" transform="translate(542.2222222222222,243.21593772112675)" fill="none" stroke="#4098b5" stroke-width="1"/><path class="point" d="M2.8209479177387813,0A2.8209479177387813,2.8209479177387813,0,1,1,-2.8209479177387813,0A2.8209479177387813,2.8209479177387813,0,1,1,2.8209479177387813,0" transform="translate(542.2222222222222,207.71383358662433)" fill="none" stroke="#4098b5" stroke-width="1"/><path class="point" d="M2.8209479177387813,0A2.8209479177387813,2.8209479177387813,0,1,1,-2.8209479177387813,0A2.8209479177387813,2.8209479177387813,0,1,1,2.8209479177387813,0" transform="translate(542.2222222222222,212.35636606482984)" fill="none" stroke="#4098b5" stroke-width="1"/><path class="point" d="M2.8209479177387813,0A2.8209479177387813,2.8209479177387813,0,1,1,-2.8209479177387813,0A2.8209479177387813,2.8209479177387813,0,1,1,2.8209479177387813,0" transform="translate(542.2222222222222,211.04684200466227)" fill="none" stroke="#4098b5" stroke-width="1"/><path class="point" d="M2.8209479177387813,0A2.8209479177387813,2.8209479177387813,0,1,1,-2.8209479177387813,0A2.8209479177387813,2.8209479177387813,0,1,1,2.8209479177387813,0" transform="translate(542.2222222222222,165.58408162916822)" fill="none" stroke="#4098b5" stroke-width="1"/><path class="point" d="M2.8209479177387813,0A2.8209479177387813,2.8209479177387813,0,1,1,-2.8209479177387813,0A2.8209479177387813,2.8209479177387813,0,1,1,2.8209479177387813,0" transform="translate(542.2222222222222,215.99667299321362)" fill="none" stroke="#4098b5" stroke-width="1"/><path class="point" d="M2.8209479177387813,0A2.8209479177387813,2.8209479177387813,0,1,1,-2.8209479177387813,0A2.8209479177387813,2.8209479177387813,0,1,1,2.8209479177387813,0" transform="translate(542.2222222222222,211.24223802144144)" fill="none" stroke="#4098b5" stroke-width="1"/><path class="point" d="M2.8209479177387813,0A2.8209479177387813,2.8209479177387813,0,1,1,-2.8209479177387813,0A2.8209479177387813,2.8209479177387813,0,1,1,2.8209479177387813,0" transform="translate(542.2222222222222,210.60387807521198)" fill="none" stroke="#4098b5" stroke-width="1"/><path class="point" d="M2.8209479177387813,0A2.8209479177387813,2.8209479177387813,0,1,1,-2.8209479177387813,0A2.8209479177387813,2.8209479177387813,0,1,1,2.8209479177387813,0" transform="translate(542.2222222222222,202.75427900570077)" fill="none" stroke="#4098b5" stroke-width="1"/><path class="point" d="M2.8209479177387813,0A2.8209479177387813,2.8209479177387813,0,1,1,-2.8209479177387813,0A2.8209479177387813,2.8209479177387813,0,1,1,2.8209479177387813,0" transform="translate(542.2222222222222,166.62717753941013)" fill="none" stroke="#4098b5" stroke-width="1"/><path class="point" d="M2.8209479177387813,0A2.8209479177387813,2.8209479177387813,0,1,1,-2.8209479177387813,0A2.8209479177387813,2.8209479177387813,0,1,1,2.8209479177387813,0" transform="translate(542.2222222222222,243.21593772112675)" fill="none" stroke="#4098b5" stroke-width="1"/><path class="point" d="M2.8209479177387813,0A2.8209479177387813,2.8209479177387813,0,1,1,-2.8209479177387813,0A2.8209479177387813,2.8209479177387813,0,1,1,2.8209479177387813,0" transform="translate(542.2222222222222,207.71383358662433)" fill="none" stroke="#4098b5" stroke-width="1"/><path class="point" d="M2.8209479177387813,0A2.8209479177387813,2.8209479177387813,0,1,1,-2.8209479177387813,0A2.8209479177387813,2.8209479177387813,0,1,1,2.8209479177387813,0" transform="translate(542.2222222222222,212.35636606482984)" fill="none" stroke="#4098b5" stroke-width="1"/><path class="point" d="M2.8209479177387813,0A2.8209479177387813,2.8209479177387813,0,1,1,-2.8209479177387813,0A2.8209479177387813,2.8209479177387813,0,1,1,2.8209479177387813,0" transform="translate(542.2222222222222,211.04684200466227)" fill="none" stroke="#4098b5" stroke-width="1"/><path class="point" d="M2.8209479177387813,0A2.8209479177387813,2.8209479177387813,0,1,1,-2.8209479177387813,0A2.8209479177387813,2.8209479177387813,0,1,1,2.8209479177387813,0" transform="translate(542.2222222222222,165.58408162916822)" fill="none" stroke="#4098b5" stroke-width="1"/><path class="point" d="M2.8209479177387813,0A2.8209479177387813,2.8209479177387813,0,1,1,-2.8209479177387813,0A2.8209479177387813,2.8209479177387813,0,1,1,2.8209479177387813,0" transform="translate(542.2222222222222,215.99667299321362)" fill="none" stroke="#4098b5" stroke-width="1"/><path class="point" d="M2.8209479177387813,0A2.8209479177387813,2.8209479177387813,0,1,1,-2.8209479177387813,0A2.8209479177387813,2.8209479177387813,0,1,1,2.8209479177387813,0" transform="translate(542.2222222222222,211.24223802144144)" fill="none" stroke="#4098b5" stroke-width="1"/><path class="point" d="M2.8209479177387813,0A2.8209479177387813,2.8209479177387813,0,1,1,-2.8209479177387813,0A2.8209479177387813,2.8209479177387813,0,1,1,2.8209479177387813,0" transform="translate(542.2222222222222,210.60387807521198)" fill="none" stroke="#4098b5" stroke-width="1"/><path class="point" d="M2.8209479177387813,0A2.8209479177387813,2.8209479177387813,0,1,1,-2.8209479177387813,0A2.8209479177387813,2.8209479177387813,0,1,1,2.8209479177387813,0" transform="translate(610,194.0878321829361)" fill="none" stroke="#4098b5" stroke-width="1"/><path class="point" d="M2.8209479177387813,0A2.8209479177387813,2.8209479177387813,0,1,1,-2.8209479177387813,0A2.8209479177387813,2.8209479177387813,0,1,1,2.8209479177387813,0" transform="translate(610,215.0973848951529)" fill="none" stroke="#4098b5" stroke-width="1"/><path class="point" d="M2.8209479177387813,0A2.8209479177387813,2.8209479177387813,0,1,1,-2.8209479177387813,0A2.8209479177387813,2.8209479177387813,0,1,1,2.8209479177387813,0" transform="translate(610,206.48598386595165)" fill="none" stroke="#4098b5" stroke-width="1"/><path class="point" d="M2.8209479177387813,0A2.8209479177387813,2.8209479177387813,0,1,1,-2.8209479177387813,0A2.8209479177387813,2.8209479177387813,0,1,1,2.8209479177387813,0" transform="translate(610,150.77736737204015)" fill="none" stroke="#4098b5" stroke-width="1"/><path class="point" d="M2.8209479177387813,0A2.8209479177387813,2.8209479177387813,0,1,1,-2.8209479177387813,0A2.8209479177387813,2.8209479177387813,0,1,1,2.8209479177387813,0" transform="translate(610,204.16848304598113)" fill="none" stroke="#4098b5" stroke-width="1"/><path class="point" d="M2.8209479177387813,0A2.8209479177387813,2.8209479177387813,0,1,1,-2.8209479177387813,0A2.8209479177387813,2.8209479177387813,0,1,1,2.8209479177387813,0" transform="translate(610,176.21016272291507)" fill="none" stroke="#4098b5" stroke-width="1"/><path class="point" d="M2.8209479177387813,0A2.8209479177387813,2.8209479177387813,0,1,1,-2.8209479177387813,0A2.8209479177387813,2.8209479177387813,0,1,1,2.8209479177387813,0" transform="translate(610,205.90991053740748)" fill="none" stroke="#4098b5" stroke-width="1"/><path class="point" d="M2.8209479177387813,0A2.8209479177387813,2.8209479177387813,0,1,1,-2.8209479177387813,0A2.8209479177387813,2.8209479177387813,0,1,1,2.8209479177387813,0" transform="translate(610,197.992689619396)" fill="none" stroke="#4098b5" stroke-width="1"/><path class="point" d="M2.8209479177387813,0A2.8209479177387813,2.8209479177387813,0,1,1,-2.8209479177387813,0A2.8209479177387813,2.8209479177387813,0,1,1,2.8209479177387813,0" transform="translate(610,213.0847930718005)" fill="none" stroke="#4098b5" stroke-width="1"/><path class="point" d="M2.8209479177387813,0A2.8209479177387813,2.8209479177387813,0,1,1,-2.8209479177387813,0A2.8209479177387813,2.8209479177387813,0,1,1,2.8209479177387813,0" transform="translate(610,230.21409855490748)" fill="none" stroke="#4098b5" stroke-width="1"/><path class="point" d="M2.8209479177387813,0A2.8209479177387813,2.8209479177387813,0,1,1,-2.8209479177387813,0A2.8209479177387813,2.8209479177387813,0,1,1,2.8209479177387813,0" transform="translate(610,194.0878321829361)" fill="none" stroke="#4098b5" stroke-width="1"/><path class="point" d="M2.8209479177387813,0A2.8209479177387813,2.8209479177387813,0,1,1,-2.8209479177387813,0A2.8209479177387813,2.8209479177387813,0,1,1,2.8209479177387813,0" transform="translate(610,215.0973848951529)" fill="none" stroke="#4098b5" stroke-width="1"/><path class="point" d="M2.8209479177387813,0A2.8209479177387813,2.8209479177387813,0,1,1,-2.8209479177387813,0A2.8209479177387813,2.8209479177387813,0,1,1,2.8209479177387813,0" transform="translate(610,206.48598386595165)" fill="none" stroke="#4098b5" stroke-width="1"/><path class="point" d="M2.8209479177387813,0A2.8209479177387813,2.8209479177387813,0,1,1,-2.8209479177387813,0A2.8209479177387813,2.8209479177387813,0,1,1,2.8209479177387813,0" transform="translate(610,150.77736737204015)" fill="none" stroke="#4098b5" stroke-width="1"/><path class="point" d="M2.8209479177387813,0A2.8209479177387813,2.8209479177387813,0,1,1,-2.8209479177387813,0A2.8209479177387813,2.8209479177387813,0,1,1,2.8209479177387813,0" transform="translate(610,204.16848304598113)" fill="none" stroke="#4098b5" stroke-width="1"/><path class="point" d="M2.8209479177387813,0A2.8209479177387813,2.8209479177387813,0,1,1,-2.8209479177387813,0A2.8209479177387813,2.8209479177387813,0,1,1,2.8209479177387813,0" transform="translate(610,176.21016272291507)" fill="none" stroke="#4098b5" stroke-width="1"/><path class="point" d="M2.8209479177387813,0A2.8209479177387813,2.8209479177387813,0,1,1,-2.8209479177387813,0A2.8209479177387813,2.8209479177387813,0,1,1,2.8209479177387813,0" transform="translate(610,205.90991053740748)" fill="none" stroke="#4098b5" stroke-width="1"/><path class="point" d="M2.8209479177387813,0A2.8209479177387813,2.8209479177387813,0,1,1,-2.8209479177387813,0A2.8209479177387813,2.8209479177387813,0,1,1,2.8209479177387813,0" transform="translate(610,197.992689619396)" fill="none" stroke="#4098b5" stroke-width="1"/><path class="point" d="M2.8209479177387813,0A2.8209479177387813,2.8209479177387813,0,1,1,-2.8209479177387813,0A2.8209479177387813,2.8209479177387813,0,1,1,2.8209479177387813,0" transform="translate(610,213.0847930718005)" fill="none" stroke="#4098b5" stroke-width="1"/><path class="point" d="M2.8209479177387813,0A2.8209479177387813,2.8209479177387813,0,1,1,-2.8209479177387813,0A2.8209479177387813,2.8209479177387813,0,1,1,2.8209479177387813,0" transform="translate(610,230.21409855490748)" fill="none" stroke="#4098b5" stroke-width="1"/><path class="line" d="M0,159.67925657160652L67.77777777777777,234.63313690191126L135.55555555555554,258.04852928272436L203.33333333333331,267.15235447759585L271.1111111111111,290.56395518621355L338.8888888888889,301.97130423011413L406.66666666666663,298.4726607769809L474.44444444444446,298.29842589568545L542.2222222222222,300.3010856845089L610,303.47465689279716" fill="none" stroke="#4cb6da" stroke-width="5" stroke-dasharray="20 5" clip-path="url(#clip-path)"/><path class="line" d="M0,130.84614095125812L67.77777777777777,167.67920291094345L135.55555555555554,207.04853875619608L203.33333333333331,199.97746710099307L271.1111111111111,190.59121531759206L338.8888888888889,194.64781291895832L406.66666666666663,202.7324397713839L474.44444444444446,210.5543865258801L542.2222222222222,204.71413066413896L610,199.40287058684885" fill="none" stroke="#4098b5" stroke-width="10" stroke-dasharray="none" clip-path="url(#clip-path)"/><g class="y-axis" fill="none" font-size="50px" font-family="sans-serif" text-anchor="end"><path class="domain" stroke="currentColor" d="M-3,652.5H0.5V0.5H-3"/></g><g class="x-axis" transform="translate(0,652)" fill="none" font-size="50px" font-family="sans-serif" text-anchor="middle"><path class="domain" stroke="currentColor" d="M0.5,0.5H610.5"/><g class="tick" opacity="1" transform="translate(68.27777777777777,0)"><line stroke="currentColor" y2="0"/><text fill="currentColor" y="10" dy="0.71em">100</text></g><g class="tick" opacity="1" transform="translate(339.3888888888889,0)"><line stroke="currentColor" y2="0"/><text fill="currentColor" y="10" dy="0.71em">300</text></g><g class="tick" opacity="1" transform="translate(610.5,0)"><line stroke="currentColor" y2="0"/><text fill="currentColor" y="10" dy="0.71em">500</text></g></g></g><rect x="0" y="0" width="610" height="652" transform="translate(150,60)" style="fill: none; stroke: black; stroke-width: 1px;"/></svg>