<svg xmlns="http://www.w3.org/2000/svg" width="800" height="800"><g class="container" transform="translate(150,60)"><defs><clipPath id="clip-path"><rect x="0" y="0" width="610" height="652"/></clipPath></defs><path class="point" d="M2.8209479177387813,0A2.8209479177387813,2.8209479177387813,0,1,1,-2.8209479177387813,0A2.8209479177387813,2.8209479177387813,0,1,1,2.8209479177387813,0" transform="translate(0,114.32900318079419)" fill="none" stroke="#4098b5" stroke-width="1"/><path class="point" d="M2.8209479177387813,0A2.8209479177387813,2.8209479177387813,0,1,1,-2.8209479177387813,0A2.8209479177387813,2.8209479177387813,0,1,1,2.8209479177387813,0" transform="translate(0,194.95586933314348)" fill="none" stroke="#4098b5" stroke-width="1"/><path class="point" d="M2.8209479177387813,0A2.8209479177387813,2.8209479177387813,0,1,1,-2.8209479177387813,0A2.8209479177387813,2.8209479177387813,0,1,1,2.8209479177387813,0" transform="translate(0,248.11322249402303)" fill="none" stroke="#4098b5" stroke-width="1"/><path class="point" d="M2.8209479177387813,0A2.8209479177387813,2.8209479177387813,0,1,1,-2.8209479177387813,0A2.8209479177387813,2.8209479177387813,0,1,1,2.8209479177387813,0" transform="translate(0,100.0981368584886)" fill="none" stroke="#4098b5" stroke-width="1"/><path class="point" d="M2.8209479177387813,0A2.8209479177387813,2.8209479177387813,0,1,1,-2.8209479177387813,0A2.8209479177387813,2.8209479177387813,0,1,1,2.8209479177387813,0" transform="translate(0,245.12723473300122)" fill="none" stroke="#4098b5" stroke-width="1"/><path class="point" d="M2.8209479177387813,0A2.8209479177387813,2.8209479177387813,0,1,1,-2.8209479177387813,0A2.8209479177387813,2.8209479177387813,0,1,1,2.8209479177387813,0" transform="translate(0,159.0221291674324)" fill="none" stroke="#4098b5" stroke-width="1"/><path class="point" d="M2.8209479177387813,0A2.8209479177387813,2.8209479177387813,0,1,1,-2.8209479177387813,0A2.8209479177387813,2.8209479177387813,0,1,1,2.8209479177387813,0" transform="translate(0,83.30422992552258)" fill="none" stroke="#4098b5" stroke-width="1"/><path class="point" d="M2.8209479177387813,0A2.8209479177387813,2.8209479177387813,0,1,1,-2.8209479177387813,0A2.8209479177387813,2.8209479177387813,0,1,1,2.8209479177387813,0" transform="translate(0,114.32900318079419)" fill="none" stroke="#4098b5" stroke-width="1"/><path class="point" d="M2.8209479177387813,0A2.8209479177387813,2.8209479177387813,0,1,1,-2.8209479177387813,0A2.8209479177387813,2.8209479177387813,0,1,1,2.8209479177387813,0" transform="translate(0,194.95586933314348)" fill="none" stroke="#4098b5" stroke-width="1"/><path class="point" d="M2.8209479177387813,0A2.8209479177387813,2.8209479177387813,0,1,1,-2.8209479177387813,0A2.8209479177387813,2.8209479177387813,0,1,1,2.8209479177387813,0" transform="translate(0,248.11322249402303)" fill="none" stroke="#4098b5" stroke-width="1"/><path class="point" d="M2.8209479177387813,0A2.8209479177387813,2.8209479177387813,0,1,1,-2.8209479177387813,0A2.8209479177387813,2.8209479177387813,0,1,1,2.8209479177387813,0" transform="translate(0,100.0981368584886)" fill="none" stroke="#4098b5" stroke-width="1"/><path class="point" d="M2.8209479177387813,0A2.8209479177387813,2.8209479177387813,0,1,1,-2.8209479177387813,0A2.8209479177387813,2.8209479177387813,0,1,1,2.8209479177387813,0" transform="translate(0,245.12723473300122)" fill="none" stroke="#4098b5" stroke-width="1"/><path class="point" d="M2.8209479177387813,0A2.8209479177387813,2.8209479177387813,0,1,1,-2.8209479177387813,0A2.8209479177387813,2.8209479177387813,0,1,1,2.8209479177387813,0" transform="translate(0,159.0221291674324)" fill="none" stroke="#4098b5" stroke-width="1"/><path class="point" d="M2.8209479177387813,0A2.8209479177387813,2.8209479177387813,0,1,1,-2.8209479177387813,0A2.8209479177387813,2.8209479177387813,0,1,1,2.8209479177387813,0" transform="translate(0,83.30422992552258)" fill="none" stroke="#4098b5" stroke-width="1"/><path class="point" d="M2.8209479177387813,0A2.8209479177387813,2.8209479177387813,0,1,1,-2.8209479177387813,0A2.8209479177387813,2.8209479177387813,0,1,1,2.8209479177387813,0" transform="translate(67.77777777777777,152.6062640941375)" fill="none" stroke="#4098b5" stroke-width="1"/><path class="point" d="M2.8209479177387813,0A2.8209479177387813,2.8209479177387813,0,1,1,-2.8209479177387813,0A2.8209479177387813,2.8209479177387813,0,1,1,2.8209479177387813,0" transform="translate(67.77777777777777,184.55980261792502)" fill="none" stroke="#4098b5" stroke-width="1"/><path class="point" d="M2.8209479177387813,0A2.8209479177387813,2.8209479177387813,0,1,1,-2.8209479177387813,0A2.8209479177387813,2.8209479177387813,0,1,1,2.8209479177387813,0" transform="translate(67.77777777777777,189.3987514577027)" fill="none" stroke="#4098b5" stroke-width="1"/><path class="point" d="M2.8209479177387813,0A2.8209479177387813,2.8209479177387813,0,1,1,-2.8209479177387813,0A2.8209479177387813,2.8209479177387813,0,1,1,2.8209479177387813,0" transform="translate(67.77777777777777,94.12809797215255)" fill="none" stroke="#4098b5" stroke-width="1"/><path class="point" d="M2.8209479177387813,0A2.8209479177387813,2.8209479177387813,0,1,1,-2.8209479177387813,0A2.8209479177387813,2.8209479177387813,0,1,1,2.8209479177387813,0" transform="translate(67.77777777777777,132.8836159532484)" fill="none" stroke="#4098b5" stroke-width="1"/><path class="point" d="M2.8209479177387813,0A2.8209479177387813,2.8209479177387813,0,1,1,-2.8209479177387813,0A2.8209479177387813,2.8209479177387813,0,1,1,2.8209479177387813,0" transform="translate(67.77777777777777,164.03397079559073)" fill="none" stroke="#4098b5" stroke-width="1"/><path class="point" d="M2.8209479177387813,0A2.8209479177387813,2.8209479177387813,0,1,1,-2.8209479177387813,0A2.8209479177387813,2.8209479177387813,0,1,1,2.8209479177387813,0" transform="translate(67.77777777777777,72.91235380780358)" fill="none" stroke="#4098b5" stroke-width="1"/><path class="point" d="M2.8209479177387813,0A2.8209479177387813,2.8209479177387813,0,1,1,-2.8209479177387813,0A2.8209479177387813,2.8209479177387813,0,1,1,2.8209479177387813,0" transform="translate(67.77777777777777,93.28944598464545)" fill="none" stroke="#4098b5" stroke-width="1"/><path class="point" d="M2.8209479177387813,0A2.8209479177387813,2.8209479177387813,0,1,1,-2.8209479177387813,0A2.8209479177387813,2.8209479177387813,0,1,1,2.8209479177387813,0" transform="translate(67.77777777777777,152.6062640941375)" fill="none" stroke="#4098b5" stroke-width="1"/><path class="point" d="M2.8209479177387813,0A2.8209479177387813,2.8209479177387813,0,1,1,-2.8209479177387813,0A2.8209479177387813,2.8209479177387813,0,1,1,2.8209479177387813,0" transform="translate(67.77777777777777,184.55980261792502)" fill="none" stroke="#4098b5" stroke-width="1"/><path class="point" d="M2.8209479177387813,0A2.8209479177387813,2.8209479177387813,0,1,1,-2.8209479177387813,0A2.8209479177387813,2.8209479177387813,0,1,1,2.8209479177387813,0" transform="translate(67.77777777777777,189.3987514577027)" fill="none" stroke="#4098b5" stroke-width="1"/><path class="point" d="M2.8209479177387813,0A2.8209479177387813,2.8209479177387813,0,1,1,-2.8209479177387813,0A2.8209479177387813,2.8209479177387813,0,1,1,2.8209479177387813,0" transform="translate(67.77777777777777,94.12809797215255)" fill="none" stroke="#4098b5" stroke-width="1"/><path class="point" d="M2.8209479177387813,0A2.8209479177387813,2.8209479177387813,0,1,1,-2.8209479177387813,0A2.8209479177387813,2.8209479177387813,0,1,1,2.8209479177387813,0" transform="translate(67.77777777777777,132.8836159532484)" fill="none" stroke="#4098b5" stroke-width="1"/><path class="point" d="M2.8209479177387813,0A2.8209479177387813,2.8209479177387813,0,1,1,-2.8209479177387813,0A2.8209479177387813,2.8209479177387813,0,1,1,2.8209479177387813,0" transform="translate(67.77777777777777,164.03397079559073)" fill="none" stroke="#4098b5" stroke-width="1"/><path class="point" d="M2.8209479177387813,0A2.8209479177387813,2.8209479177387813,0,1,1,-2.8209479177387813,0A2.8209479177387813,2.8209479177387813,0,1,1,2.8209479177387813,0" transform="translate(67.77777777777777,72.91235380780358)" fill="none" stroke="#4098b5" stroke-width="1"/><path class="point" d="M2.8209479177387813,0A2.8209479177387813,2.8209479177387813,0,1,1,-2.8209479177387813,0A2.8209479177387813,2.8209479177387813,0,1,1,2.8209479177387813,0" transform="translate(67.77777777777777,93.28944598464545)" fill="none" stroke="#4098b5" stroke-width="1"/><path class="point" d="M2.8209479177387813,0A2.8209479177387813,2.8209479177387813,0,1,1,-2.8209479177387813,0A2.8209479177387813,2.8209479177387813,0,1,1,2.8209479177387813,0" transform="translate(135.55555555555554,188.45491895986146)" fill="none" stroke="#4098b5" stroke-width="1"/><path class="point" d="M2.8209479177387813,0A2.8209479177387813,2.8209479177387813,0,1,1,-2.8209479177387813,0A2.8209479177387813,2.8209479177387813,0,1,1,2.8209479177387813,0" transform="translate(135.55555555555554,176.80208050354332)" fill="none" stroke="#4098b5" stroke-width="1"/><path class="point" d="M2.8209479177387813,0A2.8209479177387813,2.8209479177387813,0,1,1,-2.8209479177387813,0A2.8209479177387813,2.8209479177387813,0,1,1,2.8209479177387813,0" transform="translate(135.55555555555554,136.46149225701822)" fill="none" stroke="#4098b5" stroke-width="1"/><path class="point" d="M2.8209479177387813,0A2.8209479177387813,2.8209479177387813,0,1,1,-2.8209479177387813,0A2.8209479177387813,2.8209479177387813,0,1,1,2.8209479177387813,0" transform="translate(135.55555555555554,136.18351345174267)" fill="none" stroke="#4098b5" stroke-width="1"/><path class="point" d="M2.8209479177387813,0A2.8209479177387813,2.8209479177387813,0,1,1,-2.8209479177387813,0A2.8209479177387813,2.8209479177387813,0,1,1,2.8209479177387813,0" transform="translate(135.55555555555554,127.05876991006039)" fill="none" stroke="#4098b5" stroke-width="1"/><path class="point" d="M2.8209479177387813,0A2.8209479177387813,2.8209479177387813,0,1,1,-2.8209479177387813,0A2.8209479177387813,2.8209479177387813,0,1,1,2.8209479177387813,0" transform="translate(135.55555555555554,265.0006642153114)" fill="none" stroke="#4098b5" stroke-width="1"/><path class="point" d="M2.8209479177387813,0A2.8209479177387813,2.8209479177387813,0,1,1,-2.8209479177387813,0A2.8209479177387813,2.8209479177387813,0,1,1,2.8209479177387813,0" transform="translate(135.55555555555554,92.87154736158698)" fill="none" stroke="#4098b5" stroke-width="1"/><path class="point" d="M2.8209479177387813,0A2.8209479177387813,2.8209479177387813,0,1,1,-2.8209479177387813,0A2.8209479177387813,2.8209479177387813,0,1,1,2.8209479177387813,0" transform="translate(135.55555555555554,228.75398752447296)" fill="none" stroke="#4098b5" stroke-width="1"/><path class="point" d="M2.8209479177387813,0A2.8209479177387813,2.8209479177387813,0,1,1,-2.8209479177387813,0A2.8209479177387813,2.8209479177387813,0,1,1,2.8209479177387813,0" transform="translate(135.55555555555554,113.34082126255873)" fill="none" stroke="#4098b5" stroke-width="1"/><path class="point" d="M2.8209479177387813,0A2.8209479177387813,2.8209479177387813,0,1,1,-2.8209479177387813,0A2.8209479177387813,2.8209479177387813,0,1,1,2.8209479177387813,0" transform="translate(135.55555555555554,174.8713496306073)" fill="none" stroke="#4098b5" stroke-width="1"/><path class="point" d="M2.8209479177387813,0A2.8209479177387813,2.8209479177387813,0,1,1,-2.8209479177387813,0A2.8209479177387813,2.8209479177387813,0,1,1,2.8209479177387813,0" transform="translate(135.55555555555554,188.45491895986146)" fill="none" stroke="#4098b5" stroke-width="1"/><path class="point" d="M2.8209479177387813,0A2.8209479177387813,2.8209479177387813,0,1,1,-2.8209479177387813,0A2.8209479177387813,2.8209479177387813,0,1,1,2.8209479177387813,0" transform="translate(135.55555555555554,176.80208050354332)" fill="none" stroke="#4098b5" stroke-width="1"/><path class="point" d="M2.8209479177387813,0A2.8209479177387813,2.8209479177387813,0,1,1,-2.8209479177387813,0A2.8209479177387813,2.8209479177387813,0,1,1,2.8209479177387813,0" transform="translate(135.55555555555554,136.46149225701822)" fill="none" stroke="#4098b5" stroke-width="1"/><path class="point" d="M2.8209479177387813,0A2.8209479177387813,2.8209479177387813,0,1,1,-2.8209479177387813,0A2.8209479177387813,2.8209479177387813,0,1,1,2.8209479177387813,0" transform="translate(135.55555555555554,136.18351345174267)" fill="none" stroke="#4098b5" stroke-width="1"/><path class="point" d="M2.8209479177387813,0A2.8209479177387813,2.8209479177387813,0,1,1,-2.8209479177387813,0A2.8209479177387813,2.8209479177387813,0,1,1,2.8209479177387813,0" transform="translate(135.55555555555554,127.05876991006039)" fill="none" stroke="#4098b5" stroke-width="1"/><path class="point" d="M2.8209479177387813,0A2.8209479177387813,2.8209479177387813,0,1,1,-2.8209479177387813,0A2.8209479177387813,2.8209479177387813,0,1,1,2.8209479177387813,0" transform="translate(135.55555555555554,265.0006642153114)" fill="none" stroke="#4098b5" stroke-width="1"/><path class="point" d="M2.8209479177387813,0A2.8209479177387813,2.8209479177387813,0,1,1,-2.8209479177387813,0A2.8209479177387813,2.8209479177387813,0,1,1,2.8209479177387813,0" transform="translate(135.55555555555554,92.87154736158698)" fill="none" stroke="#4098b5" stroke-width="1"/><path class="point" d="M2.8209479177387813,0A2.8209479177387813,2.8209479177387813,0,1,1,-2.8209479177387813,0A2.8209479177387813,2.8209479177387813,0,1,1,2.8209479177387813,0" transform="translate(135.55555555555554,228.75398752447296)" fill="none" stroke="#4098b5" stroke-width="1"/><path class="point" d="M2.8209479177387813,0A2.8209479177387813,2.8209479177387813,0,1,1,-2.8209479177387813,0A2.8209479177387813,2.8209479177387813,0,1,1,2.8209479177387813,0" transform="translate(135.55555555555554,113.34082126255873)" fill="none" stroke="#4098b5" stroke-width="1"/><path class="point" d="M2.8209479177387813,0A2.8209479177387813,2.8209479177387813,0,1,1,-2.8209479177387813,0A2.8209479177387813,2.8209479177387813,0,1,1,2.8209479177387813,0" transform="translate(135.55555555555554,174.8713496306073)" fill="none" stroke="#4098b5" stroke-width="1"/><path class="point" d="M2.8209479177387813,0A2.8209479177387813,2.8209479177387813,0,1,1,-2.8209479177387813,0A2.8209479177387813,2.8209479177387813,0,1,1,2.8209479177387813,0" transform="translate(203.33333333333331,164.99457955390739)" fill="none" stroke="#4098b5" stroke-width="1"/><path class="point" d="M2.8209479177387813,0A2.8209479177387813,2.8209479177387813,0,1,1,-2.8209479177387813,0A2.8209479177387813,2.8209479177387813,0,1,1,2.8209479177387813,0" transform="translate(203.33333333333331,212.5235169655279)" fill="none" stroke="#4098b5" stroke-width="1"/><path class="point" d="M2.8209479177387813,0A2.8209479177387813,2.8209479177387813,0,1,1,-2.8209479177387813,0A2.8209479177387813,2.8209479177387813,0,1,1,2.8209479177387813,0" transform="translate(203.33333333333331,179.34941544525708)" fill="none" stroke="#4098b5" stroke-width="1"/><path class="point" d="M2.8209479177387813,0A2.8209479177387813,2.8209479177387813,0,1,1,-2.8209479177387813,0A2.8209479177387813,2.8209479177387813,0,1,1,2.8209479177387813,0" transform="translate(203.33333333333331,94.68061241170881)" fill="none" stroke="#4098b5" stroke-width="1"/><path class="point" d="M2.8209479177387813,0A2.8209479177387813,2.8209479177387813,0,1,1,-2.8209479177387813,0A2.8209479177387813,2.8209479177387813,0,1,1,2.8209479177387813,0" transform="translate(203.33333333333331,225.77857049498476)" fill="none" stroke="#4098b5" stroke-width="1"/><path class="point" d="M2.8209479177387813,0A2.8209479177387813,2.8209479177387813,0,1,1,-2.8209479177387813,0A2.8209479177387813,2.8209479177387813,0,1,1,2.8209479177387813,0" transform="translate(203.33333333333331,250.1472644822153)" fill="none" stroke="#4098b5" stroke-width="1"/><path class="point" d="M2.8209479177387813,0A2.8209479177387813,2.8209479177387813,0,1,1,-2.8209479177387813,0A2.8209479177387813,2.8209479177387813,0,1,1,2.8209479177387813,0" transform="translate(203.33333333333331,181.5825061246897)" fill="none" stroke="#4098b5" stroke-width="1"/><path class="point" d="M2.8209479177387813,0A2.8209479177387813,2.8209479177387813,0,1,1,-2.8209479177387813,0A2.8209479177387813,2.8209479177387813,0,1,1,2.8209479177387813,0" transform="translate(203.33333333333331,117.04317899845341)" fill="none" stroke="#4098b5" stroke-width="1"/><path class="point" d="M2.8209479177387813,0A2.8209479177387813,2.8209479177387813,0,1,1,-2.8209479177387813,0A2.8209479177387813,2.8209479177387813,0,1,1,2.8209479177387813,0" transform="translate(203.33333333333331,147.546703116721)" fill="none" stroke="#4098b5" stroke-width="1"/><path class="point" d="M2.8209479177387813,0A2.8209479177387813,2.8209479177387813,0,1,1,-2.8209479177387813,0A2.8209479177387813,2.8209479177387813,0,1,1,2.8209479177387813,0" transform="translate(203.33333333333331,164.99457955390739)" fill="none" stroke="#4098b5" stroke-width="1"/><path class="point" d="M2.8209479177387813,0A2.8209479177387813,2.8209479177387813,0,1,1,-2.8209479177387813,0A2.8209479177387813,2.8209479177387813,0,1,1,2.8209479177387813,0" transform="translate(203.33333333333331,212.5235169655279)" fill="none" stroke="#4098b5" stroke-width="1"/><path class="point" d="M2.8209479177387813,0A2.8209479177387813,2.8209479177387813,0,1,1,-2.8209479177387813,0A2.8209479177387813,2.8209479177387813,0,1,1,2.8209479177387813,0" transform="translate(203.33333333333331,179.34941544525708)" fill="none" stroke="#4098b5" stroke-width="1"/><path class="point" d="M2.8209479177387813,0A2.8209479177387813,2.8209479177387813,0,1,1,-2.8209479177387813,0A2.8209479177387813,2.8209479177387813,0,1,1,2.8209479177387813,0" transform="translate(203.33333333333331,94.68061241170881)" fill="none" stroke="#4098b5" stroke-width="1"/><path class="point" d="M2.8209479177387813,0A2.8209479177387813,2.8209479177387813,0,1,1,-2.8209479177387813,0A2.8209479177387813,2.8209479177387813,0,1,1,2.8209479177387813,0" transform="translate(203.33333333333331,225.77857049498476)" fill="none" stroke="#4098b5" stroke-width="1"/><path class="point" d="M2.8209479177387813,0A2.8209479177387813,2.8209479177387813,0,1,1,-2.8209479177387813,0A2.8209479177387813,2.8209479177387813,0,1,1,2.8209479177387813,0" transform="translate(203.33333333333331,250.1472644822153)" fill="none" stroke="#4098b5" stroke-width="1"/><path class="point" d="M2.8209479177387813,0A2.8209479177387813,2.8209479177387813,0,1,1,-2.8209479177387813,0A2.8209479177387813,2.8209479177387813,0,1,1,2.8209479177387813,0" transform="translate(203.33333333333331,181.5825061246897)" fill="none" stroke="#4098b5" stroke-width="1"/><path class="point" d="M2.8209479177387813,0A2.8209479177387813,2.8209479177387813,0,1,1,-2.8209479177387813,0A2.8209479177387813,2.8209479177387813,0,1,1,2.8209479177387813,0" transform="translate(203.33333333333331,117.04317899845341)" fill="none" stroke="#4098b5" stroke-width="1"/><path class="point" d="M2.8209479177387813,0A2.8209479177387813,2.8209479177387813,0,1,1,-2.8209479177387813,0A2.8209479177387813,2.8209479177387813,0,1,1,2.8209479177387813,0" transform="translate(203.33333333333331,147.546703116721)" fill="none" stroke="#4098b5" stroke-width="1"/><path class="point" d="M2.8209479177387813,0A2.8209479177387813,2.8209479177387813,0,1,1,-2.8209479177387813,0A2.8209479177387813,2.8209479177387813,0,1,1,2.8209479177387813,0" transform="translate(271.1111111111111,164.95718753518048)" fill="none" stroke="#4098b5" stroke-width="1"/><path class="point" d="M2.8209479177387813,0A2.8209479177387813,2.8209479177387813,0,1,1,-2.8209479177387813,0A2.8209479177387813,2.8209479177387813,0,1,1,2.8209479177387813,0" transform="translate(271.1111111111111,133.61401275649382)" fill="none" stroke="#4098b5" stroke-width="1"/><path class="point" d="M2.8209479177387813,0A2.8209479177387813,2.8209479177387813,0,1,1,-2.8209479177387813,0A2.8209479177387813,2.8209479177387813,0,1,1,2.8209479177387813,0" transform="translate(271.1111111111111,230.55012407055)" fill="none" stroke="#4098b5" stroke-width="1"/><path class="point" d="M2.8209479177387813,0A2.8209479177387813,2.8209479177387813,0,1,1,-2.8209479177387813,0A2.8209479177387813,2.8209479177387813,0,1,1,2.8209479177387813,0" transform="translate(271.1111111111111,213.60910499699355)" fill="none" stroke="#4098b5" stroke-width="1"/><path class="point" d="M2.8209479177387813,0A2.8209479177387813,2.8209479177387813,0,1,1,-2.8209479177387813,0A2.8209479177387813,2.8209479177387813,0,1,1,2.8209479177387813,0" transform="translate(271.1111111111111,139.06886255382267)" fill="none" stroke="#4098b5" stroke-width="1"/><path class="point" d="M2.8209479177387813,0A2.8209479177387813,2.8209479177387813,0,1,1,-2.8209479177387813,0A2.8209479177387813,2.8209479177387813,0,1,1,2.8209479177387813,0" transform="translate(271.1111111111111,204.6474460318354)" fill="none" stroke="#4098b5" stroke-width="1"/><path class="point" d="M2.8209479177387813,0A2.8209479177387813,2.8209479177387813,0,1,1,-2.8209479177387813,0A2.8209479177387813,2.8209479177387813,0,1,1,2.8209479177387813,0" transform="translate(271.1111111111111,136.10774547495373)" fill="none" stroke="#4098b5" stroke-width="1"/><path class="point" d="M2.8209479177387813,0A2.8209479177387813,2.8209479177387813,0,1,1,-2.8209479177387813,0A2.8209479177387813,2.8209479177387813,0,1,1,2.8209479177387813,0" transform="translate(271.1111111111111,210.60170821963828)" fill="none" stroke="#4098b5" stroke-width="1"/><path class="point" d="M2.8209479177387813,0A2.8209479177387813,2.8209479177387813,0,1,1,-2.8209479177387813,0A2.8209479177387813,2.8209479177387813,0,1,1,2.8209479177387813,0" transform="translate(271.1111111111111,176.00325569232865)" fill="none" stroke="#4098b5" stroke-width="1"/><path class="point" d="M2.8209479177387813,0A2.8209479177387813,2.8209479177387813,0,1,1,-2.8209479177387813,0A2.8209479177387813,2.8209479177387813,0,1,1,2.8209479177387813,0" transform="translate(271.1111111111111,147.86596659437805)" fill="none" stroke="#4098b5" stroke-width="1"/><path class="point" d="M2.8209479177387813,0A2.8209479177387813,2.8209479177387813,0,1,1,-2.8209479177387813,0A2.8209479177387813,2.8209479177387813,0,1,1,2.8209479177387813,0" transform="translate(271.1111111111111,164.95718753518048)" fill="none" stroke="#4098b5" stroke-width="1"/><path class="point" d="M2.8209479177387813,0A2.8209479177387813,2.8209479177387813,0,1,1,-2.8209479177387813,0A2.8209479177387813,2.8209479177387813,0,1,1,2.8209479177387813,0" transform="translate(271.1111111111111,133.61401275649382)" fill="none" stroke="#4098b5" stroke-width="1"/><path class="point" d="M2.8209479177387813,0A2.8209479177387813,2.8209479177387813,0,1,1,-2.8209479177387813,0A2.8209479177387813,2.8209479177387813,0,1,1,2.8209479177387813,0" transform="translate(271.1111111111111,230.55012407055)" fill="none" stroke="#4098b5" stroke-width="1"/><path class="point" d="M2.8209479177387813,0A2.8209479177387813,2.8209479177387813,0,1,1,-2.8209479177387813,0A2.8209479177387813,2.8209479177387813,0,1,1,2.8209479177387813,0" transform="translate(271.1111111111111,213.60910499699355)" fill="none" stroke="#4098b5" stroke-width="1"/><path class="point" d="M2.8209479177387813,0A2.8209479177387813,2.8209479177387813,0,1,1,-2.8209479177387813,0A2.8209479177387813,2.8209479177387813,0,1,1,2.8209479177387813,0" transform="translate(271.1111111111111,139.06886255382267)" fill="none" stroke="#4098b5" stroke-width="1"/><path class="point" d="M2.8209479177387813,0A2.8209479177387813,2.8209479177387813,0,1,1,-2.8209479177387813,0A2.8209479177387813,2.8209479177387813,0,1,1,2.8209479177387813,0" transform="translate(271.1111111111111,204.6474460318354)" fill="none" stroke="#4098b5" stroke-width="1"/><path class="point" d="M2.8209479177387813,0A2.8209479177387813,2.8209479177387813,0,1,1,-2.8209479177387813,0A2.8209479177387813,2.8209479177387813,0,1,1,2.8209479177387813,0" transform="translate(271.1111111111111,136.10774547495373)" fill="none" stroke="#4098b5" stroke-width="1"/><path class="point" d="M2.8209479177387813,0A2.8209479177387813,2.8209479177387813,0,1,1,-2.8209479177387813,0A2.8209479177387813,2.8209479177387813,0,1,1,2.8209479177387813,0" transform="translate(271.1111111111111,210.60170821963828)" fill="none" stroke="#4098b5" stroke-width="1"/><path class="point" d="M2.8209479177387813,0A2.8209479177387813,2.8209479177387813,0,1,1,-2.8209479177387813,0A2.8209479177387813,2.8209479177387813,0,1,1,2.8209479177387813,0" transform="translate(271.1111111111111,176.00325569232865)" fill="none" stroke="#4098b5" stroke-width="1"/><path class="point" d="M2.8209479177387813,0A2.8209479177387813,2.8209479177387813,0,1,1,-2.8209479177387813,0A2.8209479177387813,2.8209479177387813,0,1,1,2.8209479177387813,0" transform="translate(271.1111111111111,147.86596659437805)" fill="none" stroke="#4098b5" stroke-width="1"/><path class="point" d="M2.8209479177387813,0A2.8209479177387813,2.8209479177387813,0,1,1,-2.8209479177387813,0A2.8209479177387813,2.8209479177387813,0,1,1,2.8209479177387813,0" transform="translate(338.8888888888889,165.56402233594866)" fill="none" stroke="#4098b5" stroke-width="1"/><path class="point" d="M2.8209479177387813,0A2.8209479177387813,2.8209479177387813,0,1,1,-2.8209479177387813,0A2.8209479177387813,2.8209479177387813,0,1,1,2.8209479177387813,0" transform="translate(338.8888888888889,179.98093120855134)" fill="none" stroke="#4098b5" stroke-width="1"/><path class="point" d="M2.8209479177387813,0A2.8209479177387813,2.8209479177387813,0,1,1,-2.8209479177387813,0A2.8209479177387813,2.8209479177387813,0,1,1,2.8209479177387813,0" transform="translate(338.8888888888889,164.14942227282046)" fill="none" stroke="#4098b5" stroke-width="1"/><path class="point" d="M2.8209479177387813,0A2.8209479177387813,2.8209479177387813,0,1,1,-2.8209479177387813,0A2.8209479177387813,2.8209479177387813,0,1,1,2.8209479177387813,0" transform="translate(338.8888888888889,186.22150044239766)" fill="none" stroke="#4098b5" stroke-width="1"/><path class="point" d="M2.8209479177387813,0A2.8209479177387813,2.8209479177387813,0,1,1,-2.8209479177387813,0A2.8209479177387813,2.8209479177387813,0,1,1,2.8209479177387813,0" transform="translate(338.8888888888889,182.89772782344266)" fill="none" stroke="#4098b5" stroke-width="1"/><path class="point" d="M2.8209479177387813,0A2.8209479177387813,2.8209479177387813,0,1,1,-2.8209479177387813,0A2.8209479177387813,2.8209479177387813,0,1,1,2.8209479177387813,0" transform="translate(338.8888888888889,212.52229230887298)" fill="none" stroke="#4098b5" stroke-width="1"/><path class="point" d="M2.8209479177387813,0A2.8209479177387813,2.8209479177387813,0,1,1,-2.8209479177387813,0A2.8209479177387813,2.8209479177387813,0,1,1,2.8209479177387813,0" transform="translate(338.8888888888889,178.6217534635736)" fill="none" stroke="#4098b5" stroke-width="1"/><path class="point" d="M2.8209479177387813,0A2.8209479177387813,2.8209479177387813,0,1,1,-2.8209479177387813,0A2.8209479177387813,2.8209479177387813,0,1,1,2.8209479177387813,0" transform="translate(338.8888888888889,140.87818190763522)" fill="none" stroke="#4098b5" stroke-width="1"/><path class="point" d="M2.8209479177387813,0A2.8209479177387813,2.8209479177387813,0,1,1,-2.8209479177387813,0A2.8209479177387813,2.8209479177387813,0,1,1,2.8209479177387813,0" transform="translate(338.8888888888889,200.85129063661776)" fill="none" stroke="#4098b5" stroke-width="1"/><path class="point" d="M2.8209479177387813,0A2.8209479177387813,2.8209479177387813,0,1,1,-2.8209479177387813,0A2.8209479177387813,2.8209479177387813,0,1,1,2.8209479177387813,0" transform="translate(338.8888888888889,185.17987701709978)" fill="none" stroke="#4098b5" stroke-width="1"/><path class="point" d="M2.8209479177387813,0A2.8209479177387813,2.8209479177387813,0,1,1,-2.8209479177387813,0A2.8209479177387813,2.8209479177387813,0,1,1,2.8209479177387813,0" transform="translate(338.8888888888889,165.56402233594866)" fill="none" stroke="#4098b5" stroke-width="1"/><path class="point" d="M2.8209479177387813,0A2.8209479177387813,2.8209479177387813,0,1,1,-2.8209479177387813,0A2.8209479177387813,2.8209479177387813,0,1,1,2.8209479177387813,0" transform="translate(338.8888888888889,179.98093120855134)" fill="none" stroke="#4098b5" stroke-width="1"/><path class="point" d="M2.8209479177387813,0A2.8209479177387813,2.8209479177387813,0,1,1,-2.8209479177387813,0A2.8209479177387813,2.8209479177387813,0,1,1,2.8209479177387813,0" transform="translate(338.8888888888889,164.14942227282046)" fill="none" stroke="#4098b5" stroke-width="1"/><path class="point" d="M2.8209479177387813,0A2.8209479177387813,2.8209479177387813,0,1,1,-2.8209479177387813,0A2.8209479177387813,2.8209479177387813,0,1,1,2.8209479177387813,0" transform="translate(338.8888888888889,186.22150044239766)" fill="none" stroke="#4098b5" stroke-width="1"/><path class="point" d="M2.8209479177387813,0A2.8209479177387813,2.8209479177387813,0,1,1,-2.8209479177387813,0A2.8209479177387813,2.8209479177387813,0,1,1,2.8209479177387813,0" transform="translate(338.8888888888889,182.89772782344266)" fill="none" stroke="#4098b5" stroke-width="1"/><path class="point" d="M2.8209479177387813,0A2.8209479177387813,2.8209479177387813,0,1,1,-2.8209479177387813,0A2.8209479177387813,2.8209479177387813,0,1,1,2.8209479177387813,0" transform="translate(338.8888888888889,212.52229230887298)" fill="none" stroke="#4098b5" stroke-width="1"/><path class="point" d="M2.8209479177387813,0A2.8209479177387813,2.8209479177387813,0,1,1,-2.8209479177387813,0A2.8209479177387813,2.8209479177387813,0,1,1,2.8209479177387813,0" transform="translate(338.8888888888889,178.6217534635736)" fill="none" stroke="#4098b5" stroke-width="1"/><path class="point" d="M2.8209479177387813,0A2.8209479177387813,2.8209479177387813,0,1,1,-2.8209479177387813,0A2.8209479177387813,2.8209479177387813,0,1,1,2.8209479177387813,0" transform="translate(338.8888888888889,140.87818190763522)" fill="none" stroke="#4098b5" stroke-width="1"/><path class="point" d="M2.8209479177387813,0A2.8209479177387813,2.8209479177387813,0,1,1,-2.8209479177387813,0A2.8209479177387813,2.8209479177387813,0,1,1,2.8209479177387813,0" transform="translate(338.8888888888889,200.85129063661776)" fill="none" stroke="#4098b5" stroke-width="1"/><path class="point" d="M2.8209479177387813,0A2.8209479177387813,2.8209479177387813,0,1,1,-2.8209479177387813,0A2.8209479177387813,2.8209479177387813,0,1,1,2.8209479177387813,0" transform="translate(338.8888888888889,185.17987701709978)" fill="none" stroke="#4098b5" stroke-width="1"/><path class="point" d="M2.8209479177387813,0A2.8209479177387813,2.8209479177387813,0,1,1,-2.8209479177387813,0A2.8209479177387813,2.8209479177387813,0,1,1,2.8209479177387813,0" transform="translate(406.66666666666663,194.49295760056992)" fill="none" stroke="#4098b5" stroke-width="1"/><path class="point" d="M2.8209479177387813,0A2.8209479177387813,2.8209479177387813,0,1,1,-2.8209479177387813,0A2.8209479177387813,2.8209479177387813,0,1,1,2.8209479177387813,0" transform="translate(406.66666666666663,232.50008020643878)" fill="none" stroke="#4098b5" stroke-width="1"/><path class="point" d="M2.8209479177387813,0A2.8209479177387813,2.8209479177387813,0,1,1,-2.8209479177387813,0A2.8209479177387813,2.8209479177387813,0,1,1,2.8209479177387813,0" transform="translate(406.66666666666663,104.92750191481548)" fill="none" stroke="#4098b5" stroke-width="1"/><path class="point" d="M2.8209479177387813,0A2.8209479177387813,2.8209479177387813,0,1,1,-2.8209479177387813,0A2.8209479177387813,2.8209479177387813,0,1,1,2.8209479177387813,0" transform="translate(406.66666666666663,212.24373027552758)" fill="none" stroke="#4098b5" stroke-width="1"/><path class="point" d="M2.8209479177387813,0A2.8209479177387813,2.8209479177387813,0,1,1,-2.8209479177387813,0A2.8209479177387813,2.8209479177387813,0,1,1,2.8209479177387813,0" transform="translate(406.66666666666663,225.4907660992098)" fill="none" stroke="#4098b5" stroke-width="1"/><path class="point" d="M2.8209479177387813,0A2.8209479177387813,2.8209479177387813,0,1,1,-2.8209479177387813,0A2.8209479177387813,2.8209479177387813,0,1,1,2.8209479177387813,0" transform="translate(406.66666666666663,222.92396852232997)" fill="none" stroke="#4098b5" stroke-width="1"/><path class="point" d="M2.8209479177387813,0A2.8209479177387813,2.8209479177387813,0,1,1,-2.8209479177387813,0A2.8209479177387813,2.8209479177387813,0,1,1,2.8209479177387813,0" transform="translate(406.66666666666663,167.256752917992)" fill="none" stroke="#4098b5" stroke-width="1"/><path class="point" d="M2.8209479177387813,0A2.8209479177387813,2.8209479177387813,0,1,1,-2.8209479177387813,0A2.8209479177387813,2.8209479177387813,0,1,1,2.8209479177387813,0" transform="translate(406.66666666666663,138.8443146172075)" fill="none" stroke="#4098b5" stroke-width="1"/><path class="point" d="M2.8209479177387813,0A2.8209479177387813,2.8209479177387813,0,1,1,-2.8209479177387813,0A2.8209479177387813,2.8209479177387813,0,1,1,2.8209479177387813,0" transform="translate(406.66666666666663,156.0866828674259)" fill="none" stroke="#4098b5" stroke-width="1"/><path class="point" d="M2.8209479177387813,0A2.8209479177387813,2.8209479177387813,0,1,1,-2.8209479177387813,0A2.8209479177387813,2.8209479177387813,0,1,1,2.8209479177387813,0" transform="translate(406.66666666666663,188.1825224463699)" fill="none" stroke="#4098b5" stroke-width="1"/><path class="point" d="M2.8209479177387813,0A2.8209479177387813,2.8209479177387813,0,1,1,-2.8209479177387813,0A2.8209479177387813,2.8209479177387813,0,1,1,2.8209479177387813,0" transform="translate(406.66666666666663,194.49295760056992)" fill="none" stroke="#4098b5" stroke-width="1"/><path class="point" d="M2.8209479177387813,0A2.8209479177387813,2.8209479177387813,0,1,1,-2.8209479177387813,0A2.8209479177387813,2.8209479177387813,0,1,1,2.8209479177387813,0" transform="translate(406.66666666666663,232.50008020643878)" fill="none" stroke="#4098b5" stroke-width="1"/><path class="point" d="M2.8209479177387813,0A2.8209479177387813,2.8209479177387813,0,1,1,-2.8209479177387813,0A2.8209479177387813,2.8209479177387813,0,1,1,2.8209479177387813,0" transform="translate(406.66666666666663,104.92750191481548)" fill="none" stroke="#4098b5" stroke-width="1"/><path class="point" d="M2.8209479177387813,0A2.8209479177387813,2.8209479177387813,0,1,1,-2.8209479177387813,0A2.8209479177387813,2.8209479177387813,0,1,1,2.8209479177387813,0" transform="translate(406.66666666666663,212.24373027552758)" fill="none" stroke="#4098b5" stroke-width="1"/><path class="point" d="M2.8209479177387813,0A2.8209479177387813,2.8209479177387813,0,1,1,-2.8209479177387813,0A2.8209479177387813,2.8209479177387813,0,1,1,2.8209479177387813,0" transform="translate(406.66666666666663,225.4907660992098)" fill="none" stroke="#4098b5" stroke-width="1"/><path class="point" d="M2.8209479177387813,0A2.8209479177387813,2.8209479177387813,0,1,1,-2.8209479177387813,0A2.8209479177387813,2.8209479177387813,0,1,1,2.8209479177387813,0" transform="translate(406.66666666666663,222.92396852232997)" fill="none" stroke="#4098b5" stroke-width="1"/><path class="point" d="M2.8209479177387813,0A2.8209479177387813,2.8209479177387813,0,1,1,-2.8209479177387813,0A2.8209479177387813,2.8209479177387813,0,1,1,2.8209479177387813,0" transform="translate(406.66666666666663,167.256752917992)" fill="none" stroke="#4098b5" stroke-width="1"/><path class="point" d="M2.8209479177387813,0A2.8209479177387813,2.8209479177387813,0,1,1,-2.8209479177387813,0A2.8209479177387813,2.8209479177387813,0,1,1,2.8209479177387813,0" transform="translate(406.66666666666663,138.8443146172075)" fill="none" stroke="#4098b5" stroke-width="1"/><path class="point" d="M2.8209479177387813,0A2.8209479177387813,2.8209479177387813,0,1,1,-2.8209479177387813,0A2.8209479177387813,2.8209479177387813,0,1,1,2.8209479177387813,0" transform="translate(406.66666666666663,156.0866828674259)" fill="none" stroke="#4098b5" stroke-width="1"/><path class="point" d="M2.8209479177387813,0A2.8209479177387813,2.8209479177387813,0,1,1,-2.8209479177387813,0A2.8209479177387813,2.8209479177387813,0,1,1,2.8209479177387813,0" transform="translate(406.66666666666663,188.1825224463699)" fill="none" stroke="#4098b5" stroke-width="1"/><path class="point" d="M2.8209479177387813,0A2.8209479177387813,2.8209479177387813,0,1,1,-2.8209479177387813,0A2.8209479177387813,2.8209479177387813,0,1,1,2.8209479177387813,0" transform="translate(474.44444444444446,127.02601919004917)" fill="none" stroke="#4098b5" stroke-width="1"/><path class="point" d="M2.8209479177387813,0A2.8209479177387813,2.8209479177387813,0,1,1,-2.8209479177387813,0A2.8209479177387813,2.8209479177387813,0,1,1,2.8209479177387813,0" transform="translate(474.44444444444446,159.8277685007949)" fill="none" stroke="#4098b5" stroke-width="1"/><path class="point" d="M2.8209479177387813,0A2.8209479177387813,2.8209479177387813,0,1,1,-2.8209479177387813,0A2.8209479177387813,2.8209479177387813,0,1,1,2.8209479177387813,0" transform="translate(474.44444444444446,203.32174271846543)" fill="none" stroke="#4098b5" stroke-width="1"/><path class="point" d="M2.8209479177387813,0A2.8209479177387813,2.8209479177387813,0,1,1,-2.8209479177387813,0A2.8209479177387813,2.8209479177387813,0,1,1,2.8209479177387813,0" transform="translate(474.44444444444446,191.46512529435307)" fill="none" stroke="#4098b5" stroke-width="1"/><path class="point" d="M2.8209479177387813,0A2.8209479177387813,2.8209479177387813,0,1,1,-2.8209479177387813,0A2.8209479177387813,2.8209479177387813,0,1,1,2.8209479177387813,0" transform="translate(474.44444444444446,196.71869773173944)" fill="none" stroke="#4098b5" stroke-width="1"/><path class="point" d="M2.8209479177387813,0A2.8209479177387813,2.8209479177387813,0,1,1,-2.8209479177387813,0A2.8209479177387813,2.8209479177387813,0,1,1,2.8209479177387813,0" transform="translate(474.44444444444446,201.36429390066064)" fill="none" stroke="#4098b5" stroke-width="1"/><path class="point" d="M2.8209479177387813,0A2.8209479177387813,2.8209479177387813,0,1,1,-2.8209479177387813,0A2.8209479177387813,2.8209479177387813,0,1,1,2.8209479177387813,0" transform="translate(474.44444444444446,199.1682499786142)" fill="none" stroke="#4098b5" stroke-width="1"/><path class="point" d="M2.8209479177387813,0A2.8209479177387813,2.8209479177387813,0,1,1,-2.8209479177387813,0A2.8209479177387813,2.8209479177387813,0,1,1,2.8209479177387813,0" transform="translate(474.44444444444446,183.26153106006927)" fill="none" stroke="#4098b5" stroke-width="1"/><path class="point" d="M2.8209479177387813,0A2.8209479177387813,2.8209479177387813,0,1,1,-2.8209479177387813,0A2.8209479177387813,2.8209479177387813,0,1,1,2.8209479177387813,0" transform="translate(474.44444444444446,217.1300779178742)" fill="none" stroke="#4098b5" stroke-width="1"/><path class="point" d="M2.8209479177387813,0A2.8209479177387813,2.8209479177387813,0,1,1,-2.8209479177387813,0A2.8209479177387813,2.8209479177387813,0,1,1,2.8209479177387813,0" transform="translate(474.44444444444446,174.60250492968157)" fill="none" stroke="#4098b5" stroke-width="1"/><path class="point" d="M2.8209479177387813,0A2.8209479177387813,2.8209479177387813,0,1,1,-2.8209479177387813,0A2.8209479177387813,2.8209479177387813,0,1,1,2.8209479177387813,0" transform="translate(474.44444444444446,127.02601919004917)" fill="none" stroke="#4098b5" stroke-width="1"/><path class="point" d="M2.8209479177387813,0A2.8209479177387813,2.8209479177387813,0,1,1,-2.8209479177387813,0A2.8209479177387813,2.8209479177387813,0,1,1,2.8209479177387813,0" transform="translate(474.44444444444446,159.8277685007949)" fill="none" stroke="#4098b5" stroke-width="1"/><path class="point" d="M2.8209479177387813,0A2.8209479177387813,2.8209479177387813,0,1,1,-2.8209479177387813,0A2.8209479177387813,2.8209479177387813,0,1,1,2.8209479177387813,0" transform="translate(474.44444444444446,203.32174271846543)" fill="none" stroke="#4098b5" stroke-width="1"/><path class="point" d="M2.8209479177387813,0A2.8209479177387813,2.8209479177387813,0,1,1,-2.8209479177387813,0A2.8209479177387813,2.8209479177387813,0,1,1,2.8209479177387813,0" transform="translate(474.44444444444446,191.46512529435307)" fill="none" stroke="#4098b5" stroke-width="1"/><path class="point" d="M2.8209479177387813,0A2.8209479177387813,2.8209479177387813,0,1,1,-2.8209479177387813,0A2.8209479177387813,2.8209479177387813,0,1,1,2.8209479177387813,0" transform="translate(474.44444444444446,196.71869773173944)" fill="none" stroke="#4098b5" stroke-width="1"/><path class="point" d="M2.8209479177387813,0A2.8209479177387813,2.8209479177387813,0,1,1,-2.8209479177387813,0A2.8209479177387813,2.8209479177387813,0,1,1,2.8209479177387813,0" transform="translate(474.44444444444446,201.36429390066064)" fill="none" stroke="#4098b5" stroke-width="1"/><path class="point" d="M2.8209479177387813,0A2.8209479177387813,2.8209479177387813,0,1,1,-2.8209479177387813,0A2.8209479177387813,2.8209479177387813,0,1,1,2.8209479177387813,0" transform="translate(474.44444444444446,199.1682499786142)" fill="none" stroke="#4098b5" stroke-width="1"/><path class="point" d="M2.8209479177387813,0A2.8209479177387813,2.8209479177387813,0,1,1,-2.8209479177387813,0A2.8209479177387813,2.8209479177387813,0,1,1,2.8209479177387813,0" transform="translate(474.44444444444446,183.26153106006927)" fill="none" stroke="#4098b5" stroke-width="1"/><path class="point" d="M2.8209479177387813,0A2.8209479177387813,2.8209479177387813,0,1,1,-2.8209479177387813,0A2.8209479177387813,2.8209479177387813,0,1,1,2.8209479177387813,0" transform="translate(474.44444444444446,217.1300779178742)" fill="none" stroke="#4098b5" stroke-width="1"/><path class="point" d="M2.8209479177387813,0A2.8209479177387813,2.8209479177387813,0,1,1,-2.8209479177387813,0A2.8209479177387813,2.8209479177387813,0,1,1,2.8209479177387813,0" transform="translate(474.44444444444446,174.60250492968157)" fill="none" stroke="#4098b5" stroke-width="1"/><path class="point" d="M2.8209479177387813,0A2.8209479177387813,2.8209479177387813,0,1,1,-2.8209479177387813,0A2.8209479177387813,2.8209479177387813,0,1,1,2.8209479177387813,0" transform="translate(542.2222222222222,144.9000470982308)" fill="none" stroke="#4098b5" stroke-width="1"/><path class="point" d="M2.8209479177387813,0A2.8209479177387813,2.8209479177387813,0,1,1,-2.8209479177387813,0A2.8209479177387813,2.8209479177387813,0,1,1,2.8209479177387813,0" transform="translate(542.2222222222222,199.5994661040446)" fill="none" stroke="#4098b5" stroke-width="1"/><path class="point" d="M2.8209479177387813,0A2.8209479177387813,2.8209479177387813,0,1,1,-2.8209479177387813,0A2.8209479177387813,2.8209479177387813,0,1,1,2.8209479177387813,0" transform="translate(542.2222222222222,192.8590650717777)" fill="none" stroke="#4098b5" stroke-width="1"/><path class="point" d="M2.8209479177387813,0A2.8209479177387813,2.8209479177387813,0,1,1,-2.8209479177387813,0A2.8209479177387813,2.8209479177387813,0,1,1,2.8209479177387813,0" transform="translate(542.2222222222222,109.34978457117086)" fill="none" stroke="#4098b5" stroke-width="1"/><path class="point" d="M2.8209479177387813,0A2.8209479177387813,2.8209479177387813,0,1,1,-2.8209479177387813,0A2.8209479177387813,2.8209479177387813,0,1,1,2.8209479177387813,0" transform="translate(542.2222222222222,170.4365334007469)" fill="none" stroke="#4098b5" stroke-width="1"/><path class="point" d="M2.8209479177387813,0A2.8209479177387813,2.8209479177387813,0,1,1,-2.8209479177387813,0A2.8209479177387813,2.8209479177387813,0,1,1,2.8209479177387813,0" transform="translate(542.2222222222222,168.9133850979989)" fill="none" stroke="#4098b5" stroke-width="1"/><path class="point" d="M2.8209479177387813,0A2.8209479177387813,2.8209479177387813,0,1,1,-2.8209479177387813,0A2.8209479177387813,2.8209479177387813,0,1,1,2.8209479177387813,0" transform="translate(542.2222222222222,214.1459562350792)" fill="none" stroke="#4098b5" stroke-width="1"/><path class="point" d="M2.8209479177387813,0A2.8209479177387813,2.8209479177387813,0,1,1,-2.8209479177387813,0A2.8209479177387813,2.8209479177387813,0,1,1,2.8209479177387813,0" transform="translate(542.2222222222222,151.1666439518208)" fill="none" stroke="#4098b5" stroke-width="1"/><path class="point" d="M2.8209479177387813,0A2.8209479177387813,2.8209479177387813,0,1,1,-2.8209479177387813,0A2.8209479177387813,2.8209479177387813,0,1,1,2.8209479177387813,0" transform="translate(542.2222222222222,136.1148958038524)" fill="none" stroke="#4098b5" stroke-width="1"/><path class="point" d="M2.8209479177387813,0A2.8209479177387813,2.8209479177387813,0,1,1,-2.8209479177387813,0A2.8209479177387813,2.8209479177387813,0,1,1,2.8209479177387813,0" transform="translate(542.2222222222222,164.45236042977177)" fill="none" stroke="#4098b5" stroke-width="1"/><path class="point" d="M2.8209479177387813,0A2.8209479177387813,2.8209479177387813,0,1,1,-2.8209479177387813,0A2.8209479177387813,2.8209479177387813,0,1,1,2.8209479177387813,0" transform="translate(542.2222222222222,144.9000470982308)" fill="none" stroke="#4098b5" stroke-width="1"/><path class="point" d="M2.8209479177387813,0A2.8209479177387813,2.8209479177387813,0,1,1,-2.8209479177387813,0A2.8209479177387813,2.8209479177387813,0,1,1,2.8209479177387813,0" transform="translate(542.2222222222222,199.5994661040446)" fill="none" stroke="#4098b5" stroke-width="1"/><path class="point" d="M2.8209479177387813,0A2.8209479177387813,2.8209479177387813,0,1,1,-2.8209479177387813,0A2.8209479177387813,2.8209479177387813,0,1,1,2.8209479177387813,0" transform="translate(542.2222222222222,192.8590650717777)" fill="none" stroke="#4098b5" stroke-width="1"/><path class="point" d="M2.8209479177387813,0A2.8209479177387813,2.8209479177387813,0,1,1,-2.8209479177387813,0A2.8209479177387813,2.8209479177387813,0,1,1,2.8209479177387813,0" transform="translate(542.2222222222222,109.34978457117086)" fill="none" stroke="#4098b5" stroke-width="1"/><path class="point" d="M2.8209479177387813,0A2.8209479177387813,2.8209479177387813,0,1,1,-2.8209479177387813,0A2.8209479177387813,2.8209479177387813,0,1,1,2.8209479177387813,0" transform="translate(542.2222222222222,170.4365334007469)" fill="none" stroke="#4098b5" stroke-width="1"/><path class="point" d="M2.8209479177387813,0A2.8209479177387813,2.8209479177387813,0,1,1,-2.8209479177387813,0A2.8209479177387813,2.8209479177387813,0,1,1,2.8209479177387813,0" transform="translate(542.2222222222222,168.9133850979989)" fill="none" stroke="#4098b5" stroke-width="1"/><path class="point" d="M2.8209479177387813,0A2.8209479177387813,2.8209479177387813,0,1,1,-2.8209479177387813,0A2.8209479177387813,2.8209479177387813,0,1,1,2.8209479177387813,0" transform="translate(542.2222222222222,214.1459562350792)" fill="none" stroke="#4098b5" stroke-width="1"/><path class="point" d="M2.8209479177387813,0A2.8209479177387813,2.8209479177387813,0,1,1,-2.8209479177387813,0A2.8209479177387813,2.8209479177387813,0,1,1,2.8209479177387813,0" transform="translate(542.2222222222222,151.1666439518208)" fill="none" stroke="#4098b5" stroke-width="1"/><path class="point" d="M2.8209479177387813,0A2.8209479177387813,2.8209479177387813,0,1,1,-2.8209479177387813,0A2.8209479177387813,2.8209479177387813,0,1,1,2.8209479177387813,0" transform="translate(542.2222222222222,136.1148958038524)" fill="none" stroke="#4098b5" stroke-width="1"/><path class="point" d="M2.8209479177387813,0A2.8209479177387813,2.8209479177387813,0,1,1,-2.8209479177387813,0A2.8209479177387813,2.8209479177387813,0,1,1,2.8209479177387813,0" transform="translate(542.2222222222222,164.45236042977177)" fill="none" stroke="#4098b5" stroke-width="1"/><path class="point" d="M2.8209479177387813,0A2.8209479177387813,2.8209479177387813,0,1,1,-2.8209479177387813,0A2.8209479177387813,2.8209479177387813,0,1,1,2.8209479177387813,0" transform="translate(610,172.74813178939752)" fill="none" stroke="#4098b5" stroke-width="1"/><path class="point" d="M2.8209479177387813,0A2.8209479177387813,2.8209479177387813,0,1,1,-2.8209479177387813,0A2.8209479177387813,2.8209479177387813,0,1,1,2.8209479177387813,0" transform="translate(610,194.67364594410856)" fill="none" stroke="#4098b5" stroke-width="1"/><path class="point" d="M2.8209479177387813,0A2.8209479177387813,2.8209479177387813,0,1,1,-2.8209479177387813,0A2.8209479177387813,2.8209479177387813,0,1,1,2.8209479177387813,0" transform="translate(610,198.2549745607958)" fill="none" stroke="#4098b5" stroke-width="1"/><path class="point" d="M2.8209479177387813,0A2.8209479177387813,2.8209479177387813,0,1,1,-2.8209479177387813,0A2.8209479177387813,2.8209479177387813,0,1,1,2.8209479177387813,0" transform="translate(610,192.71929681918334)" fill="none" stroke="#4098b5" stroke-width="1"/><path class="point" d="M2.8209479177387813,0A2.8209479177387813,2.8209479177387813,0,1,1,-2.8209479177387813,0A2.8209479177387813,2.8209479177387813,0,1,1,2.8209479177387813,0" transform="translate(610,184.9342656670591)" fill="none" stroke="#4098b5" stroke-width="1"/><path class="point" d="M2.8209479177387813,0A2.8209479177387813,2.8209479177387813,0,1,1,-2.8209479177387813,0A2.8209479177387813,2.8209479177387813,0,1,1,2.8209479177387813,0" transform="translate(610,178.7861158208005)" fill="none" stroke="#4098b5" stroke-width="1"/><path class="point" d="M2.8209479177387813,0A2.8209479177387813,2.8209479177387813,0,1,1,-2.8209479177387813,0A2.8209479177387813,2.8209479177387813,0,1,1,2.8209479177387813,0" transform="translate(610,192.31190555574898)" fill="none" stroke="#4098b5" stroke-width="1"/><path class="point" d="M2.8209479177387813,0A2.8209479177387813,2.8209479177387813,0,1,1,-2.8209479177387813,0A2.8209479177387813,2.8209479177387813,0,1,1,2.8209479177387813,0" transform="translate(610,150.51044211284216)" fill="none" stroke="#4098b5" stroke-width="1"/><path class="point" d="M2.8209479177387813,0A2.8209479177387813,2.8209479177387813,0,1,1,-2.8209479177387813,0A2.8209479177387813,2.8209479177387813,0,1,1,2.8209479177387813,0" transform="translate(610,127.84728599375421)" fill="none" stroke="#4098b5" stroke-width="1"/><path class="point" d="M2.8209479177387813,0A2.8209479177387813,2.8209479177387813,0,1,1,-2.8209479177387813,0A2.8209479177387813,2.8209479177387813,0,1,1,2.8209479177387813,0" transform="translate(610,182.03291106587687)" fill="none" stroke="#4098b5" stroke-width="1"/><path class="point" d="M2.8209479177387813,0A2.8209479177387813,2.8209479177387813,0,1,1,-2.8209479177387813,0A2.8209479177387813,2.8209479177387813,0,1,1,2.8209479177387813,0" transform="translate(610,172.74813178939752)" fill="none" stroke="#4098b5" stroke-width="1"/><path class="point" d="M2.8209479177387813,0A2.8209479177387813,2.8209479177387813,0,1,1,-2.8209479177387813,0A2.8209479177387813,2.8209479177387813,0,1,1,2.8209479177387813,0" transform="translate(610,194.67364594410856)" fill="none" stroke="#4098b5" stroke-width="1"/><path class="point" d="M2.8209479177387813,0A2.8209479177387813,2.8209479177387813,0,1,1,-2.8209479177387813,0A2.8209479177387813,2.8209479177387813,0,1,1,2.8209479177387813,0" transform="translate(610,198.2549745607958)" fill="none" stroke="#4098b5" stroke-width="1"/><path class="point" d="M2.8209479177387813,0A2.8209479177387813,2.8209479177387813,0,1,1,-2.8209479177387813,0A2.8209479177387813,2.8209479177387813,0,1,1,2.8209479177387813,0" transform="translate(610,192.71929681918334)" fill="none" stroke="#4098b5" stroke-width="1"/><path class="point" d="M2.8209479177387813,0A2.8209479177387813,2.8209479177387813,0,1,1,-2.8209479177387813,0A2.8209479177387813,2.8209479177387813,0,1,1,2.8209479177387813,0" transform="translate(610,184.9342656670591)" fill="none" stroke="#4098b5" stroke-width="1"/><path class="point" d="M2.8209479177387813,0A2.8209479177387813,2.8209479177387813,0,1,1,-2.8209479177387813,0A2.8209479177387813,2.8209479177387813,0,1,1,2.8209479177387813,0" transform="translate(610,178.7861158208005)" fill="none" stroke="#4098b5" stroke-width="1"/><path class="point" d="M2.8209479177387813,0A2.8209479177387813,2.8209479177387813,0,1,1,-2.8209479177387813,0A2.8209479177387813,2.8209479177387813,0,1,1,2.8209479177387813,0" transform="translate(610,192.31190555574898)" fill="none" stroke="#4098b5" stroke-width="1"/><path class="point" d="M2.8209479177387813,0A2.8209479177387813,2.8209479177387813,0,1,1,-2.8209479177387813,0A2.8209479177387813,2.8209479177387813,0,1,1,2.8209479177387813,0" transform="translate(610,150.51044211284216)" fill="none" stroke="#4098b5" stroke-width="1"/><path class="point" d="M2.8209479177387813,0A2.8209479177387813,2.8209479177387813,0,1,1,-2.8209479177387813,0A2.8209479177387813,2.8209479177387813,0,1,1,2.8209479177387813,0" transform="translate(610,127.84728599375421)" fill="none" stroke="#4098b5" stroke-width="1"/><path class="point" d="M2.8209479177387813,0A2.8209479177387813,2.8209479177387813,0,1,1,-2.8209479177387813,0A2.8209479177387813,2.8209479177387813,0,1,1,2.8209479177387813,0" transform="translate(610,182.03291106587687)" fill="none" stroke="#4098b5" stroke-width="1"/><path class="line" d="M0,178.7741054198928L67.77777777777777,214.04852955013342L135.55555555555554,228.39203631785108L203.33333333333331,240.86913187951671L271.1111111111111,268.84072130888273L338.8888888888889,267.8174604469074L406.66666666666663,269.6757646402326L474.44444444444446,278.3368664129272L542.2222222222222,286.6580760990678L610,290.3183059927173" fill="none" stroke="#4cb6da" stroke-width="5" stroke-dasharray="20 5" clip-path="url(#clip-path)"/><path class="line" d="M0,109.64120863438984L67.77777777777777,121.4730172451757L135.55555555555554,163.97991450767637L203.33333333333331,162.27895558283456L271.1111111111111,175.70254139261743L338.8888888888889,179.68669994169608L406.66666666666663,184.2949277467887L474.44444444444446,185.38860112223028L542.2222222222222,165.19381377644925L610,177.48189753295657" fill="none" stroke="#4098b5" stroke-width="10" stroke-dasharray="none" clip-path="url(#clip-path)"/><g class="y-axis" fill="none" font-size="50px" font-family="sans-serif" text-anchor="end"><path class="domain" stroke="currentColor" d="M-3,652.5H0.5V0.5H-3"/><g class="tick" opacity="1" transform="translate(0,652.5)"><text fill="currentColor" x="-13" dy="0.32em">0.0</text></g><g class="tick" opacity="1" transform="translate(0,362.72222222222223)"><text fill="currentColor" x="-13" dy="0.32em">0.2</text></g><g class="tick" opacity="1" transform="translate(0,72.94444444444446)"><text fill="currentColor" x="-13" dy="0.32em">0.4</text></g></g><g class="x-axis" transform="translate(0,652)" fill="none" font-size="50px" font-family="sans-serif" text-anchor="middle"><path class="domain" stroke="currentColor" d="M0.5,0.5H610.5"/><g class="tick" opacity="1" transform="translate(68.27777777777777,0)"><line stroke="currentColor" y2="0"/><text fill="currentColor" y="10" dy="0.71em">100</text></g><g class="tick" opacity="1" transform="translate(339.3888888888889,0)"><line stroke="currentColor" y2="0"/><text fill="currentColor" y="10" dy="0.71em">300</text></g><g class="tick" opacity="1" transform="translate(610.5,0)"><line stroke="currentColor" y2="0"/><text fill="currentColor" y="10" dy="0.71em">500</text></g></g></g><rect x="0" y="0" width="610" height="652" transform="translate(150,60)" style="fill: none; stroke: black; stroke-width: 1px;"/></svg>