<svg xmlns="http://www.w3.org/2000/svg" width="800" height="800"><g class="container" transform="translate(150,60)"><defs><clipPath id="clip-path"><rect x="0" y="0" width="610" height="652"/></clipPath></defs><path class="point" d="M2.8209479177387813,0A2.8209479177387813,2.8209479177387813,0,1,1,-2.8209479177387813,0A2.8209479177387813,2.8209479177387813,0,1,1,2.8209479177387813,0" transform="translate(0,323.02817975914195)" fill="none" stroke="#4098b5" stroke-width="1"/><path class="point" d="M2.8209479177387813,0A2.8209479177387813,2.8209479177387813,0,1,1,-2.8209479177387813,0A2.8209479177387813,2.8209479177387813,0,1,1,2.8209479177387813,0" transform="translate(0,256.71517873493593)" fill="none" stroke="#4098b5" stroke-width="1"/><path class="point" d="M2.8209479177387813,0A2.8209479177387813,2.8209479177387813,0,1,1,-2.8209479177387813,0A2.8209479177387813,2.8209479177387813,0,1,1,2.8209479177387813,0" transform="translate(0,365.1364287537292)" fill="none" stroke="#4098b5" stroke-width="1"/><path class="point" d="M2.8209479177387813,0A2.8209479177387813,2.8209479177387813,0,1,1,-2.8209479177387813,0A2.8209479177387813,2.8209479177387813,0,1,1,2.8209479177387813,0" transform="translate(0,181.19688151644203)" fill="none" stroke="#4098b5" stroke-width="1"/><path class="point" d="M2.8209479177387813,0A2.8209479177387813,2.8209479177387813,0,1,1,-2.8209479177387813,0A2.8209479177387813,2.8209479177387813,0,1,1,2.8209479177387813,0" transform="translate(0,243.02978794778784)" fill="none" stroke="#4098b5" stroke-width="1"/><path class="point" d="M2.8209479177387813,0A2.8209479177387813,2.8209479177387813,0,1,1,-2.8209479177387813,0A2.8209479177387813,2.8209479177387813,0,1,1,2.8209479177387813,0" transform="translate(0,241.6042245354755)" fill="none" stroke="#4098b5" stroke-width="1"/><path class="point" d="M2.8209479177387813,0A2.8209479177387813,2.8209479177387813,0,1,1,-2.8209479177387813,0A2.8209479177387813,2.8209479177387813,0,1,1,2.8209479177387813,0" transform="translate(0,352.4716057189406)" fill="none" stroke="#4098b5" stroke-width="1"/><path class="point" d="M2.8209479177387813,0A2.8209479177387813,2.8209479177387813,0,1,1,-2.8209479177387813,0A2.8209479177387813,2.8209479177387813,0,1,1,2.8209479177387813,0" transform="translate(0,269.37581363340325)" fill="none" stroke="#4098b5" stroke-width="1"/><path class="point" d="M2.8209479177387813,0A2.8209479177387813,2.8209479177387813,0,1,1,-2.8209479177387813,0A2.8209479177387813,2.8209479177387813,0,1,1,2.8209479177387813,0" transform="translate(0,252.31319105991395)" fill="none" stroke="#4098b5" stroke-width="1"/><path class="point" d="M2.8209479177387813,0A2.8209479177387813,2.8209479177387813,0,1,1,-2.8209479177387813,0A2.8209479177387813,2.8209479177387813,0,1,1,2.8209479177387813,0" transform="translate(0,323.02817975914195)" fill="none" stroke="#4098b5" stroke-width="1"/><path class="point" d="M2.8209479177387813,0A2.8209479177387813,2.8209479177387813,0,1,1,-2.8209479177387813,0A2.8209479177387813,2.8209479177387813,0,1,1,2.8209479177387813,0" transform="translate(0,256.71517873493593)" fill="none" stroke="#4098b5" stroke-width="1"/><path class="point" d="M2.8209479177387813,0A2.8209479177387813,2.8209479177387813,0,1,1,-2.8209479177387813,0A2.8209479177387813,2.8209479177387813,0,1,1,2.8209479177387813,0" transform="translate(0,365.1364287537292)" fill="none" stroke="#4098b5" stroke-width="1"/><path class="point" d="M2.8209479177387813,0A2.8209479177387813,2.8209479177387813,0,1,1,-2.8209479177387813,0A2.8209479177387813,2.8209479177387813,0,1,1,2.8209479177387813,0" transform="translate(0,181.19688151644203)" fill="none" stroke="#4098b5" stroke-width="1"/><path class="point" d="M2.8209479177387813,0A2.8209479177387813,2.8209479177387813,0,1,1,-2.8209479177387813,0A2.8209479177387813,2.8209479177387813,0,1,1,2.8209479177387813,0" transform="translate(0,243.02978794778784)" fill="none" stroke="#4098b5" stroke-width="1"/><path class="point" d="M2.8209479177387813,0A2.8209479177387813,2.8209479177387813,0,1,1,-2.8209479177387813,0A2.8209479177387813,2.8209479177387813,0,1,1,2.8209479177387813,0" transform="translate(0,241.6042245354755)" fill="none" stroke="#4098b5" stroke-width="1"/><path class="point" d="M2.8209479177387813,0A2.8209479177387813,2.8209479177387813,0,1,1,-2.8209479177387813,0A2.8209479177387813,2.8209479177387813,0,1,1,2.8209479177387813,0" transform="translate(0,352.4716057189406)" fill="none" stroke="#4098b5" stroke-width="1"/><path class="point" d="M2.8209479177387813,0A2.8209479177387813,2.8209479177387813,0,1,1,-2.8209479177387813,0A2.8209479177387813,2.8209479177387813,0,1,1,2.8209479177387813,0" transform="translate(0,269.37581363340325)" fill="none" stroke="#4098b5" stroke-width="1"/><path class="point" d="M2.8209479177387813,0A2.8209479177387813,2.8209479177387813,0,1,1,-2.8209479177387813,0A2.8209479177387813,2.8209479177387813,0,1,1,2.8209479177387813,0" transform="translate(0,252.31319105991395)" fill="none" stroke="#4098b5" stroke-width="1"/><path class="point" d="M2.8209479177387813,0A2.8209479177387813,2.8209479177387813,0,1,1,-2.8209479177387813,0A2.8209479177387813,2.8209479177387813,0,1,1,2.8209479177387813,0" transform="translate(66.42222222222222,195.98915646609032)" fill="none" stroke="#4098b5" stroke-width="1"/><path class="point" d="M2.8209479177387813,0A2.8209479177387813,2.8209479177387813,0,1,1,-2.8209479177387813,0A2.8209479177387813,2.8209479177387813,0,1,1,2.8209479177387813,0" transform="translate(66.42222222222222,298.5009191271651)" fill="none" stroke="#4098b5" stroke-width="1"/><path class="point" d="M2.8209479177387813,0A2.8209479177387813,2.8209479177387813,0,1,1,-2.8209479177387813,0A2.8209479177387813,2.8209479177387813,0,1,1,2.8209479177387813,0" transform="translate(66.42222222222222,220.27543121761175)" fill="none" stroke="#4098b5" stroke-width="1"/><path class="point" d="M2.8209479177387813,0A2.8209479177387813,2.8209479177387813,0,1,1,-2.8209479177387813,0A2.8209479177387813,2.8209479177387813,0,1,1,2.8209479177387813,0" transform="translate(66.42222222222222,208.9283635386692)" fill="none" stroke="#4098b5" stroke-width="1"/><path class="point" d="M2.8209479177387813,0A2.8209479177387813,2.8209479177387813,0,1,1,-2.8209479177387813,0A2.8209479177387813,2.8209479177387813,0,1,1,2.8209479177387813,0" transform="translate(66.42222222222222,260.7259359227132)" fill="none" stroke="#4098b5" stroke-width="1"/><path class="point" d="M2.8209479177387813,0A2.8209479177387813,2.8209479177387813,0,1,1,-2.8209479177387813,0A2.8209479177387813,2.8209479177387813,0,1,1,2.8209479177387813,0" transform="translate(66.42222222222222,275.09603711911336)" fill="none" stroke="#4098b5" stroke-width="1"/><path class="point" d="M2.8209479177387813,0A2.8209479177387813,2.8209479177387813,0,1,1,-2.8209479177387813,0A2.8209479177387813,2.8209479177387813,0,1,1,2.8209479177387813,0" transform="translate(66.42222222222222,346.5838833635428)" fill="none" stroke="#4098b5" stroke-width="1"/><path class="point" d="M2.8209479177387813,0A2.8209479177387813,2.8209479177387813,0,1,1,-2.8209479177387813,0A2.8209479177387813,2.8209479177387813,0,1,1,2.8209479177387813,0" transform="translate(66.42222222222222,237.86778553431287)" fill="none" stroke="#4098b5" stroke-width="1"/><path class="point" d="M2.8209479177387813,0A2.8209479177387813,2.8209479177387813,0,1,1,-2.8209479177387813,0A2.8209479177387813,2.8209479177387813,0,1,1,2.8209479177387813,0" transform="translate(66.42222222222222,276.7631974343969)" fill="none" stroke="#4098b5" stroke-width="1"/><path class="point" d="M2.8209479177387813,0A2.8209479177387813,2.8209479177387813,0,1,1,-2.8209479177387813,0A2.8209479177387813,2.8209479177387813,0,1,1,2.8209479177387813,0" transform="translate(66.42222222222222,320.6686644404424)" fill="none" stroke="#4098b5" stroke-width="1"/><path class="point" d="M2.8209479177387813,0A2.8209479177387813,2.8209479177387813,0,1,1,-2.8209479177387813,0A2.8209479177387813,2.8209479177387813,0,1,1,2.8209479177387813,0" transform="translate(66.42222222222222,195.98915646609032)" fill="none" stroke="#4098b5" stroke-width="1"/><path class="point" d="M2.8209479177387813,0A2.8209479177387813,2.8209479177387813,0,1,1,-2.8209479177387813,0A2.8209479177387813,2.8209479177387813,0,1,1,2.8209479177387813,0" transform="translate(66.42222222222222,298.5009191271651)" fill="none" stroke="#4098b5" stroke-width="1"/><path class="point" d="M2.8209479177387813,0A2.8209479177387813,2.8209479177387813,0,1,1,-2.8209479177387813,0A2.8209479177387813,2.8209479177387813,0,1,1,2.8209479177387813,0" transform="translate(66.42222222222222,220.27543121761175)" fill="none" stroke="#4098b5" stroke-width="1"/><path class="point" d="M2.8209479177387813,0A2.8209479177387813,2.8209479177387813,0,1,1,-2.8209479177387813,0A2.8209479177387813,2.8209479177387813,0,1,1,2.8209479177387813,0" transform="translate(66.42222222222222,208.9283635386692)" fill="none" stroke="#4098b5" stroke-width="1"/><path class="point" d="M2.8209479177387813,0A2.8209479177387813,2.8209479177387813,0,1,1,-2.8209479177387813,0A2.8209479177387813,2.8209479177387813,0,1,1,2.8209479177387813,0" transform="translate(66.42222222222222,260.7259359227132)" fill="none" stroke="#4098b5" stroke-width="1"/><path class="point" d="M2.8209479177387813,0A2.8209479177387813,2.8209479177387813,0,1,1,-2.8209479177387813,0A2.8209479177387813,2.8209479177387813,0,1,1,2.8209479177387813,0" transform="translate(66.42222222222222,275.09603711911336)" fill="none" stroke="#4098b5" stroke-width="1"/><path class="point" d="M2.8209479177387813,0A2.8209479177387813,2.8209479177387813,0,1,1,-2.8209479177387813,0A2.8209479177387813,2.8209479177387813,0,1,1,2.8209479177387813,0" transform="translate(66.42222222222222,346.5838833635428)" fill="none" stroke="#4098b5" stroke-width="1"/><path class="point" d="M2.8209479177387813,0A2.8209479177387813,2.8209479177387813,0,1,1,-2.8209479177387813,0A2.8209479177387813,2.8209479177387813,0,1,1,2.8209479177387813,0" transform="translate(66.42222222222222,237.86778553431287)" fill="none" stroke="#4098b5" stroke-width="1"/><path class="point" d="M2.8209479177387813,0A2.8209479177387813,2.8209479177387813,0,1,1,-2.8209479177387813,0A2.8209479177387813,2.8209479177387813,0,1,1,2.8209479177387813,0" transform="translate(66.42222222222222,276.7631974343969)" fill="none" stroke="#4098b5" stroke-width="1"/><path class="point" d="M2.8209479177387813,0A2.8209479177387813,2.8209479177387813,0,1,1,-2.8209479177387813,0A2.8209479177387813,2.8209479177387813,0,1,1,2.8209479177387813,0" transform="translate(66.42222222222222,320.6686644404424)" fill="none" stroke="#4098b5" stroke-width="1"/><path class="point" d="M2.8209479177387813,0A2.8209479177387813,2.8209479177387813,0,1,1,-2.8209479177387813,0A2.8209479177387813,2.8209479177387813,0,1,1,2.8209479177387813,0" transform="translate(134.2,268.0644388060476)" fill="none" stroke="#4098b5" stroke-width="1"/><path class="point" d="M2.8209479177387813,0A2.8209479177387813,2.8209479177387813,0,1,1,-2.8209479177387813,0A2.8209479177387813,2.8209479177387813,0,1,1,2.8209479177387813,0" transform="translate(134.2,320.52522145922336)" fill="none" stroke="#4098b5" stroke-width="1"/><path class="point" d="M2.8209479177387813,0A2.8209479177387813,2.8209479177387813,0,1,1,-2.8209479177387813,0A2.8209479177387813,2.8209479177387813,0,1,1,2.8209479177387813,0" transform="translate(134.2,293.3232972617396)" fill="none" stroke="#4098b5" stroke-width="1"/><path class="point" d="M2.8209479177387813,0A2.8209479177387813,2.8209479177387813,0,1,1,-2.8209479177387813,0A2.8209479177387813,2.8209479177387813,0,1,1,2.8209479177387813,0" transform="translate(134.2,372.7970050907581)" fill="none" stroke="#4098b5" stroke-width="1"/><path class="point" d="M2.8209479177387813,0A2.8209479177387813,2.8209479177387813,0,1,1,-2.8209479177387813,0A2.8209479177387813,2.8209479177387813,0,1,1,2.8209479177387813,0" transform="translate(134.2,277.7460147219994)" fill="none" stroke="#4098b5" stroke-width="1"/><path class="point" d="M2.8209479177387813,0A2.8209479177387813,2.8209479177387813,0,1,1,-2.8209479177387813,0A2.8209479177387813,2.8209479177387813,0,1,1,2.8209479177387813,0" transform="translate(134.2,305.89037386636255)" fill="none" stroke="#4098b5" stroke-width="1"/><path class="point" d="M2.8209479177387813,0A2.8209479177387813,2.8209479177387813,0,1,1,-2.8209479177387813,0A2.8209479177387813,2.8209479177387813,0,1,1,2.8209479177387813,0" transform="translate(134.2,337.2778828276523)" fill="none" stroke="#4098b5" stroke-width="1"/><path class="point" d="M2.8209479177387813,0A2.8209479177387813,2.8209479177387813,0,1,1,-2.8209479177387813,0A2.8209479177387813,2.8209479177387813,0,1,1,2.8209479177387813,0" transform="translate(134.2,359.22094999008243)" fill="none" stroke="#4098b5" stroke-width="1"/><path class="point" d="M2.8209479177387813,0A2.8209479177387813,2.8209479177387813,0,1,1,-2.8209479177387813,0A2.8209479177387813,2.8209479177387813,0,1,1,2.8209479177387813,0" transform="translate(134.2,306.83748503802957)" fill="none" stroke="#4098b5" stroke-width="1"/><path class="point" d="M2.8209479177387813,0A2.8209479177387813,2.8209479177387813,0,1,1,-2.8209479177387813,0A2.8209479177387813,2.8209479177387813,0,1,1,2.8209479177387813,0" transform="translate(134.2,377.58378165723275)" fill="none" stroke="#4098b5" stroke-width="1"/><path class="point" d="M2.8209479177387813,0A2.8209479177387813,2.8209479177387813,0,1,1,-2.8209479177387813,0A2.8209479177387813,2.8209479177387813,0,1,1,2.8209479177387813,0" transform="translate(134.2,268.0644388060476)" fill="none" stroke="#4098b5" stroke-width="1"/><path class="point" d="M2.8209479177387813,0A2.8209479177387813,2.8209479177387813,0,1,1,-2.8209479177387813,0A2.8209479177387813,2.8209479177387813,0,1,1,2.8209479177387813,0" transform="translate(134.2,320.52522145922336)" fill="none" stroke="#4098b5" stroke-width="1"/><path class="point" d="M2.8209479177387813,0A2.8209479177387813,2.8209479177387813,0,1,1,-2.8209479177387813,0A2.8209479177387813,2.8209479177387813,0,1,1,2.8209479177387813,0" transform="translate(134.2,293.3232972617396)" fill="none" stroke="#4098b5" stroke-width="1"/><path class="point" d="M2.8209479177387813,0A2.8209479177387813,2.8209479177387813,0,1,1,-2.8209479177387813,0A2.8209479177387813,2.8209479177387813,0,1,1,2.8209479177387813,0" transform="translate(134.2,372.7970050907581)" fill="none" stroke="#4098b5" stroke-width="1"/><path class="point" d="M2.8209479177387813,0A2.8209479177387813,2.8209479177387813,0,1,1,-2.8209479177387813,0A2.8209479177387813,2.8209479177387813,0,1,1,2.8209479177387813,0" transform="translate(134.2,277.7460147219994)" fill="none" stroke="#4098b5" stroke-width="1"/><path class="point" d="M2.8209479177387813,0A2.8209479177387813,2.8209479177387813,0,1,1,-2.8209479177387813,0A2.8209479177387813,2.8209479177387813,0,1,1,2.8209479177387813,0" transform="translate(134.2,305.89037386636255)" fill="none" stroke="#4098b5" stroke-width="1"/><path class="point" d="M2.8209479177387813,0A2.8209479177387813,2.8209479177387813,0,1,1,-2.8209479177387813,0A2.8209479177387813,2.8209479177387813,0,1,1,2.8209479177387813,0" transform="translate(134.2,337.2778828276523)" fill="none" stroke="#4098b5" stroke-width="1"/><path class="point" d="M2.8209479177387813,0A2.8209479177387813,2.8209479177387813,0,1,1,-2.8209479177387813,0A2.8209479177387813,2.8209479177387813,0,1,1,2.8209479177387813,0" transform="translate(134.2,359.22094999008243)" fill="none" stroke="#4098b5" stroke-width="1"/><path class="point" d="M2.8209479177387813,0A2.8209479177387813,2.8209479177387813,0,1,1,-2.8209479177387813,0A2.8209479177387813,2.8209479177387813,0,1,1,2.8209479177387813,0" transform="translate(134.2,306.83748503802957)" fill="none" stroke="#4098b5" stroke-width="1"/><path class="point" d="M2.8209479177387813,0A2.8209479177387813,2.8209479177387813,0,1,1,-2.8209479177387813,0A2.8209479177387813,2.8209479177387813,0,1,1,2.8209479177387813,0" transform="translate(134.2,377.58378165723275)" fill="none" stroke="#4098b5" stroke-width="1"/><path class="point" d="M2.8209479177387813,0A2.8209479177387813,2.8209479177387813,0,1,1,-2.8209479177387813,0A2.8209479177387813,2.8209479177387813,0,1,1,2.8209479177387813,0" transform="translate(201.9777777777778,372.8954218229326)" fill="none" stroke="#4098b5" stroke-width="1"/><path class="point" d="M2.8209479177387813,0A2.8209479177387813,2.8209479177387813,0,1,1,-2.8209479177387813,0A2.8209479177387813,2.8209479177387813,0,1,1,2.8209479177387813,0" transform="translate(201.9777777777778,306.3311526011233)" fill="none" stroke="#4098b5" stroke-width="1"/><path class="point" d="M2.8209479177387813,0A2.8209479177387813,2.8209479177387813,0,1,1,-2.8209479177387813,0A2.8209479177387813,2.8209479177387813,0,1,1,2.8209479177387813,0" transform="translate(201.9777777777778,318.9056419230178)" fill="none" stroke="#4098b5" stroke-width="1"/><path class="point" d="M2.8209479177387813,0A2.8209479177387813,2.8209479177387813,0,1,1,-2.8209479177387813,0A2.8209479177387813,2.8209479177387813,0,1,1,2.8209479177387813,0" transform="translate(201.9777777777778,275.9496361373116)" fill="none" stroke="#4098b5" stroke-width="1"/><path class="point" d="M2.8209479177387813,0A2.8209479177387813,2.8209479177387813,0,1,1,-2.8209479177387813,0A2.8209479177387813,2.8209479177387813,0,1,1,2.8209479177387813,0" transform="translate(201.9777777777778,305.0577495315347)" fill="none" stroke="#4098b5" stroke-width="1"/><path class="point" d="M2.8209479177387813,0A2.8209479177387813,2.8209479177387813,0,1,1,-2.8209479177387813,0A2.8209479177387813,2.8209479177387813,0,1,1,2.8209479177387813,0" transform="translate(201.9777777777778,308.5165322197353)" fill="none" stroke="#4098b5" stroke-width="1"/><path class="point" d="M2.8209479177387813,0A2.8209479177387813,2.8209479177387813,0,1,1,-2.8209479177387813,0A2.8209479177387813,2.8209479177387813,0,1,1,2.8209479177387813,0" transform="translate(201.9777777777778,327.45763994675383)" fill="none" stroke="#4098b5" stroke-width="1"/><path class="point" d="M2.8209479177387813,0A2.8209479177387813,2.8209479177387813,0,1,1,-2.8209479177387813,0A2.8209479177387813,2.8209479177387813,0,1,1,2.8209479177387813,0" transform="translate(201.9777777777778,311.0149818681529)" fill="none" stroke="#4098b5" stroke-width="1"/><path class="point" d="M2.8209479177387813,0A2.8209479177387813,2.8209479177387813,0,1,1,-2.8209479177387813,0A2.8209479177387813,2.8209479177387813,0,1,1,2.8209479177387813,0" transform="translate(201.9777777777778,315.12981026712123)" fill="none" stroke="#4098b5" stroke-width="1"/><path class="point" d="M2.8209479177387813,0A2.8209479177387813,2.8209479177387813,0,1,1,-2.8209479177387813,0A2.8209479177387813,2.8209479177387813,0,1,1,2.8209479177387813,0" transform="translate(201.9777777777778,351.15459179389603)" fill="none" stroke="#4098b5" stroke-width="1"/><path class="point" d="M2.8209479177387813,0A2.8209479177387813,2.8209479177387813,0,1,1,-2.8209479177387813,0A2.8209479177387813,2.8209479177387813,0,1,1,2.8209479177387813,0" transform="translate(201.9777777777778,372.8954218229326)" fill="none" stroke="#4098b5" stroke-width="1"/><path class="point" d="M2.8209479177387813,0A2.8209479177387813,2.8209479177387813,0,1,1,-2.8209479177387813,0A2.8209479177387813,2.8209479177387813,0,1,1,2.8209479177387813,0" transform="translate(201.9777777777778,306.3311526011233)" fill="none" stroke="#4098b5" stroke-width="1"/><path class="point" d="M2.8209479177387813,0A2.8209479177387813,2.8209479177387813,0,1,1,-2.8209479177387813,0A2.8209479177387813,2.8209479177387813,0,1,1,2.8209479177387813,0" transform="translate(201.9777777777778,318.9056419230178)" fill="none" stroke="#4098b5" stroke-width="1"/><path class="point" d="M2.8209479177387813,0A2.8209479177387813,2.8209479177387813,0,1,1,-2.8209479177387813,0A2.8209479177387813,2.8209479177387813,0,1,1,2.8209479177387813,0" transform="translate(201.9777777777778,275.9496361373116)" fill="none" stroke="#4098b5" stroke-width="1"/><path class="point" d="M2.8209479177387813,0A2.8209479177387813,2.8209479177387813,0,1,1,-2.8209479177387813,0A2.8209479177387813,2.8209479177387813,0,1,1,2.8209479177387813,0" transform="translate(201.9777777777778,305.0577495315347)" fill="none" stroke="#4098b5" stroke-width="1"/><path class="point" d="M2.8209479177387813,0A2.8209479177387813,2.8209479177387813,0,1,1,-2.8209479177387813,0A2.8209479177387813,2.8209479177387813,0,1,1,2.8209479177387813,0" transform="translate(201.9777777777778,308.5165322197353)" fill="none" stroke="#4098b5" stroke-width="1"/><path class="point" d="M2.8209479177387813,0A2.8209479177387813,2.8209479177387813,0,1,1,-2.8209479177387813,0A2.8209479177387813,2.8209479177387813,0,1,1,2.8209479177387813,0" transform="translate(201.9777777777778,327.45763994675383)" fill="none" stroke="#4098b5" stroke-width="1"/><path class="point" d="M2.8209479177387813,0A2.8209479177387813,2.8209479177387813,0,1,1,-2.8209479177387813,0A2.8209479177387813,2.8209479177387813,0,1,1,2.8209479177387813,0" transform="translate(201.9777777777778,311.0149818681529)" fill="none" stroke="#4098b5" stroke-width="1"/><path class="point" d="M2.8209479177387813,0A2.8209479177387813,2.8209479177387813,0,1,1,-2.8209479177387813,0A2.8209479177387813,2.8209479177387813,0,1,1,2.8209479177387813,0" transform="translate(201.9777777777778,315.12981026712123)" fill="none" stroke="#4098b5" stroke-width="1"/><path class="point" d="M2.8209479177387813,0A2.8209479177387813,2.8209479177387813,0,1,1,-2.8209479177387813,0A2.8209479177387813,2.8209479177387813,0,1,1,2.8209479177387813,0" transform="translate(201.9777777777778,351.15459179389603)" fill="none" stroke="#4098b5" stroke-width="1"/><path class="point" d="M2.8209479177387813,0A2.8209479177387813,2.8209479177387813,0,1,1,-2.8209479177387813,0A2.8209479177387813,2.8209479177387813,0,1,1,2.8209479177387813,0" transform="translate(269.7555555555556,325.7752872620068)" fill="none" stroke="#4098b5" stroke-width="1"/><path class="point" d="M2.8209479177387813,0A2.8209479177387813,2.8209479177387813,0,1,1,-2.8209479177387813,0A2.8209479177387813,2.8209479177387813,0,1,1,2.8209479177387813,0" transform="translate(269.7555555555556,322.091608520378)" fill="none" stroke="#4098b5" stroke-width="1"/><path class="point" d="M2.8209479177387813,0A2.8209479177387813,2.8209479177387813,0,1,1,-2.8209479177387813,0A2.8209479177387813,2.8209479177387813,0,1,1,2.8209479177387813,0" transform="translate(269.7555555555556,319.0309620093794)" fill="none" stroke="#4098b5" stroke-width="1"/><path class="point" d="M2.8209479177387813,0A2.8209479177387813,2.8209479177387813,0,1,1,-2.8209479177387813,0A2.8209479177387813,2.8209479177387813,0,1,1,2.8209479177387813,0" transform="translate(269.7555555555556,314.4704256529529)" fill="none" stroke="#4098b5" stroke-width="1"/><path class="point" d="M2.8209479177387813,0A2.8209479177387813,2.8209479177387813,0,1,1,-2.8209479177387813,0A2.8209479177387813,2.8209479177387813,0,1,1,2.8209479177387813,0" transform="translate(269.7555555555556,313.41336709801203)" fill="none" stroke="#4098b5" stroke-width="1"/><path class="point" d="M2.8209479177387813,0A2.8209479177387813,2.8209479177387813,0,1,1,-2.8209479177387813,0A2.8209479177387813,2.8209479177387813,0,1,1,2.8209479177387813,0" transform="translate(269.7555555555556,284.5754720063959)" fill="none" stroke="#4098b5" stroke-width="1"/><path class="point" d="M2.8209479177387813,0A2.8209479177387813,2.8209479177387813,0,1,1,-2.8209479177387813,0A2.8209479177387813,2.8209479177387813,0,1,1,2.8209479177387813,0" transform="translate(269.7555555555556,308.636353369316)" fill="none" stroke="#4098b5" stroke-width="1"/><path class="point" d="M2.8209479177387813,0A2.8209479177387813,2.8209479177387813,0,1,1,-2.8209479177387813,0A2.8209479177387813,2.8209479177387813,0,1,1,2.8209479177387813,0" transform="translate(269.7555555555556,281.77171758485105)" fill="none" stroke="#4098b5" stroke-width="1"/><path class="point" d="M2.8209479177387813,0A2.8209479177387813,2.8209479177387813,0,1,1,-2.8209479177387813,0A2.8209479177387813,2.8209479177387813,0,1,1,2.8209479177387813,0" transform="translate(269.7555555555556,316.25841442335036)" fill="none" stroke="#4098b5" stroke-width="1"/><path class="point" d="M2.8209479177387813,0A2.8209479177387813,2.8209479177387813,0,1,1,-2.8209479177387813,0A2.8209479177387813,2.8209479177387813,0,1,1,2.8209479177387813,0" transform="translate(269.7555555555556,297.8088680671592)" fill="none" stroke="#4098b5" stroke-width="1"/><path class="point" d="M2.8209479177387813,0A2.8209479177387813,2.8209479177387813,0,1,1,-2.8209479177387813,0A2.8209479177387813,2.8209479177387813,0,1,1,2.8209479177387813,0" transform="translate(269.7555555555556,325.7752872620068)" fill="none" stroke="#4098b5" stroke-width="1"/><path class="point" d="M2.8209479177387813,0A2.8209479177387813,2.8209479177387813,0,1,1,-2.8209479177387813,0A2.8209479177387813,2.8209479177387813,0,1,1,2.8209479177387813,0" transform="translate(269.7555555555556,322.091608520378)" fill="none" stroke="#4098b5" stroke-width="1"/><path class="point" d="M2.8209479177387813,0A2.8209479177387813,2.8209479177387813,0,1,1,-2.8209479177387813,0A2.8209479177387813,2.8209479177387813,0,1,1,2.8209479177387813,0" transform="translate(269.7555555555556,319.0309620093794)" fill="none" stroke="#4098b5" stroke-width="1"/><path class="point" d="M2.8209479177387813,0A2.8209479177387813,2.8209479177387813,0,1,1,-2.8209479177387813,0A2.8209479177387813,2.8209479177387813,0,1,1,2.8209479177387813,0" transform="translate(269.7555555555556,314.4704256529529)" fill="none" stroke="#4098b5" stroke-width="1"/><path class="point" d="M2.8209479177387813,0A2.8209479177387813,2.8209479177387813,0,1,1,-2.8209479177387813,0A2.8209479177387813,2.8209479177387813,0,1,1,2.8209479177387813,0" transform="translate(269.7555555555556,313.41336709801203)" fill="none" stroke="#4098b5" stroke-width="1"/><path class="point" d="M2.8209479177387813,0A2.8209479177387813,2.8209479177387813,0,1,1,-2.8209479177387813,0A2.8209479177387813,2.8209479177387813,0,1,1,2.8209479177387813,0" transform="translate(269.7555555555556,284.5754720063959)" fill="none" stroke="#4098b5" stroke-width="1"/><path class="point" d="M2.8209479177387813,0A2.8209479177387813,2.8209479177387813,0,1,1,-2.8209479177387813,0A2.8209479177387813,2.8209479177387813,0,1,1,2.8209479177387813,0" transform="translate(269.7555555555556,308.636353369316)" fill="none" stroke="#4098b5" stroke-width="1"/><path class="point" d="M2.8209479177387813,0A2.8209479177387813,2.8209479177387813,0,1,1,-2.8209479177387813,0A2.8209479177387813,2.8209479177387813,0,1,1,2.8209479177387813,0" transform="translate(269.7555555555556,281.77171758485105)" fill="none" stroke="#4098b5" stroke-width="1"/><path class="point" d="M2.8209479177387813,0A2.8209479177387813,2.8209479177387813,0,1,1,-2.8209479177387813,0A2.8209479177387813,2.8209479177387813,0,1,1,2.8209479177387813,0" transform="translate(269.7555555555556,316.25841442335036)" fill="none" stroke="#4098b5" stroke-width="1"/><path class="point" d="M2.8209479177387813,0A2.8209479177387813,2.8209479177387813,0,1,1,-2.8209479177387813,0A2.8209479177387813,2.8209479177387813,0,1,1,2.8209479177387813,0" transform="translate(269.7555555555556,297.8088680671592)" fill="none" stroke="#4098b5" stroke-width="1"/><path class="point" d="M2.8209479177387813,0A2.8209479177387813,2.8209479177387813,0,1,1,-2.8209479177387813,0A2.8209479177387813,2.8209479177387813,0,1,1,2.8209479177387813,0" transform="translate(336.17777777777775,337.18020761884446)" fill="none" stroke="#4098b5" stroke-width="1"/><path class="point" d="M2.8209479177387813,0A2.8209479177387813,2.8209479177387813,0,1,1,-2.8209479177387813,0A2.8209479177387813,2.8209479177387813,0,1,1,2.8209479177387813,0" transform="translate(336.17777777777775,315.0888891065398)" fill="none" stroke="#4098b5" stroke-width="1"/><path class="point" d="M2.8209479177387813,0A2.8209479177387813,2.8209479177387813,0,1,1,-2.8209479177387813,0A2.8209479177387813,2.8209479177387813,0,1,1,2.8209479177387813,0" transform="translate(336.17777777777775,365.3798631951075)" fill="none" stroke="#4098b5" stroke-width="1"/><path class="point" d="M2.8209479177387813,0A2.8209479177387813,2.8209479177387813,0,1,1,-2.8209479177387813,0A2.8209479177387813,2.8209479177387813,0,1,1,2.8209479177387813,0" transform="translate(336.17777777777775,294.3341881150154)" fill="none" stroke="#4098b5" stroke-width="1"/><path class="point" d="M2.8209479177387813,0A2.8209479177387813,2.8209479177387813,0,1,1,-2.8209479177387813,0A2.8209479177387813,2.8209479177387813,0,1,1,2.8209479177387813,0" transform="translate(336.17777777777775,344.8741211715537)" fill="none" stroke="#4098b5" stroke-width="1"/><path class="point" d="M2.8209479177387813,0A2.8209479177387813,2.8209479177387813,0,1,1,-2.8209479177387813,0A2.8209479177387813,2.8209479177387813,0,1,1,2.8209479177387813,0" transform="translate(336.17777777777775,355.40418726578196)" fill="none" stroke="#4098b5" stroke-width="1"/><path class="point" d="M2.8209479177387813,0A2.8209479177387813,2.8209479177387813,0,1,1,-2.8209479177387813,0A2.8209479177387813,2.8209479177387813,0,1,1,2.8209479177387813,0" transform="translate(336.17777777777775,361.2653553433441)" fill="none" stroke="#4098b5" stroke-width="1"/><path class="point" d="M2.8209479177387813,0A2.8209479177387813,2.8209479177387813,0,1,1,-2.8209479177387813,0A2.8209479177387813,2.8209479177387813,0,1,1,2.8209479177387813,0" transform="translate(336.17777777777775,355.78347005026717)" fill="none" stroke="#4098b5" stroke-width="1"/><path class="point" d="M2.8209479177387813,0A2.8209479177387813,2.8209479177387813,0,1,1,-2.8209479177387813,0A2.8209479177387813,2.8209479177387813,0,1,1,2.8209479177387813,0" transform="translate(336.17777777777775,259.03097157795753)" fill="none" stroke="#4098b5" stroke-width="1"/><path class="point" d="M2.8209479177387813,0A2.8209479177387813,2.8209479177387813,0,1,1,-2.8209479177387813,0A2.8209479177387813,2.8209479177387813,0,1,1,2.8209479177387813,0" transform="translate(336.17777777777775,378.34715592105863)" fill="none" stroke="#4098b5" stroke-width="1"/><path class="point" d="M2.8209479177387813,0A2.8209479177387813,2.8209479177387813,0,1,1,-2.8209479177387813,0A2.8209479177387813,2.8209479177387813,0,1,1,2.8209479177387813,0" transform="translate(336.17777777777775,337.18020761884446)" fill="none" stroke="#4098b5" stroke-width="1"/><path class="point" d="M2.8209479177387813,0A2.8209479177387813,2.8209479177387813,0,1,1,-2.8209479177387813,0A2.8209479177387813,2.8209479177387813,0,1,1,2.8209479177387813,0" transform="translate(336.17777777777775,315.0888891065398)" fill="none" stroke="#4098b5" stroke-width="1"/><path class="point" d="M2.8209479177387813,0A2.8209479177387813,2.8209479177387813,0,1,1,-2.8209479177387813,0A2.8209479177387813,2.8209479177387813,0,1,1,2.8209479177387813,0" transform="translate(336.17777777777775,365.3798631951075)" fill="none" stroke="#4098b5" stroke-width="1"/><path class="point" d="M2.8209479177387813,0A2.8209479177387813,2.8209479177387813,0,1,1,-2.8209479177387813,0A2.8209479177387813,2.8209479177387813,0,1,1,2.8209479177387813,0" transform="translate(336.17777777777775,294.3341881150154)" fill="none" stroke="#4098b5" stroke-width="1"/><path class="point" d="M2.8209479177387813,0A2.8209479177387813,2.8209479177387813,0,1,1,-2.8209479177387813,0A2.8209479177387813,2.8209479177387813,0,1,1,2.8209479177387813,0" transform="translate(336.17777777777775,344.8741211715537)" fill="none" stroke="#4098b5" stroke-width="1"/><path class="point" d="M2.8209479177387813,0A2.8209479177387813,2.8209479177387813,0,1,1,-2.8209479177387813,0A2.8209479177387813,2.8209479177387813,0,1,1,2.8209479177387813,0" transform="translate(336.17777777777775,355.40418726578196)" fill="none" stroke="#4098b5" stroke-width="1"/><path class="point" d="M2.8209479177387813,0A2.8209479177387813,2.8209479177387813,0,1,1,-2.8209479177387813,0A2.8209479177387813,2.8209479177387813,0,1,1,2.8209479177387813,0" transform="translate(336.17777777777775,361.2653553433441)" fill="none" stroke="#4098b5" stroke-width="1"/><path class="point" d="M2.8209479177387813,0A2.8209479177387813,2.8209479177387813,0,1,1,-2.8209479177387813,0A2.8209479177387813,2.8209479177387813,0,1,1,2.8209479177387813,0" transform="translate(336.17777777777775,355.78347005026717)" fill="none" stroke="#4098b5" stroke-width="1"/><path class="point" d="M2.8209479177387813,0A2.8209479177387813,2.8209479177387813,0,1,1,-2.8209479177387813,0A2.8209479177387813,2.8209479177387813,0,1,1,2.8209479177387813,0" transform="translate(336.17777777777775,259.03097157795753)" fill="none" stroke="#4098b5" stroke-width="1"/><path class="point" d="M2.8209479177387813,0A2.8209479177387813,2.8209479177387813,0,1,1,-2.8209479177387813,0A2.8209479177387813,2.8209479177387813,0,1,1,2.8209479177387813,0" transform="translate(336.17777777777775,378.34715592105863)" fill="none" stroke="#4098b5" stroke-width="1"/><path class="point" d="M2.8209479177387813,0A2.8209479177387813,2.8209479177387813,0,1,1,-2.8209479177387813,0A2.8209479177387813,2.8209479177387813,0,1,1,2.8209479177387813,0" transform="translate(403.9555555555556,374.6259308379476)" fill="none" stroke="#4098b5" stroke-width="1"/><path class="point" d="M2.8209479177387813,0A2.8209479177387813,2.8209479177387813,0,1,1,-2.8209479177387813,0A2.8209479177387813,2.8209479177387813,0,1,1,2.8209479177387813,0" transform="translate(403.9555555555556,305.1923927035591)" fill="none" stroke="#4098b5" stroke-width="1"/><path class="point" d="M2.8209479177387813,0A2.8209479177387813,2.8209479177387813,0,1,1,-2.8209479177387813,0A2.8209479177387813,2.8209479177387813,0,1,1,2.8209479177387813,0" transform="translate(403.9555555555556,329.45310606135456)" fill="none" stroke="#4098b5" stroke-width="1"/><path class="point" d="M2.8209479177387813,0A2.8209479177387813,2.8209479177387813,0,1,1,-2.8209479177387813,0A2.8209479177387813,2.8209479177387813,0,1,1,2.8209479177387813,0" transform="translate(403.9555555555556,369.92193132274735)" fill="none" stroke="#4098b5" stroke-width="1"/><path class="point" d="M2.8209479177387813,0A2.8209479177387813,2.8209479177387813,0,1,1,-2.8209479177387813,0A2.8209479177387813,2.8209479177387813,0,1,1,2.8209479177387813,0" transform="translate(403.9555555555556,290.0905147230054)" fill="none" stroke="#4098b5" stroke-width="1"/><path class="point" d="M2.8209479177387813,0A2.8209479177387813,2.8209479177387813,0,1,1,-2.8209479177387813,0A2.8209479177387813,2.8209479177387813,0,1,1,2.8209479177387813,0" transform="translate(403.9555555555556,294.15524380942804)" fill="none" stroke="#4098b5" stroke-width="1"/><path class="point" d="M2.8209479177387813,0A2.8209479177387813,2.8209479177387813,0,1,1,-2.8209479177387813,0A2.8209479177387813,2.8209479177387813,0,1,1,2.8209479177387813,0" transform="translate(403.9555555555556,327.21562116466123)" fill="none" stroke="#4098b5" stroke-width="1"/><path class="point" d="M2.8209479177387813,0A2.8209479177387813,2.8209479177387813,0,1,1,-2.8209479177387813,0A2.8209479177387813,2.8209479177387813,0,1,1,2.8209479177387813,0" transform="translate(403.9555555555556,292.17587327949104)" fill="none" stroke="#4098b5" stroke-width="1"/><path class="point" d="M2.8209479177387813,0A2.8209479177387813,2.8209479177387813,0,1,1,-2.8209479177387813,0A2.8209479177387813,2.8209479177387813,0,1,1,2.8209479177387813,0" transform="translate(403.9555555555556,316.9928681025565)" fill="none" stroke="#4098b5" stroke-width="1"/><path class="point" d="M2.8209479177387813,0A2.8209479177387813,2.8209479177387813,0,1,1,-2.8209479177387813,0A2.8209479177387813,2.8209479177387813,0,1,1,2.8209479177387813,0" transform="translate(403.9555555555556,339.8770291201037)" fill="none" stroke="#4098b5" stroke-width="1"/><path class="point" d="M2.8209479177387813,0A2.8209479177387813,2.8209479177387813,0,1,1,-2.8209479177387813,0A2.8209479177387813,2.8209479177387813,0,1,1,2.8209479177387813,0" transform="translate(403.9555555555556,374.6259308379476)" fill="none" stroke="#4098b5" stroke-width="1"/><path class="point" d="M2.8209479177387813,0A2.8209479177387813,2.8209479177387813,0,1,1,-2.8209479177387813,0A2.8209479177387813,2.8209479177387813,0,1,1,2.8209479177387813,0" transform="translate(403.9555555555556,305.1923927035591)" fill="none" stroke="#4098b5" stroke-width="1"/><path class="point" d="M2.8209479177387813,0A2.8209479177387813,2.8209479177387813,0,1,1,-2.8209479177387813,0A2.8209479177387813,2.8209479177387813,0,1,1,2.8209479177387813,0" transform="translate(403.9555555555556,329.45310606135456)" fill="none" stroke="#4098b5" stroke-width="1"/><path class="point" d="M2.8209479177387813,0A2.8209479177387813,2.8209479177387813,0,1,1,-2.8209479177387813,0A2.8209479177387813,2.8209479177387813,0,1,1,2.8209479177387813,0" transform="translate(403.9555555555556,369.92193132274735)" fill="none" stroke="#4098b5" stroke-width="1"/><path class="point" d="M2.8209479177387813,0A2.8209479177387813,2.8209479177387813,0,1,1,-2.8209479177387813,0A2.8209479177387813,2.8209479177387813,0,1,1,2.8209479177387813,0" transform="translate(403.9555555555556,290.0905147230054)" fill="none" stroke="#4098b5" stroke-width="1"/><path class="point" d="M2.8209479177387813,0A2.8209479177387813,2.8209479177387813,0,1,1,-2.8209479177387813,0A2.8209479177387813,2.8209479177387813,0,1,1,2.8209479177387813,0" transform="translate(403.9555555555556,294.15524380942804)" fill="none" stroke="#4098b5" stroke-width="1"/><path class="point" d="M2.8209479177387813,0A2.8209479177387813,2.8209479177387813,0,1,1,-2.8209479177387813,0A2.8209479177387813,2.8209479177387813,0,1,1,2.8209479177387813,0" transform="translate(403.9555555555556,327.21562116466123)" fill="none" stroke="#4098b5" stroke-width="1"/><path class="point" d="M2.8209479177387813,0A2.8209479177387813,2.8209479177387813,0,1,1,-2.8209479177387813,0A2.8209479177387813,2.8209479177387813,0,1,1,2.8209479177387813,0" transform="translate(403.9555555555556,292.17587327949104)" fill="none" stroke="#4098b5" stroke-width="1"/><path class="point" d="M2.8209479177387813,0A2.8209479177387813,2.8209479177387813,0,1,1,-2.8209479177387813,0A2.8209479177387813,2.8209479177387813,0,1,1,2.8209479177387813,0" transform="translate(403.9555555555556,316.9928681025565)" fill="none" stroke="#4098b5" stroke-width="1"/><path class="point" d="M2.8209479177387813,0A2.8209479177387813,2.8209479177387813,0,1,1,-2.8209479177387813,0A2.8209479177387813,2.8209479177387813,0,1,1,2.8209479177387813,0" transform="translate(403.9555555555556,339.8770291201037)" fill="none" stroke="#4098b5" stroke-width="1"/><path class="point" d="M2.8209479177387813,0A2.8209479177387813,2.8209479177387813,0,1,1,-2.8209479177387813,0A2.8209479177387813,2.8209479177387813,0,1,1,2.8209479177387813,0" transform="translate(471.73333333333335,325.9903057084065)" fill="none" stroke="#4098b5" stroke-width="1"/><path class="point" d="M2.8209479177387813,0A2.8209479177387813,2.8209479177387813,0,1,1,-2.8209479177387813,0A2.8209479177387813,2.8209479177387813,0,1,1,2.8209479177387813,0" transform="translate(471.73333333333335,300.5799045086773)" fill="none" stroke="#4098b5" stroke-width="1"/><path class="point" d="M2.8209479177387813,0A2.8209479177387813,2.8209479177387813,0,1,1,-2.8209479177387813,0A2.8209479177387813,2.8209479177387813,0,1,1,2.8209479177387813,0" transform="translate(471.73333333333335,333.2179917814742)" fill="none" stroke="#4098b5" stroke-width="1"/><path class="point" d="M2.8209479177387813,0A2.8209479177387813,2.8209479177387813,0,1,1,-2.8209479177387813,0A2.8209479177387813,2.8209479177387813,0,1,1,2.8209479177387813,0" transform="translate(471.73333333333335,341.74437404635415)" fill="none" stroke="#4098b5" stroke-width="1"/><path class="point" d="M2.8209479177387813,0A2.8209479177387813,2.8209479177387813,0,1,1,-2.8209479177387813,0A2.8209479177387813,2.8209479177387813,0,1,1,2.8209479177387813,0" transform="translate(471.73333333333335,333.98391752469564)" fill="none" stroke="#4098b5" stroke-width="1"/><path class="point" d="M2.8209479177387813,0A2.8209479177387813,2.8209479177387813,0,1,1,-2.8209479177387813,0A2.8209479177387813,2.8209479177387813,0,1,1,2.8209479177387813,0" transform="translate(471.73333333333335,313.1920061252588)" fill="none" stroke="#4098b5" stroke-width="1"/><path class="point" d="M2.8209479177387813,0A2.8209479177387813,2.8209479177387813,0,1,1,-2.8209479177387813,0A2.8209479177387813,2.8209479177387813,0,1,1,2.8209479177387813,0" transform="translate(471.73333333333335,319.59427962965816)" fill="none" stroke="#4098b5" stroke-width="1"/><path class="point" d="M2.8209479177387813,0A2.8209479177387813,2.8209479177387813,0,1,1,-2.8209479177387813,0A2.8209479177387813,2.8209479177387813,0,1,1,2.8209479177387813,0" transform="translate(471.73333333333335,323.17132931252974)" fill="none" stroke="#4098b5" stroke-width="1"/><path class="point" d="M2.8209479177387813,0A2.8209479177387813,2.8209479177387813,0,1,1,-2.8209479177387813,0A2.8209479177387813,2.8209479177387813,0,1,1,2.8209479177387813,0" transform="translate(471.73333333333335,279.9057228913666)" fill="none" stroke="#4098b5" stroke-width="1"/><path class="point" d="M2.8209479177387813,0A2.8209479177387813,2.8209479177387813,0,1,1,-2.8209479177387813,0A2.8209479177387813,2.8209479177387813,0,1,1,2.8209479177387813,0" transform="translate(471.73333333333335,353.3554975408877)" fill="none" stroke="#4098b5" stroke-width="1"/><path class="point" d="M2.8209479177387813,0A2.8209479177387813,2.8209479177387813,0,1,1,-2.8209479177387813,0A2.8209479177387813,2.8209479177387813,0,1,1,2.8209479177387813,0" transform="translate(471.73333333333335,325.9903057084065)" fill="none" stroke="#4098b5" stroke-width="1"/><path class="point" d="M2.8209479177387813,0A2.8209479177387813,2.8209479177387813,0,1,1,-2.8209479177387813,0A2.8209479177387813,2.8209479177387813,0,1,1,2.8209479177387813,0" transform="translate(471.73333333333335,300.5799045086773)" fill="none" stroke="#4098b5" stroke-width="1"/><path class="point" d="M2.8209479177387813,0A2.8209479177387813,2.8209479177387813,0,1,1,-2.8209479177387813,0A2.8209479177387813,2.8209479177387813,0,1,1,2.8209479177387813,0" transform="translate(471.73333333333335,333.2179917814742)" fill="none" stroke="#4098b5" stroke-width="1"/><path class="point" d="M2.8209479177387813,0A2.8209479177387813,2.8209479177387813,0,1,1,-2.8209479177387813,0A2.8209479177387813,2.8209479177387813,0,1,1,2.8209479177387813,0" transform="translate(471.73333333333335,341.74437404635415)" fill="none" stroke="#4098b5" stroke-width="1"/><path class="point" d="M2.8209479177387813,0A2.8209479177387813,2.8209479177387813,0,1,1,-2.8209479177387813,0A2.8209479177387813,2.8209479177387813,0,1,1,2.8209479177387813,0" transform="translate(471.73333333333335,333.98391752469564)" fill="none" stroke="#4098b5" stroke-width="1"/><path class="point" d="M2.8209479177387813,0A2.8209479177387813,2.8209479177387813,0,1,1,-2.8209479177387813,0A2.8209479177387813,2.8209479177387813,0,1,1,2.8209479177387813,0" transform="translate(471.73333333333335,313.1920061252588)" fill="none" stroke="#4098b5" stroke-width="1"/><path class="point" d="M2.8209479177387813,0A2.8209479177387813,2.8209479177387813,0,1,1,-2.8209479177387813,0A2.8209479177387813,2.8209479177387813,0,1,1,2.8209479177387813,0" transform="translate(471.73333333333335,319.59427962965816)" fill="none" stroke="#4098b5" stroke-width="1"/><path class="point" d="M2.8209479177387813,0A2.8209479177387813,2.8209479177387813,0,1,1,-2.8209479177387813,0A2.8209479177387813,2.8209479177387813,0,1,1,2.8209479177387813,0" transform="translate(471.73333333333335,323.17132931252974)" fill="none" stroke="#4098b5" stroke-width="1"/><path class="point" d="M2.8209479177387813,0A2.8209479177387813,2.8209479177387813,0,1,1,-2.8209479177387813,0A2.8209479177387813,2.8209479177387813,0,1,1,2.8209479177387813,0" transform="translate(471.73333333333335,279.9057228913666)" fill="none" stroke="#4098b5" stroke-width="1"/><path class="point" d="M2.8209479177387813,0A2.8209479177387813,2.8209479177387813,0,1,1,-2.8209479177387813,0A2.8209479177387813,2.8209479177387813,0,1,1,2.8209479177387813,0" transform="translate(471.73333333333335,353.3554975408877)" fill="none" stroke="#4098b5" stroke-width="1"/><path class="point" d="M2.8209479177387813,0A2.8209479177387813,2.8209479177387813,0,1,1,-2.8209479177387813,0A2.8209479177387813,2.8209479177387813,0,1,1,2.8209479177387813,0" transform="translate(539.5111111111112,338.3085142497267)" fill="none" stroke="#4098b5" stroke-width="1"/><path class="point" d="M2.8209479177387813,0A2.8209479177387813,2.8209479177387813,0,1,1,-2.8209479177387813,0A2.8209479177387813,2.8209479177387813,0,1,1,2.8209479177387813,0" transform="translate(539.5111111111112,340.74992672518107)" fill="none" stroke="#4098b5" stroke-width="1"/><path class="point" d="M2.8209479177387813,0A2.8209479177387813,2.8209479177387813,0,1,1,-2.8209479177387813,0A2.8209479177387813,2.8209479177387813,0,1,1,2.8209479177387813,0" transform="translate(539.5111111111112,335.1625336736977)" fill="none" stroke="#4098b5" stroke-width="1"/><path class="point" d="M2.8209479177387813,0A2.8209479177387813,2.8209479177387813,0,1,1,-2.8209479177387813,0A2.8209479177387813,2.8209479177387813,0,1,1,2.8209479177387813,0" transform="translate(539.5111111111112,318.7376292337295)" fill="none" stroke="#4098b5" stroke-width="1"/><path class="point" d="M2.8209479177387813,0A2.8209479177387813,2.8209479177387813,0,1,1,-2.8209479177387813,0A2.8209479177387813,2.8209479177387813,0,1,1,2.8209479177387813,0" transform="translate(539.5111111111112,296.2016604684643)" fill="none" stroke="#4098b5" stroke-width="1"/><path class="point" d="M2.8209479177387813,0A2.8209479177387813,2.8209479177387813,0,1,1,-2.8209479177387813,0A2.8209479177387813,2.8209479177387813,0,1,1,2.8209479177387813,0" transform="translate(539.5111111111112,343.275983208839)" fill="none" stroke="#4098b5" stroke-width="1"/><path class="point" d="M2.8209479177387813,0A2.8209479177387813,2.8209479177387813,0,1,1,-2.8209479177387813,0A2.8209479177387813,2.8209479177387813,0,1,1,2.8209479177387813,0" transform="translate(539.5111111111112,323.77672937279374)" fill="none" stroke="#4098b5" stroke-width="1"/><path class="point" d="M2.8209479177387813,0A2.8209479177387813,2.8209479177387813,0,1,1,-2.8209479177387813,0A2.8209479177387813,2.8209479177387813,0,1,1,2.8209479177387813,0" transform="translate(539.5111111111112,324.4129454250526)" fill="none" stroke="#4098b5" stroke-width="1"/><path class="point" d="M2.8209479177387813,0A2.8209479177387813,2.8209479177387813,0,1,1,-2.8209479177387813,0A2.8209479177387813,2.8209479177387813,0,1,1,2.8209479177387813,0" transform="translate(539.5111111111112,286.9955249533434)" fill="none" stroke="#4098b5" stroke-width="1"/><path class="point" d="M2.8209479177387813,0A2.8209479177387813,2.8209479177387813,0,1,1,-2.8209479177387813,0A2.8209479177387813,2.8209479177387813,0,1,1,2.8209479177387813,0" transform="translate(539.5111111111112,340.91379784609916)" fill="none" stroke="#4098b5" stroke-width="1"/><path class="point" d="M2.8209479177387813,0A2.8209479177387813,2.8209479177387813,0,1,1,-2.8209479177387813,0A2.8209479177387813,2.8209479177387813,0,1,1,2.8209479177387813,0" transform="translate(539.5111111111112,338.3085142497267)" fill="none" stroke="#4098b5" stroke-width="1"/><path class="point" d="M2.8209479177387813,0A2.8209479177387813,2.8209479177387813,0,1,1,-2.8209479177387813,0A2.8209479177387813,2.8209479177387813,0,1,1,2.8209479177387813,0" transform="translate(539.5111111111112,340.74992672518107)" fill="none" stroke="#4098b5" stroke-width="1"/><path class="point" d="M2.8209479177387813,0A2.8209479177387813,2.8209479177387813,0,1,1,-2.8209479177387813,0A2.8209479177387813,2.8209479177387813,0,1,1,2.8209479177387813,0" transform="translate(539.5111111111112,335.1625336736977)" fill="none" stroke="#4098b5" stroke-width="1"/><path class="point" d="M2.8209479177387813,0A2.8209479177387813,2.8209479177387813,0,1,1,-2.8209479177387813,0A2.8209479177387813,2.8209479177387813,0,1,1,2.8209479177387813,0" transform="translate(539.5111111111112,318.7376292337295)" fill="none" stroke="#4098b5" stroke-width="1"/><path class="point" d="M2.8209479177387813,0A2.8209479177387813,2.8209479177387813,0,1,1,-2.8209479177387813,0A2.8209479177387813,2.8209479177387813,0,1,1,2.8209479177387813,0" transform="translate(539.5111111111112,296.2016604684643)" fill="none" stroke="#4098b5" stroke-width="1"/><path class="point" d="M2.8209479177387813,0A2.8209479177387813,2.8209479177387813,0,1,1,-2.8209479177387813,0A2.8209479177387813,2.8209479177387813,0,1,1,2.8209479177387813,0" transform="translate(539.5111111111112,343.275983208839)" fill="none" stroke="#4098b5" stroke-width="1"/><path class="point" d="M2.8209479177387813,0A2.8209479177387813,2.8209479177387813,0,1,1,-2.8209479177387813,0A2.8209479177387813,2.8209479177387813,0,1,1,2.8209479177387813,0" transform="translate(539.5111111111112,323.77672937279374)" fill="none" stroke="#4098b5" stroke-width="1"/><path class="point" d="M2.8209479177387813,0A2.8209479177387813,2.8209479177387813,0,1,1,-2.8209479177387813,0A2.8209479177387813,2.8209479177387813,0,1,1,2.8209479177387813,0" transform="translate(539.5111111111112,324.4129454250526)" fill="none" stroke="#4098b5" stroke-width="1"/><path class="point" d="M2.8209479177387813,0A2.8209479177387813,2.8209479177387813,0,1,1,-2.8209479177387813,0A2.8209479177387813,2.8209479177387813,0,1,1,2.8209479177387813,0" transform="translate(539.5111111111112,286.9955249533434)" fill="none" stroke="#4098b5" stroke-width="1"/><path class="point" d="M2.8209479177387813,0A2.8209479177387813,2.8209479177387813,0,1,1,-2.8209479177387813,0A2.8209479177387813,2.8209479177387813,0,1,1,2.8209479177387813,0" transform="translate(539.5111111111112,340.91379784609916)" fill="none" stroke="#4098b5" stroke-width="1"/><path class="point" d="M2.8209479177387813,0A2.8209479177387813,2.8209479177387813,0,1,1,-2.8209479177387813,0A2.8209479177387813,2.8209479177387813,0,1,1,2.8209479177387813,0" transform="translate(607.2888888888889,334.70079656434814)" fill="none" stroke="#4098b5" stroke-width="1"/><path class="point" d="M2.8209479177387813,0A2.8209479177387813,2.8209479177387813,0,1,1,-2.8209479177387813,0A2.8209479177387813,2.8209479177387813,0,1,1,2.8209479177387813,0" transform="translate(607.2888888888889,314.5371924360079)" fill="none" stroke="#4098b5" stroke-width="1"/><path class="point" d="M2.8209479177387813,0A2.8209479177387813,2.8209479177387813,0,1,1,-2.8209479177387813,0A2.8209479177387813,2.8209479177387813,0,1,1,2.8209479177387813,0" transform="translate(607.2888888888889,320.57183287355736)" fill="none" stroke="#4098b5" stroke-width="1"/><path class="point" d="M2.8209479177387813,0A2.8209479177387813,2.8209479177387813,0,1,1,-2.8209479177387813,0A2.8209479177387813,2.8209479177387813,0,1,1,2.8209479177387813,0" transform="translate(607.2888888888889,336.8570556595594)" fill="none" stroke="#4098b5" stroke-width="1"/><path class="point" d="M2.8209479177387813,0A2.8209479177387813,2.8209479177387813,0,1,1,-2.8209479177387813,0A2.8209479177387813,2.8209479177387813,0,1,1,2.8209479177387813,0" transform="translate(607.2888888888889,374.52335562159834)" fill="none" stroke="#4098b5" stroke-width="1"/><path class="point" d="M2.8209479177387813,0A2.8209479177387813,2.8209479177387813,0,1,1,-2.8209479177387813,0A2.8209479177387813,2.8209479177387813,0,1,1,2.8209479177387813,0" transform="translate(607.2888888888889,345.8152598544278)" fill="none" stroke="#4098b5" stroke-width="1"/><path class="point" d="M2.8209479177387813,0A2.8209479177387813,2.8209479177387813,0,1,1,-2.8209479177387813,0A2.8209479177387813,2.8209479177387813,0,1,1,2.8209479177387813,0" transform="translate(607.2888888888889,330.24462945564846)" fill="none" stroke="#4098b5" stroke-width="1"/><path class="point" d="M2.8209479177387813,0A2.8209479177387813,2.8209479177387813,0,1,1,-2.8209479177387813,0A2.8209479177387813,2.8209479177387813,0,1,1,2.8209479177387813,0" transform="translate(607.2888888888889,330.6472020153613)" fill="none" stroke="#4098b5" stroke-width="1"/><path class="point" d="M2.8209479177387813,0A2.8209479177387813,2.8209479177387813,0,1,1,-2.8209479177387813,0A2.8209479177387813,2.8209479177387813,0,1,1,2.8209479177387813,0" transform="translate(607.2888888888889,338.2716438158355)" fill="none" stroke="#4098b5" stroke-width="1"/><path class="point" d="M2.8209479177387813,0A2.8209479177387813,2.8209479177387813,0,1,1,-2.8209479177387813,0A2.8209479177387813,2.8209479177387813,0,1,1,2.8209479177387813,0" transform="translate(607.2888888888889,325.24374206889286)" fill="none" stroke="#4098b5" stroke-width="1"/><path class="point" d="M2.8209479177387813,0A2.8209479177387813,2.8209479177387813,0,1,1,-2.8209479177387813,0A2.8209479177387813,2.8209479177387813,0,1,1,2.8209479177387813,0" transform="translate(607.2888888888889,334.70079656434814)" fill="none" stroke="#4098b5" stroke-width="1"/><path class="point" d="M2.8209479177387813,0A2.8209479177387813,2.8209479177387813,0,1,1,-2.8209479177387813,0A2.8209479177387813,2.8209479177387813,0,1,1,2.8209479177387813,0" transform="translate(607.2888888888889,314.5371924360079)" fill="none" stroke="#4098b5" stroke-width="1"/><path class="point" d="M2.8209479177387813,0A2.8209479177387813,2.8209479177387813,0,1,1,-2.8209479177387813,0A2.8209479177387813,2.8209479177387813,0,1,1,2.8209479177387813,0" transform="translate(607.2888888888889,320.57183287355736)" fill="none" stroke="#4098b5" stroke-width="1"/><path class="point" d="M2.8209479177387813,0A2.8209479177387813,2.8209479177387813,0,1,1,-2.8209479177387813,0A2.8209479177387813,2.8209479177387813,0,1,1,2.8209479177387813,0" transform="translate(607.2888888888889,336.8570556595594)" fill="none" stroke="#4098b5" stroke-width="1"/><path class="point" d="M2.8209479177387813,0A2.8209479177387813,2.8209479177387813,0,1,1,-2.8209479177387813,0A2.8209479177387813,2.8209479177387813,0,1,1,2.8209479177387813,0" transform="translate(607.2888888888889,374.52335562159834)" fill="none" stroke="#4098b5" stroke-width="1"/><path class="point" d="M2.8209479177387813,0A2.8209479177387813,2.8209479177387813,0,1,1,-2.8209479177387813,0A2.8209479177387813,2.8209479177387813,0,1,1,2.8209479177387813,0" transform="translate(607.2888888888889,345.8152598544278)" fill="none" stroke="#4098b5" stroke-width="1"/><path class="point" d="M2.8209479177387813,0A2.8209479177387813,2.8209479177387813,0,1,1,-2.8209479177387813,0A2.8209479177387813,2.8209479177387813,0,1,1,2.8209479177387813,0" transform="translate(607.2888888888889,330.24462945564846)" fill="none" stroke="#4098b5" stroke-width="1"/><path class="point" d="M2.8209479177387813,0A2.8209479177387813,2.8209479177387813,0,1,1,-2.8209479177387813,0A2.8209479177387813,2.8209479177387813,0,1,1,2.8209479177387813,0" transform="translate(607.2888888888889,330.6472020153613)" fill="none" stroke="#4098b5" stroke-width="1"/><path class="point" d="M2.8209479177387813,0A2.8209479177387813,2.8209479177387813,0,1,1,-2.8209479177387813,0A2.8209479177387813,2.8209479177387813,0,1,1,2.8209479177387813,0" transform="translate(607.2888888888889,338.2716438158355)" fill="none" stroke="#4098b5" stroke-width="1"/><path class="point" d="M2.8209479177387813,0A2.8209479177387813,2.8209479177387813,0,1,1,-2.8209479177387813,0A2.8209479177387813,2.8209479177387813,0,1,1,2.8209479177387813,0" transform="translate(607.2888888888889,325.24374206889286)" fill="none" stroke="#4098b5" stroke-width="1"/><path class="line" d="M0,311.25341848121474L66.42222222222222,339.96468464478346L134.2,344.2513448209511L201.9777777777778,363.3540813455756L269.7555555555556,357.7258834689732L336.17777777777775,367.75647478228655L403.9555555555556,377.1993075850535L471.73333333333335,378.0874734089712L539.5111111111112,380.78868015972864L607.2888888888889,378.7496381345246" fill="none" stroke="#4cb6da" stroke-width="5" stroke-dasharray="20 5" clip-path="url(#clip-path)"/><path class="line" d="M0,242.74492219663688L66.42222222222222,264.13993741640576L134.2,321.92664507191273L201.9777777777778,319.24131581115785L269.7555555555556,308.3832475993802L336.17777777777775,336.668840936547L403.9555555555556,323.9700511124855L471.73333333333335,322.4735329069307L539.5111111111112,324.85352451569275L607.2888888888889,335.14127103652373" fill="none" stroke="#4098b5" stroke-width="10" stroke-dasharray="none" clip-path="url(#clip-path)"/><g class="y-axis" fill="none" font-size="50px" font-family="sans-serif" text-anchor="end"><path class="domain" stroke="currentColor" d="M-3,652.5H0.5V0.5H-3"/></g><g class="x-axis" transform="translate(0,652)" fill="none" font-size="50px" font-family="sans-serif" text-anchor="middle"><path class="domain" stroke="currentColor" d="M0.5,0.5H610.5"/><g class="tick" opacity="1" transform="translate(68.27777777777777,0)"><line stroke="currentColor" y2="0"/><text fill="currentColor" y="10" dy="0.71em">100</text></g><g class="tick" opacity="1" transform="translate(339.3888888888889,0)"><line stroke="currentColor" y2="0"/><text fill="currentColor" y="10" dy="0.71em">300</text></g><g class="tick" opacity="1" transform="translate(610.5,0)"><line stroke="currentColor" y2="0"/><text fill="currentColor" y="10" dy="0.71em">500</text></g></g></g><rect x="0" y="0" width="610" height="652" transform="translate(150,60)" style="fill: none; stroke: black; stroke-width: 1px;"/></svg>